<?xml version="1.0" standalone="no"?>
<!DOCTYPE svg PUBLIC "-//W3C//DTD SVG 1.1//EN" "http://www.w3.org/Graphics/SVG/1.1/DTD/svg11.dtd">
<svg width="232" height="232" viewBox="-116 -116 232 232" xmlns="http://www.w3.org/2000/svg" version="1.1">
<title>OpenSCAD Model</title>
<path d="
M 116,-116 L -116,-116 L -116,116 L 116,116 z
M 88.7956,-104.125 L 88.7956,-111.677 L 90.3956,-111.677 L 90.3956,-104.125 z
M 78.7724,-104.157 L 78.7724,-108.669 L 77.6424,-108.669 L 77.6424,-109.885 L 78.7724,-109.885 L 78.7711,-110.015
 L 78.7642,-110.084 L 78.7513,-110.146 L 78.7324,-110.201 L 78.7076,-110.248 L 78.6877,-110.276 L 78.6653,-110.301
 L 78.6401,-110.322 L 78.6123,-110.34 L 78.5339,-110.375 L 78.43,-110.407 L 78.3158,-110.426 L 78.1912,-110.434
 L 77.6534,-110.434 L 77.6534,-111.677 L 78.8788,-111.675 L 79.0714,-111.665 L 79.2497,-111.645 L 79.4137,-111.615
 L 79.5346,-111.585 L 79.6467,-111.548 L 79.7509,-111.505 L 79.847,-111.455 L 79.9351,-111.398 L 80.0153,-111.334
 L 80.0874,-111.263 L 80.1523,-111.186 L 80.2107,-111.101 L 80.2626,-111.01 L 80.3079,-110.911 L 80.3466,-110.806
 L 80.3859,-110.664 L 80.4163,-110.512 L 80.442,-110.314 L 80.4558,-110.1 L 80.4584,-109.949 L 81.2264,-109.949
 L 81.2264,-108.669 L 80.4584,-108.669 L 80.4584,-104.157 z
M 74.1995,-104.095 L 73.9752,-104.114 L 73.7546,-104.152 L 73.7303,-104.158 L 73.7303,-105.439 L 74.2223,-105.396
 L 74.3059,-105.399 L 74.3818,-105.408 L 74.4501,-105.424 L 74.5107,-105.446 L 74.5468,-105.464 L 74.5795,-105.485
 L 74.6089,-105.508 L 74.6348,-105.534 L 74.6573,-105.563 L 74.6939,-105.629 L 74.7236,-105.702 L 74.7467,-105.784
 L 74.7662,-105.896 L 74.7755,-106.021 L 74.7763,-108.669 L 73.7103,-108.669 L 73.7103,-109.949 L 74.7983,-109.949
 L 74.7983,-111.174 L 76.4623,-110.314 L 76.4623,-109.949 L 77.2303,-109.949 L 77.2303,-108.669 L 76.4623,-108.669
 L 76.4616,-105.633 L 76.4561,-105.494 L 76.4451,-105.362 L 76.4285,-105.237 L 76.4064,-105.118 L 76.3788,-105.007
 L 76.3457,-104.902 L 76.3071,-104.804 L 76.2857,-104.757 L 76.2629,-104.713 L 76.2388,-104.67 L 76.2133,-104.628
 L 76.1863,-104.589 L 76.1581,-104.551 L 76.1284,-104.515 L 76.0973,-104.48 L 76.0646,-104.447 L 76.03,-104.416
 L 75.9936,-104.386 L 75.9554,-104.357 L 75.9153,-104.33 L 75.8734,-104.304 L 75.8297,-104.28 L 75.7842,-104.258
 L 75.7368,-104.236 L 75.6876,-104.217 L 75.5837,-104.182 L 75.4724,-104.152 L 75.3539,-104.129 L 75.228,-104.111
 L 75.0948,-104.1 L 74.9543,-104.094 z
M 108.213,-104.095 L 107.989,-104.114 L 107.768,-104.152 L 107.744,-104.158 L 107.744,-105.439 L 108.236,-105.396
 L 108.32,-105.399 L 108.395,-105.408 L 108.464,-105.424 L 108.524,-105.446 L 108.56,-105.464 L 108.593,-105.485
 L 108.623,-105.508 L 108.648,-105.534 L 108.671,-105.563 L 108.708,-105.629 L 108.737,-105.702 L 108.76,-105.784
 L 108.78,-105.896 L 108.789,-106.021 L 108.79,-108.669 L 107.724,-108.669 L 107.724,-109.949 L 108.812,-109.949
 L 108.812,-111.174 L 110.476,-110.314 L 110.476,-109.949 L 111.244,-109.949 L 111.244,-108.669 L 110.476,-108.669
 L 110.475,-105.633 L 110.47,-105.494 L 110.459,-105.362 L 110.442,-105.237 L 110.42,-105.118 L 110.393,-105.007
 L 110.359,-104.902 L 110.321,-104.804 L 110.299,-104.757 L 110.277,-104.713 L 110.252,-104.67 L 110.227,-104.628
 L 110.2,-104.589 L 110.172,-104.551 L 110.142,-104.515 L 110.111,-104.48 L 110.078,-104.447 L 110.044,-104.416
 L 110.007,-104.386 L 109.969,-104.357 L 109.929,-104.33 L 109.887,-104.304 L 109.843,-104.28 L 109.798,-104.258
 L 109.75,-104.236 L 109.701,-104.217 L 109.597,-104.182 L 109.486,-104.152 L 109.368,-104.129 L 109.242,-104.111
 L 109.109,-104.1 L 108.968,-104.094 z
M 96.3574,-103.993 L 96.2751,-104.003 L 96.1948,-104.017 L 96.1163,-104.035 L 96.0399,-104.057 L 95.9653,-104.083
 L 95.8927,-104.113 L 95.822,-104.147 L 95.7533,-104.185 L 95.6865,-104.227 L 95.5898,-104.296 L 95.4972,-104.371
 L 95.4085,-104.452 L 95.3238,-104.538 L 95.2431,-104.63 L 95.1663,-104.727 L 95.0936,-104.83 L 95.0027,-104.975
 L 94.9192,-105.129 L 94.8434,-105.289 L 94.7755,-105.458 L 94.7154,-105.633 L 94.663,-105.817 L 94.6185,-106.007
 L 94.5737,-106.247 L 94.5411,-106.49 L 94.5205,-106.735 L 94.512,-106.981 L 94.5155,-107.229 L 94.5306,-107.475
 L 94.5574,-107.718 L 94.5957,-107.959 L 94.6458,-108.199 L 94.6946,-108.384 L 94.7516,-108.562 L 94.8167,-108.732
 L 94.8898,-108.895 L 94.9711,-109.05 L 95.0374,-109.162 L 95.1079,-109.268 L 95.1827,-109.369 L 95.2617,-109.464
 L 95.3449,-109.554 L 95.4324,-109.638 L 95.524,-109.717 L 95.6199,-109.79 L 95.6861,-109.835 L 95.7542,-109.877
 L 95.8243,-109.915 L 95.8964,-109.949 L 95.9706,-109.979 L 96.0467,-110.005 L 96.1249,-110.027 L 96.205,-110.045
 L 96.2872,-110.059 L 96.3714,-110.069 L 96.4576,-110.075 L 96.5996,-110.075 L 96.7122,-110.062 L 96.852,-110.031
 L 97.2018,-109.9 L 97.5638,-109.704 L 97.5638,-108.426 L 97.3426,-108.575 L 97.128,-108.683 L 97.0182,-108.72
 L 96.9161,-108.738 L 96.8589,-108.739 L 96.7982,-108.731 L 96.7404,-108.716 L 96.6854,-108.692 L 96.6334,-108.659
 L 96.5842,-108.619 L 96.538,-108.569 L 96.4946,-108.511 L 96.441,-108.423 L 96.3812,-108.302 L 96.3293,-108.169
 L 96.2856,-108.024 L 96.2435,-107.836 L 96.2073,-107.601 L 96.1848,-107.353 L 96.1759,-107.092 L 96.1816,-106.833
 L 96.1989,-106.619 L 96.2279,-106.414 L 96.2683,-106.217 L 96.3105,-106.063 L 96.3608,-105.921 L 96.4193,-105.79
 L 96.4719,-105.694 L 96.5296,-105.606 L 96.5758,-105.548 L 96.6245,-105.499 L 96.6758,-105.458 L 96.7295,-105.426
 L 96.7858,-105.402 L 96.8445,-105.387 L 96.9058,-105.379 L 96.9964,-105.384 L 97.1116,-105.409 L 97.4294,-105.544
 L 97.6058,-105.659 L 97.6049,-104.255 L 96.9341,-104.047 L 96.6577,-103.993 L 96.6303,-103.99 L 96.4416,-103.987
 z
M 84.5904,-103.935 L 84.3664,-103.946 L 84.155,-103.967 L 83.9562,-103.999 L 83.8061,-104.031 L 83.6285,-104.081
 L 83.4923,-104.128 L 83.3613,-104.182 L 83.2355,-104.243 L 83.1149,-104.311 L 82.9995,-104.385 L 82.8883,-104.468
 L 82.7811,-104.558 L 82.6779,-104.656 L 82.5785,-104.761 L 82.4599,-104.904 L 82.3462,-105.059 L 82.2147,-105.263
 L 82.0884,-105.484 L 81.9675,-105.723 L 81.9479,-105.765 L 83.5949,-105.883 L 83.66,-105.783 L 83.7294,-105.691
 L 83.8031,-105.607 L 83.8811,-105.532 L 83.9633,-105.465 L 84.0499,-105.407 L 84.1183,-105.37 L 84.1901,-105.338
 L 84.2654,-105.312 L 84.3442,-105.291 L 84.4546,-105.272 L 84.5713,-105.262 L 84.696,-105.262 L 84.819,-105.271
 L 84.935,-105.289 L 85.0438,-105.317 L 85.1208,-105.343 L 85.1938,-105.374 L 85.285,-105.424 L 85.3904,-105.495
 L 85.4867,-105.575 L 85.574,-105.664 L 85.6521,-105.761 L 85.7211,-105.866 L 85.7813,-105.979 L 85.833,-106.098
 L 85.8762,-106.225 L 85.9109,-106.359 L 85.9505,-106.58 L 85.9735,-106.802 L 85.9794,-107.051 L 85.9664,-107.294
 L 85.9307,-107.563 L 85.8975,-107.723 L 85.8528,-107.875 L 85.7968,-108.018 L 85.7292,-108.152 L 85.6773,-108.237
 L 85.6193,-108.315 L 85.5551,-108.389 L 85.4848,-108.456 L 85.4084,-108.518 L 85.3259,-108.575 L 85.2594,-108.613
 L 85.189,-108.646 L 85.1147,-108.673 L 85.0363,-108.695 L 84.9256,-108.717 L 84.8078,-108.728 L 84.7149,-108.731
 L 84.629,-108.729 L 84.5467,-108.723 L 84.468,-108.712 L 84.3929,-108.697 L 84.3214,-108.678 L 84.2535,-108.655
 L 84.1891,-108.628 L 84.1283,-108.596 L 84.0712,-108.561 L 84.0176,-108.521 L 83.9675,-108.477 L 83.8986,-108.403
 L 83.8355,-108.324 L 83.7782,-108.237 L 83.7269,-108.145 L 83.6813,-108.045 L 83.6417,-107.94 L 83.6078,-107.828
 L 83.5799,-107.709 L 85.0629,-107.709 L 85.1396,-107.275 L 85.1391,-106.875 L 85.0949,-106.493 L 81.8839,-106.493
 L 81.8852,-106.858 L 81.892,-107.032 L 81.9047,-107.203 L 81.9232,-107.371 L 81.9476,-107.536 L 81.9778,-107.699
 L 82.0139,-107.859 L 82.0559,-108.016 L 82.1038,-108.169 L 82.1577,-108.318 L 82.2177,-108.461 L 82.2838,-108.599
 L 82.3559,-108.732 L 82.4341,-108.86 L 82.5184,-108.982 L 82.6086,-109.1 L 82.6721,-109.175 L 82.7385,-109.247
 L 82.8077,-109.316 L 82.8798,-109.383 L 82.9547,-109.446 L 83.0325,-109.507 L 83.1131,-109.565 L 83.2393,-109.646
 L 83.3719,-109.721 L 83.4639,-109.767 L 83.5587,-109.81 L 83.6565,-109.849 L 83.7572,-109.884 L 83.8608,-109.915
 L 83.9673,-109.943 L 84.0768,-109.966 L 84.1891,-109.986 L 84.3044,-110.001 L 84.4226,-110.013 L 84.5437,-110.021
 L 84.7309,-110.025 L 84.9053,-110.021 L 85.075,-110.009 L 85.2399,-109.988 L 85.4,-109.959 L 85.504,-109.935
 L 85.6059,-109.908 L 85.7057,-109.877 L 85.8034,-109.842 L 85.8989,-109.804 L 86.0381,-109.74 L 86.1718,-109.67
 L 86.3001,-109.594 L 86.4229,-109.512 L 86.5403,-109.424 L 86.6523,-109.329 L 86.7588,-109.229 L 86.8599,-109.123
 L 86.955,-109.011 L 87.0443,-108.895 L 87.1278,-108.773 L 87.2054,-108.646 L 87.2771,-108.515 L 87.343,-108.378
 L 87.4031,-108.237 L 87.4572,-108.091 L 87.5047,-107.941 L 87.5452,-107.788 L 87.5787,-107.632 L 87.6053,-107.473
 L 87.625,-107.311 L 87.6377,-107.146 L 87.6435,-106.978 L 87.6424,-106.806 L 87.6345,-106.636 L 87.6198,-106.47
 L 87.5984,-106.308 L 87.5701,-106.15 L 87.5352,-105.996 L 87.4934,-105.846 L 87.4449,-105.7 L 87.39,-105.558
 L 87.329,-105.422 L 87.262,-105.292 L 87.189,-105.167 L 87.11,-105.047 L 87.025,-104.933 L 86.9339,-104.824
 L 86.8369,-104.721 L 86.734,-104.624 L 86.6255,-104.533 L 86.5114,-104.448 L 86.3915,-104.368 L 86.2659,-104.295
 L 86.1347,-104.228 L 85.9978,-104.167 L 85.8554,-104.112 L 85.7085,-104.065 L 85.5569,-104.024 L 85.4008,-103.992
 L 85.2402,-103.966 L 85.075,-103.948 L 84.9052,-103.937 L 84.8476,-103.935 z
M 104.409,-105.255 L 104.561,-105.296 L 104.696,-105.344 L 104.791,-105.387 L 104.876,-105.436 L 104.95,-105.488
 L 105.03,-105.56 L 105.099,-105.638 L 105.158,-105.723 L 105.207,-105.813 L 105.245,-105.909 L 105.28,-106.032
 L 105.304,-106.163 L 105.318,-106.326 L 105.319,-106.399 L 105.309,-107.428 L 105.289,-107.699 L 105.258,-107.885
 L 105.212,-108.06 L 105.175,-108.163 L 105.13,-108.259 L 105.074,-108.347 L 105.009,-108.428 L 104.934,-108.501
 L 104.867,-108.554 L 104.791,-108.6 L 104.708,-108.638 L 104.616,-108.67 L 104.517,-108.696 L 104.409,-108.714
 L 104.409,-110.025 L 104.575,-110.021 L 104.736,-110.008 L 104.891,-109.988 L 104.992,-109.969 L 105.09,-109.947
 L 105.186,-109.922 L 105.279,-109.892 L 105.371,-109.859 L 105.46,-109.822 L 105.546,-109.782 L 105.671,-109.716
 L 105.79,-109.644 L 105.904,-109.565 L 106.012,-109.482 L 106.114,-109.392 L 106.211,-109.296 L 106.302,-109.195
 L 106.387,-109.088 L 106.467,-108.976 L 106.541,-108.859 L 106.61,-108.738 L 106.673,-108.612 L 106.731,-108.481
 L 106.783,-108.346 L 106.83,-108.207 L 106.871,-108.063 L 106.907,-107.916 L 106.946,-107.715 L 106.975,-107.51
 L 106.994,-107.299 L 107.004,-107.083 L 107.003,-106.833 L 106.99,-106.557 L 106.962,-106.286 L 106.928,-106.064
 L 106.894,-105.889 L 106.852,-105.718 L 106.802,-105.554 L 106.744,-105.395 L 106.678,-105.241 L 106.604,-105.093
 L 106.543,-104.986 L 106.478,-104.882 L 106.407,-104.783 L 106.332,-104.689 L 106.252,-104.599 L 106.167,-104.513
 L 106.077,-104.432 L 105.983,-104.356 L 105.883,-104.284 L 105.778,-104.218 L 105.667,-104.158 L 105.55,-104.105
 L 105.427,-104.058 L 105.298,-104.017 L 105.164,-103.982 L 104.891,-103.94 L 104.409,-103.922 z
M 103.082,-103.997 L 102.943,-104.028 L 102.808,-104.066 L 102.679,-104.109 L 102.556,-104.159 L 102.437,-104.214
 L 102.324,-104.276 L 102.216,-104.344 L 102.114,-104.417 L 102.016,-104.495 L 101.923,-104.578 L 101.835,-104.664
 L 101.751,-104.755 L 101.672,-104.85 L 101.598,-104.95 L 101.529,-105.053 L 101.444,-105.198 L 101.367,-105.348
 L 101.299,-105.504 L 101.239,-105.666 L 101.187,-105.834 L 101.144,-106.007 L 101.1,-106.229 L 101.067,-106.455
 L 101.045,-106.683 L 101.033,-106.915 L 101.031,-107.055 L 101.032,-107.169 L 101.036,-107.282 L 101.042,-107.393
 L 101.051,-107.501 L 101.061,-107.608 L 101.075,-107.712 L 101.091,-107.815 L 101.109,-107.916 L 101.129,-108.014
 L 101.152,-108.111 L 101.178,-108.206 L 101.206,-108.298 L 101.236,-108.389 L 101.269,-108.478 L 101.304,-108.565
 L 101.341,-108.65 L 101.381,-108.732 L 101.424,-108.813 L 101.469,-108.892 L 101.516,-108.969 L 101.566,-109.044
 L 101.618,-109.117 L 101.672,-109.188 L 101.729,-109.256 L 101.789,-109.322 L 101.85,-109.384 L 101.915,-109.444
 L 101.982,-109.5 L 102.051,-109.553 L 102.123,-109.603 L 102.197,-109.651 L 102.274,-109.695 L 102.353,-109.736
 L 102.434,-109.774 L 102.518,-109.809 L 102.605,-109.841 L 102.694,-109.87 L 102.785,-109.896 L 102.879,-109.918
 L 102.975,-109.938 L 103.074,-109.955 L 103.176,-109.969 L 103.279,-109.979 L 103.385,-109.987 L 103.494,-109.991
 L 103.605,-109.993 L 103.605,-108.725 L 103.458,-108.692 L 103.352,-108.66 L 103.257,-108.622 L 103.172,-108.579
 L 103.098,-108.53 L 103.018,-108.462 L 102.948,-108.386 L 102.888,-108.304 L 102.838,-108.214 L 102.798,-108.117
 L 102.761,-107.993 L 102.736,-107.861 L 102.72,-107.699 L 102.717,-107.601 L 102.727,-106.601 L 102.747,-106.325
 L 102.778,-106.134 L 102.823,-105.953 L 102.868,-105.825 L 102.915,-105.726 L 102.971,-105.634 L 103.035,-105.55
 L 103.109,-105.474 L 103.158,-105.433 L 103.212,-105.396 L 103.291,-105.353 L 103.378,-105.317 L 103.474,-105.29
 L 103.578,-105.269 L 103.605,-105.265 L 103.605,-103.933 z
M 98.4158,-102.333 L 98.4158,-109.949 L 100.08,-109.949 L 100.08,-102.333 z
M -43.1667,-89.1667 L -43.1667,-94.1667 L -40.1667,-94.1667 L -40.1667,-89.1667 z
M -76.5,-89.1667 L -76.5,-94.1667 L -73.5,-94.1667 L -73.5,-89.1667 z
M 40.1667,-89.1667 L 40.1667,-94.1667 L 43.1667,-94.1667 L 43.1667,-89.1667 z
M 56.8333,-89.1667 L 56.8333,-94.1667 L 59.8333,-94.1667 L 59.8333,-89.1667 z
M -93.1667,-89.1667 L -93.1667,-94.1667 L -90.1667,-94.1667 L -90.1667,-89.1667 z
M 73.5,-89.1667 L 73.5,-94.1667 L 76.5,-94.1667 L 76.5,-89.1667 z
M 90.1667,-89.1667 L 90.1667,-94.1667 L 93.1667,-94.1667 L 93.1667,-89.1667 z
M 23.5,-89.1667 L 23.5,-94.1667 L 26.5,-94.1667 L 26.5,-89.1667 z
M 6.83333,-89.1667 L 6.83333,-94.1667 L 9.83333,-94.1667 L 9.83333,-89.1667 z
M -59.8333,-89.1667 L -59.8333,-94.1667 L -56.8333,-94.1667 L -56.8333,-89.1667 z
M -9.83333,-89.1667 L -9.83333,-94.1667 L -6.83333,-94.1667 L -6.83333,-89.1667 z
M -26.5,-89.1667 L -26.5,-94.1667 L -23.5,-94.1667 L -23.5,-89.1667 z
M 97.5,-81.8333 L 97.5,-84.8333 L 102.5,-84.8333 L 102.5,-81.8333 z
M -102.5,-81.8333 L -102.5,-84.8333 L -97.5,-84.8333 L -97.5,-81.8333 z
M -102.5,-65.1667 L -102.5,-68.1667 L -97.5,-68.1667 L -97.5,-65.1667 z
M 97.5,-65.1667 L 97.5,-68.1667 L 102.5,-68.1667 L 102.5,-65.1667 z
M 97.5,-48.5 L 97.5,-51.5 L 102.5,-51.5 L 102.5,-48.5 z
M -102.5,-48.5 L -102.5,-51.5 L -97.5,-51.5 L -97.5,-48.5 z
M -102.5,-31.8333 L -102.5,-34.8333 L -97.5,-34.8333 L -97.5,-31.8333 z
M 97.5,-31.8333 L 97.5,-34.8333 L 102.5,-34.8333 L 102.5,-31.8333 z
M -102.5,-15.1667 L -102.5,-18.1667 L -97.5,-18.1667 L -97.5,-15.1667 z
M 97.5,-15.1667 L 97.5,-18.1667 L 102.5,-18.1667 L 102.5,-15.1667 z
M -102.5,1.49998 L -102.5,-1.5 L -97.5,-1.5 L -97.5,1.49998 z
M 97.5,1.49998 L 97.5,-1.5 L 102.5,-1.5 L 102.5,1.49998 z
M 97.5,18.1667 L 97.5,15.1667 L 102.5,15.1667 L 102.5,18.1667 z
M -102.5,18.1667 L -102.5,15.1667 L -97.5,15.1667 L -97.5,18.1667 z
M -102.5,34.8333 L -102.5,31.8333 L -97.5,31.8333 L -97.5,34.8333 z
M 97.5,34.8333 L 97.5,31.8333 L 102.5,31.8333 L 102.5,34.8333 z
M 97.5,51.5 L 97.5,48.5 L 102.5,48.5 L 102.5,51.5 z
M -102.5,51.5 L -102.5,48.5 L -97.5,48.5 L -97.5,51.5 z
M -102.5,68.1667 L -102.5,65.1667 L -97.5,65.1667 L -97.5,68.1667 z
M 97.5,68.1667 L 97.5,65.1667 L 102.5,65.1667 L 102.5,68.1667 z
M 97.5,84.8333 L 97.5,81.8333 L 102.5,81.8333 L 102.5,84.8333 z
M -102.5,84.8333 L -102.5,81.8333 L -97.5,81.8333 L -97.5,84.8333 z
M 80.8333,94.1667 L 80.8333,89.1667 L 85.8333,89.1667 L 85.8333,94.1667 z
M 90.1667,94.1667 L 90.1667,89.1667 L 93.1667,89.1667 L 93.1667,94.1667 z
M 73.5,94.1667 L 73.5,89.1667 L 76.5,89.1667 L 76.5,94.1667 z
M 56.8333,94.1667 L 56.8333,89.1667 L 59.8333,89.1667 L 59.8333,94.1667 z
M 40.1667,94.1667 L 40.1667,89.1667 L 43.1667,89.1667 L 43.1667,94.1667 z
M 23.5,94.1667 L 23.5,89.1667 L 26.5,89.1667 L 26.5,94.1667 z
M 6.83333,94.1667 L 6.83333,89.1667 L 9.83333,89.1667 L 9.83333,94.1667 z
M -9.83333,94.1667 L -9.83333,89.1667 L -6.83333,89.1667 L -6.83333,94.1667 z
M -26.5,94.1667 L -26.5,89.1667 L -23.5,89.1667 L -23.5,94.1667 z
M -43.1667,94.1667 L -43.1667,89.1667 L -40.1667,89.1667 L -40.1667,94.1667 z
M -59.8333,94.1667 L -59.8333,89.1667 L -56.8333,89.1667 L -56.8333,94.1667 z
M -76.5,94.1667 L -76.5,89.1667 L -73.5,89.1667 L -73.5,94.1667 z
M -93.1667,94.1667 L -93.1667,89.1667 L -90.1667,89.1667 L -90.1667,94.1667 z
" stroke="black" fill="lightgray" stroke-width="0.5"/></svg>
