<?xml version="1.0" standalone="no"?>
<!DOCTYPE svg PUBLIC "-//W3C//DTD SVG 1.1//EN" "http://www.w3.org/Graphics/SVG/1.1/DTD/svg11.dtd">
<svg width="218" height="29" viewBox="-109 -13 218 29" xmlns="http://www.w3.org/2000/svg" version="1.1">
<title>OpenSCAD Model</title>
<path d="
M -97.5,13 L -89.1667,13 L -89.1667,8 L -84.1667,8 L -84.1667,13 L 84.1667,13
 L 84.1667,8 L 89.1667,8 L 89.1667,13 L 97.5,13 L 97.5,15.5 L 102.5,15.5
 L 102.5,13 L 108.5,13 L 108.5,-13 L 93.1667,-13 L 93.1667,-0 L 90.1667,-0
 L 90.1667,-13 L 76.5,-13 L 76.5,-0 L 73.5,-0 L 73.5,-13 L 59.8333,-13
 L 59.8333,-0 L 56.8333,-0 L 56.8333,-13 L 43.1667,-13 L 43.1667,-0 L 40.1667,-0
 L 40.1667,-13 L 26.5,-13 L 26.5,-0 L 23.5,-0 L 23.5,-13 L 9.83333,-13
 L 9.83333,-0 L 6.83333,-0 L 6.83333,-13 L -6.83333,-13 L -6.83333,-0 L -9.83333,-0
 L -9.83333,-13 L -23.5,-13 L -23.5,-0 L -26.5,-0 L -26.5,-13 L -40.1667,-13
 L -40.1667,-0 L -43.1667,-0 L -43.1667,-13 L -56.8333,-13 L -56.8333,-0 L -59.8333,-0
 L -59.8333,-13 L -73.5,-13 L -73.5,-0 L -76.5,-0 L -76.5,-13 L -90.1667,-13
 L -90.1667,-0 L -93.1667,-0 L -93.1667,-13 L -108.5,-13 L -108.5,13 L -102.5,13
 L -102.5,15.5 L -97.5,15.5 z
" stroke="black" fill="lightgray" stroke-width="0.5"/></svg>
