<?xml version="1.0" standalone="no"?>
<!DOCTYPE svg PUBLIC "-//W3C//DTD SVG 1.1//EN" "http://www.w3.org/Graphics/SVG/1.1/DTD/svg11.dtd">
<svg width="232" height="116" viewBox="-116 0 232 116" xmlns="http://www.w3.org/2000/svg" version="1.1">
<title>OpenSCAD Model</title>
<path d="
M -116,-0 L -116,116 L 116,116 L 116,-0 z
M 0.511871,13.6191 L 0.511871,11.6721 L 0.631134,11.6477 L 0.802032,11.607 L 0.963318,11.5613 L 1.11502,11.5107
 L 1.25713,11.4552 L 1.38963,11.3948 L 1.51256,11.3294 L 1.58917,11.2831 L 1.69676,11.2093 L 1.79762,11.1307
 L 1.89192,11.0473 L 1.97964,10.9592 L 2.06081,10.8663 L 2.13539,10.7687 L 2.20341,10.6663 L 2.26488,10.5591
 L 2.32051,10.4471 L 2.37108,10.3309 L 2.41658,10.2104 L 2.45702,10.0857 L 2.50304,9.91284 L 2.54004,9.73238
 L 2.56818,9.54434 L 2.6044,9.19627 L 2.62692,8.82375 L 2.63574,8.42677 L 2.62958,7.9225 L 2.60402,7.38016
 L 2.56776,6.95929 L 2.54604,6.80753 L 2.51869,6.65984 L 2.48575,6.51617 L 2.44717,6.37657 L 2.40298,6.24101
 L 2.3532,6.10951 L 2.2977,5.98206 L 2.23549,5.85983 L 2.16623,5.74339 L 2.11613,5.66899 L 2.06291,5.59714
 L 2.00658,5.52788 L 1.9471,5.46118 L 1.88449,5.39705 L 1.81874,5.33549 L 1.71426,5.24797 L 1.64049,5.19298
 L 1.56209,5.14153 L 1.47884,5.09375 L 1.39076,5.04964 L 1.29784,5.0092 L 1.20007,4.97246 L 1.09747,4.93938
 L 0.990036,4.90996 L 0.877747,4.88423 L 0.760635,4.86217 L 0.638672,4.8438 L 0.511871,4.82909 L 0.511871,2.85208
 L 0.71521,2.87227 L 0.913742,2.89699 L 1.10747,2.92625 L 1.29639,2.96007 L 1.4805,2.99841 L 1.65982,3.04129
 L 1.83432,3.08873 L 2.00401,3.14069 L 2.16891,3.1972 L 2.32899,3.25826 L 2.48428,3.32384 L 2.63477,3.39397
 L 2.78044,3.46864 L 2.92131,3.54785 L 3.05737,3.63161 L 3.18863,3.71989 L 3.31508,3.81273 L 3.43672,3.91011
 L 3.55356,4.01202 L 3.6656,4.11847 L 3.77283,4.22948 L 3.87526,4.345 L 3.97287,4.46509 L 4.06602,4.58914
 L 4.15503,4.7168 L 4.2399,4.84805 L 4.32063,4.98289 L 4.39722,5.12134 L 4.46967,5.26337 L 4.53796,5.409
 L 4.60214,5.55823 L 4.66217,5.71104 L 4.71805,5.86746 L 4.76981,6.02748 L 4.81741,6.19109 L 4.86089,6.35829
 L 4.90021,6.5291 L 4.93539,6.70349 L 4.96645,6.88148 L 4.99336,7.06306 L 5.01613,7.24825 L 5.03476,7.43703
 L 5.04924,7.62939 L 5.0596,7.82536 L 5.06581,8.02493 L 5.06738,8.31642 L 5.06004,8.58023 L 5.04388,8.8423
 L 5.01892,9.10258 L 4.98514,9.36111 L 4.95772,9.53247 L 4.92638,9.70305 L 4.87204,9.95744 L 4.8309,10.1261
 L 4.78584,10.2936 L 4.73677,10.4583 L 4.68365,10.6199 L 4.6265,10.7784 L 4.56529,10.9337 L 4.50006,11.086
 L 4.4308,11.2351 L 4.35748,11.3811 L 4.28014,11.524 L 4.19876,11.6638 L 4.11333,11.8005 L 4.02388,11.9341
 L 3.93045,12.0637 L 3.83276,12.1888 L 3.73083,12.3095 L 3.62466,12.4258 L 3.51424,12.5376 L 3.39955,12.645
 L 3.28062,12.7479 L 3.15746,12.8464 L 3.03003,12.9404 L 2.89836,13.03 L 2.76244,13.1152 L 2.6223,13.1954
 L 2.55057,13.2331 L 2.47769,13.269 L 2.40366,13.3031 L 2.32846,13.3355 L 2.25212,13.3661 L 2.17462,13.395
 L 2.09598,13.4221 L 1.93523,13.4712 L 1.85312,13.493 L 1.68544,13.5315 L 1.51315,13.563 L 1.33624,13.5876
 L 1.15474,13.6051 L 0.968613,13.6156 L 0.777878,13.6191 z
M -82.8215,13.6191 L -82.8215,11.6721 L -82.7022,11.6477 L -82.5313,11.607 L -82.37,11.5613 L -82.2183,11.5107
 L -82.0762,11.4552 L -81.9437,11.3948 L -81.8208,11.3294 L -81.7442,11.2831 L -81.6366,11.2093 L -81.5357,11.1307
 L -81.4414,11.0473 L -81.3537,10.9592 L -81.2725,10.8663 L -81.1979,10.7687 L -81.1299,10.6663 L -81.0685,10.5591
 L -81.0128,10.4471 L -80.9622,10.3309 L -80.9167,10.2104 L -80.8763,10.0857 L -80.8303,9.91284 L -80.7933,9.73238
 L -80.7652,9.54434 L -80.7289,9.19627 L -80.7064,8.82375 L -80.6976,8.42677 L -80.7038,7.9225 L -80.7293,7.38016
 L -80.7656,6.95929 L -80.7873,6.80753 L -80.8146,6.65984 L -80.8476,6.51617 L -80.8862,6.37657 L -80.9303,6.24101
 L -80.9801,6.10951 L -81.0356,5.98206 L -81.0978,5.85983 L -81.1671,5.74339 L -81.2172,5.66899 L -81.2704,5.59714
 L -81.3268,5.52788 L -81.3862,5.46118 L -81.4488,5.39705 L -81.5146,5.33549 L -81.6191,5.24797 L -81.6928,5.19298
 L -81.7712,5.14153 L -81.8545,5.09375 L -81.9426,5.04964 L -82.0355,5.0092 L -82.1333,4.97246 L -82.2359,4.93938
 L -82.3433,4.90996 L -82.4556,4.88423 L -82.5727,4.86217 L -82.6947,4.8438 L -82.8215,4.82909 L -82.8215,2.85208
 L -82.6181,2.87227 L -82.4196,2.89699 L -82.2259,2.92625 L -82.0369,2.96007 L -81.8528,2.99841 L -81.6735,3.04129
 L -81.499,3.08873 L -81.3293,3.14069 L -81.1644,3.1972 L -81.0043,3.25826 L -80.849,3.32384 L -80.6986,3.39397
 L -80.5529,3.46864 L -80.412,3.54785 L -80.276,3.63161 L -80.1447,3.71989 L -80.0182,3.81273 L -79.8966,3.91011
 L -79.7798,4.01202 L -79.6677,4.11847 L -79.5605,4.22948 L -79.4581,4.345 L -79.3605,4.46509 L -79.2673,4.58914
 L -79.1783,4.7168 L -79.0934,4.84805 L -79.0127,4.98289 L -78.9361,5.12134 L -78.8637,5.26337 L -78.7954,5.409
 L -78.7312,5.55823 L -78.6712,5.71104 L -78.6153,5.86746 L -78.5635,6.02748 L -78.5159,6.19109 L -78.4724,6.35829
 L -78.4331,6.5291 L -78.3979,6.70349 L -78.3669,6.88148 L -78.34,7.06306 L -78.3172,7.24825 L -78.2986,7.43703
 L -78.2841,7.62939 L -78.2737,7.82536 L -78.2675,8.02493 L -78.2659,8.31642 L -78.2733,8.58023 L -78.2894,8.8423
 L -78.3144,9.10258 L -78.3482,9.36111 L -78.3756,9.53247 L -78.407,9.70305 L -78.4613,9.95744 L -78.5024,10.1261
 L -78.5475,10.2936 L -78.5966,10.4583 L -78.6497,10.6199 L -78.7068,10.7784 L -78.768,10.9337 L -78.8333,11.086
 L -78.9025,11.2351 L -78.9758,11.3811 L -79.0532,11.524 L -79.1346,11.6638 L -79.22,11.8005 L -79.3094,11.9341
 L -79.4029,12.0637 L -79.5006,12.1888 L -79.6025,12.3095 L -79.7087,12.4258 L -79.8191,12.5376 L -79.9338,12.645
 L -80.0527,12.7479 L -80.1759,12.8464 L -80.3033,12.9404 L -80.435,13.03 L -80.5709,13.1152 L -80.711,13.1954
 L -80.7828,13.2331 L -80.8556,13.269 L -80.9297,13.3031 L -81.0049,13.3355 L -81.0812,13.3661 L -81.1587,13.395
 L -81.2374,13.4221 L -81.3981,13.4712 L -81.4802,13.493 L -81.6479,13.5315 L -81.8202,13.563 L -81.9971,13.5876
 L -82.1786,13.6051 L -82.3647,13.6156 L -82.5555,13.6191 z
M -84.4955,13.6187 L -84.7417,13.6024 L -85.0096,13.558 L -85.1726,13.5222 L -85.3314,13.4814 L -85.4859,13.4355
 L -85.6361,13.3846 L -85.7821,13.3286 L -85.9238,13.2676 L -86.0613,13.2016 L -86.1945,13.1305 L -86.3234,13.0544
 L -86.448,12.9733 L -86.5684,12.8871 L -86.6848,12.7968 L -86.7974,12.7032 L -86.9061,12.6064 L -87.0111,12.5063
 L -87.1123,12.403 L -87.2097,12.2964 L -87.3033,12.1865 L -87.3931,12.0735 L -87.479,11.9571 L -87.5612,11.8375
 L -87.6397,11.7147 L -87.7143,11.5887 L -87.7855,11.4603 L -87.8531,11.3295 L -87.9174,11.1964 L -87.9781,11.0609
 L -88.0354,10.9231 L -88.0892,10.783 L -88.1396,10.6405 L -88.2087,10.4223 L -88.2699,10.1989 L -88.3234,9.97044
 L -88.3696,9.73941 L -88.4091,9.50661 L -88.4419,9.27202 L -88.4678,9.03568 L -88.487,8.79756 L -88.4994,8.55768
 L -88.5051,8.31602 L -88.5033,8.04323 L -88.4969,7.85336 L -88.4863,7.66553 L -88.4714,7.47971 L -88.4523,7.29588
 L -88.4289,7.11407 L -88.4013,6.93428 L -88.3694,6.75648 L -88.3333,6.58072 L -88.293,6.40695 L -88.2483,6.23521
 L -88.1995,6.06561 L -88.1463,5.89952 L -88.089,5.73726 L -88.0274,5.57883 L -87.9615,5.42421 L -87.8914,5.27344
 L -87.817,5.12648 L -87.7384,4.98335 L -87.6555,4.84404 L -87.5684,4.70856 L -87.4771,4.57692 L -87.3814,4.44908
 L -87.2815,4.32524 L -87.177,4.2059 L -87.0681,4.09103 L -86.9548,3.98067 L -86.837,3.8748 L -86.7147,3.77341
 L -86.588,3.67651 L -86.4568,3.58412 L -86.3211,3.49622 L -86.181,3.4128 L -86.0364,3.33386 L -85.8873,3.2596
 L -85.7336,3.19147 L -85.5754,3.12984 L -85.4128,3.07469 L -85.2456,3.02603 L -85.074,2.98387 L -84.898,2.94818
 L -84.7174,2.91899 L -84.5324,2.89629 L -84.3429,2.88007 L -84.1489,2.87033 L -83.9504,2.86708 L -83.9504,4.82909
 L -84.0093,4.83598 L -84.1241,4.85252 L -84.2348,4.87274 L -84.3414,4.89664 L -84.4441,4.92421 L -84.5427,4.95544
 L -84.6372,4.99037 L -84.7277,5.02896 L -84.8142,5.07123 L -84.8967,5.11717 L -84.9751,5.16679 L -85.0494,5.22009
 L -85.1204,5.27634 L -85.2215,5.3649 L -85.3163,5.45851 L -85.4048,5.55716 L -85.487,5.66083 L -85.5628,5.76955
 L -85.6323,5.8833 L -85.6954,6.00209 L -85.7528,6.12502 L -85.8048,6.25172 L -85.8515,6.38222 L -85.893,6.51648
 L -85.9291,6.65451 L -85.969,6.84444 L -85.9994,7.04109 L -86.0376,7.39525 L -86.0621,7.75775 L -86.0733,8.18225
 L -86.0655,8.69441 L -86.0415,9.12614 L -86.0074,9.48207 L -85.9798,9.67529 L -85.9529,9.81497 L -85.9207,9.95016
 L -85.8833,10.0809 L -85.8406,10.2071 L -85.7926,10.3288 L -85.7394,10.446 L -85.6806,10.5587 L -85.6153,10.6666
 L -85.5435,10.7697 L -85.4651,10.8681 L -85.3802,10.9618 L -85.2888,11.0506 L -85.1909,11.1347 L -85.0864,11.2141
 L -85.0124,11.2643 L -84.9339,11.3122 L -84.8509,11.358 L -84.7634,11.4015 L -84.6239,11.4626 L -84.4743,11.5187
 L -84.3148,11.5699 L -84.1451,11.616 L -83.9654,11.6571 L -83.9654,13.6191 z
M -1.16216,13.6187 L -1.40842,13.6024 L -1.67622,13.558 L -1.83926,13.5222 L -1.99805,13.4814 L -2.15256,13.4355
 L -2.3028,13.3846 L -2.44878,13.3286 L -2.5905,13.2676 L -2.72795,13.2016 L -2.86113,13.1305 L -2.99005,13.0544
 L -3.11472,12.9733 L -3.23511,12.8871 L -3.35147,12.7968 L -3.46404,12.7032 L -3.57281,12.6064 L -3.67778,12.5063
 L -3.77896,12.403 L -3.87634,12.2964 L -3.96994,12.1865 L -4.05972,12.0735 L -4.14572,11.9571 L -4.22792,11.8375
 L -4.30634,11.7147 L -4.38098,11.5887 L -4.45213,11.4603 L -4.51981,11.3295 L -4.58403,11.1964 L -4.64479,11.0609
 L -4.70207,10.9231 L -4.75591,10.783 L -4.80627,10.6405 L -4.87534,10.4223 L -4.9366,10.1989 L -4.99004,9.97044
 L -5.0363,9.73941 L -5.07581,9.50661 L -5.10854,9.27202 L -5.13449,9.03568 L -5.15367,8.79756 L -5.16609,8.55768
 L -5.17174,8.31602 L -5.16998,8.04323 L -5.1636,7.85336 L -5.15298,7.66553 L -5.13811,7.47971 L -5.11899,7.29588
 L -5.09561,7.11407 L -5.06799,6.93428 L -5.03612,6.75648 L -5,6.58072 L -4.95964,6.40695 L -4.91501,6.23521
 L -4.86615,6.06561 L -4.81302,5.89952 L -4.75566,5.73726 L -4.69403,5.57883 L -4.62817,5.42421 L -4.55806,5.27344
 L -4.48369,5.12648 L -4.40508,4.98335 L -4.3222,4.84404 L -4.23509,4.70856 L -4.14372,4.57692 L -4.04811,4.44908
 L -3.94814,4.32524 L -3.8437,4.2059 L -3.73482,4.09103 L -3.62146,3.98067 L -3.50365,3.8748 L -3.38138,3.77341
 L -3.25464,3.67651 L -3.12344,3.58412 L -2.98778,3.49622 L -2.84766,3.4128 L -2.70308,3.33386 L -2.55394,3.2596
 L -2.40025,3.19147 L -2.24208,3.12984 L -2.07944,3.07469 L -1.91231,3.02603 L -1.74071,2.98387 L -1.56464,2.94818
 L -1.38408,2.91899 L -1.19905,2.89629 L -1.00955,2.88007 L -0.815567,2.87033 L -0.617111,2.86708 L -0.617111,4.82909
 L -0.675995,4.83598 L -0.790741,4.85252 L -0.901443,4.87274 L -1.00812,4.89664 L -1.11075,4.92421 L -1.20934,4.95544
 L -1.30389,4.99037 L -1.39441,5.02896 L -1.4809,5.07123 L -1.56334,5.11717 L -1.64174,5.16679 L -1.71611,5.22009
 L -1.78705,5.27634 L -1.88818,5.3649 L -1.983,5.45851 L -2.07147,5.55716 L -2.15363,5.66083 L -2.22945,5.76955
 L -2.29895,5.8833 L -2.36211,6.00209 L -2.41945,6.12502 L -2.4715,6.25172 L -2.51822,6.38222 L -2.55965,6.51648
 L -2.59576,6.65451 L -2.63565,6.84444 L -2.66611,7.04109 L -2.7043,7.39525 L -2.72878,7.75775 L -2.73997,8.18225
 L -2.73213,8.69441 L -2.70818,9.12614 L -2.6741,9.48207 L -2.64647,9.67529 L -2.61958,9.81497 L -2.58742,9.95016
 L -2.54999,10.0809 L -2.50728,10.2071 L -2.45929,10.3288 L -2.40604,10.446 L -2.34723,10.5587 L -2.28195,10.6666
 L -2.21014,10.7697 L -2.13181,10.8681 L -2.04692,10.9618 L -1.95552,11.0506 L -1.85759,11.1347 L -1.75311,11.2141
 L -1.67905,11.2643 L -1.60054,11.3122 L -1.51756,11.358 L -1.43011,11.4015 L -1.29059,11.4626 L -1.14102,11.5187
 L -0.98143,11.5699 L -0.811783,11.616 L -0.632111,11.6571 L -0.632111,13.6191 z
M -50.4651,4.94783 L -50.4651,3.02783 L -46.3691,3.02783 L -46.3691,4.94783 z
M 12.3629,5.01184 L 12.3629,3.02783 L 14.475,3.02783 L 14.475,5.01184 z
M 35.1745,13.3958 L 35.1745,8.91582 L 32.5035,8.91582 L 32.5035,6.99583 L 35.1745,6.99583 L 35.1745,3.02783
 L 37.5005,3.02783 L 37.5005,13.3958 z
M 29.0525,13.3958 L 29.0525,3.02783 L 31.3785,3.02783 L 31.3785,13.3958 z
M 51.8093,13.3958 L 51.794,13.3648 L 51.6233,12.9886 L 51.4768,12.6041 L 51.3864,12.3071 L 51.3136,12.0009
 L 51.2469,11.6197 L 51.1763,11.0432 L 51.1478,10.8503 L 51.1083,10.6673 L 51.0578,10.4945 L 51.0069,10.3583
 L 50.9705,10.2807 L 50.9141,10.1825 L 50.866,10.1127 L 50.7939,10.0247 L 50.713,9.94255 L 50.6228,9.86633
 L 50.573,9.83115 L 50.4911,9.78281 L 50.4007,9.73982 L 50.3018,9.70216 L 50.1944,9.66986 L 50.0784,9.6429
 L 49.954,9.62126 L 49.5825,9.57716 L 49.0714,9.56583 L 49.0714,7.70984 L 50.1396,7.70944 L 50.4641,7.69568
 L 50.6852,7.67052 L 50.8293,7.6424 L 50.9171,7.616 L 50.9986,7.58293 L 51.0738,7.54323 L 51.1427,7.49686
 L 51.2053,7.44383 L 51.2617,7.38326 L 51.3117,7.31421 L 51.3555,7.23668 L 51.3929,7.1507 L 51.4241,7.05624
 L 51.4545,6.92552 L 51.4818,6.74304 L 51.5022,6.49318 L 51.5103,6.15883 L 51.5048,5.95493 L 51.4883,5.77415
 L 51.4661,5.64119 L 51.4362,5.52429 L 51.3987,5.42178 L 51.3534,5.33118 L 51.3116,5.26726 L 51.2648,5.21098
 L 51.2131,5.16231 L 51.1417,5.11119 L 51.0627,5.06798 L 50.976,5.03252 L 50.8617,5.00018 L 50.7364,4.97868
 L 50.433,4.95232 L 49.0714,4.94783 L 49.0714,3.02783 L 50.2303,3.02783 L 50.4303,3.02986 L 50.8192,3.04608
 L 51.1937,3.07849 L 51.5098,3.12051 L 51.772,3.16924 L 52.0262,3.23021 L 52.2721,3.30344 L 52.4303,3.36031
 L 52.5437,3.40982 L 52.6526,3.46539 L 52.7569,3.52702 L 52.8567,3.59471 L 52.9518,3.66847 L 53.0425,3.74828
 L 53.1286,3.83409 L 53.2103,3.92639 L 53.2875,4.02554 L 53.36,4.13153 L 53.428,4.24435 L 53.4914,4.36401
 L 53.5501,4.49052 L 53.6043,4.62387 L 53.6534,4.76439 L 53.6961,4.9138 L 53.7323,5.07234 L 53.7618,5.24001
 L 53.7848,5.41678 L 53.8012,5.60268 L 53.8111,5.7977 L 53.8143,6.00183 L 53.8105,6.13655 L 53.795,6.30818
 L 53.7677,6.4834 L 53.7284,6.6622 L 53.6772,6.84431 L 53.6279,6.98776 L 53.5715,7.12721 L 53.5079,7.26266
 L 53.4371,7.39413 L 53.3591,7.52159 L 53.2742,7.64462 L 53.1834,7.76048 L 53.0868,7.86871 L 52.9844,7.96933
 L 52.876,8.06232 L 52.7618,8.14769 L 52.6725,8.20593 L 52.5803,8.25658 L 52.4849,8.29944 L 52.3865,8.33449
 L 52.2851,8.36176 L 52.1806,8.38124 L 52.073,8.39293 L 51.9623,8.39682 L 52.2954,8.53065 L 52.4021,8.58253
 L 52.5022,8.64095 L 52.5958,8.7059 L 52.6545,8.75282 L 52.7103,8.80266 L 52.7632,8.85539 L 52.8132,8.91103
 L 52.8602,8.96956 L 52.9044,9.03101 L 52.9853,9.16061 L 53.0593,9.29576 L 53.1266,9.43636 L 53.1873,9.5824
 L 53.2412,9.73389 L 53.2883,9.89082 L 53.3679,10.2114 L 53.4312,10.5358 L 53.539,11.2924 L 53.6489,11.8892
 L 53.71,12.1291 L 53.7822,12.358 L 53.8653,12.5758 L 53.9769,12.8237 L 54.1228,13.1088 L 54.2883,13.3958
 z
M 45.6224,13.3958 L 45.6224,3.02783 L 47.9484,3.02783 L 47.9484,13.3958 z
M 66.2015,4.94783 L 66.2015,3.02783 L 70.2975,3.02783 L 70.2975,4.94783 z
M 62.7455,13.3958 L 62.7455,3.02783 L 65.0715,3.02783 L 65.0715,13.3958 z
M 82.8682,4.94783 L 82.8682,3.02783 L 86.9642,3.02783 L 86.9642,4.94783 z
M 79.4122,13.3958 L 79.4122,3.02783 L 81.7382,3.02783 L 81.7382,13.3958 z
M 15.477,13.3958 L 15.477,3.02783 L 17.8029,3.02783 L 17.8029,13.3958 z
M -64.7357,8.14484 L -64.8397,3.02783 L -62.5027,3.02783 L -62.5027,11.8828 z
M -53.9211,13.3958 L -53.9211,3.02783 L -51.5951,3.02783 L -51.5951,13.3958 z
M -31.3651,4.94783 L -31.3651,3.02783 L -29.125,3.02783 L -29.125,4.94783 z
M -37.637,5.01184 L -37.637,3.02783 L -35.525,3.02783 L -35.525,5.01184 z
M -34.523,13.3958 L -34.523,3.02783 L -32.1971,3.02783 L -32.1971,13.3958 z
M -13.3699,7.79683 L -12.3919,3.02783 L -10.0959,3.02783 L -12.3779,11.9318 z
M -15.1479,13.3638 L -16.6589,6.52684 L -17.5479,11.9168 L -18.5849,7.95984 L -17.7849,3.02783 L -15.5629,3.02783
 L -13.0289,13.3638 z
M -20.3329,13.3638 L -23.2509,3.02783 L -20.9249,3.02783 L -18.1989,13.3638 z
M -64.7067,13.3958 L -70.8887,3.02783 L -68.6997,3.02783 L -62.4887,13.3958 z
M 18.6349,4.94783 L 18.6349,3.02783 L 20.8749,3.02783 L 20.8749,4.94783 z
M -70.9187,13.3958 L -70.9187,4.46684 L -68.6997,8.21884 L -68.5967,13.3958 z
M -50.4651,8.86983 L -50.4651,7.00484 L -46.7531,7.00484 L -46.7531,8.86983 z
M 66.2015,8.86983 L 66.2015,7.00484 L 69.9135,7.00484 L 69.9135,8.86983 z
M 82.8682,8.86983 L 82.8682,7.00484 L 86.5802,7.00484 L 86.5802,8.86983 z
M -50.4651,13.3958 L -50.4651,11.4758 L -46.2411,11.4758 L -46.2411,13.3958 z
M 66.2015,13.3958 L 66.2015,11.4758 L 70.4255,11.4758 L 70.4255,13.3958 z
M 82.8682,13.3958 L 82.8682,11.4758 L 87.0922,11.4758 L 87.0922,13.3958 z
M 50.5995,28.3392 L 50.7083,28.3365 L 50.9003,28.3174 L 51.0875,28.2802 L 51.2276,28.2377 L 51.3593,28.1831
 L 51.4827,28.1165 L 51.5808,28.049 L 51.6543,27.9842 L 51.7202,27.9118 L 51.7784,27.8318 L 51.8289,27.744
 L 51.8625,27.6674 L 51.8893,27.5845 L 51.9135,27.4721 L 51.9271,27.35 L 51.93,27.2083 L 51.9261,27.1362
 L 51.9182,27.0668 L 51.9065,27 L 51.8908,26.9357 L 51.8712,26.874 L 51.8477,26.8149 L 51.8203,26.7584
 L 51.789,26.7045 L 51.7537,26.6532 L 51.7146,26.6044 L 51.6715,26.5582 L 51.6013,26.4923 L 51.5252,26.4297
 L 51.4434,26.3704 L 51.3252,26.2964 L 51.1967,26.2284 L 51.0578,26.1662 L 50.909,26.1092 L 50.6305,26.0166
 L 50.33,25.9322 L 48.7917,25.5724 L 48.351,25.4498 L 47.9168,25.3092 L 47.6326,25.2038 L 47.4509,25.1242
 L 47.2765,25.0365 L 47.1093,24.9408 L 46.9493,24.8371 L 46.834,24.754 L 46.7232,24.666 L 46.618,24.5722
 L 46.5186,24.4723 L 46.425,24.3665 L 46.3372,24.2547 L 46.2552,24.1368 L 46.179,24.013 L 46.1085,23.8833
 L 46.0656,23.7926 L 46.0266,23.698 L 45.9914,23.5995 L 45.9602,23.4971 L 45.9329,23.3908 L 45.9095,23.2806
 L 45.89,23.1664 L 45.8744,23.0484 L 45.8627,22.9264 L 45.8549,22.8005 L 45.851,22.6706 L 45.851,22.5303
 L 45.855,22.3853 L 45.8631,22.2442 L 45.8751,22.107 L 45.8912,21.9737 L 45.9113,21.8443 L 45.9355,21.7187
 L 45.9636,21.597 L 45.9958,21.4793 L 46.032,21.3654 L 46.0722,21.2554 L 46.1165,21.1493 L 46.1643,21.0468
 L 46.2153,20.9479 L 46.2694,20.8524 L 46.3266,20.7604 L 46.3869,20.6719 L 46.4504,20.5868 L 46.517,20.5053
 L 46.5867,20.4272 L 46.6596,20.3526 L 46.7356,20.2814 L 46.8148,20.2138 L 46.897,20.1495 L 47.0257,20.0586
 L 47.1148,20.0018 L 47.2536,19.9223 L 47.3983,19.8496 L 47.549,19.7837 L 47.7058,19.7246 L 47.8686,19.6723
 L 48.0374,19.6268 L 48.2104,19.5873 L 48.3868,19.5535 L 48.5667,19.5256 L 48.7501,19.5034 L 48.937,19.487
 L 49.1915,19.4742 L 49.4755,19.4713 L 49.4755,21.3313 L 49.3249,21.3347 L 49.0403,21.3621 L 48.871,21.3971
 L 48.7484,21.4399 L 48.6338,21.4965 L 48.5431,21.5562 L 48.4751,21.6151 L 48.4141,21.6825 L 48.3599,21.7584
 L 48.3127,21.8428 L 48.2816,21.917 L 48.2567,21.998 L 48.2343,22.1086 L 48.2216,22.2298 L 48.219,22.3685
 L 48.223,22.4352 L 48.231,22.4993 L 48.243,22.5609 L 48.2591,22.6199 L 48.2791,22.6763 L 48.3031,22.7302
 L 48.3312,22.7815 L 48.3633,22.8303 L 48.3993,22.8765 L 48.4394,22.9202 L 48.4835,22.9613 L 48.5809,23.0384
 L 48.6881,23.1106 L 48.8052,23.1779 L 48.932,23.2402 L 49.0686,23.2975 L 49.2528,23.3624 L 49.5305,23.4446
 L 49.8301,23.5176 L 50.7277,23.6934 L 51.4133,23.855 L 51.7552,23.953 L 52.0931,24.0646 L 52.4268,24.1902
 L 52.5661,24.2506 L 52.7014,24.3166 L 52.8326,24.3882 L 52.9598,24.4652 L 53.0829,24.5479 L 53.202,24.6361
 L 53.317,24.7298 L 53.4276,24.8291 L 53.5325,24.9351 L 53.6317,25.0479 L 53.725,25.1674 L 53.8125,25.2937
 L 53.8943,25.4268 L 53.9703,25.5666 L 54.0405,25.7132 L 54.0834,25.8154 L 54.1224,25.9218 L 54.1575,26.0324
 L 54.1887,26.1474 L 54.216,26.2666 L 54.2395,26.39 L 54.259,26.5177 L 54.2746,26.6497 L 54.2863,26.786
 L 54.2941,26.9265 L 54.298,27.0713 L 54.297,27.2371 L 54.2894,27.3733 L 54.2753,27.5075 L 54.2546,27.6397
 L 54.2273,27.7698 L 54.1936,27.898 L 54.1533,28.0241 L 54.1065,28.1482 L 54.036,28.3095 L 53.9574,28.465
 L 53.8707,28.6146 L 53.7759,28.7585 L 53.673,28.8965 L 53.5621,29.0287 L 53.444,29.1548 L 53.3188,29.2747
 L 53.1865,29.3884 L 53.0471,29.4958 L 52.9005,29.597 L 52.7473,29.6917 L 52.5909,29.7782 L 52.4318,29.8562
 L 52.2701,29.9257 L 52.1057,29.9868 L 51.9387,30.0394 L 51.3657,30.1867 L 50.5995,30.2722 z
M 51.8139,22.6784 L 51.7307,22.16 L 51.6935,22.0279 L 51.6548,21.9285 L 51.6091,21.8389 L 51.5564,21.759
 L 51.4957,21.6874 L 51.4257,21.6235 L 51.3466,21.5672 L 51.2583,21.5186 L 51.1595,21.4771 L 51.0196,21.4341
 L 50.826,21.3929 L 50.5995,21.3613 L 50.5995,19.4713 L 50.8065,19.5303 L 50.9075,19.5314 L 51.0074,19.5347
 L 51.1062,19.5401 L 51.2037,19.5478 L 51.3001,19.5577 L 51.3953,19.5698 L 51.4893,19.5841 L 51.5822,19.6006
 L 51.6739,19.6192 L 51.7644,19.6401 L 51.8537,19.6631 L 51.9419,19.6884 L 52.0289,19.7159 L 52.1147,19.7455
 L 52.1994,19.7774 L 52.2829,19.8114 L 52.3652,19.8477 L 52.4464,19.8861 L 52.5263,19.9267 L 52.6051,19.9696
 L 52.6827,20.0146 L 52.7592,20.0618 L 52.8345,20.1113 L 52.9081,20.1628 L 52.9797,20.2166 L 53.0492,20.2727
 L 53.1167,20.3311 L 53.1821,20.3916 L 53.2454,20.4545 L 53.3066,20.5196 L 53.3657,20.587 L 53.4228,20.6566
 L 53.4778,20.7285 L 53.5308,20.8026 L 53.5816,20.879 L 53.6304,20.9576 L 53.6772,21.0385 L 53.7218,21.1217
 L 53.7644,21.2071 L 53.8049,21.2948 L 53.8434,21.3847 L 53.8797,21.4769 L 53.914,21.5714 L 53.9462,21.6681
 L 53.9764,21.767 L 54.0045,21.8683 L 54.045,22.0333 L 54.1525,22.7313 L 51.8415,22.9103 z
M -66.1548,30.2857 L -66.1548,28.3387 L -66.0355,28.3143 L -65.8646,28.2736 L -65.7033,28.228 L -65.5516,28.1774
 L -65.4095,28.1219 L -65.277,28.0614 L -65.1541,27.9961 L -65.0775,27.9497 L -64.9699,27.876 L -64.869,27.7974
 L -64.7747,27.714 L -64.687,27.6259 L -64.6059,27.533 L -64.5313,27.4353 L -64.4632,27.3329 L -64.4018,27.2257
 L -64.3461,27.1138 L -64.2956,26.9976 L -64.2501,26.8771 L -64.2096,26.7524 L -64.1636,26.5795 L -64.1266,26.399
 L -64.0985,26.211 L -64.0623,25.8629 L -64.0397,25.4904 L -64.0309,25.0934 L -64.0371,24.5892 L -64.0626,24.0468
 L -64.0989,23.626 L -64.1206,23.4742 L -64.148,23.3265 L -64.1809,23.1828 L -64.2195,23.0432 L -64.2637,22.9077
 L -64.3135,22.7762 L -64.369,22.6487 L -64.4312,22.5265 L -64.5004,22.4101 L -64.5505,22.3357 L -64.6037,22.2638
 L -64.6601,22.1945 L -64.7196,22.1279 L -64.7822,22.0637 L -64.8479,22.0022 L -64.9524,21.9146 L -65.0262,21.8596
 L -65.1046,21.8082 L -65.1878,21.7604 L -65.2759,21.7163 L -65.3688,21.6759 L -65.4666,21.6391 L -65.5692,21.606
 L -65.6766,21.5766 L -65.7889,21.5509 L -65.906,21.5288 L -66.028,21.5105 L -66.1548,21.4958 L -66.1548,19.5188
 L -65.9514,19.5389 L -65.7529,19.5637 L -65.5592,19.5929 L -65.3703,19.6267 L -65.1862,19.6651 L -65.0068,19.708
 L -64.8323,19.7554 L -64.6626,19.8074 L -64.4977,19.8639 L -64.3377,19.9249 L -64.1824,19.9905 L -64.0319,20.0606
 L -63.8862,20.1353 L -63.7453,20.2145 L -63.6093,20.2983 L -63.478,20.3866 L -63.3516,20.4794 L -63.2299,20.5768
 L -63.1131,20.6787 L -63.0011,20.7851 L -62.8938,20.8961 L -62.7914,21.0117 L -62.6938,21.1318 L -62.6006,21.2558
 L -62.5116,21.3835 L -62.4268,21.5147 L -62.346,21.6496 L -62.2694,21.788 L -62.197,21.93 L -62.1287,22.0757
 L -62.0645,22.2249 L -62.0045,22.3777 L -61.9486,22.5341 L -61.8969,22.6942 L -61.8492,22.8578 L -61.8058,23.025
 L -61.7664,23.1958 L -61.7313,23.3702 L -61.7002,23.5482 L -61.6733,23.7297 L -61.6505,23.9149 L -61.6319,24.1037
 L -61.6174,24.2961 L -61.6071,24.492 L -61.6008,24.6916 L -61.5993,24.9831 L -61.6066,25.2469 L -61.6228,25.509
 L -61.6477,25.7693 L -61.6815,26.0278 L -61.7089,26.1991 L -61.7403,26.3697 L -61.7946,26.6241 L -61.8358,26.7927
 L -61.8808,26.9603 L -61.9299,27.125 L -61.983,27.2866 L -62.0402,27.4451 L -62.1014,27.6004 L -62.1666,27.7527
 L -62.2359,27.9018 L -62.3092,28.0478 L -62.3865,28.1907 L -62.4679,28.3305 L -62.5533,28.4672 L -62.6428,28.6007
 L -62.7362,28.7303 L -62.8339,28.8555 L -62.9358,28.9762 L -63.042,29.0925 L -63.1524,29.2043 L -63.2671,29.3117
 L -63.386,29.4146 L -63.5092,29.5131 L -63.6366,29.6071 L -63.7683,29.6967 L -63.9042,29.7818 L -64.0444,29.8621
 L -64.1161,29.8998 L -64.189,29.9357 L -64.263,29.9698 L -64.3382,30.0022 L -64.4145,30.0328 L -64.492,30.0617
 L -64.5707,30.0888 L -64.7314,30.1378 L -64.8135,30.1597 L -64.9812,30.1982 L -65.1535,30.2297 L -65.3304,30.2542
 L -65.5119,30.2717 L -65.698,30.2822 L -65.8888,30.2857 z
M -67.8288,30.2854 L -68.0751,30.2691 L -68.3429,30.2247 L -68.5059,30.1889 L -68.6647,30.1481 L -68.8192,30.1022
 L -68.9695,30.0512 L -69.1154,29.9953 L -69.2572,29.9343 L -69.3946,29.8682 L -69.5278,29.7972 L -69.6567,29.7211
 L -69.7814,29.6399 L -69.9018,29.5537 L -70.0181,29.4634 L -70.1307,29.3698 L -70.2395,29.273 L -70.3444,29.1729
 L -70.4456,29.0696 L -70.543,28.963 L -70.6366,28.8532 L -70.7264,28.7401 L -70.8124,28.6238 L -70.8946,28.5042
 L -70.973,28.3814 L -71.0476,28.2554 L -71.1188,28.127 L -71.1865,27.9962 L -71.2507,27.8631 L -71.3114,27.7276
 L -71.3687,27.5898 L -71.4226,27.4497 L -71.4729,27.3072 L -71.542,27.089 L -71.6033,26.8656 L -71.6567,26.6371
 L -71.703,26.4061 L -71.7425,26.1733 L -71.7752,25.9387 L -71.8011,25.7023 L -71.8203,25.4642 L -71.8327,25.2243
 L -71.8384,24.9827 L -71.8366,24.7099 L -71.8303,24.52 L -71.8196,24.3322 L -71.8048,24.1464 L -71.7856,23.9626
 L -71.7623,23.7807 L -71.7346,23.601 L -71.7028,23.4232 L -71.6667,23.2474 L -71.6263,23.0736 L -71.5817,22.9019
 L -71.5328,22.7323 L -71.4797,22.5662 L -71.4223,22.4039 L -71.3607,22.2455 L -71.2948,22.0909 L -71.2247,21.9401
 L -71.1503,21.7932 L -71.0717,21.65 L -70.9889,21.5107 L -70.9017,21.3752 L -70.8104,21.2436 L -70.7148,21.1158
 L -70.6148,20.9919 L -70.5104,20.8726 L -70.4015,20.7577 L -70.2881,20.6473 L -70.1703,20.5415 L -70.048,20.4401
 L -69.9213,20.3432 L -69.7901,20.2508 L -69.6544,20.1629 L -69.5143,20.0795 L -69.3697,20.0005 L -69.2206,19.9263
 L -69.0669,19.8581 L -68.9087,19.7965 L -68.7461,19.7414 L -68.579,19.6927 L -68.4074,19.6505 L -68.2313,19.6149
 L -68.0507,19.5857 L -67.8657,19.563 L -67.6762,19.5467 L -67.4822,19.537 L -67.2838,19.5338 L -67.2838,21.4958
 L -67.3427,21.5027 L -67.4574,21.5192 L -67.5681,21.5394 L -67.6748,21.5633 L -67.7774,21.5909 L -67.876,21.6221
 L -67.9706,21.657 L -68.0611,21.6956 L -68.1476,21.7379 L -68.23,21.7838 L -68.3084,21.8335 L -68.3828,21.8868
 L -68.4537,21.943 L -68.5548,22.0316 L -68.6497,22.1252 L -68.7381,22.2238 L -68.8203,22.3275 L -68.8961,22.4362
 L -68.9656,22.55 L -69.0288,22.6688 L -69.0861,22.7917 L -69.1382,22.9184 L -69.1849,23.0489 L -69.2263,23.1832
 L -69.2624,23.3212 L -69.3023,23.5111 L -69.3328,23.7078 L -69.371,24.0619 L -69.3954,24.4244 L -69.4066,24.8489
 L -69.3988,25.3611 L -69.3748,25.7928 L -69.3408,26.1487 L -69.3131,26.342 L -69.2862,26.4816 L -69.2541,26.6168
 L -69.2166,26.7475 L -69.1739,26.8737 L -69.1259,26.9955 L -69.0727,27.1127 L -69.0139,27.2253 L -68.9486,27.3333
 L -68.8768,27.4364 L -68.7985,27.5348 L -68.7136,27.6284 L -68.6222,27.7173 L -68.5242,27.8014 L -68.4198,27.8807
 L -68.3457,27.9309 L -68.2672,27.9789 L -68.1842,28.0247 L -68.0968,28.0682 L -67.9572,28.1293 L -67.8077,28.1854
 L -67.6481,28.2365 L -67.4784,28.2826 L -67.2988,28.3237 L -67.2988,30.2857 z
M -49.4856,28.1767 L -49.3926,28.1753 L -49.2611,28.1676 L -49.1391,28.1534 L -49.0267,28.1326 L -48.9238,28.1052
 L -48.8606,28.0833 L -48.8016,28.0585 L -48.7468,28.0308 L -48.6963,28.0002 L -48.6498,27.9666 L -48.5853,27.9125
 L -48.5265,27.8541 L -48.4735,27.7914 L -48.4262,27.7245 L -48.3848,27.6533 L -48.3492,27.5779 L -48.3193,27.4982
 L -48.2798,27.3568 L -48.2496,27.2068 L -48.2285,27.0486 L -48.2153,26.8477 L -48.2136,19.6008 L -45.8876,19.6008
 L -45.8879,26.1218 L -45.8947,26.4896 L -45.9104,26.8377 L -45.9352,27.1661 L -45.9597,27.3994 L -45.9893,27.6217
 L -46.024,27.8328 L -46.0643,28.0331 L -46.0957,28.1613 L -46.131,28.2853 L -46.1701,28.4052 L -46.213,28.5209
 L -46.2597,28.6325 L -46.3102,28.7399 L -46.3645,28.8431 L -46.4226,28.9422 L -46.4846,29.0372 L -46.5503,29.1279
 L -46.6199,29.2146 L -46.6938,29.2974 L -46.7721,29.3764 L -46.855,29.4515 L -46.9424,29.5229 L -47.0342,29.5905
 L -47.1306,29.6542 L -47.2314,29.7141 L -47.3367,29.7702 L -47.4465,29.8226 L -47.5608,29.871 L -47.6796,29.9157
 L -47.8038,29.9565 L -47.9342,29.9935 L -48.0709,30.0269 L -48.2139,30.0565 L -48.3631,30.0825 L -48.5186,30.1047
 L -48.6803,30.1232 L -48.8483,30.138 L -49.0226,30.1492 L -49.2031,30.1566 L -49.4856,30.1607 z
M -50.6986,30.1603 L -50.9608,30.1536 L -51.2109,30.1388 L -51.371,30.1245 L -51.5258,30.1065 L -51.6752,30.085
 L -51.8193,30.0599 L -51.9581,30.0313 L -52.0916,29.999 L -52.2198,29.9632 L -52.3426,29.9237 L -52.4605,29.8806
 L -52.5742,29.8337 L -52.6836,29.783 L -52.7889,29.7285 L -52.8899,29.6702 L -52.9867,29.6081 L -53.0792,29.5422
 L -53.1676,29.4725 L -53.2517,29.399 L -53.3316,29.3218 L -53.4073,29.2407 L -53.4789,29.1558 L -53.5468,29.0669
 L -53.6113,28.974 L -53.6721,28.8771 L -53.7294,28.7761 L -53.7832,28.6711 L -53.8335,28.5621 L -53.8802,28.4491
 L -53.9233,28.332 L -53.963,28.211 L -53.9991,28.0859 L -54.0316,27.9567 L -54.0745,27.7548 L -54.1115,27.5428
 L -54.1424,27.3207 L -54.1674,27.0886 L -54.1863,26.8465 L -54.1993,26.5943 L -54.2063,26.3321 L -54.2076,19.6008
 L -51.8816,19.6008 L -51.8807,27.0359 L -51.8704,27.1818 L -51.8539,27.2915 L -51.8302,27.3949 L -51.799,27.4919
 L -51.7606,27.5827 L -51.7142,27.6677 L -51.659,27.7474 L -51.5952,27.8217 L -51.5226,27.8908 L -51.4413,27.9545
 L -51.351,28.0127 L -51.275,28.0523 L -51.191,28.0883 L -51.0667,28.1309 L -50.9281,28.1671 L -50.7755,28.1971
 L -50.6086,28.2207 L -50.6086,30.1607 z
M -87.2013,30.0625 L -87.2013,19.6945 L -84.8753,19.6945 L -84.8753,30.0625 z
M 85.4348,30.0625 L 78.7988,19.6945 L 81.4359,19.6945 L 88.0568,30.0625 z
M 83.9838,21.8005 L 85.1688,19.6945 L 87.8058,19.6945 L 85.2718,23.8625 z
M 65.4206,30.0625 L 65.4206,19.6945 L 67.7466,19.6945 L 67.7466,30.0625 z
M 29.4122,30.0625 L 29.4122,19.6945 L 31.7382,19.6945 L 31.7382,30.0625 z
M 32.8682,21.6145 L 32.8682,19.6945 L 36.9642,19.6945 L 36.9642,21.6145 z
M 15.5292,30.0305 L 11.8992,19.6945 L 14.4472,19.6945 L 17.7212,30.0305 z
M 17.3062,25.3055 L 18.8322,19.6945 L 21.3362,19.6945 L 18.3732,28.7015 z
M -1.24605,30.0625 L -1.24605,19.6945 L 1.07994,19.6945 L 1.07994,30.0625 z
M -20.5346,30.0625 L -20.5346,19.6945 L -18.2086,19.6945 L -18.2086,30.0625 z
M -16.9506,21.6145 L -16.9506,19.6945 L -12.9187,19.6945 L -12.9187,21.6145 z
M -37.711,30.0625 L -37.711,19.6945 L -35.385,19.6945 L -35.385,30.0625 z
M -31.524,30.0625 L -31.5393,30.0315 L -31.71,29.6553 L -31.8565,29.2707 L -31.947,28.9738 L -32.0197,28.6676
 L -32.0864,28.2863 L -32.157,27.7099 L -32.1855,27.5169 L -32.225,27.334 L -32.2756,27.1611 L -32.3264,27.025
 L -32.3629,26.9474 L -32.4192,26.8492 L -32.4674,26.7793 L -32.5394,26.6913 L -32.6204,26.6092 L -32.7105,26.533
 L -32.7604,26.4978 L -32.8423,26.4495 L -32.9327,26.4065 L -33.0316,26.3688 L -33.139,26.3365 L -33.2549,26.3096
 L -33.3793,26.2879 L -33.7508,26.2438 L -34.262,26.2325 L -34.262,24.3765 L -33.1937,24.3761 L -32.8693,24.3624
 L -32.6481,24.3372 L -32.504,24.3091 L -32.4162,24.2827 L -32.3347,24.2496 L -32.2595,24.2099 L -32.1906,24.1635
 L -32.128,24.1105 L -32.0717,24.0499 L -32.0216,23.9809 L -31.9779,23.9034 L -31.9404,23.8174 L -31.9092,23.7229
 L -31.8788,23.5922 L -31.8515,23.4097 L -31.8311,23.1599 L -31.823,22.8255 L -31.8285,22.6216 L -31.845,22.4408
 L -31.8672,22.3079 L -31.8971,22.191 L -31.9346,22.0885 L -31.9799,21.9978 L -32.0217,21.9339 L -32.0685,21.8777
 L -32.1203,21.829 L -32.1916,21.7779 L -32.2706,21.7346 L -32.3573,21.6992 L -32.4716,21.6669 L -32.5969,21.6454
 L -32.9003,21.619 L -34.262,21.6145 L -34.262,19.6945 L -33.103,19.6945 L -32.9031,19.6965 L -32.5141,19.7128
 L -32.1397,19.7452 L -31.8236,19.7872 L -31.5613,19.8359 L -31.3071,19.8969 L -31.0612,19.9701 L -30.903,20.027
 L -30.7896,20.0765 L -30.6807,20.1321 L -30.5764,20.1937 L -30.4767,20.2614 L -30.3815,20.3351 L -30.2909,20.4149
 L -30.2047,20.5008 L -30.123,20.5931 L -30.0458,20.6922 L -29.9733,20.7982 L -29.9053,20.911 L -29.842,21.0307
 L -29.7832,21.1572 L -29.729,21.2905 L -29.6799,21.4311 L -29.6372,21.5805 L -29.6011,21.739 L -29.5715,21.9067
 L -29.5485,22.0835 L -29.5321,22.2693 L -29.5223,22.4644 L -29.519,22.6685 L -29.5228,22.8032 L -29.5383,22.9749
 L -29.5657,23.1501 L -29.605,23.3289 L -29.6562,23.511 L -29.7054,23.6544 L -29.7618,23.7939 L -29.8254,23.9293
 L -29.8963,24.0608 L -29.9743,24.1883 L -30.0592,24.3113 L -30.1499,24.4272 L -30.2465,24.5354 L -30.349,24.636
 L -30.4573,24.729 L -30.5715,24.8144 L -30.6608,24.8726 L -30.7531,24.9232 L -30.8484,24.9661 L -30.9468,25.0012
 L -31.0482,25.0284 L -31.1528,25.0479 L -31.2603,25.0596 L -31.371,25.0635 L -31.038,25.1973 L -30.9313,25.2492
 L -30.8311,25.3076 L -30.7375,25.3726 L -30.6788,25.4195 L -30.623,25.4693 L -30.5701,25.5221 L -30.5201,25.5777
 L -30.4731,25.6362 L -30.429,25.6977 L -30.3481,25.8273 L -30.274,25.9624 L -30.2067,26.103 L -30.1461,26.2491
 L -30.0922,26.4006 L -30.045,26.5575 L -29.9654,26.878 L -29.9021,27.2025 L -29.7943,27.9591 L -29.6845,28.5558
 L -29.6233,28.7957 L -29.5512,29.0246 L -29.468,29.2425 L -29.3564,29.4904 L -29.2105,29.7755 L -29.045,30.0625
 z
M -83.6173,21.6145 L -83.6173,19.6945 L -79.5853,19.6945 L -79.5853,21.6145 z
M 32.8682,25.5365 L 32.8682,23.6715 L 36.5802,23.6715 L 36.5802,25.5365 z
M -16.9506,25.7055 L -16.9506,23.8675 L -13.5587,23.8675 L -13.5587,25.7055 z
M -83.6173,25.7055 L -83.6173,23.8675 L -80.2253,23.8675 L -80.2253,25.7055 z
M 78.5168,30.0625 L 81.3018,25.3165 L 82.6358,27.3635 L 81.1689,30.0625 z
M 49.0155,30.2872 L 48.8784,30.2846 L 48.423,30.2428 L 48.2935,30.2246 L 48.1671,30.2039 L 48.0437,30.1805
 L 47.9232,30.1545 L 47.8059,30.1258 L 47.6915,30.0946 L 47.5802,30.0607 L 47.4718,30.0241 L 47.3665,29.9849
 L 47.2643,29.9431 L 47.165,29.8987 L 47.0688,29.8516 L 46.9755,29.8019 L 46.8853,29.7496 L 46.7982,29.6946
 L 46.714,29.6371 L 46.6329,29.5768 L 46.5547,29.514 L 46.4796,29.4485 L 46.4076,29.3804 L 46.3385,29.3096
 L 46.2725,29.2362 L 46.2094,29.16 L 46.1491,29.081 L 46.0916,28.999 L 46.0368,28.9142 L 45.985,28.8266
 L 45.9359,28.7361 L 45.8896,28.6427 L 45.8461,28.5465 L 45.8054,28.4474 L 45.7675,28.3455 L 45.7325,28.2407
 L 45.7002,28.1331 L 45.6708,28.0226 L 45.6441,27.9092 L 45.6203,27.793 L 45.5992,27.6739 L 45.581,27.5519
 L 45.5656,27.4271 L 45.5529,27.2995 L 45.5431,27.1689 L 45.5361,27.0356 L 45.5319,26.8993 L 45.5305,26.7602
 L 47.8335,26.6422 L 48.0483,27.466 L 48.1,27.617 L 48.1596,27.752 L 48.2153,27.8522 L 48.2765,27.9412
 L 48.3318,28.0046 L 48.3947,28.0618 L 48.4652,28.1128 L 48.5434,28.1576 L 48.6292,28.1963 L 48.7478,28.2364
 L 48.915,28.2777 L 49.1469,28.3182 L 49.4605,28.3542 L 49.4605,30.2872 z
M 32.8682,30.0625 L 32.8682,28.1425 L 37.0922,28.1425 L 37.0922,30.0625 z
M 29.4122,46.7292 L 29.4122,36.3612 L 31.7382,36.3612 L 31.7382,46.7292 z
M 67.3062,41.9722 L 68.8322,36.3612 L 71.3362,36.3612 L 68.3732,45.3681 z
M 65.5292,46.6971 L 61.8992,36.3612 L 64.4472,36.3612 L 67.7212,46.6971 z
M 82.8682,38.2812 L 82.8682,36.3612 L 86.9642,36.3612 L 86.9642,38.2812 z
M 79.4122,46.7292 L 79.4122,36.3612 L 81.7382,36.3612 L 81.7382,46.7292 z
M 19.9634,41.1302 L 20.9414,36.3612 L 23.2374,36.3612 L 20.9554,45.2652 z
M -81.3734,46.7292 L -87.5553,36.3612 L -85.3663,36.3612 L -79.1553,46.7292 z
M -48.069,41.4782 L -48.173,36.3612 L -45.836,36.3612 L -45.836,45.2162 z
M -1.1897,46.7292 L -1.1897,36.3612 L 1.13628,36.3612 L 1.13628,46.7292 z
M -67.9127,46.7292 L -67.9127,36.3612 L -65.5867,36.3612 L -65.5867,46.7292 z
M -48.04,46.7292 L -54.222,36.3612 L -52.033,36.3612 L -45.822,46.7292 z
M 1.96828,38.2812 L 1.96828,36.3612 L 4.20828,36.3612 L 4.20828,38.2812 z
M -33.7985,38.2812 L -33.7985,36.3612 L -29.7025,36.3612 L -29.7025,38.2812 z
M -81.4024,41.4782 L -81.5064,36.3612 L -79.1694,36.3612 L -79.1694,45.2162 z
M -4.30371,38.3452 L -4.30371,36.3612 L -2.1917,36.3612 L -2.1917,38.3452 z
M -21.3119,46.7292 L -21.3119,36.3612 L -18.9859,36.3612 L -18.9859,46.7292 z
M -14.9669,46.7292 L -17.8559,42.4482 L -17.8559,39.8712 L -15.3219,36.3612 L -12.3149,36.3612 L -16.2999,41.0712
 L -12.0779,46.7292 z
M -37.2545,46.7292 L -37.2545,36.3612 L -34.9285,36.3612 L -34.9285,46.7292 z
M 46.3332,46.7292 L 46.3332,36.3612 L 48.6592,36.3612 L 48.6592,46.7292 z
M 18.1854,46.6971 L 16.6744,39.8602 L 15.7854,45.2502 L 14.7484,41.2932 L 15.5484,36.3612 L 17.7704,36.3612
 L 20.3044,46.6971 z
M 13.0004,46.6971 L 10.0824,36.3612 L 12.4084,36.3612 L 15.1344,46.6971 z
M 32.8682,38.2812 L 32.8682,36.3612 L 36.9642,36.3612 L 36.9642,38.2812 z
M -54.252,46.7292 L -54.252,37.8002 L -52.033,41.5522 L -51.93,46.7292 z
M -87.5853,46.7292 L -87.5853,37.8002 L -85.3663,41.5522 L -85.2633,46.7292 z
M 32.8682,42.2032 L 32.8682,40.3382 L 36.5802,40.3382 L 36.5802,42.2032 z
M 82.8682,42.2032 L 82.8682,40.3382 L 86.5802,40.3382 L 86.5802,42.2032 z
M -33.7985,42.2032 L -33.7985,40.3382 L -30.0865,40.3382 L -30.0865,42.2032 z
M 49.7892,46.7292 L 49.7892,44.8091 L 53.5652,44.8091 L 53.5652,46.7292 z
M 32.8682,46.7292 L 32.8682,44.8091 L 37.0922,44.8091 L 37.0922,46.7292 z
M -33.7985,46.7292 L -33.7985,44.8091 L -29.5745,44.8091 L -29.5745,46.7292 z
M 82.8682,46.7292 L 82.8682,44.8091 L 87.0922,44.8091 L 87.0922,46.7292 z
M -47.5632,56.3091 L -47.5989,56.1769 L -47.6376,56.0505 L -47.6795,55.9298 L -47.7245,55.815 L -47.7726,55.7059
 L -47.8238,55.6025 L -47.8781,55.505 L -47.9355,55.4132 L -47.9961,55.3272 L -48.0597,55.247 L -48.1269,55.1727
 L -48.1627,55.1379 L -48.2,55.1047 L -48.2389,55.0732 L -48.2793,55.0432 L -48.3213,55.0149 L -48.3649,54.9882
 L -48.4101,54.9631 L -48.4568,54.9397 L -48.5051,54.9178 L -48.555,54.8976 L -48.6064,54.879 L -48.6594,54.862
 L -48.7701,54.8329 L -48.8871,54.8102 L -49.0104,54.794 L -49.1399,54.7843 L -49.2757,54.7811 L -49.2757,52.7731
 L -48.9492,52.8232 L -48.2089,53.0598 L -48.0118,53.1319 L -47.818,53.2122 L -47.6274,53.3007 L -47.44,53.3973
 L -47.2557,53.5021 L -47.076,53.6142 L -46.9025,53.7336 L -46.7355,53.8603 L -46.5747,53.9942 L -46.4203,54.1354
 L -46.2723,54.2838 L -46.1319,54.4381 L -46.0001,54.5984 L -45.8767,54.7646 L -45.7619,54.9368 L -45.6557,55.1148
 L -45.5582,55.2983 L -45.4922,55.4381 L -45.4329,55.5796 L -45.3801,55.7228 L -45.3339,55.8678 L -45.2943,56.0145
 L -45.2612,56.1629 L -45.2347,56.3131 L -47.5307,56.4471 z
M -51.2171,63.6754 L -51.4024,63.6618 L -51.5822,63.6413 L -51.7565,63.614 L -51.9254,63.5799 L -52.0887,63.539
 L -52.1683,63.516 L -52.2465,63.4912 L -52.3233,63.4648 L -52.3988,63.4367 L -52.4729,63.4068 L -52.5456,63.3753
 L -52.617,63.3421 L -52.6869,63.3071 L -52.7555,63.2704 L -52.8227,63.2321 L -52.9535,63.1514 L -53.0798,63.0663
 L -53.2016,62.9767 L -53.319,62.8826 L -53.4318,62.7841 L -53.5401,62.6812 L -53.644,62.5737 L -53.7433,62.4618
 L -53.8382,62.3455 L -53.9286,62.2247 L -54.0145,62.0994 L -54.0959,61.9697 L -54.1734,61.8366 L -54.2469,61.7002
 L -54.3165,61.5605 L -54.3822,61.4177 L -54.4439,61.2716 L -54.5017,61.1223 L -54.5556,60.9697 L -54.6055,60.8139
 L -54.6515,60.6549 L -54.6936,60.4926 L -54.7317,60.3271 L -54.7824,60.0756 L -54.8261,59.8227 L -54.8627,59.5683
 L -54.8922,59.3123 L -54.9146,59.0549 L -54.9299,58.7959 L -54.9382,58.5355 L -54.9394,58.2726 L -54.9344,58.0101
 L -54.9233,57.7519 L -54.9063,57.498 L -54.8832,57.2483 L -54.8541,57.0029 L -54.8189,56.7619 L -54.7778,56.5251
 L -54.7301,56.2928 L -54.6938,56.1412 L -54.6538,55.9923 L -54.6102,55.8461 L -54.5629,55.7027 L -54.5119,55.5619
 L -54.4572,55.4238 L -54.3989,55.2885 L -54.3369,55.1559 L -54.2711,55.0259 L -54.2018,54.8987 L -54.1286,54.7741
 L -54.0513,54.6527 L -53.9698,54.5345 L -53.8843,54.4195 L -53.7946,54.3077 L -53.7008,54.1992 L -53.6029,54.0939
 L -53.5009,53.9919 L -53.3948,53.8931 L -53.2845,53.7975 L -53.1702,53.7052 L -53.0517,53.6161 L -52.9286,53.5307
 L -52.8004,53.4496 L -52.667,53.3728 L -52.5285,53.3002 L -52.3848,53.2318 L -52.236,53.1677 L -52.0821,53.1078
 L -51.923,53.0522 L -51.7588,53.0009 L -51.5894,52.9538 L -51.4149,52.9109 L -51.1718,52.857 L -50.9563,52.8232
 L -50.7409,52.8057 L -50.3957,52.8031 L -50.3957,54.7661 L -50.5769,54.7969 L -50.6921,54.8215 L -50.8028,54.8493
 L -50.909,54.8804 L -51.0107,54.9147 L -51.108,54.9523 L -51.2007,54.9932 L -51.2889,55.0373 L -51.3727,55.0846
 L -51.452,55.1352 L -51.5267,55.1891 L -51.5976,55.2455 L -51.6985,55.3343 L -51.7928,55.4282 L -51.8805,55.5271
 L -51.9617,55.6311 L -52.0362,55.74 L -52.1043,55.854 L -52.1657,55.9731 L -52.2211,56.0966 L -52.271,56.2243
 L -52.3153,56.3564 L -52.354,56.4929 L -52.3873,56.6336 L -52.4149,56.7787 L -52.4371,56.9281 L -52.4631,57.1855
 L -52.4942,57.6642 L -52.5073,58.1611 L -52.5022,58.6855 L -52.4787,59.1805 L -52.4422,59.5884 L -52.4142,59.7802
 L -52.387,59.9185 L -52.3544,60.052 L -52.3165,60.1807 L -52.2733,60.3046 L -52.2247,60.4238 L -52.1707,60.5381
 L -52.1107,60.6474 L -52.0437,60.7519 L -51.9698,60.8517 L -51.889,60.9468 L -51.8013,61.0372 L -51.7067,61.1228
 L -51.6052,61.2038 L -51.4966,61.2799 L -51.4185,61.3278 L -51.3355,61.3734 L -51.2475,61.4165 L -51.1545,61.4574
 L -51.0565,61.4958 L -50.9001,61.5491 L -50.7326,61.5971 L -50.5538,61.6397 L -50.3637,61.6771 L -50.3637,63.6391
 L -51.0262,63.6822 z
M -87.2545,63.3958 L -87.2545,53.0278 L -84.9285,53.0278 L -84.9285,63.3958 z
M -14.6984,54.9478 L -14.6984,53.0278 L -12.4584,53.0278 L -12.4584,54.9478 z
M 32.8682,54.9478 L 32.8682,53.0278 L 36.9642,53.0278 L 36.9642,54.9478 z
M 50.6396,58.6388 L 52.1656,53.0278 L 54.6696,53.0278 L 51.7066,62.0348 z
M 12.9999,63.3958 L 12.9999,53.0278 L 15.3259,53.0278 L 15.3259,63.3958 z
M 48.8626,63.3638 L 45.2326,53.0278 L 47.7806,53.0278 L 51.0546,63.3638 z
M 66.2015,54.9478 L 66.2015,53.0278 L 70.2975,53.0278 L 70.2975,54.9478 z
M -3.92113,63.3958 L -3.92113,53.0278 L -1.59514,53.0278 L -1.59514,63.3958 z
M -0.465134,54.9478 L -0.465134,53.0278 L 3.63086,53.0278 L 3.63086,54.9478 z
M -17.8564,63.3958 L -17.8564,53.0278 L -15.5304,53.0278 L -15.5304,63.3958 z
M -20.9704,55.0118 L -20.9704,53.0278 L -18.8584,53.0278 L -18.8584,55.0118 z
M -37.6142,63.3958 L -37.6142,53.0278 L -35.2881,53.0278 L -35.2881,63.3958 z
M -31.4922,63.3958 L -31.4922,58.9158 L -34.1631,58.9158 L -34.1631,56.9958 L -31.4922,56.9958 L -31.4922,53.0278
 L -29.1662,53.0278 L -29.1662,63.3958 z
M 62.7455,63.3958 L 62.7455,53.0278 L 65.0715,53.0278 L 65.0715,63.3958 z
M 85.2643,58.1448 L 85.1603,53.0278 L 87.4973,53.0278 L 87.4973,61.8828 z
M -67.9127,63.3958 L -67.9127,53.0278 L -65.5867,53.0278 L -65.5867,63.3958 z
M 85.2933,63.3958 L 79.1113,53.0278 L 81.3003,53.0278 L 87.5113,63.3958 z
M -83.7985,54.9478 L -83.7985,53.0278 L -79.7025,53.0278 L -79.7025,54.9478 z
M 29.4122,63.3958 L 29.4122,53.0278 L 31.7382,53.0278 L 31.7382,63.3958 z
M 79.0813,63.3958 L 79.0813,54.4668 L 81.3003,58.2188 L 81.4033,63.3958 z
M 32.8682,58.8698 L 32.8682,57.0048 L 36.5802,57.0048 L 36.5802,58.8698 z
M 66.2015,58.8698 L 66.2015,57.0048 L 69.9135,57.0048 L 69.9135,58.8698 z
M -83.7985,58.8698 L -83.7985,57.0048 L -80.0865,57.0048 L -80.0865,58.8698 z
M -0.465134,58.8698 L -0.465134,57.0048 L 3.24686,57.0048 L 3.24686,58.8698 z
M -49.2757,61.6771 L -49.1441,61.6563 L -48.9393,61.6149 L -48.7885,61.5759 L -48.6494,61.5315 L -48.5218,61.4818
 L -48.4056,61.4268 L -48.2976,61.3661 L -48.1968,61.2996 L -48.1032,61.2273 L -48.0168,61.1491 L -47.9376,61.0652
 L -47.8651,60.9752 L -47.7804,60.8533 L -47.7022,60.7211 L -47.6304,60.5787 L -47.5527,60.3941 L -47.4321,60.0481
 L -47.2787,59.5231 L -49.1157,59.5231 L -49.1157,57.6671 L -45.1907,57.6671 L -45.2787,63.4031 L -46.9237,63.4031
 L -47.0417,62.1641 L -47.2478,62.4162 L -47.641,62.8542 L -47.8145,63.0151 L -47.9956,63.1601 L -48.1606,63.2732
 L -48.3338,63.3724 L -48.5154,63.4577 L -48.6776,63.5191 L -48.8186,63.5585 L -48.9653,63.5866 L -49.1177,63.6034
 L -49.2757,63.6091 z
M 32.8682,63.3958 L 32.8682,61.4758 L 37.0922,61.4758 L 37.0922,63.3958 z
M 16.4559,63.3958 L 16.4559,61.4758 L 20.2319,61.4758 L 20.2319,63.3958 z
M -0.465134,63.3958 L -0.465134,61.4758 L 3.75885,61.4758 L 3.75885,63.3958 z
M 66.2015,63.3958 L 66.2015,61.4758 L 70.4255,61.4758 L 70.4255,63.3958 z
M -83.7985,63.3958 L -83.7985,61.4758 L -79.5745,61.4758 L -79.5745,63.3958 z
M 66.1996,80.22 L 66.0053,80.2102 L 65.8151,80.1939 L 65.6289,80.1711 L 65.4469,80.1418 L 65.269,80.1059
 L 65.0952,80.0636 L 64.9256,80.0147 L 64.76,79.9593 L 64.5986,79.8973 L 64.4412,79.8289 L 64.2881,79.7542
 L 64.1395,79.6748 L 63.9951,79.5909 L 63.8551,79.5025 L 63.7195,79.4096 L 63.5883,79.3123 L 63.4613,79.2105
 L 63.3388,79.1042 L 63.2206,78.9934 L 63.1067,78.8782 L 62.9973,78.7584 L 62.8921,78.6342 L 62.7915,78.5057
 L 62.6952,78.3734 L 62.6033,78.2373 L 62.5157,78.0973 L 62.4324,77.9536 L 62.3535,77.806 L 62.279,77.6546
 L 62.2087,77.4994 L 62.1429,77.3404 L 62.0813,77.1776 L 62.0241,77.011 L 61.9713,76.8407 L 61.9232,76.6681
 L 61.8797,76.4932 L 61.8407,76.316 L 61.8064,76.1366 L 61.7766,75.955 L 61.7514,75.7711 L 61.7308,75.585
 L 61.7147,75.3967 L 61.7033,75.2061 L 61.6964,75.0133 L 61.6941,74.8183 L 61.6964,74.6206 L 61.703,74.4256
 L 61.7142,74.2331 L 61.7298,74.0432 L 61.7499,73.856 L 61.7744,73.6713 L 61.8034,73.4893 L 61.8369,73.3098
 L 61.8748,73.133 L 61.9172,72.9588 L 61.964,72.7871 L 62.0153,72.6181 L 62.071,72.4529 L 62.1309,72.2915
 L 62.1953,72.1341 L 62.2639,71.9806 L 62.3369,71.831 L 62.4143,71.6854 L 62.496,71.5437 L 62.582,71.4059
 L 62.6724,71.2721 L 62.7671,71.1422 L 62.8661,71.0163 L 62.9696,70.8943 L 63.0775,70.7769 L 63.1898,70.6641
 L 63.3067,70.5557 L 63.428,70.4519 L 63.5537,70.3526 L 63.6839,70.2578 L 63.8186,70.1676 L 63.9577,70.0818
 L 64.1013,70.0006 L 64.2494,69.9239 L 64.4019,69.8519 L 64.5588,69.7858 L 64.72,69.726 L 64.8855,69.6726
 L 65.0554,69.6254 L 65.2296,69.5845 L 65.4082,69.5499 L 65.5911,69.5216 L 65.7783,69.4996 L 65.9699,69.4838
 L 66.1658,69.4744 L 66.3661,69.4713 L 66.3661,71.3913 L 66.3044,71.3919 L 66.1843,71.3968 L 66.0686,71.4067
 L 65.9572,71.4214 L 65.8503,71.4412 L 65.7478,71.4658 L 65.6497,71.4954 L 65.556,71.5299 L 65.4667,71.5694
 L 65.3817,71.6137 L 65.3012,71.663 L 65.2251,71.7173 L 65.1176,71.8052 L 65.0165,71.899 L 64.9216,71.9986
 L 64.833,72.104 L 64.7508,72.2152 L 64.6748,72.3322 L 64.6051,72.4551 L 64.5417,72.5836 L 64.4845,72.7164
 L 64.4331,72.8532 L 64.3875,72.9941 L 64.3477,73.139 L 64.3137,73.2879 L 64.2856,73.4409 L 64.2633,73.598
 L 64.2267,73.9707 L 64.1982,74.4445 L 64.1901,74.8603 L 64.1962,75.1624 L 64.2143,75.4667 L 64.2509,75.8245
 L 64.2958,76.1326 L 64.3362,76.3326 L 64.3728,76.4784 L 64.4147,76.6207 L 64.462,76.7595 L 64.5146,76.8947
 L 64.5725,77.0264 L 64.6359,77.1544 L 64.7056,77.2772 L 64.7816,77.3941 L 64.8639,77.5053 L 64.9524,77.6107
 L 65.0473,77.7103 L 65.1485,77.8041 L 65.2559,77.8922 L 65.3312,77.9474 L 65.4101,77.998 L 65.4927,78.0439
 L 65.5788,78.0849 L 65.6686,78.121 L 65.7619,78.1524 L 65.8589,78.1789 L 65.9595,78.2007 L 66.0638,78.2175
 L 66.1716,78.2296 L 66.2831,78.2368 L 66.3981,78.2392 L 66.3981,80.2232 z
M 68.9351,72.7864 L 68.8769,72.6113 L 68.8351,72.5011 L 68.791,72.3962 L 68.7445,72.2966 L 68.6957,72.2022
 L 68.6446,72.113 L 68.5911,72.0291 L 68.5352,71.9504 L 68.4771,71.877 L 68.4161,71.8088 L 68.3496,71.7454
 L 68.2772,71.6868 L 68.1989,71.6331 L 68.1146,71.5842 L 68.0243,71.54 L 67.9282,71.5007 L 67.826,71.4662
 L 67.718,71.4365 L 67.604,71.4116 L 67.484,71.3915 L 67.3581,71.3763 L 67.3581,69.4713 L 67.5011,69.4803
 L 67.6416,69.4918 L 67.7795,69.5058 L 67.915,69.5223 L 68.0479,69.5413 L 68.1783,69.5629 L 68.3061,69.5869
 L 68.4315,69.6135 L 68.5543,69.6426 L 68.6746,69.6742 L 68.7924,69.7083 L 68.9077,69.7449 L 69.0204,69.784
 L 69.1306,69.8256 L 69.2383,69.8698 L 69.3435,69.9164 L 69.4461,69.9656 L 69.5463,70.0172 L 69.6439,70.0714
 L 69.739,70.1281 L 69.8315,70.1873 L 69.9216,70.249 L 70.0091,70.3133 L 70.0942,70.3805 L 70.1769,70.4514
 L 70.257,70.5261 L 70.3348,70.6044 L 70.41,70.6865 L 70.4828,70.7722 L 70.5531,70.8617 L 70.621,70.9548
 L 70.6864,71.0517 L 70.7493,71.1522 L 70.8098,71.2565 L 70.8678,71.3645 L 70.9233,71.4761 L 70.9764,71.5915
 L 71.027,71.7105 L 71.0751,71.8333 L 71.1208,71.9597 L 71.164,72.0899 L 71.2048,72.2238 L 71.243,72.3613
 L 71.2789,72.5026 L 71.3122,72.6476 L 71.3431,72.7963 L 68.9881,72.9733 z
M 16.1996,80.22 L 16.0053,80.2102 L 15.8151,80.1939 L 15.6289,80.1711 L 15.4469,80.1418 L 15.269,80.1059
 L 15.0952,80.0636 L 14.9256,80.0147 L 14.76,79.9593 L 14.5986,79.8973 L 14.4412,79.8289 L 14.2881,79.7542
 L 14.1395,79.6748 L 13.9951,79.5909 L 13.8551,79.5025 L 13.7195,79.4096 L 13.5883,79.3123 L 13.4613,79.2105
 L 13.3388,79.1042 L 13.2206,78.9934 L 13.1067,78.8782 L 12.9973,78.7584 L 12.8921,78.6342 L 12.7915,78.5057
 L 12.6952,78.3734 L 12.6033,78.2373 L 12.5157,78.0973 L 12.4324,77.9536 L 12.3535,77.806 L 12.279,77.6546
 L 12.2087,77.4994 L 12.1429,77.3404 L 12.0813,77.1776 L 12.0241,77.011 L 11.9713,76.8407 L 11.9232,76.6681
 L 11.8797,76.4932 L 11.8407,76.316 L 11.8064,76.1366 L 11.7766,75.955 L 11.7514,75.7711 L 11.7308,75.585
 L 11.7147,75.3967 L 11.7033,75.2061 L 11.6964,75.0133 L 11.6941,74.8183 L 11.6964,74.6206 L 11.703,74.4256
 L 11.7142,74.2331 L 11.7298,74.0432 L 11.7499,73.856 L 11.7744,73.6713 L 11.8034,73.4893 L 11.8369,73.3098
 L 11.8748,73.133 L 11.9172,72.9588 L 11.964,72.7871 L 12.0153,72.6181 L 12.071,72.4529 L 12.1309,72.2915
 L 12.1953,72.1341 L 12.2639,71.9806 L 12.3369,71.831 L 12.4143,71.6854 L 12.496,71.5437 L 12.582,71.4059
 L 12.6724,71.2721 L 12.7671,71.1422 L 12.8661,71.0163 L 12.9696,70.8943 L 13.0775,70.7769 L 13.1898,70.6641
 L 13.3067,70.5557 L 13.428,70.4519 L 13.5537,70.3526 L 13.6839,70.2578 L 13.8186,70.1676 L 13.9577,70.0818
 L 14.1013,70.0006 L 14.2494,69.9239 L 14.4019,69.8519 L 14.5588,69.7858 L 14.72,69.726 L 14.8855,69.6726
 L 15.0554,69.6254 L 15.2296,69.5845 L 15.4082,69.5499 L 15.5911,69.5216 L 15.7783,69.4996 L 15.9699,69.4838
 L 16.1658,69.4744 L 16.3661,69.4713 L 16.3661,71.3913 L 16.3044,71.3919 L 16.1843,71.3968 L 16.0686,71.4067
 L 15.9572,71.4214 L 15.8503,71.4412 L 15.7478,71.4658 L 15.6497,71.4954 L 15.556,71.5299 L 15.4667,71.5694
 L 15.3817,71.6137 L 15.3012,71.663 L 15.2251,71.7173 L 15.1176,71.8052 L 15.0165,71.899 L 14.9216,71.9986
 L 14.833,72.104 L 14.7508,72.2152 L 14.6748,72.3322 L 14.6051,72.4551 L 14.5417,72.5836 L 14.4845,72.7164
 L 14.4331,72.8532 L 14.3875,72.9941 L 14.3477,73.139 L 14.3137,73.2879 L 14.2856,73.4409 L 14.2633,73.598
 L 14.2267,73.9707 L 14.1982,74.4445 L 14.1901,74.8603 L 14.1962,75.1624 L 14.2143,75.4667 L 14.2509,75.8245
 L 14.2958,76.1326 L 14.3362,76.3326 L 14.3728,76.4784 L 14.4147,76.6207 L 14.462,76.7595 L 14.5146,76.8947
 L 14.5725,77.0264 L 14.6359,77.1544 L 14.7056,77.2772 L 14.7816,77.3941 L 14.8639,77.5053 L 14.9524,77.6107
 L 15.0473,77.7103 L 15.1485,77.8041 L 15.2559,77.8922 L 15.3312,77.9474 L 15.4101,77.998 L 15.4927,78.0439
 L 15.5788,78.0849 L 15.6686,78.121 L 15.7619,78.1524 L 15.8589,78.1789 L 15.9595,78.2007 L 16.0638,78.2175
 L 16.1716,78.2296 L 16.2831,78.2368 L 16.3981,78.2392 L 16.3981,80.2232 z
M 18.9351,72.7864 L 18.8769,72.6113 L 18.8351,72.5011 L 18.791,72.3962 L 18.7445,72.2966 L 18.6957,72.2022
 L 18.6446,72.113 L 18.5911,72.0291 L 18.5352,71.9504 L 18.4771,71.877 L 18.4161,71.8088 L 18.3496,71.7454
 L 18.2772,71.6868 L 18.1989,71.6331 L 18.1146,71.5842 L 18.0243,71.54 L 17.9282,71.5007 L 17.826,71.4662
 L 17.718,71.4365 L 17.604,71.4116 L 17.484,71.3915 L 17.3581,71.3763 L 17.3581,69.4713 L 17.5011,69.4803
 L 17.6416,69.4918 L 17.7795,69.5058 L 17.915,69.5223 L 18.0479,69.5413 L 18.1783,69.5629 L 18.3061,69.5869
 L 18.4315,69.6135 L 18.5543,69.6426 L 18.6746,69.6742 L 18.7924,69.7083 L 18.9077,69.7449 L 19.0204,69.784
 L 19.1306,69.8256 L 19.2383,69.8698 L 19.3435,69.9164 L 19.4461,69.9656 L 19.5463,70.0172 L 19.6439,70.0714
 L 19.739,70.1281 L 19.8315,70.1873 L 19.9216,70.249 L 20.0091,70.3133 L 20.0942,70.3805 L 20.1769,70.4514
 L 20.257,70.5261 L 20.3348,70.6044 L 20.41,70.6865 L 20.4828,70.7722 L 20.5531,70.8617 L 20.621,70.9548
 L 20.6864,71.0517 L 20.7493,71.1522 L 20.8098,71.2565 L 20.8678,71.3645 L 20.9233,71.4761 L 20.9764,71.5915
 L 21.027,71.7105 L 21.0751,71.8333 L 21.1208,71.9597 L 21.164,72.0899 L 21.2048,72.2238 L 21.243,72.3613
 L 21.2789,72.5026 L 21.3122,72.6476 L 21.3431,72.7963 L 18.9881,72.9733 z
M 50.5119,80.2857 L 50.5119,78.3387 L 50.6311,78.3143 L 50.802,78.2736 L 50.9633,78.228 L 51.115,78.1774
 L 51.2571,78.1219 L 51.3896,78.0614 L 51.5126,77.9961 L 51.5892,77.9497 L 51.6968,77.876 L 51.7976,77.7974
 L 51.8919,77.714 L 51.9796,77.6259 L 52.0608,77.533 L 52.1354,77.4353 L 52.2034,77.3329 L 52.2649,77.2257
 L 52.3205,77.1138 L 52.3711,76.9976 L 52.4166,76.8771 L 52.457,76.7524 L 52.503,76.5795 L 52.54,76.399
 L 52.5682,76.211 L 52.6044,75.8629 L 52.6269,75.4904 L 52.6357,75.0934 L 52.6296,74.5892 L 52.604,74.0468
 L 52.5678,73.626 L 52.546,73.4742 L 52.5187,73.3265 L 52.4857,73.1828 L 52.4472,73.0432 L 52.403,72.9077
 L 52.3532,72.7762 L 52.2977,72.6487 L 52.2355,72.5265 L 52.1662,72.4101 L 52.1161,72.3357 L 52.0629,72.2638
 L 52.0066,72.1945 L 51.9471,72.1279 L 51.8845,72.0637 L 51.8187,72.0022 L 51.7143,71.9146 L 51.6405,71.8596
 L 51.5621,71.8082 L 51.4788,71.7604 L 51.3908,71.7163 L 51.2978,71.6759 L 51.2001,71.6391 L 51.0975,71.606
 L 50.99,71.5766 L 50.8777,71.5509 L 50.7606,71.5288 L 50.6387,71.5105 L 50.5119,71.4958 L 50.5119,69.5188
 L 50.7152,69.5389 L 50.9137,69.5637 L 51.1075,69.5929 L 51.2964,69.6267 L 51.4805,69.6651 L 51.6598,69.708
 L 51.8343,69.7554 L 52.004,69.8074 L 52.1689,69.8639 L 52.329,69.9249 L 52.4843,69.9905 L 52.6348,70.0606
 L 52.7804,70.1353 L 52.9213,70.2145 L 53.0574,70.2983 L 53.1886,70.3866 L 53.3151,70.4794 L 53.4367,70.5768
 L 53.5536,70.6787 L 53.6656,70.7851 L 53.7728,70.8961 L 53.8753,71.0117 L 53.9729,71.1318 L 54.066,71.2558
 L 54.155,71.3835 L 54.2399,71.5147 L 54.3206,71.6496 L 54.3972,71.788 L 54.4697,71.93 L 54.538,72.0757
 L 54.6021,72.2249 L 54.6622,72.3777 L 54.718,72.5341 L 54.7698,72.6942 L 54.8174,72.8578 L 54.8609,73.025
 L 54.9002,73.1958 L 54.9354,73.3702 L 54.9664,73.5482 L 54.9934,73.7297 L 55.0161,73.9149 L 55.0348,74.1037
 L 55.0492,74.2961 L 55.0596,74.492 L 55.0658,74.6916 L 55.0674,74.9831 L 55.06,75.2469 L 55.0439,75.509
 L 55.0189,75.7693 L 54.9851,76.0278 L 54.9577,76.1991 L 54.9264,76.3697 L 54.872,76.6241 L 54.8309,76.7927
 L 54.7858,76.9603 L 54.7368,77.125 L 54.6837,77.2866 L 54.6265,77.4451 L 54.5653,77.6004 L 54.5001,77.7527
 L 54.4308,77.9018 L 54.3575,78.0478 L 54.2801,78.1907 L 54.1988,78.3305 L 54.1133,78.4672 L 54.0239,78.6007
 L 53.9305,78.7303 L 53.8328,78.8555 L 53.7308,78.9762 L 53.6247,79.0925 L 53.5142,79.2043 L 53.3996,79.3117
 L 53.2806,79.4146 L 53.1575,79.5131 L 53.03,79.6071 L 52.8984,79.6967 L 52.7624,79.7818 L 52.6223,79.8621
 L 52.5506,79.8998 L 52.4777,79.9357 L 52.4037,79.9698 L 52.3285,80.0022 L 52.2521,80.0328 L 52.1746,80.0617
 L 52.096,80.0888 L 51.9352,80.1378 L 51.8531,80.1597 L 51.6854,80.1982 L 51.5132,80.2297 L 51.3362,80.2542
 L 51.1547,80.2717 L 50.9686,80.2822 L 50.7779,80.2857 z
M 0.511871,80.2857 L 0.511871,78.3387 L 0.631134,78.3143 L 0.802032,78.2736 L 0.963318,78.228 L 1.11502,78.1774
 L 1.25713,78.1219 L 1.38963,78.0614 L 1.51256,77.9961 L 1.58917,77.9497 L 1.69676,77.876 L 1.79762,77.7974
 L 1.89192,77.714 L 1.97964,77.6259 L 2.06081,77.533 L 2.13539,77.4353 L 2.20341,77.3329 L 2.26488,77.2257
 L 2.32051,77.1138 L 2.37108,76.9976 L 2.41658,76.8771 L 2.45702,76.7524 L 2.50304,76.5795 L 2.54004,76.399
 L 2.56818,76.211 L 2.6044,75.8629 L 2.62692,75.4904 L 2.63574,75.0934 L 2.62958,74.5892 L 2.60402,74.0468
 L 2.56776,73.626 L 2.54604,73.4742 L 2.51869,73.3265 L 2.48575,73.1828 L 2.44717,73.0432 L 2.40298,72.9077
 L 2.3532,72.7762 L 2.2977,72.6487 L 2.23549,72.5265 L 2.16623,72.4101 L 2.11613,72.3357 L 2.06291,72.2638
 L 2.00658,72.1945 L 1.9471,72.1279 L 1.88449,72.0637 L 1.81874,72.0022 L 1.71426,71.9146 L 1.64049,71.8596
 L 1.56209,71.8082 L 1.47884,71.7604 L 1.39076,71.7163 L 1.29784,71.6759 L 1.20007,71.6391 L 1.09747,71.606
 L 0.990036,71.5766 L 0.877747,71.5509 L 0.760635,71.5288 L 0.638672,71.5105 L 0.511871,71.4958 L 0.511871,69.5188
 L 0.71521,69.5389 L 0.913742,69.5637 L 1.10747,69.5929 L 1.29639,69.6267 L 1.4805,69.6651 L 1.65982,69.708
 L 1.83432,69.7554 L 2.00401,69.8074 L 2.16891,69.8639 L 2.32899,69.9249 L 2.48428,69.9905 L 2.63477,70.0606
 L 2.78044,70.1353 L 2.92131,70.2145 L 3.05737,70.2983 L 3.18863,70.3866 L 3.31508,70.4794 L 3.43672,70.5768
 L 3.55356,70.6787 L 3.6656,70.7851 L 3.77283,70.8961 L 3.87526,71.0117 L 3.97287,71.1318 L 4.06602,71.2558
 L 4.15503,71.3835 L 4.2399,71.5147 L 4.32063,71.6496 L 4.39722,71.788 L 4.46967,71.93 L 4.53796,72.0757
 L 4.60214,72.2249 L 4.66217,72.3777 L 4.71805,72.5341 L 4.76981,72.6942 L 4.81741,72.8578 L 4.86089,73.025
 L 4.90021,73.1958 L 4.93539,73.3702 L 4.96645,73.5482 L 4.99336,73.7297 L 5.01613,73.9149 L 5.03476,74.1037
 L 5.04924,74.2961 L 5.0596,74.492 L 5.06581,74.6916 L 5.06738,74.9831 L 5.06004,75.2469 L 5.04388,75.509
 L 5.01892,75.7693 L 4.98514,76.0278 L 4.95772,76.1991 L 4.92638,76.3697 L 4.87204,76.6241 L 4.8309,76.7927
 L 4.78584,76.9603 L 4.73677,77.125 L 4.68365,77.2866 L 4.6265,77.4451 L 4.56529,77.6004 L 4.50006,77.7527
 L 4.4308,77.9018 L 4.35748,78.0478 L 4.28014,78.1907 L 4.19876,78.3305 L 4.11333,78.4672 L 4.02388,78.6007
 L 3.93045,78.7303 L 3.83276,78.8555 L 3.73083,78.9762 L 3.62466,79.0925 L 3.51424,79.2043 L 3.39955,79.3117
 L 3.28062,79.4146 L 3.15746,79.5131 L 3.03003,79.6071 L 2.89836,79.6967 L 2.76244,79.7818 L 2.6223,79.8621
 L 2.55057,79.8998 L 2.47769,79.9357 L 2.40366,79.9698 L 2.32846,80.0022 L 2.25212,80.0328 L 2.17462,80.0617
 L 2.09598,80.0888 L 1.93523,80.1378 L 1.85312,80.1597 L 1.68544,80.1982 L 1.51315,80.2297 L 1.33624,80.2542
 L 1.15474,80.2717 L 0.968613,80.2822 L 0.777878,80.2857 z
M 48.8378,80.2854 L 48.5916,80.2691 L 48.3238,80.2247 L 48.1607,80.1889 L 48.002,80.1481 L 47.8474,80.1022
 L 47.6972,80.0512 L 47.5512,79.9953 L 47.4095,79.9343 L 47.272,79.8682 L 47.1389,79.7972 L 47.0099,79.7211
 L 46.8853,79.6399 L 46.7649,79.5537 L 46.6485,79.4634 L 46.536,79.3698 L 46.4272,79.273 L 46.3222,79.1729
 L 46.221,79.0696 L 46.1237,78.963 L 46.0301,78.8532 L 45.9403,78.7401 L 45.8543,78.6238 L 45.7721,78.5042
 L 45.6937,78.3814 L 45.619,78.2554 L 45.5479,78.127 L 45.4802,77.9962 L 45.416,77.8631 L 45.3552,77.7276
 L 45.2979,77.5898 L 45.2441,77.4497 L 45.1937,77.3072 L 45.1247,77.089 L 45.0634,76.8656 L 45.01,76.6371
 L 44.9637,76.4061 L 44.9242,76.1733 L 44.8915,75.9387 L 44.8655,75.7023 L 44.8463,75.4642 L 44.8339,75.2243
 L 44.8283,74.9827 L 44.83,74.7099 L 44.8364,74.52 L 44.847,74.3322 L 44.8619,74.1464 L 44.881,73.9626
 L 44.9044,73.7807 L 44.932,73.601 L 44.9639,73.4232 L 45,73.2474 L 45.0404,73.0736 L 45.085,72.9019
 L 45.1339,72.7323 L 45.187,72.5662 L 45.2443,72.4039 L 45.306,72.2455 L 45.3718,72.0909 L 45.4419,71.9401
 L 45.5163,71.7932 L 45.5949,71.65 L 45.6778,71.5107 L 45.7649,71.3752 L 45.8563,71.2436 L 45.9519,71.1158
 L 46.0519,70.9919 L 46.1563,70.8726 L 46.2652,70.7577 L 46.3785,70.6473 L 46.4964,70.5415 L 46.6186,70.4401
 L 46.7454,70.3432 L 46.8766,70.2508 L 47.0122,70.1629 L 47.1523,70.0795 L 47.2969,70.0005 L 47.4461,69.9263
 L 47.5997,69.8581 L 47.7579,69.7965 L 47.9206,69.7414 L 48.0877,69.6927 L 48.2593,69.6505 L 48.4354,69.6149
 L 48.6159,69.5857 L 48.8009,69.563 L 48.9904,69.5467 L 49.1844,69.537 L 49.3829,69.5338 L 49.3829,71.4958
 L 49.324,71.5027 L 49.2093,71.5192 L 49.0986,71.5394 L 48.9919,71.5633 L 48.8893,71.5909 L 48.7907,71.6221
 L 48.6961,71.657 L 48.6056,71.6956 L 48.5191,71.7379 L 48.4367,71.7838 L 48.3583,71.8335 L 48.2839,71.8868
 L 48.213,71.943 L 48.1118,72.0316 L 48.017,72.1252 L 47.9285,72.2238 L 47.8464,72.3275 L 47.7706,72.4362
 L 47.701,72.55 L 47.6379,72.6688 L 47.5806,72.7917 L 47.5285,72.9184 L 47.4818,73.0489 L 47.4404,73.1832
 L 47.4042,73.3212 L 47.3643,73.5111 L 47.3339,73.7078 L 47.2957,74.0619 L 47.2712,74.4244 L 47.26,74.8489
 L 47.2679,75.3611 L 47.2918,75.7928 L 47.3259,76.1487 L 47.3535,76.342 L 47.3804,76.4816 L 47.4126,76.6168
 L 47.45,76.7475 L 47.4927,76.8737 L 47.5407,76.9955 L 47.594,77.1127 L 47.6528,77.2253 L 47.718,77.3333
 L 47.7899,77.4364 L 47.8682,77.5348 L 47.9531,77.6284 L 48.0445,77.7173 L 48.1424,77.8014 L 48.2469,77.8807
 L 48.321,77.9309 L 48.3995,77.9789 L 48.4824,78.0247 L 48.5699,78.0682 L 48.7094,78.1293 L 48.859,78.1854
 L 49.0186,78.2365 L 49.1882,78.2826 L 49.3679,78.3237 L 49.3679,80.2857 z
M -1.16216,80.2854 L -1.40842,80.2691 L -1.67622,80.2247 L -1.83926,80.1889 L -1.99805,80.1481 L -2.15256,80.1022
 L -2.3028,80.0512 L -2.44878,79.9953 L -2.5905,79.9343 L -2.72795,79.8682 L -2.86113,79.7972 L -2.99005,79.7211
 L -3.11472,79.6399 L -3.23511,79.5537 L -3.35147,79.4634 L -3.46404,79.3698 L -3.57281,79.273 L -3.67778,79.1729
 L -3.77896,79.0696 L -3.87634,78.963 L -3.96994,78.8532 L -4.05972,78.7401 L -4.14572,78.6238 L -4.22792,78.5042
 L -4.30634,78.3814 L -4.38098,78.2554 L -4.45213,78.127 L -4.51981,77.9962 L -4.58403,77.8631 L -4.64479,77.7276
 L -4.70207,77.5898 L -4.75591,77.4497 L -4.80627,77.3072 L -4.87534,77.089 L -4.9366,76.8656 L -4.99004,76.6371
 L -5.0363,76.4061 L -5.07581,76.1733 L -5.10854,75.9387 L -5.13449,75.7023 L -5.15367,75.4642 L -5.16609,75.2243
 L -5.17174,74.9827 L -5.16998,74.7099 L -5.1636,74.52 L -5.15298,74.3322 L -5.13811,74.1464 L -5.11899,73.9626
 L -5.09561,73.7807 L -5.06799,73.601 L -5.03612,73.4232 L -5,73.2474 L -4.95964,73.0736 L -4.91501,72.9019
 L -4.86615,72.7323 L -4.81302,72.5662 L -4.75566,72.4039 L -4.69403,72.2455 L -4.62817,72.0909 L -4.55806,71.9401
 L -4.48369,71.7932 L -4.40508,71.65 L -4.3222,71.5107 L -4.23509,71.3752 L -4.14372,71.2436 L -4.04811,71.1158
 L -3.94814,70.9919 L -3.8437,70.8726 L -3.73482,70.7577 L -3.62146,70.6473 L -3.50365,70.5415 L -3.38138,70.4401
 L -3.25464,70.3432 L -3.12344,70.2508 L -2.98778,70.1629 L -2.84766,70.0795 L -2.70308,70.0005 L -2.55394,69.9263
 L -2.40025,69.8581 L -2.24208,69.7965 L -2.07944,69.7414 L -1.91231,69.6927 L -1.74071,69.6505 L -1.56464,69.6149
 L -1.38408,69.5857 L -1.19905,69.563 L -1.00955,69.5467 L -0.815567,69.537 L -0.617111,69.5338 L -0.617111,71.4958
 L -0.675995,71.5027 L -0.790741,71.5192 L -0.901443,71.5394 L -1.00812,71.5633 L -1.11075,71.5909 L -1.20934,71.6221
 L -1.30389,71.657 L -1.39441,71.6956 L -1.4809,71.7379 L -1.56334,71.7838 L -1.64174,71.8335 L -1.71611,71.8868
 L -1.78705,71.943 L -1.88818,72.0316 L -1.983,72.1252 L -2.07147,72.2238 L -2.15363,72.3275 L -2.22945,72.4362
 L -2.29895,72.55 L -2.36211,72.6688 L -2.41945,72.7917 L -2.4715,72.9184 L -2.51822,73.0489 L -2.55965,73.1832
 L -2.59576,73.3212 L -2.63565,73.5111 L -2.66611,73.7078 L -2.7043,74.0619 L -2.72878,74.4244 L -2.73997,74.8489
 L -2.73213,75.3611 L -2.70818,75.7928 L -2.6741,76.1487 L -2.64647,76.342 L -2.61958,76.4816 L -2.58742,76.6168
 L -2.54999,76.7475 L -2.50728,76.8737 L -2.45929,76.9955 L -2.40604,77.1127 L -2.34723,77.2253 L -2.28195,77.3333
 L -2.21014,77.4364 L -2.13181,77.5348 L -2.04692,77.6284 L -1.95552,77.7173 L -1.85759,77.8014 L -1.75311,77.8807
 L -1.67905,77.9309 L -1.60054,77.9789 L -1.51756,78.0247 L -1.43011,78.0682 L -1.29059,78.1293 L -1.14102,78.1854
 L -0.98143,78.2365 L -0.811783,78.2826 L -0.632111,78.3237 L -0.632111,80.2857 z
M -67.1318,71.6145 L -67.1318,69.6945 L -63.0358,69.6945 L -63.0358,71.6145 z
M 85.0331,80.0625 L 82.1441,75.7815 L 82.1441,73.2045 L 84.6781,69.6945 L 87.6851,69.6945 L 83.7001,74.4045
 L 87.9221,80.0625 z
M -20.9817,80.0625 L -20.9817,69.6945 L -18.6557,69.6945 L -18.6557,80.0625 z
M -81.3651,71.6145 L -81.3651,69.6945 L -79.125,69.6945 L -79.125,71.6145 z
M -84.523,80.0625 L -84.523,69.6945 L -82.1971,69.6945 L -82.1971,80.0625 z
M 78.6881,80.0625 L 78.6881,69.6945 L 81.0141,69.6945 L 81.0141,80.0625 z
M -87.637,71.6785 L -87.637,69.6945 L -85.525,69.6945 L -85.525,71.6785 z
M -17.5467,78.0995 L -16.6905,78.1337 L -16.2283,78.096 L -16.0682,78.0686 L -15.915,78.0308 L -15.7689,77.9828
 L -15.6297,77.9245 L -15.5244,77.8696 L -15.4253,77.8072 L -15.3325,77.7374 L -15.246,77.66 L -15.1658,77.5751
 L -15.092,77.4826 L -15.059,77.4327 L -15.0291,77.38 L -15.0024,77.3246 L -14.9682,77.2363 L -14.9411,77.1417
 L -14.921,77.0409 L -14.908,76.9339 L -14.9021,76.8206 L -14.9032,76.7089 L -14.9109,76.6047 L -14.9251,76.5063
 L -14.9459,76.4136 L -14.9733,76.3267 L -15.0072,76.2456 L -15.0477,76.1702 L -15.0947,76.1005 L -15.1651,76.0152
 L -15.2417,75.9374 L -15.3247,75.8671 L -15.4141,75.8043 L -15.5098,75.749 L -15.6117,75.7012 L -15.7453,75.6502
 L -15.8851,75.6082 L -16.0314,75.5753 L -16.2152,75.5478 L -16.6504,75.5145 L -17.1677,75.5075 L -17.5467,75.5375
 L -17.5467,73.6975 L -17.3327,73.6975 L -16.3506,73.7263 L -16.2117,73.7189 L -16.0763,73.7011 L -15.9445,73.6728
 L -15.8161,73.634 L -15.6922,73.5847 L -15.577,73.526 L -15.4708,73.4582 L -15.3925,73.3975 L -15.3199,73.331
 L -15.2538,73.2582 L -15.2113,73.198 L -15.1754,73.1328 L -15.146,73.0625 L -15.1231,72.9871 L -15.1068,72.9066
 L -15.097,72.8211 L -15.0937,72.7305 L -15.0969,72.636 L -15.1064,72.5466 L -15.1222,72.4623 L -15.1444,72.3832
 L -15.1729,72.3091 L -15.2077,72.2401 L -15.2488,72.1763 L -15.296,72.1173 L -15.3651,72.0445 L -15.4406,71.9779
 L -15.5224,71.9176 L -15.6106,71.8637 L -15.7051,71.816 L -15.8312,71.7648 L -15.9886,71.7145 L -16.1521,71.6767
 L -16.3218,71.6512 L -16.6356,71.6266 L -17.2197,71.6155 L -17.5617,71.6445 L -17.5617,69.6945 L -17.1897,69.6945
 L -16.6859,69.7025 L -16.102,69.7306 L -15.5692,69.7734 L -15.3723,69.7983 L -15.1795,69.8297 L -14.9908,69.8676
 L -14.8062,69.912 L -14.6256,69.963 L -14.4491,70.0205 L -14.2767,70.0845 L -14.1648,70.1312 L -14.0565,70.1819
 L -13.9517,70.2367 L -13.8506,70.2955 L -13.753,70.3583 L -13.6591,70.4251 L -13.5688,70.4959 L -13.482,70.5708
 L -13.3989,70.6497 L -13.3193,70.7326 L -13.2434,70.8195 L -13.1713,70.9106 L -13.1374,70.9583 L -13.1051,71.0073
 L -13.0743,71.0579 L -13.0452,71.1099 L -13.0175,71.1635 L -12.9915,71.2185 L -12.9671,71.2749 L -12.923,71.3923
 L -12.8851,71.5156 L -12.8536,71.6449 L -12.8284,71.78 L -12.8094,71.921 L -12.7968,72.068 L -12.7905,72.2209
 L -12.7905,72.3717 L -12.7961,72.512 L -12.8073,72.6469 L -12.8242,72.7763 L -12.8467,72.9004 L -12.8748,73.019
 L -12.9086,73.1321 L -12.948,73.2399 L -12.993,73.3422 L -13.0436,73.439 L -13.0999,73.5305 L -13.1617,73.6165
 L -13.2289,73.699 L -13.301,73.7803 L -13.3781,73.8604 L -13.4601,73.9392 L -13.547,74.0168 L -13.6389,74.0932
 L -13.7358,74.1684 L -13.8903,74.2789 L -14.056,74.3866 L -14.2327,74.4915 L -14.093,74.5601 L -13.959,74.6319
 L -13.8308,74.707 L -13.7084,74.7853 L -13.5917,74.8669 L -13.4808,74.9518 L -13.3756,75.0398 L -13.2762,75.1312
 L -13.1826,75.2258 L -13.0947,75.3236 L -13.0126,75.4247 L -12.9363,75.5292 L -12.9005,75.5832 L -12.8664,75.6384
 L -12.834,75.6949 L -12.8032,75.7527 L -12.7741,75.8117 L -12.7467,75.872 L -12.7209,75.9336 L -12.6968,75.9964
 L -12.6743,76.0605 L -12.6344,76.1925 L -12.6011,76.3295 L -12.5745,76.4715 L -12.5545,76.6186 L -12.5412,76.7708
 L -12.5346,76.928 L -12.534,77.0509 L -12.5411,77.22 L -12.5575,77.3883 L -12.5833,77.5557 L -12.6184,77.7222
 L -12.663,77.888 L -12.7168,78.0521 L -12.7792,78.2113 L -12.8502,78.3654 L -12.9297,78.5141 L -13.0177,78.6576
 L -13.1143,78.7958 L -13.1969,78.9002 L -13.2853,79.0015 L -13.3767,79.097 L -13.4712,79.1868 L -13.5687,79.2709
 L -13.6693,79.3492 L -13.773,79.4217 L -13.8797,79.4885 L -14.0255,79.57 L -14.2128,79.6624 L -14.4056,79.7444
 L -14.604,79.8159 L -14.8079,79.8768 L -14.9738,79.917 L -15.1415,79.9492 L -15.311,79.9734 L -15.4823,79.9894
 L -15.6555,79.9975 L -17.5467,79.9985 z
M 29.6665,80.0625 L 29.6665,69.6945 L 31.9926,69.6945 L 31.9926,80.0625 z
M -70.5878,80.0625 L -70.5878,69.6945 L -68.2618,69.6945 L -68.2618,80.0625 z
M -37.7929,80.0625 L -37.7929,69.6945 L -35.4669,69.6945 L -35.4669,80.0625 z
M -34.3489,78.1425 L -33.6819,78.1425 L -33.5333,78.1409 L -33.3223,78.1327 L -33.1257,78.1174 L -32.9434,78.0951
 L -32.8299,78.0764 L -32.7227,78.0544 L -32.622,78.0294 L -32.5276,78.0012 L -32.4396,77.9699 L -32.3579,77.9355
 L -32.2813,77.8977 L -32.2086,77.8567 L -32.1398,77.8124 L -32.075,77.7649 L -32.0141,77.7142 L -31.9571,77.6602
 L -31.904,77.603 L -31.8549,77.5425 L -31.8097,77.4789 L -31.7685,77.4119 L -31.7311,77.3418 L -31.6975,77.2683
 L -31.6526,77.1523 L -31.6143,77.0295 L -31.5826,76.8999 L -31.5574,76.7634 L -31.5388,76.6202 L -31.5268,76.4701
 L -31.5213,76.3133 L -31.521,74.8205 L -31.5243,74.5964 L -31.5378,74.3239 L -31.5617,74.0597 L -31.596,73.804
 L -31.6408,73.5567 L -31.6741,73.4138 L -31.7128,73.276 L -31.757,73.1432 L -31.8067,73.0155 L -31.8619,72.8929
 L -31.9225,72.7754 L -31.9887,72.6629 L -32.0606,72.5554 L -32.1391,72.4534 L -32.2244,72.357 L -32.3165,72.2661
 L -32.4152,72.1808 L -32.5207,72.1012 L -32.633,72.027 L -32.7519,71.9585 L -32.8352,71.9166 L -32.9223,71.8785
 L -33.0131,71.8442 L -33.1076,71.8137 L -33.206,71.787 L -33.3081,71.7641 L -33.4139,71.7451 L -33.5236,71.7298
 L -33.637,71.7184 L -33.7541,71.7108 L -33.9369,71.7065 L -34.3489,71.6325 L -34.3489,69.6945 L -33.5939,69.6945
 L -33.2613,69.7059 L -32.39,69.9227 L -32.2369,69.9687 L -32.0874,70.0185 L -31.9415,70.0723 L -31.7992,70.1301
 L -31.6605,70.1917 L -31.5254,70.2572 L -31.3939,70.3267 L -31.266,70.4001 L -31.1417,70.4774 L -31.021,70.5584
 L -30.9038,70.6422 L -30.7903,70.7289 L -30.6805,70.8184 L -30.5744,70.9107 L -30.472,71.0058 L -30.3732,71.1037
 L -30.2782,71.2045 L -30.1869,71.308 L -30.0992,71.4144 L -30.0152,71.5235 L -29.935,71.6355 L -29.858,71.75
 L -29.7845,71.8671 L -29.7143,71.9868 L -29.6475,72.1091 L -29.5841,72.2339 L -29.524,72.3614 L -29.4673,72.4914
 L -29.414,72.624 L -29.364,72.7592 L -29.3175,72.897 L -29.254,73.1085 L -29.1981,73.3246 L -29.1501,73.5439
 L -29.1098,73.7665 L -29.0773,73.9924 L -29.0526,74.2215 L -29.0358,74.4539 L -29.0267,74.6896 L -29.0251,74.8988
 L -29.0338,75.2003 L -29.0556,75.5019 L -29.0905,75.8035 L -29.1384,76.1046 L -29.1904,76.353 L -29.2544,76.5987
 L -29.3302,76.8416 L -29.418,77.0818 L -29.5489,77.396 L -29.6613,77.6466 L -29.7742,77.8813 L -29.8876,78.1001
 L -30.0016,78.303 L -30.116,78.4901 L -30.1926,78.6059 L -30.2695,78.7147 L -30.3466,78.8168 L -30.4254,78.9141
 L -30.5061,79.0069 L -30.5887,79.0952 L -30.6732,79.179 L -30.7596,79.2583 L -30.8479,79.3332 L -30.9381,79.4036
 L -31.0302,79.4696 L -31.1242,79.531 L -31.2201,79.588 L -31.3179,79.6405 L -31.418,79.6891 L -31.5204,79.7343
 L -31.6253,79.7762 L -31.7873,79.8327 L -31.9547,79.8816 L -32.1277,79.923 L -32.3062,79.9569 L -32.4902,79.9832
 L -32.6799,80.0021 L -33.1568,80.0344 L -33.6842,80.0545 L -34.3489,80.0625 z
M -48.04,80.0625 L -54.222,69.6945 L -52.033,69.6945 L -45.822,80.0625 z
M -48.069,74.8115 L -48.173,69.6945 L -45.836,69.6945 L -45.836,78.5495 z
M -54.252,80.0625 L -54.252,71.1335 L -52.033,74.8855 L -51.93,80.0625 z
M -67.1318,75.5365 L -67.1318,73.6715 L -63.4198,73.6715 L -63.4198,75.5365 z
M 17.3581,78.2542 L 17.4307,78.2458 L 17.5704,78.2245 L 17.703,78.1974 L 17.8284,78.1646 L 17.9467,78.1259
 L 18.0577,78.0815 L 18.1105,78.0571 L 18.1616,78.0313 L 18.2108,78.004 L 18.2582,77.9753 L 18.3039,77.9451
 L 18.3477,77.9134 L 18.3898,77.8804 L 18.43,77.8458 L 18.4685,77.8099 L 18.5052,77.7724 L 18.54,77.7336
 L 18.5731,77.6932 L 18.6048,77.6515 L 18.6651,77.5636 L 18.7214,77.4699 L 18.7737,77.3704 L 18.8219,77.2651
 L 18.8662,77.1539 L 18.9064,77.037 L 18.9426,76.9143 L 18.9747,76.7857 L 19.0029,76.6514 L 19.027,76.5112
 L 19.0471,76.3652 L 21.5061,76.5272 L 21.4902,76.6122 L 21.4394,76.8596 L 21.3834,77.0958 L 21.3225,77.3209
 L 21.2565,77.5348 L 21.1854,77.7375 L 21.1094,77.9292 L 21.0558,78.0507 L 21.0001,78.1672 L 20.9119,78.3342
 L 20.8179,78.4933 L 20.7519,78.5951 L 20.6834,78.6933 L 20.6123,78.7881 L 20.5387,78.8794 L 20.4624,78.9672
 L 20.3835,79.0516 L 20.3021,79.1325 L 20.2181,79.2099 L 20.1314,79.2838 L 20.0418,79.3547 L 19.9491,79.4225
 L 19.8533,79.4872 L 19.7546,79.5489 L 19.6528,79.6076 L 19.5479,79.6631 L 19.44,79.7157 L 19.3291,79.7652
 L 19.157,79.8336 L 18.9781,79.8952 L 18.792,79.9517 L 18.5321,80.0214 L 18.2587,80.085 L 17.9719,80.1423
 L 17.6717,80.1934 L 17.3581,80.2382 z
M 67.3581,78.2542 L 67.4307,78.2458 L 67.5704,78.2245 L 67.703,78.1974 L 67.8284,78.1646 L 67.9467,78.1259
 L 68.0577,78.0815 L 68.1105,78.0571 L 68.1616,78.0313 L 68.2108,78.004 L 68.2582,77.9753 L 68.3039,77.9451
 L 68.3477,77.9134 L 68.3898,77.8804 L 68.43,77.8458 L 68.4685,77.8099 L 68.5052,77.7724 L 68.54,77.7336
 L 68.5731,77.6932 L 68.6048,77.6515 L 68.6651,77.5636 L 68.7214,77.4699 L 68.7737,77.3704 L 68.8219,77.2651
 L 68.8662,77.1539 L 68.9064,77.037 L 68.9426,76.9143 L 68.9747,76.7857 L 69.0029,76.6514 L 69.027,76.5112
 L 69.0471,76.3652 L 71.5061,76.5272 L 71.4902,76.6122 L 71.4394,76.8596 L 71.3834,77.0958 L 71.3225,77.3209
 L 71.2565,77.5348 L 71.1854,77.7375 L 71.1094,77.9292 L 71.0558,78.0507 L 71.0001,78.1672 L 70.9119,78.3342
 L 70.8179,78.4933 L 70.7519,78.5951 L 70.6834,78.6933 L 70.6123,78.7881 L 70.5387,78.8794 L 70.4624,78.9672
 L 70.3835,79.0516 L 70.3021,79.1325 L 70.2181,79.2099 L 70.1314,79.2838 L 70.0418,79.3547 L 69.9491,79.4225
 L 69.8533,79.4872 L 69.7546,79.5489 L 69.6528,79.6076 L 69.5479,79.6631 L 69.44,79.7157 L 69.3291,79.7652
 L 69.157,79.8336 L 68.9781,79.8952 L 68.792,79.9517 L 68.5321,80.0214 L 68.2587,80.085 L 67.9719,80.1423
 L 67.6717,80.1934 L 67.3581,80.2382 z
M -67.1318,80.0625 L -67.1318,78.1425 L -62.9078,78.1425 L -62.9078,80.0625 z
M 33.1226,80.0625 L 33.1226,78.1425 L 36.8985,78.1425 L 36.8985,80.0625 z
" stroke="black" fill="lightgray" stroke-width="0.5"/></svg>
