<?xml version="1.0" standalone="no"?>
<!DOCTYPE svg PUBLIC "-//W3C//DTD SVG 1.1//EN" "http://www.w3.org/Graphics/SVG/1.1/DTD/svg11.dtd">
<svg width="232" height="116" viewBox="-116 0 232 116" xmlns="http://www.w3.org/2000/svg" version="1.1">
<title>OpenSCAD Model</title>
<path d="
M -116,-0 L -116,116 L 116,116 L 116,-0 z
M -31.5194,6.01173 L -31.6027,5.4933 L -31.6399,5.36122 L -31.6786,5.26187 L -31.7243,5.17227 L -31.7769,5.09235
 L -31.8377,5.02075 L -31.9076,4.9568 L -31.9867,4.90053 L -32.075,4.8519 L -32.1738,4.81042 L -32.3137,4.76741
 L -32.5074,4.72618 L -32.7339,4.69458 L -32.7339,2.80458 L -32.5269,2.86359 L -32.4258,2.86469 L -32.3259,2.86798
 L -32.2272,2.87347 L -32.1296,2.88116 L -32.0332,2.89104 L -31.938,2.90312 L -31.844,2.9174 L -31.7511,2.93388
 L -31.6595,2.95255 L -31.5689,2.97342 L -31.4796,2.99648 L -31.3914,3.02174 L -31.3044,3.04919 L -31.2186,3.07886
 L -31.1339,3.1107 L -31.0504,3.14474 L -30.9681,3.181 L -30.887,3.21944 L -30.807,3.26007 L -30.7282,3.3029
 L -30.6506,3.34793 L -30.5741,3.39516 L -30.4989,3.44458 L -30.4252,3.49615 L -30.3536,3.54997 L -30.2841,3.60605
 L -30.2166,3.66438 L -30.1513,3.72498 L -30.088,3.78783 L -30.0267,3.85292 L -29.9676,3.92029 L -29.9105,3.98991
 L -29.8555,4.06178 L -29.8026,4.13593 L -29.7517,4.21231 L -29.7029,4.29095 L -29.6562,4.37187 L -29.6115,4.45503
 L -29.5689,4.54045 L -29.5284,4.62813 L -29.49,4.71806 L -29.4536,4.81026 L -29.4193,4.90469 L -29.3871,5.0014
 L -29.3569,5.10037 L -29.3289,5.20158 L -29.2883,5.36667 L -29.1808,6.06459 L -31.4919,6.24359 z
M -32.7339,11.6726 L -32.625,11.6698 L -32.433,11.6507 L -32.2458,11.6136 L -32.1058,11.571 L -31.974,11.5164
 L -31.8506,11.4498 L -31.7525,11.3823 L -31.679,11.3176 L -31.6131,11.2452 L -31.5549,11.1651 L -31.5044,11.0774
 L -31.4708,11.0007 L -31.444,10.9178 L -31.4198,10.8054 L -31.4062,10.6833 L -31.4033,10.5416 L -31.4073,10.4696
 L -31.4151,10.4001 L -31.4268,10.3333 L -31.4425,10.269 L -31.4621,10.2073 L -31.4856,10.1482 L -31.513,10.0917
 L -31.5443,10.0378 L -31.5796,9.98648 L -31.6188,9.93773 L -31.6618,9.89157 L -31.7321,9.82565 L -31.8081,9.76305
 L -31.89,9.70372 L -32.0081,9.62978 L -32.1367,9.56169 L -32.2755,9.49948 L -32.4244,9.44257 L -32.7028,9.3499
 L -33.0033,9.26556 L -34.5416,8.90578 L -34.9823,8.78316 L -35.4165,8.64249 L -35.7008,8.53714 L -35.8824,8.45752
 L -36.0568,8.36984 L -36.224,8.27415 L -36.384,8.17039 L -36.4993,8.0873 L -36.6102,7.99934 L -36.7153,7.90549
 L -36.8147,7.80563 L -36.9083,7.69981 L -36.9961,7.58798 L -37.0781,7.47017 L -37.1544,7.34637 L -37.2248,7.21658
 L -37.2678,7.12593 L -37.3068,7.03136 L -37.3419,6.93288 L -37.3731,6.83047 L -37.4004,6.72415 L -37.4238,6.61391
 L -37.4433,6.49976 L -37.4589,6.38168 L -37.4706,6.25969 L -37.4784,6.13379 L -37.4823,6.00397 L -37.4823,5.86363
 L -37.4783,5.71866 L -37.4703,5.57756 L -37.4582,5.44035 L -37.4421,5.30702 L -37.422,5.17758 L -37.3979,5.05203
 L -37.3697,4.93037 L -37.3375,4.81259 L -37.3013,4.6987 L -37.2611,4.5887 L -37.2168,4.48259 L -37.169,4.38016
 L -37.1181,4.28119 L -37.064,4.18571 L -37.0067,4.09372 L -36.9464,4.00519 L -36.8829,3.92015 L -36.8163,3.83859
 L -36.7466,3.7605 L -36.6737,3.6859 L -36.5977,3.61476 L -36.5186,3.5471 L -36.4363,3.48279 L -36.3076,3.39194
 L -36.2185,3.33516 L -36.0798,3.25565 L -35.935,3.18294 L -35.7843,3.11705 L -35.6275,3.05795 L -35.4647,3.00566
 L -35.2959,2.96013 L -35.123,2.92059 L -34.9465,2.88686 L -34.7666,2.8589 L -34.5832,2.83672 L -34.3963,2.82033
 L -34.1418,2.80748 L -33.8578,2.80458 L -33.8578,4.66458 L -34.0085,4.66801 L -34.293,4.69543 L -34.4624,4.73045
 L -34.5849,4.77319 L -34.6996,4.82985 L -34.7902,4.88957 L -34.8582,4.94846 L -34.9193,5.01584 L -34.9734,5.09174
 L -35.0206,5.1761 L -35.0518,5.25035 L -35.0767,5.33131 L -35.0991,5.44197 L -35.1117,5.56311 L -35.1143,5.70187
 L -35.1103,5.76854 L -35.1023,5.83264 L -35.0903,5.8942 L -35.0743,5.95319 L -35.0542,6.00963 L -35.0302,6.06351
 L -35.0021,6.11484 L -34.9701,6.1636 L -34.934,6.20982 L -34.8939,6.25348 L -34.8498,6.29459 L -34.7524,6.37177
 L -34.6452,6.44397 L -34.5282,6.51122 L -34.4014,6.57352 L -34.2647,6.63084 L -34.0805,6.69577 L -33.8028,6.77797
 L -33.5033,6.85091 L -32.6056,7.02673 L -31.9201,7.18837 L -31.5781,7.28632 L -31.2402,7.39796 L -30.9065,7.5235
 L -30.7672,7.58395 L -30.6319,7.64995 L -30.5007,7.72148 L -30.3735,7.79857 L -30.2504,7.88121 L -30.1313,7.96939
 L -30.0163,8.06311 L -29.9057,8.16248 L -29.8008,8.26846 L -29.7017,8.38121 L -29.6083,8.50075 L -29.5208,8.62704
 L -29.439,8.76012 L -29.3631,8.89996 L -29.2928,9.04657 L -29.2499,9.1487 L -29.2109,9.2551 L -29.1758,9.36577
 L -29.1446,9.48068 L -29.1173,9.59988 L -29.0939,9.72333 L -29.0744,9.85106 L -29.0587,9.98303 L -29.047,10.1193
 L -29.0392,10.2598 L -29.0353,10.4046 L -29.0363,10.5705 L -29.0439,10.7066 L -29.0581,10.8408 L -29.0788,10.973
 L -29.106,11.1031 L -29.1397,11.2313 L -29.18,11.3574 L -29.2269,11.4816 L -29.2973,11.6428 L -29.3759,11.7983
 L -29.4626,11.948 L -29.5574,12.0918 L -29.6604,12.2298 L -29.7713,12.3621 L -29.8893,12.4882 L -30.0145,12.6081
 L -30.1468,12.7217 L -30.2863,12.8291 L -30.4329,12.9303 L -30.5861,13.025 L -30.7424,13.1115 L -30.9015,13.1895
 L -31.0632,13.259 L -31.2276,13.3201 L -31.3947,13.3727 L -31.9676,13.5201 L -32.7339,13.6056 z
M 51.5187,13.3638 L 50.0077,6.52684 L 49.1188,11.9168 L 48.0818,7.95984 L 48.8818,3.02783 L 51.1037,3.02783
 L 53.6377,13.3638 z
M 53.2967,7.79683 L 54.2747,3.02783 L 56.5707,3.02783 L 54.2887,11.9318 z
M 28.9023,13.3958 L 28.9023,11.6548 L 36.2703,3.02783 L 37.6063,3.02783 L 37.6063,4.86183 L 30.3353,13.3958
 z
M 29.2223,5.01184 L 29.2223,3.02783 L 35.0093,3.02783 L 33.3473,5.01184 z
M 15.4546,13.3958 L 14.8176,8.99582 L 14.4946,7.82024 L 14.4916,3.02783 L 14.5956,3.02783 L 15.7991,7.46989
 L 16.0205,8.32338 L 16.232,9.18318 L 16.4337,10.0493 L 16.6256,10.9218 L 16.7638,10.2233 L 16.9105,9.52888
 L 17.0657,8.8385 L 17.2295,8.15218 L 17.4018,7.46989 L 18.5806,3.02783 L 18.7586,3.02783 L 18.7586,7.69383
 L 18.7531,7.74831 L 18.4498,8.82506 L 17.7956,13.3958 z
M -83.7985,4.94783 L -83.7985,3.02783 L -79.7025,3.02783 L -79.7025,4.94783 z
M -48.04,13.3958 L -54.222,3.02783 L -52.033,3.02783 L -45.822,13.3958 z
M -87.2545,13.3958 L -87.2545,3.02783 L -84.9285,3.02783 L -84.9285,13.3958 z
M -67.9127,13.3958 L -67.9127,3.02783 L -65.5867,3.02783 L -65.5867,13.3958 z
M -48.069,8.14484 L -48.173,3.02783 L -45.836,3.02783 L -45.836,11.8828 z
M -4.98561,13.3638 L -1.41562,3.02783 L 1.25137,3.02783 L 4.89537,13.3638 L 2.28838,13.3638 L 1.60637,11.1558
 L -0.70462,11.1558 L -0.141617,9.29382 L 1.01437,9.29382 L 0.776428,8.5182 L 0.328079,7.15013 L 0.249695,6.8924
 L 0.178604,6.63266 L 0.114792,6.37091 L 0.0582733,6.10715 L 0.00901794,5.84138 L -0.0329285,5.57361 L -0.0676117,5.30383
 L -0.296692,6.38246 L -2.34862,13.3638 z
M -16.0162,5.13383 L -14.8311,3.02783 L -12.1942,3.02783 L -14.7281,7.19583 z
M -14.5652,13.3958 L -21.2011,3.02783 L -18.5641,3.02783 L -11.9431,13.3958 z
M 19.7366,13.3958 L 19.7366,3.02783 L 21.9126,3.02783 L 21.9126,13.3958 z
M 11.3526,13.3958 L 11.3526,3.02783 L 13.5286,3.02783 L 13.5286,13.3958 z
M 82.0873,13.3958 L 82.0873,3.02783 L 84.4133,3.02783 L 84.4133,13.3958 z
M 62.7455,13.3958 L 62.7455,3.02783 L 65.0715,3.02783 L 65.0715,13.3958 z
M 66.2015,4.94783 L 66.2015,3.02783 L 70.2975,3.02783 L 70.2975,4.94783 z
M 46.3338,13.3638 L 43.4158,3.02783 L 45.7418,3.02783 L 48.4678,13.3638 z
M -54.252,13.3958 L -54.252,4.46684 L -52.033,8.21884 L -51.93,13.3958 z
M -83.7985,8.86983 L -83.7985,7.00484 L -80.0865,7.00484 L -80.0865,8.86983 z
M 66.2015,8.86983 L 66.2015,7.00484 L 69.9135,7.00484 L 69.9135,8.86983 z
M -21.4831,13.3958 L -18.6981,8.64983 L -17.3641,10.6968 L -18.8311,13.3958 z
M -34.3178,13.6206 L -34.4549,13.6179 L -34.9103,13.5761 L -35.0398,13.558 L -35.1662,13.5372 L -35.2897,13.5138
 L -35.4101,13.4878 L -35.5275,13.4592 L -35.6418,13.4279 L -35.7532,13.394 L -35.8615,13.3574 L -35.9668,13.3183
 L -36.0691,13.2765 L -36.1683,13.232 L -36.2646,13.185 L -36.3578,13.1353 L -36.448,13.0829 L -36.5352,13.028
 L -36.6193,12.9704 L -36.7005,12.9102 L -36.7786,12.8473 L -36.8537,12.7818 L -36.9258,12.7137 L -36.9948,12.6429
 L -37.0608,12.5696 L -37.124,12.4934 L -37.1843,12.4143 L -37.2418,12.3324 L -37.2965,12.2476 L -37.3484,12.1599
 L -37.3975,12.0694 L -37.4438,11.9761 L -37.4872,11.8799 L -37.5279,11.7808 L -37.5658,11.6788 L -37.6009,11.574
 L -37.6331,11.4664 L -37.6626,11.3559 L -37.6892,11.2425 L -37.7131,11.1263 L -37.7341,11.0072 L -37.7523,10.8853
 L -37.7678,10.7605 L -37.7804,10.6328 L -37.7902,10.5023 L -37.7972,10.3689 L -37.8014,10.2327 L -37.8028,10.0936
 L -35.4998,9.97557 L -35.285,10.7993 L -35.2333,10.9503 L -35.1737,11.0853 L -35.118,11.1855 L -35.0568,11.2746
 L -35.0015,11.3379 L -34.9386,11.3951 L -34.8681,11.4461 L -34.7899,11.491 L -34.7042,11.5296 L -34.5856,11.5697
 L -34.4183,11.611 L -34.1864,11.6515 L -33.8728,11.6876 L -33.8728,13.6206 z
M 31.5963,13.3958 L 33.1993,11.4758 L 37.6703,11.4758 L 37.6703,13.3958 z
M -83.7985,13.3958 L -83.7985,11.4758 L -79.5745,11.4758 L -79.5745,13.3958 z
M 66.2015,13.3958 L 66.2015,11.4758 L 70.4255,11.4758 L 70.4255,13.3958 z
M 17.1976,28.1887 L 17.3355,28.1566 L 17.4321,28.1216 L 17.4973,28.0871 L 17.5486,28.0477 L 17.5973,27.9932
 L 17.6359,27.9307 L 17.6645,27.8604 L 17.6854,27.7683 L 17.7001,27.6053 L 17.6911,27.3683 L 17.6816,19.6008
 L 20.0076,19.6008 L 20.0067,27.2057 L 19.9994,27.4213 L 19.9848,27.6282 L 19.9748,27.7284 L 19.963,27.8265
 L 19.9494,27.9224 L 19.9339,28.0161 L 19.9166,28.1077 L 19.8975,28.1971 L 19.8766,28.2843 L 19.8539,28.3695
 L 19.8293,28.4524 L 19.803,28.5332 L 19.7748,28.6118 L 19.7448,28.6883 L 19.713,28.7626 L 19.6793,28.8347
 L 19.6439,28.9047 L 19.6066,28.9725 L 19.5675,29.0382 L 19.5266,29.1017 L 19.4834,29.1633 L 19.4375,29.2233
 L 19.3889,29.2816 L 19.3375,29.3383 L 19.2834,29.3933 L 19.2267,29.4467 L 19.1672,29.4984 L 19.105,29.5485
 L 19.04,29.5969 L 18.9724,29.6437 L 18.902,29.6888 L 18.8289,29.7323 L 18.7531,29.7741 L 18.6746,29.8143
 L 18.5934,29.8528 L 18.5094,29.8897 L 18.4227,29.9249 L 18.3333,29.9585 L 18.2412,29.9905 L 18.1464,30.0208
 L 18.0488,30.0494 L 17.9485,30.0764 L 17.8456,30.1017 L 17.6959,30.1344 L 17.1976,30.1457 z
M -0.698639,30.1603 L -0.960754,30.1536 L -1.21088,30.1388 L -1.37097,30.1245 L -1.52576,30.1065 L -1.6752,30.085
 L -1.81934,30.0599 L -1.95813,30.0313 L -2.09161,29.999 L -2.21977,29.9632 L -2.34262,29.9237 L -2.46051,29.8806
 L -2.57417,29.8337 L -2.68362,29.783 L -2.78886,29.7285 L -2.88988,29.6702 L -2.98666,29.6081 L -3.07924,29.5422
 L -3.1676,29.4725 L -3.25174,29.399 L -3.33165,29.3218 L -3.40735,29.2407 L -3.47891,29.1558 L -3.54684,29.0669
 L -3.61125,28.974 L -3.67212,28.8771 L -3.72943,28.7761 L -3.78322,28.6711 L -3.83347,28.5621 L -3.88017,28.4491
 L -3.92334,28.332 L -3.96297,28.211 L -3.99905,28.0859 L -4.03162,27.9567 L -4.07454,27.7548 L -4.11147,27.5428
 L -4.14241,27.3207 L -4.16736,27.0886 L -4.18633,26.8465 L -4.1993,26.5943 L -4.20628,26.3321 L -4.20761,19.6008
 L -1.88161,19.6008 L -1.88069,27.0359 L -1.87041,27.1818 L -1.85394,27.2915 L -1.83015,27.3949 L -1.79904,27.4919
 L -1.76062,27.5827 L -1.71417,27.6677 L -1.65901,27.7474 L -1.59515,27.8217 L -1.52258,27.8908 L -1.4413,27.9545
 L -1.35104,28.0127 L -1.27501,28.0523 L -1.19102,28.0883 L -1.06665,28.1309 L -0.928131,28.1671 L -0.775452,28.1971
 L -0.608612,28.2207 L -0.608612,30.1607 z
M 0.514374,28.1767 L 0.607376,28.1753 L 0.738922,28.1676 L 0.860901,28.1534 L 0.973312,28.1326 L 1.07617,28.1052
 L 1.13943,28.0833 L 1.19844,28.0585 L 1.2532,28.0308 L 1.30371,28.0002 L 1.35017,27.9666 L 1.41475,27.9125
 L 1.47354,27.8541 L 1.52654,27.7914 L 1.57376,27.7245 L 1.61519,27.6533 L 1.65083,27.5779 L 1.68069,27.4982
 L 1.72017,27.3568 L 1.75043,27.2068 L 1.77151,27.0486 L 1.78471,26.8477 L 1.78638,19.6008 L 4.11237,19.6008
 L 4.11209,26.1218 L 4.10533,26.4896 L 4.08955,26.8377 L 4.06477,27.1661 L 4.04027,27.3994 L 4.0107,27.6217
 L 3.97604,27.8328 L 3.93573,28.0331 L 3.90427,28.1613 L 3.869,28.2853 L 3.82993,28.4052 L 3.78703,28.5209
 L 3.74034,28.6325 L 3.68983,28.7399 L 3.63551,28.8431 L 3.57738,28.9422 L 3.51543,29.0372 L 3.44968,29.1279
 L 3.38011,29.2146 L 3.30623,29.2974 L 3.22786,29.3764 L 3.14499,29.4515 L 3.05763,29.5229 L 2.96579,29.5905
 L 2.86945,29.6542 L 2.76862,29.7141 L 2.66328,29.7702 L 2.55348,29.8226 L 2.43916,29.871 L 2.32037,29.9157
 L 2.1962,29.9565 L 2.06577,29.9935 L 1.92906,30.0269 L 1.78612,30.0565 L 1.63689,30.0825 L 1.48141,30.1047
 L 1.31967,30.1232 L 1.15167,30.138 L 0.977417,30.1492 L 0.79689,30.1566 L 0.514374,30.1607 z
M -53.9211,30.0625 L -53.9211,19.6945 L -51.5951,19.6945 L -51.5951,30.0625 z
M 78.9557,30.0625 L 78.9557,19.6945 L 81.2817,19.6945 L 81.2817,30.0625 z
M 85.1427,30.0625 L 85.1274,30.0315 L 84.9566,29.6553 L 84.8102,29.2707 L 84.7197,28.9738 L 84.647,28.6676
 L 84.5802,28.2863 L 84.5096,27.7099 L 84.4811,27.5169 L 84.4416,27.334 L 84.3911,27.1611 L 84.3402,27.025
 L 84.3038,26.9474 L 84.2475,26.8492 L 84.1993,26.7793 L 84.1273,26.6913 L 84.0463,26.6092 L 83.9562,26.533
 L 83.9063,26.4978 L 83.8244,26.4495 L 83.734,26.4065 L 83.6351,26.3688 L 83.5277,26.3365 L 83.4118,26.3096
 L 83.2874,26.2879 L 82.9159,26.2438 L 82.4047,26.2325 L 82.4047,24.3765 L 83.473,24.3761 L 83.7974,24.3624
 L 84.0185,24.3372 L 84.1626,24.3091 L 84.2504,24.2827 L 84.3319,24.2496 L 84.4071,24.2099 L 84.476,24.1635
 L 84.5387,24.1105 L 84.595,24.0499 L 84.6451,23.9809 L 84.6888,23.9034 L 84.7263,23.8174 L 84.7574,23.7229
 L 84.7878,23.5922 L 84.8152,23.4097 L 84.8356,23.1599 L 84.8437,22.8255 L 84.8382,22.6216 L 84.8216,22.4408
 L 84.7994,22.3079 L 84.7696,22.191 L 84.732,22.0885 L 84.6867,21.9978 L 84.6449,21.9339 L 84.5981,21.8777
 L 84.5464,21.829 L 84.475,21.7779 L 84.3961,21.7346 L 84.3093,21.6992 L 84.1951,21.6669 L 84.0697,21.6454
 L 83.7663,21.619 L 82.4047,21.6145 L 82.4047,19.6945 L 83.5637,19.6945 L 83.7636,19.6965 L 84.1526,19.7128
 L 84.527,19.7452 L 84.8431,19.7872 L 85.1054,19.8359 L 85.3595,19.8969 L 85.6055,19.9701 L 85.7637,20.027
 L 85.8771,20.0765 L 85.9859,20.1321 L 86.0902,20.1937 L 86.19,20.2614 L 86.2852,20.3351 L 86.3758,20.4149
 L 86.4619,20.5008 L 86.5437,20.5931 L 86.6208,20.6922 L 86.6934,20.7982 L 86.7613,20.911 L 86.8247,21.0307
 L 86.8835,21.1572 L 86.9376,21.2905 L 86.9868,21.4311 L 87.0295,21.5805 L 87.0656,21.739 L 87.0951,21.9067
 L 87.1181,22.0835 L 87.1345,22.2693 L 87.1444,22.4644 L 87.1477,22.6685 L 87.1439,22.8032 L 87.1284,22.9749
 L 87.101,23.1501 L 87.0617,23.3289 L 87.0105,23.511 L 86.9613,23.6544 L 86.9048,23.7939 L 86.8412,23.9293
 L 86.7704,24.0608 L 86.6924,24.1883 L 86.6075,24.3113 L 86.5168,24.4272 L 86.4202,24.5354 L 86.3177,24.636
 L 86.2094,24.729 L 86.0951,24.8144 L 86.0059,24.8726 L 85.9136,24.9232 L 85.8183,24.9661 L 85.7199,25.0012
 L 85.6184,25.0284 L 85.5139,25.0479 L 85.4063,25.0596 L 85.2957,25.0635 L 85.6287,25.1973 L 85.7354,25.2492
 L 85.8355,25.3076 L 85.9291,25.3726 L 85.9878,25.4195 L 86.0436,25.4693 L 86.0965,25.5221 L 86.1465,25.5777
 L 86.1936,25.6362 L 86.2377,25.6977 L 86.3186,25.8273 L 86.3927,25.9624 L 86.46,26.103 L 86.5206,26.2491
 L 86.5745,26.4006 L 86.6217,26.5575 L 86.7012,26.878 L 86.7646,27.2025 L 86.8723,27.9591 L 86.9822,28.5558
 L 87.0433,28.7957 L 87.1155,29.0246 L 87.1987,29.2425 L 87.3103,29.4904 L 87.4562,29.7755 L 87.6217,30.0625
 z
M 62.7455,30.0625 L 62.7455,19.6945 L 65.0715,19.6945 L 65.0715,30.0625 z
M 66.2015,21.6145 L 66.2015,19.6945 L 70.2975,19.6945 L 70.2975,21.6145 z
M 48.754,30.0625 L 48.754,19.6945 L 51.0799,19.6945 L 51.0799,30.0625 z
M 32.1959,30.0305 L 28.5659,19.6945 L 31.1139,19.6945 L 34.3879,30.0305 z
M 33.9729,25.3055 L 35.4989,19.6945 L 38.0029,19.6945 L 35.0399,28.7015 z
M -34.5794,30.0625 L -34.5794,19.6945 L -32.2534,19.6945 L -32.2534,30.0625 z
M -84.3489,28.1425 L -83.6819,28.1425 L -83.5333,28.1409 L -83.3223,28.1327 L -83.1257,28.1174 L -82.9434,28.0951
 L -82.8299,28.0764 L -82.7227,28.0544 L -82.622,28.0294 L -82.5276,28.0012 L -82.4396,27.9699 L -82.3579,27.9355
 L -82.2813,27.8977 L -82.2086,27.8567 L -82.1398,27.8124 L -82.075,27.7649 L -82.0141,27.7142 L -81.9571,27.6602
 L -81.904,27.603 L -81.8549,27.5425 L -81.8097,27.4789 L -81.7685,27.4119 L -81.7311,27.3418 L -81.6975,27.2683
 L -81.6526,27.1523 L -81.6143,27.0295 L -81.5826,26.8999 L -81.5574,26.7634 L -81.5388,26.6202 L -81.5268,26.4701
 L -81.5213,26.3133 L -81.521,24.8205 L -81.5243,24.5964 L -81.5378,24.3239 L -81.5617,24.0597 L -81.596,23.804
 L -81.6408,23.5567 L -81.6741,23.4138 L -81.7128,23.276 L -81.757,23.1432 L -81.8067,23.0155 L -81.8619,22.8929
 L -81.9225,22.7754 L -81.9887,22.6629 L -82.0606,22.5554 L -82.1391,22.4534 L -82.2244,22.357 L -82.3165,22.2661
 L -82.4152,22.1808 L -82.5207,22.1012 L -82.633,22.027 L -82.7519,21.9585 L -82.8352,21.9166 L -82.9223,21.8785
 L -83.0131,21.8442 L -83.1076,21.8137 L -83.206,21.787 L -83.3081,21.7641 L -83.4139,21.7451 L -83.5236,21.7298
 L -83.637,21.7184 L -83.7541,21.7108 L -83.9369,21.7065 L -84.3489,21.6325 L -84.3489,19.6945 L -83.5939,19.6945
 L -83.2613,19.7059 L -82.39,19.9227 L -82.2369,19.9687 L -82.0874,20.0185 L -81.9415,20.0723 L -81.7992,20.1301
 L -81.6605,20.1917 L -81.5254,20.2572 L -81.3939,20.3267 L -81.266,20.4001 L -81.1417,20.4774 L -81.021,20.5584
 L -80.9038,20.6422 L -80.7903,20.7289 L -80.6805,20.8184 L -80.5744,20.9107 L -80.472,21.0058 L -80.3732,21.1037
 L -80.2782,21.2045 L -80.1869,21.308 L -80.0992,21.4144 L -80.0152,21.5235 L -79.935,21.6355 L -79.858,21.75
 L -79.7845,21.8671 L -79.7143,21.9868 L -79.6475,22.1091 L -79.5841,22.2339 L -79.524,22.3614 L -79.4673,22.4914
 L -79.414,22.624 L -79.364,22.7592 L -79.3175,22.897 L -79.254,23.1085 L -79.1981,23.3246 L -79.1501,23.5439
 L -79.1098,23.7665 L -79.0773,23.9924 L -79.0526,24.2215 L -79.0358,24.4539 L -79.0267,24.6896 L -79.0251,24.8988
 L -79.0338,25.2003 L -79.0556,25.5019 L -79.0905,25.8035 L -79.1384,26.1046 L -79.1904,26.353 L -79.2544,26.5987
 L -79.3302,26.8416 L -79.418,27.0818 L -79.5489,27.396 L -79.6613,27.6466 L -79.7742,27.8813 L -79.8876,28.1001
 L -80.0016,28.303 L -80.116,28.4901 L -80.1926,28.6059 L -80.2695,28.7147 L -80.3466,28.8168 L -80.4254,28.9141
 L -80.5061,29.0069 L -80.5887,29.0952 L -80.6732,29.179 L -80.7596,29.2583 L -80.8479,29.3332 L -80.9381,29.4036
 L -81.0302,29.4696 L -81.1242,29.531 L -81.2201,29.588 L -81.3179,29.6405 L -81.418,29.6891 L -81.5204,29.7343
 L -81.6253,29.7762 L -81.7873,29.8327 L -81.9547,29.8816 L -82.1277,29.923 L -82.3062,29.9569 L -82.4902,29.9832
 L -82.6799,30.0021 L -83.1568,30.0344 L -83.6842,30.0545 L -84.3489,30.0625 z
M -50.4651,21.6145 L -50.4651,19.6945 L -46.3691,19.6945 L -46.3691,21.6145 z
M -71.0443,30.0625 L -71.0443,19.6945 L -68.7183,19.6945 L -68.7183,30.0625 z
M -64.8573,30.0625 L -64.8726,30.0315 L -65.0434,29.6553 L -65.1898,29.2707 L -65.2803,28.9738 L -65.353,28.6676
 L -65.4197,28.2863 L -65.4904,27.7099 L -65.5188,27.5169 L -65.5584,27.334 L -65.6089,27.1611 L -65.6598,27.025
 L -65.6962,26.9474 L -65.7525,26.8492 L -65.8007,26.7793 L -65.8727,26.6913 L -65.9537,26.6092 L -66.0438,26.533
 L -66.0937,26.4978 L -66.1756,26.4495 L -66.266,26.4065 L -66.3649,26.3688 L -66.4723,26.3365 L -66.5882,26.3096
 L -66.7126,26.2879 L -67.0841,26.2438 L -67.5953,26.2325 L -67.5953,24.3765 L -66.527,24.3761 L -66.2026,24.3624
 L -65.9814,24.3372 L -65.8373,24.3091 L -65.7496,24.2827 L -65.6681,24.2496 L -65.5928,24.2099 L -65.5239,24.1635
 L -65.4613,24.1105 L -65.405,24.0499 L -65.3549,23.9809 L -65.3112,23.9034 L -65.2737,23.8174 L -65.2426,23.7229
 L -65.2122,23.5922 L -65.1848,23.4097 L -65.1644,23.1599 L -65.1563,22.8255 L -65.1618,22.6216 L -65.1784,22.4408
 L -65.2006,22.3079 L -65.2304,22.191 L -65.268,22.0885 L -65.3133,21.9978 L -65.3551,21.9339 L -65.4019,21.8777
 L -65.4536,21.829 L -65.525,21.7779 L -65.6039,21.7346 L -65.6906,21.6992 L -65.8049,21.6669 L -65.9303,21.6454
 L -66.2336,21.619 L -67.5953,21.6145 L -67.5953,19.6945 L -66.4363,19.6945 L -66.2364,19.6965 L -65.8474,19.7128
 L -65.473,19.7452 L -65.1569,19.7872 L -64.8946,19.8359 L -64.6405,19.8969 L -64.3945,19.9701 L -64.2363,20.027
 L -64.1229,20.0765 L -64.0141,20.1321 L -63.9097,20.1937 L -63.81,20.2614 L -63.7148,20.3351 L -63.6242,20.4149
 L -63.538,20.5008 L -63.4563,20.5931 L -63.3792,20.6922 L -63.3066,20.7982 L -63.2387,20.911 L -63.1753,21.0307
 L -63.1165,21.1572 L -63.0623,21.2905 L -63.0132,21.4311 L -62.9705,21.5805 L -62.9344,21.739 L -62.9048,21.9067
 L -62.8819,22.0835 L -62.8654,22.2693 L -62.8556,22.4644 L -62.8523,22.6685 L -62.8561,22.8032 L -62.8716,22.9749
 L -62.899,23.1501 L -62.9383,23.3289 L -62.9895,23.511 L -63.0387,23.6544 L -63.0951,23.7939 L -63.1588,23.9293
 L -63.2296,24.0608 L -63.3076,24.1883 L -63.3925,24.3113 L -63.4832,24.4272 L -63.5798,24.5354 L -63.6823,24.636
 L -63.7906,24.729 L -63.9048,24.8144 L -63.9941,24.8726 L -64.0864,24.9232 L -64.1817,24.9661 L -64.2801,25.0012
 L -64.3816,25.0284 L -64.4861,25.0479 L -64.5937,25.0596 L -64.7043,25.0635 L -64.3713,25.1973 L -64.2646,25.2492
 L -64.1644,25.3076 L -64.0709,25.3726 L -64.0122,25.4195 L -63.9563,25.4693 L -63.9035,25.5221 L -63.8535,25.5777
 L -63.8064,25.6362 L -63.7623,25.6977 L -63.6814,25.8273 L -63.6073,25.9624 L -63.54,26.103 L -63.4794,26.2491
 L -63.4255,26.4006 L -63.3783,26.5575 L -63.2988,26.878 L -63.2354,27.2025 L -63.1277,27.9591 L -63.0178,28.5558
 L -62.9566,28.7957 L -62.8845,29.0246 L -62.8013,29.2425 L -62.6897,29.4904 L -62.5438,29.7755 L -62.3783,30.0625
 z
M -87.7929,30.0625 L -87.7929,19.6945 L -85.4669,19.6945 L -85.4669,30.0625 z
M -21.6523,30.0305 L -18.0823,19.6945 L -15.4153,19.6945 L -11.7713,30.0305 L -14.3783,30.0305 L -15.0603,27.8225
 L -17.3713,27.8225 L -16.8083,25.9605 L -15.6523,25.9605 L -15.8902,25.1849 L -16.3386,23.8168 L -16.417,23.5591
 L -16.4881,23.2993 L -16.5519,23.0376 L -16.6084,22.7738 L -16.6576,22.5081 L -16.6996,22.2403 L -16.7343,21.9705
 L -16.9633,23.0491 L -19.0153,30.0305 z
M -50.4651,25.5365 L -50.4651,23.6715 L -46.7531,23.6715 L -46.7531,25.5365 z
M 66.2015,25.5365 L 66.2015,23.6715 L 69.9135,23.6715 L 69.9135,25.5365 z
M 15.8514,30.1567 L 15.6459,30.1447 L 15.4499,30.1246 L 15.3245,30.1068 L 15.2034,30.0853 L 15.0865,30.0604
 L 14.9739,30.0318 L 14.8656,29.9997 L 14.7614,29.964 L 14.6616,29.9247 L 14.5655,29.8822 L 14.4728,29.8366
 L 14.3834,29.7881 L 14.2974,29.7365 L 14.2147,29.6819 L 14.1353,29.6243 L 14.0593,29.5637 L 13.9866,29.5001
 L 13.9173,29.4335 L 13.8513,29.3638 L 13.7887,29.2912 L 13.7294,29.2155 L 13.6733,29.1367 L 13.6202,29.0551
 L 13.5701,28.9706 L 13.523,28.8831 L 13.458,28.7465 L 13.3997,28.6034 L 13.3483,28.4537 L 13.3036,28.2975
 L 13.2657,28.1348 L 13.2233,27.9073 L 13.1895,27.6678 L 13.164,27.4163 L 13.1471,27.1527 L 13.1386,26.8771
 L 13.1376,25.9367 L 15.3776,25.9367 L 15.3776,27.3647 L 15.3803,27.458 L 15.3987,27.6119 L 15.4297,27.7336
 L 15.4638,27.8154 L 15.5095,27.8903 L 15.5668,27.9584 L 15.6356,28.0197 L 15.7049,28.0652 L 15.7878,28.1058
 L 15.9051,28.1481 L 16.0666,28.1887 L 16.0666,30.1607 z
M -50.4651,30.0625 L -50.4651,28.1425 L -46.2411,28.1425 L -46.2411,30.0625 z
M 66.2015,30.0625 L 66.2015,28.1425 L 70.4255,28.1425 L 70.4255,30.0625 z
M -82.7339,45.0059 L -82.625,45.0031 L -82.433,44.984 L -82.2458,44.9469 L -82.1058,44.9044 L -81.974,44.8498
 L -81.8506,44.7831 L -81.7525,44.7156 L -81.679,44.6509 L -81.6131,44.5785 L -81.5549,44.4984 L -81.5044,44.4107
 L -81.4708,44.334 L -81.444,44.2511 L -81.4198,44.1387 L -81.4062,44.0166 L -81.4033,43.8749 L -81.4073,43.8029
 L -81.4151,43.7335 L -81.4268,43.6666 L -81.4425,43.6023 L -81.4621,43.5407 L -81.4856,43.4816 L -81.513,43.4251
 L -81.5443,43.3711 L -81.5796,43.3198 L -81.6188,43.2711 L -81.6618,43.2249 L -81.7321,43.159 L -81.8081,43.0964
 L -81.89,43.037 L -82.0081,42.9631 L -82.1367,42.895 L -82.2755,42.8328 L -82.4244,42.7759 L -82.7028,42.6832
 L -83.0033,42.5989 L -84.5416,42.2391 L -84.9823,42.1165 L -85.4165,41.9758 L -85.7008,41.8705 L -85.8824,41.7908
 L -86.0568,41.7032 L -86.224,41.6075 L -86.384,41.5037 L -86.4993,41.4206 L -86.6102,41.3327 L -86.7153,41.2388
 L -86.8147,41.139 L -86.9083,41.0331 L -86.9961,40.9213 L -87.0781,40.8035 L -87.1544,40.6797 L -87.2248,40.5499
 L -87.2678,40.4593 L -87.3068,40.3647 L -87.3419,40.2662 L -87.3731,40.1638 L -87.4004,40.0575 L -87.4238,39.9472
 L -87.4433,39.8331 L -87.4589,39.715 L -87.4706,39.593 L -87.4784,39.4671 L -87.4823,39.3373 L -87.4823,39.197
 L -87.4783,39.052 L -87.4703,38.9109 L -87.4582,38.7737 L -87.4421,38.6404 L -87.422,38.5109 L -87.3979,38.3854
 L -87.3697,38.2637 L -87.3375,38.1459 L -87.3013,38.032 L -87.2611,37.922 L -87.2168,37.8159 L -87.169,37.7135
 L -87.1181,37.6145 L -87.064,37.519 L -87.0067,37.427 L -86.9464,37.3385 L -86.8829,37.2535 L -86.8163,37.1719
 L -86.7466,37.0938 L -86.6737,37.0192 L -86.5977,36.9481 L -86.5186,36.8804 L -86.4363,36.8161 L -86.3076,36.7253
 L -86.2185,36.6685 L -86.0798,36.589 L -85.935,36.5163 L -85.7843,36.4504 L -85.6275,36.3913 L -85.4647,36.339
 L -85.2959,36.2935 L -85.123,36.2539 L -84.9465,36.2202 L -84.7666,36.1922 L -84.5832,36.17 L -84.3963,36.1537
 L -84.1418,36.1408 L -83.8578,36.1379 L -83.8578,37.9979 L -84.0085,38.0013 L -84.293,38.0288 L -84.4624,38.0638
 L -84.5849,38.1065 L -84.6996,38.1632 L -84.7902,38.2229 L -84.8582,38.2818 L -84.9193,38.3492 L -84.9734,38.4251
 L -85.0206,38.5094 L -85.0518,38.5837 L -85.0767,38.6646 L -85.0991,38.7753 L -85.1117,38.8964 L -85.1143,39.0352
 L -85.1103,39.1019 L -85.1023,39.166 L -85.0903,39.2275 L -85.0743,39.2865 L -85.0542,39.343 L -85.0302,39.3968
 L -85.0021,39.4482 L -84.9701,39.4969 L -84.934,39.5432 L -84.8939,39.5868 L -84.8498,39.6279 L -84.7524,39.7051
 L -84.6452,39.7773 L -84.5282,39.8445 L -84.4014,39.9068 L -84.2647,39.9642 L -84.0805,40.0291 L -83.8028,40.1113
 L -83.5033,40.1842 L -82.6056,40.3601 L -81.9201,40.5217 L -81.5781,40.6196 L -81.2402,40.7313 L -80.9065,40.8568
 L -80.7672,40.9173 L -80.6319,40.9833 L -80.5007,41.0548 L -80.3735,41.1319 L -80.2504,41.2145 L -80.1313,41.3027
 L -80.0163,41.3964 L -79.9057,41.4958 L -79.8008,41.6018 L -79.7017,41.7145 L -79.6083,41.8341 L -79.5208,41.9604
 L -79.439,42.0934 L -79.3631,42.2333 L -79.2928,42.3799 L -79.2499,42.482 L -79.2109,42.5884 L -79.1758,42.6991
 L -79.1446,42.814 L -79.1173,42.9332 L -79.0939,43.0567 L -79.0744,43.1844 L -79.0587,43.3164 L -79.047,43.4526
 L -79.0392,43.5931 L -79.0353,43.7379 L -79.0363,43.9038 L -79.0439,44.04 L -79.0581,44.1741 L -79.0788,44.3063
 L -79.106,44.4365 L -79.1397,44.5646 L -79.18,44.6908 L -79.2269,44.8149 L -79.2973,44.9762 L -79.3759,45.1316
 L -79.4626,45.2813 L -79.5574,45.4251 L -79.6604,45.5632 L -79.7713,45.6954 L -79.8893,45.8215 L -80.0145,45.9414
 L -80.1468,46.055 L -80.2863,46.1625 L -80.4329,46.2636 L -80.5861,46.3583 L -80.7424,46.4448 L -80.9015,46.5228
 L -81.0632,46.5924 L -81.2276,46.6535 L -81.3947,46.7061 L -81.9676,46.8534 L -82.7339,46.9389 z
M -47.7315,39.453 L -47.7898,39.278 L -47.8316,39.1678 L -47.8757,39.0629 L -47.9221,38.9632 L -47.9709,38.8688
 L -48.0221,38.7797 L -48.0756,38.6958 L -48.1314,38.6171 L -48.1896,38.5437 L -48.2506,38.4754 L -48.317,38.4121
 L -48.3894,38.3535 L -48.4678,38.2998 L -48.5521,38.2508 L -48.6423,38.2067 L -48.7385,38.1674 L -48.8406,38.1329
 L -48.9487,38.1032 L -49.0627,38.0783 L -49.1827,38.0582 L -49.3086,38.0429 L -49.3086,36.1379 L -49.1656,36.1469
 L -49.0251,36.1584 L -48.8871,36.1724 L -48.7517,36.1889 L -48.6188,36.208 L -48.4884,36.2295 L -48.3605,36.2536
 L -48.2352,36.2802 L -48.1123,36.3092 L -47.992,36.3408 L -47.8743,36.3749 L -47.759,36.4115 L -47.6463,36.4507
 L -47.536,36.4923 L -47.4283,36.5364 L -47.3232,36.5831 L -47.2205,36.6322 L -47.1204,36.6839 L -47.0228,36.7381
 L -46.9277,36.7948 L -46.8351,36.854 L -46.7451,36.9157 L -46.6576,36.9799 L -46.5724,37.0471 L -46.4898,37.1181
 L -46.4096,37.1927 L -46.3319,37.2711 L -46.2566,37.3531 L -46.1838,37.4389 L -46.1135,37.5283 L -46.0457,37.6215
 L -45.9803,37.7183 L -45.9173,37.8189 L -45.8569,37.9231 L -45.7989,38.0311 L -45.7433,38.1428 L -45.6903,38.2581
 L -45.6397,38.3772 L -45.5915,38.4999 L -45.5458,38.6264 L -45.5026,38.7566 L -45.4619,38.8904 L -45.4236,39.028
 L -45.3878,39.1693 L -45.3544,39.3142 L -45.3236,39.4629 L -47.6786,39.6399 z
M -50.467,46.8866 L -50.6614,46.8769 L -50.8516,46.8606 L -51.0377,46.8378 L -51.2197,46.8084 L -51.3976,46.7726
 L -51.5714,46.7302 L -51.7411,46.6813 L -51.9066,46.6259 L -52.0681,46.564 L -52.2254,46.4956 L -52.3785,46.4209
 L -52.5272,46.3414 L -52.6715,46.2575 L -52.8115,46.1691 L -52.9471,46.0763 L -53.0784,45.9789 L -53.2053,45.8771
 L -53.3279,45.7708 L -53.4461,45.6601 L -53.5599,45.5448 L -53.6694,45.4251 L -53.7745,45.3009 L -53.8752,45.1724
 L -53.9714,45.0401 L -54.0634,44.9039 L -54.151,44.764 L -54.2342,44.6202 L -54.3131,44.4727 L -54.3877,44.3213
 L -54.4579,44.1661 L -54.5238,44.0071 L -54.5854,43.8443 L -54.6426,43.6776 L -54.6953,43.5074 L -54.7434,43.3347
 L -54.787,43.1598 L -54.8259,42.9827 L -54.8603,42.8033 L -54.8901,42.6217 L -54.9153,42.4378 L -54.9359,42.2517
 L -54.9519,42.0634 L -54.9634,41.8728 L -54.9702,41.6799 L -54.9725,41.4849 L -54.9703,41.2873 L -54.9636,41.0922
 L -54.9525,40.8997 L -54.9369,40.7099 L -54.9168,40.5226 L -54.8922,40.338 L -54.8632,40.1559 L -54.8298,39.9765
 L -54.7919,39.7997 L -54.7495,39.6254 L -54.7026,39.4538 L -54.6514,39.2848 L -54.5957,39.1195 L -54.5357,38.9582
 L -54.4714,38.8007 L -54.4027,38.6472 L -54.3297,38.4977 L -54.2524,38.3521 L -54.1707,38.2104 L -54.0847,38.0726
 L -53.9943,37.9388 L -53.8996,37.8089 L -53.8005,37.6829 L -53.6971,37.561 L -53.5892,37.4436 L -53.4768,37.3307
 L -53.36,37.2224 L -53.2387,37.1186 L -53.1129,37.0193 L -52.9827,36.9245 L -52.848,36.8342 L -52.7089,36.7485
 L -52.5653,36.6673 L -52.4173,36.5906 L -52.2647,36.5185 L -52.1079,36.4525 L -51.9467,36.3927 L -51.7811,36.3392
 L -51.6113,36.2921 L -51.437,36.2512 L -51.2585,36.2166 L -51.0756,36.1882 L -50.8883,36.1662 L -50.6967,36.1505
 L -50.5008,36.1411 L -50.3005,36.1379 L -50.3005,38.0579 L -50.3623,38.0585 L -50.4824,38.0635 L -50.5981,38.0733
 L -50.7094,38.0881 L -50.8163,38.1078 L -50.9189,38.1325 L -51.017,38.1621 L -51.1107,38.1966 L -51.2,38.236
 L -51.2849,38.2804 L -51.3654,38.3297 L -51.4415,38.3839 L -51.549,38.4719 L -51.6502,38.5656 L -51.745,38.6652
 L -51.8336,38.7706 L -51.9159,38.8819 L -51.9919,38.9989 L -52.0616,39.1218 L -52.1249,39.2503 L -52.1822,39.383
 L -52.2336,39.5199 L -52.2792,39.6607 L -52.319,39.8056 L -52.3529,39.9546 L -52.3811,40.1076 L -52.4034,40.2647
 L -52.4399,40.6374 L -52.4684,41.1112 L -52.4765,41.5269 L -52.4705,41.829 L -52.4523,42.1333 L -52.4158,42.4911
 L -52.3709,42.7992 L -52.3304,42.9992 L -52.2939,43.1451 L -52.2519,43.2874 L -52.2047,43.4261 L -52.1521,43.5614
 L -52.0941,43.6931 L -52.0307,43.8211 L -51.961,43.9438 L -51.8851,44.0608 L -51.8028,44.172 L -51.7142,44.2774
 L -51.6194,44.377 L -51.5182,44.4708 L -51.4108,44.5588 L -51.3354,44.614 L -51.2565,44.6647 L -51.174,44.7105
 L -51.0878,44.7515 L -50.9981,44.7877 L -50.9047,44.8191 L -50.8077,44.8456 L -50.7071,44.8673 L -50.6029,44.8842
 L -50.4951,44.8963 L -50.3836,44.9035 L -50.2685,44.9059 L -50.2685,46.8899 z
M 49.533,46.8866 L 49.3386,46.8769 L 49.1484,46.8606 L 48.9623,46.8378 L 48.7803,46.8084 L 48.6024,46.7726
 L 48.4286,46.7302 L 48.2589,46.6813 L 48.0934,46.6259 L 47.9319,46.564 L 47.7746,46.4956 L 47.6215,46.4209
 L 47.4728,46.3414 L 47.3285,46.2575 L 47.1885,46.1691 L 47.0529,46.0763 L 46.9216,45.9789 L 46.7947,45.8771
 L 46.6721,45.7708 L 46.5539,45.6601 L 46.4401,45.5448 L 46.3306,45.4251 L 46.2255,45.3009 L 46.1248,45.1724
 L 46.0286,45.0401 L 45.9366,44.9039 L 45.849,44.764 L 45.7658,44.6202 L 45.6869,44.4727 L 45.6123,44.3213
 L 45.5421,44.1661 L 45.4762,44.0071 L 45.4146,43.8443 L 45.3574,43.6776 L 45.3047,43.5074 L 45.2566,43.3347
 L 45.213,43.1598 L 45.1741,42.9827 L 45.1397,42.8033 L 45.1099,42.6217 L 45.0847,42.4378 L 45.0641,42.2517
 L 45.0481,42.0634 L 45.0366,41.8728 L 45.0298,41.6799 L 45.0275,41.4849 L 45.0297,41.2873 L 45.0364,41.0922
 L 45.0475,40.8997 L 45.0631,40.7099 L 45.0832,40.5226 L 45.1078,40.338 L 45.1368,40.1559 L 45.1702,39.9765
 L 45.2081,39.7997 L 45.2505,39.6254 L 45.2974,39.4538 L 45.3486,39.2848 L 45.4043,39.1195 L 45.4643,38.9582
 L 45.5286,38.8007 L 45.5973,38.6472 L 45.6703,38.4977 L 45.7476,38.3521 L 45.8293,38.2104 L 45.9153,38.0726
 L 46.0057,37.9388 L 46.1004,37.8089 L 46.1995,37.6829 L 46.3029,37.561 L 46.4108,37.4436 L 46.5232,37.3307
 L 46.64,37.2224 L 46.7613,37.1186 L 46.8871,37.0193 L 47.0173,36.9245 L 47.152,36.8342 L 47.2911,36.7485
 L 47.4347,36.6673 L 47.5827,36.5906 L 47.7353,36.5185 L 47.8921,36.4525 L 48.0533,36.3927 L 48.2189,36.3392
 L 48.3887,36.2921 L 48.563,36.2512 L 48.7415,36.2166 L 48.9244,36.1882 L 49.1117,36.1662 L 49.3033,36.1505
 L 49.4992,36.1411 L 49.6995,36.1379 L 49.6995,38.0579 L 49.6377,38.0585 L 49.5176,38.0635 L 49.4019,38.0733
 L 49.2906,38.0881 L 49.1837,38.1078 L 49.0811,38.1325 L 48.983,38.1621 L 48.8893,38.1966 L 48.8,38.236
 L 48.7151,38.2804 L 48.6346,38.3297 L 48.5585,38.3839 L 48.451,38.4719 L 48.3498,38.5656 L 48.255,38.6652
 L 48.1664,38.7706 L 48.0841,38.8819 L 48.0081,38.9989 L 47.9384,39.1218 L 47.8751,39.2503 L 47.8178,39.383
 L 47.7664,39.5199 L 47.7208,39.6607 L 47.681,39.8056 L 47.6471,39.9546 L 47.6189,40.1076 L 47.5966,40.2647
 L 47.5601,40.6374 L 47.5316,41.1112 L 47.5235,41.5269 L 47.5295,41.829 L 47.5477,42.1333 L 47.5842,42.4911
 L 47.6291,42.7992 L 47.6696,42.9992 L 47.7061,43.1451 L 47.7481,43.2874 L 47.7953,43.4261 L 47.8479,43.5614
 L 47.9059,43.6931 L 47.9693,43.8211 L 48.039,43.9438 L 48.1149,44.0608 L 48.1972,44.172 L 48.2858,44.2774
 L 48.3806,44.377 L 48.4818,44.4708 L 48.5892,44.5588 L 48.6646,44.614 L 48.7435,44.6647 L 48.826,44.7105
 L 48.9122,44.7515 L 49.0019,44.7877 L 49.0953,44.8191 L 49.1923,44.8456 L 49.2929,44.8673 L 49.3971,44.8842
 L 49.5049,44.8963 L 49.6164,44.9035 L 49.7315,44.9059 L 49.7315,46.8899 z
M -14.8527,39.3451 L -14.936,38.8266 L -14.9732,38.6945 L -15.0119,38.5952 L -15.0576,38.5056 L -15.1102,38.4257
 L -15.171,38.3541 L -15.2409,38.2901 L -15.32,38.2339 L -15.4083,38.1852 L -15.5071,38.1438 L -15.647,38.1007
 L -15.8407,38.0595 L -16.0672,38.0279 L -16.0672,36.1379 L -15.8602,36.1969 L -15.7591,36.198 L -15.6592,36.2013
 L -15.5605,36.2068 L -15.463,36.2145 L -15.3666,36.2244 L -15.2714,36.2365 L -15.1773,36.2507 L -15.0845,36.2672
 L -14.9928,36.2859 L -14.9023,36.3067 L -14.8129,36.3298 L -14.7247,36.3551 L -14.6377,36.3825 L -14.5519,36.4122
 L -14.4673,36.444 L -14.3838,36.4781 L -14.3015,36.5143 L -14.2203,36.5528 L -14.1403,36.5934 L -14.0615,36.6362
 L -13.9839,36.6813 L -13.9075,36.7285 L -13.8322,36.7779 L -13.7585,36.8295 L -13.6869,36.8833 L -13.6174,36.9394
 L -13.55,36.9977 L -13.4846,37.0583 L -13.4213,37.1212 L -13.3601,37.1862 L -13.3009,37.2536 L -13.2438,37.3232
 L -13.1888,37.3951 L -13.1359,37.4693 L -13.085,37.5456 L -13.0362,37.6243 L -12.9895,37.7052 L -12.9448,37.7884
 L -12.9022,37.8738 L -12.8617,37.9615 L -12.8233,38.0514 L -12.7869,38.1436 L -12.7526,38.238 L -12.7204,38.3347
 L -12.6903,38.4337 L -12.6622,38.5349 L -12.6217,38.7 L -12.5142,39.3979 L -14.8252,39.5769 z
M -81.5194,39.3451 L -81.6027,38.8266 L -81.6399,38.6945 L -81.6786,38.5952 L -81.7243,38.5056 L -81.7769,38.4257
 L -81.8377,38.3541 L -81.9076,38.2901 L -81.9867,38.2339 L -82.075,38.1852 L -82.1738,38.1438 L -82.3137,38.1007
 L -82.5074,38.0595 L -82.7339,38.0279 L -82.7339,36.1379 L -82.5269,36.1969 L -82.4258,36.198 L -82.3259,36.2013
 L -82.2272,36.2068 L -82.1296,36.2145 L -82.0332,36.2244 L -81.938,36.2365 L -81.844,36.2507 L -81.7511,36.2672
 L -81.6595,36.2859 L -81.5689,36.3067 L -81.4796,36.3298 L -81.3914,36.3551 L -81.3044,36.3825 L -81.2186,36.4122
 L -81.1339,36.444 L -81.0504,36.4781 L -80.9681,36.5143 L -80.887,36.5528 L -80.807,36.5934 L -80.7282,36.6362
 L -80.6506,36.6813 L -80.5741,36.7285 L -80.4989,36.7779 L -80.4252,36.8295 L -80.3536,36.8833 L -80.2841,36.9394
 L -80.2166,36.9977 L -80.1513,37.0583 L -80.088,37.1212 L -80.0267,37.1862 L -79.9676,37.2536 L -79.9105,37.3232
 L -79.8555,37.3951 L -79.8026,37.4693 L -79.7517,37.5456 L -79.7029,37.6243 L -79.6562,37.7052 L -79.6115,37.7884
 L -79.5689,37.8738 L -79.5284,37.9615 L -79.49,38.0514 L -79.4536,38.1436 L -79.4193,38.238 L -79.3871,38.3347
 L -79.3569,38.4337 L -79.3289,38.5349 L -79.2883,38.7 L -79.1808,39.3979 L -81.4919,39.5769 z
M -16.0672,45.0059 L -15.9584,45.0031 L -15.7663,44.984 L -15.5792,44.9469 L -15.4391,44.9044 L -15.3073,44.8498
 L -15.1839,44.7831 L -15.0858,44.7156 L -15.0123,44.6509 L -14.9465,44.5785 L -14.8882,44.4984 L -14.8377,44.4107
 L -14.8042,44.334 L -14.7773,44.2511 L -14.7532,44.1387 L -14.7395,44.0166 L -14.7367,43.8749 L -14.7406,43.8029
 L -14.7484,43.7335 L -14.7602,43.6666 L -14.7758,43.6023 L -14.7954,43.5407 L -14.8189,43.4816 L -14.8463,43.4251
 L -14.8777,43.3711 L -14.9129,43.3198 L -14.9521,43.2711 L -14.9952,43.2249 L -15.0654,43.159 L -15.1414,43.0964
 L -15.2233,43.037 L -15.3415,42.9631 L -15.47,42.895 L -15.6089,42.8328 L -15.7577,42.7759 L -16.0361,42.6832
 L -16.3366,42.5989 L -17.875,42.2391 L -18.3156,42.1165 L -18.7498,41.9758 L -19.0341,41.8705 L -19.2157,41.7908
 L -19.3901,41.7032 L -19.5573,41.6075 L -19.7173,41.5037 L -19.8326,41.4206 L -19.9435,41.3327 L -20.0486,41.2388
 L -20.148,41.139 L -20.2416,41.0331 L -20.3294,40.9213 L -20.4115,40.8035 L -20.4877,40.6797 L -20.5582,40.5499
 L -20.6011,40.4593 L -20.6401,40.3647 L -20.6752,40.2662 L -20.7064,40.1638 L -20.7337,40.0575 L -20.7572,39.9472
 L -20.7767,39.8331 L -20.7923,39.715 L -20.804,39.593 L -20.8118,39.4671 L -20.8157,39.3373 L -20.8157,39.197
 L -20.8116,39.052 L -20.8036,38.9109 L -20.7915,38.7737 L -20.7754,38.6404 L -20.7553,38.5109 L -20.7312,38.3854
 L -20.703,38.2637 L -20.6708,38.1459 L -20.6346,38.032 L -20.5944,37.922 L -20.5502,37.8159 L -20.5023,37.7135
 L -20.4514,37.6145 L -20.3973,37.519 L -20.3401,37.427 L -20.2797,37.3385 L -20.2162,37.2535 L -20.1496,37.1719
 L -20.0799,37.0938 L -20.007,37.0192 L -19.931,36.9481 L -19.8519,36.8804 L -19.7696,36.8161 L -19.6409,36.7253
 L -19.5518,36.6685 L -19.4131,36.589 L -19.2684,36.5163 L -19.1176,36.4504 L -18.9608,36.3913 L -18.798,36.339
 L -18.6293,36.2935 L -18.4563,36.2539 L -18.2798,36.2202 L -18.0999,36.1922 L -17.9165,36.17 L -17.7297,36.1537
 L -17.4751,36.1408 L -17.1912,36.1379 L -17.1912,37.9979 L -17.3418,38.0013 L -17.6263,38.0288 L -17.7957,38.0638
 L -17.9183,38.1065 L -18.0329,38.1632 L -18.1235,38.2229 L -18.1915,38.2818 L -18.2526,38.3492 L -18.3068,38.4251
 L -18.3539,38.5094 L -18.3851,38.5837 L -18.41,38.6646 L -18.4324,38.7753 L -18.4451,38.8964 L -18.4477,39.0352
 L -18.4436,39.1019 L -18.4356,39.166 L -18.4236,39.2275 L -18.4076,39.2865 L -18.3875,39.343 L -18.3635,39.3968
 L -18.3354,39.4482 L -18.3034,39.4969 L -18.2673,39.5432 L -18.2272,39.5868 L -18.1832,39.6279 L -18.0857,39.7051
 L -17.9785,39.7773 L -17.8615,39.8445 L -17.7347,39.9068 L -17.5981,39.9642 L -17.4138,40.0291 L -17.1361,40.1113
 L -16.8366,40.1842 L -15.9389,40.3601 L -15.2534,40.5217 L -14.9114,40.6196 L -14.5735,40.7313 L -14.2398,40.8568
 L -14.1005,40.9173 L -13.9652,40.9833 L -13.834,41.0548 L -13.7068,41.1319 L -13.5837,41.2145 L -13.4646,41.3027
 L -13.3496,41.3964 L -13.239,41.4958 L -13.1341,41.6018 L -13.035,41.7145 L -12.9417,41.8341 L -12.8541,41.9604
 L -12.7724,42.0934 L -12.6964,42.2333 L -12.6262,42.3799 L -12.5833,42.482 L -12.5443,42.5884 L -12.5091,42.6991
 L -12.4779,42.814 L -12.4506,42.9332 L -12.4272,43.0567 L -12.4077,43.1844 L -12.3921,43.3164 L -12.3804,43.4526
 L -12.3726,43.5931 L -12.3687,43.7379 L -12.3696,43.9038 L -12.3773,44.04 L -12.3914,44.1741 L -12.4121,44.3063
 L -12.4393,44.4365 L -12.4731,44.5646 L -12.5134,44.6908 L -12.5602,44.8149 L -12.6307,44.9762 L -12.7093,45.1316
 L -12.796,45.2813 L -12.8908,45.4251 L -12.9937,45.5632 L -13.1046,45.6954 L -13.2226,45.8215 L -13.3478,45.9414
 L -13.4801,46.055 L -13.6196,46.1625 L -13.7662,46.2636 L -13.9194,46.3583 L -14.0758,46.4448 L -14.2348,46.5228
 L -14.3966,46.5924 L -14.561,46.6535 L -14.728,46.7061 L -15.3009,46.8534 L -16.0672,46.9389 z
M 52.2685,39.453 L 52.2102,39.278 L 52.1684,39.1678 L 52.1243,39.0629 L 52.0779,38.9632 L 52.0291,38.8688
 L 51.9779,38.7797 L 51.9244,38.6958 L 51.8686,38.6171 L 51.8104,38.5437 L 51.7494,38.4754 L 51.683,38.4121
 L 51.6106,38.3535 L 51.5322,38.2998 L 51.4479,38.2508 L 51.3577,38.2067 L 51.2615,38.1674 L 51.1594,38.1329
 L 51.0513,38.1032 L 50.9373,38.0783 L 50.8173,38.0582 L 50.6914,38.0429 L 50.6914,36.1379 L 50.8344,36.1469
 L 50.9749,36.1584 L 51.1129,36.1724 L 51.2483,36.1889 L 51.3812,36.208 L 51.5116,36.2295 L 51.6395,36.2536
 L 51.7648,36.2802 L 51.8877,36.3092 L 52.008,36.3408 L 52.1257,36.3749 L 52.241,36.4115 L 52.3537,36.4507
 L 52.464,36.4923 L 52.5717,36.5364 L 52.6768,36.5831 L 52.7795,36.6322 L 52.8796,36.6839 L 52.9772,36.7381
 L 53.0723,36.7948 L 53.1649,36.854 L 53.2549,36.9157 L 53.3424,36.9799 L 53.4276,37.0471 L 53.5102,37.1181
 L 53.5904,37.1927 L 53.6681,37.2711 L 53.7434,37.3531 L 53.8162,37.4389 L 53.8865,37.5283 L 53.9543,37.6215
 L 54.0197,37.7183 L 54.0827,37.8189 L 54.1431,37.9231 L 54.2011,38.0311 L 54.2567,38.1428 L 54.3097,38.2581
 L 54.3603,38.3772 L 54.4085,38.4999 L 54.4542,38.6264 L 54.4974,38.7566 L 54.5381,38.8904 L 54.5764,39.028
 L 54.6122,39.1693 L 54.6456,39.3142 L 54.6764,39.4629 L 52.3214,39.6399 z
M 1.93097,41.4782 L 1.82697,36.3612 L 4.16397,36.3612 L 4.16397,45.2162 z
M -37.6142,46.7292 L -37.6142,36.3612 L -35.2881,36.3612 L -35.2881,46.7292 z
M -31.4922,46.7292 L -31.4922,42.2491 L -34.1631,42.2491 L -34.1631,40.3292 L -31.4922,40.3292 L -31.4922,36.3612
 L -29.1662,36.3612 L -29.1662,46.7292 z
M -70.5878,46.7292 L -70.5878,36.3612 L -68.2618,36.3612 L -68.2618,46.7292 z
M -67.1318,38.2812 L -67.1318,36.3612 L -63.0358,36.3612 L -63.0358,38.2812 z
M 1.95998,46.7292 L -4.22202,36.3612 L -2.033,36.3612 L 4.17798,46.7292 z
M 28.3477,46.6971 L 31.9177,36.3612 L 34.5847,36.3612 L 38.2287,46.6971 L 35.6217,46.6971 L 34.9397,44.4892
 L 32.6287,44.4892 L 33.1917,42.6272 L 34.3477,42.6272 L 34.1098,41.8515 L 33.6614,40.4835 L 33.583,40.2257
 L 33.5119,39.966 L 33.4481,39.7042 L 33.3916,39.4405 L 33.3423,39.1747 L 33.3004,38.9069 L 33.2657,38.6372
 L 33.0366,39.7158 L 30.9847,46.6971 z
M 82.1436,46.7292 L 82.1436,36.3612 L 84.4696,36.3612 L 84.4696,46.7292 z
M 79.0296,38.3452 L 79.0296,36.3612 L 81.1416,36.3612 L 81.1416,38.3452 z
M 85.3016,38.2812 L 85.3016,36.3612 L 87.5416,36.3612 L 87.5416,38.2812 z
M 62.3858,46.7292 L 62.3858,36.3612 L 64.7118,36.3612 L 64.7118,46.7292 z
M 68.5078,46.7292 L 68.5078,42.2491 L 65.8368,42.2491 L 65.8368,40.3292 L 68.5078,40.3292 L 68.5078,36.3612
 L 70.8338,36.3612 L 70.8338,46.7292 z
M 12.9999,46.7292 L 12.9999,36.3612 L 15.3259,36.3612 L 15.3259,46.7292 z
M -4.25201,46.7292 L -4.25201,37.8002 L -2.033,41.5522 L -1.93001,46.7292 z
M -67.1318,42.2032 L -67.1318,40.3382 L -63.4198,40.3382 L -63.4198,42.2032 z
M -49.3086,44.9209 L -49.236,44.9124 L -49.0962,44.8912 L -48.9636,44.8641 L -48.8382,44.8313 L -48.72,44.7926
 L -48.6089,44.7482 L -48.5561,44.7238 L -48.5051,44.6979 L -48.4559,44.6706 L -48.4084,44.6419 L -48.3628,44.6117
 L -48.3189,44.5801 L -48.2769,44.547 L -48.2366,44.5125 L -48.1982,44.4765 L -48.1615,44.4391 L -48.1266,44.4002
 L -48.0936,44.3599 L -48.0619,44.3181 L -48.0016,44.2302 L -47.9453,44.1365 L -47.893,44.037 L -47.8447,43.9317
 L -47.8005,43.8206 L -47.7603,43.7037 L -47.7241,43.5809 L -47.6919,43.4524 L -47.6638,43.318 L -47.6397,43.1779
 L -47.6196,43.0319 L -45.1606,43.1939 L -45.1764,43.2788 L -45.2273,43.5262 L -45.2832,43.7625 L -45.3442,43.9875
 L -45.4102,44.2015 L -45.4812,44.4042 L -45.5573,44.5958 L -45.6108,44.7173 L -45.6666,44.8339 L -45.7548,45.0009
 L -45.8488,45.16 L -45.9147,45.2617 L -45.9832,45.36 L -46.0543,45.4548 L -46.128,45.5461 L -46.2043,45.6339
 L -46.2831,45.7182 L -46.3645,45.7991 L -46.4486,45.8765 L -46.5352,45.9505 L -46.6249,46.0213 L -46.7176,46.0891
 L -46.8133,46.1539 L -46.9121,46.2156 L -47.0139,46.2742 L -47.1187,46.3298 L -47.2266,46.3823 L -47.3375,46.4318
 L -47.5096,46.5003 L -47.6886,46.5619 L -47.8747,46.6183 L -48.1346,46.6881 L -48.4079,46.7516 L -48.6947,46.809
 L -48.9949,46.86 L -49.3086,46.9049 z
M 50.6914,44.9209 L 50.764,44.9124 L 50.9038,44.8912 L 51.0364,44.8641 L 51.1618,44.8313 L 51.28,44.7926
 L 51.3911,44.7482 L 51.4439,44.7238 L 51.4949,44.6979 L 51.5441,44.6706 L 51.5916,44.6419 L 51.6372,44.6117
 L 51.6811,44.5801 L 51.7231,44.547 L 51.7634,44.5125 L 51.8018,44.4765 L 51.8385,44.4391 L 51.8734,44.4002
 L 51.9064,44.3599 L 51.9381,44.3181 L 51.9984,44.2302 L 52.0547,44.1365 L 52.107,44.037 L 52.1553,43.9317
 L 52.1995,43.8206 L 52.2397,43.7037 L 52.2759,43.5809 L 52.3081,43.4524 L 52.3362,43.318 L 52.3603,43.1779
 L 52.3804,43.0319 L 54.8394,43.1939 L 54.8236,43.2788 L 54.7727,43.5262 L 54.7168,43.7625 L 54.6558,43.9875
 L 54.5898,44.2015 L 54.5188,44.4042 L 54.4427,44.5958 L 54.3892,44.7173 L 54.3334,44.8339 L 54.2452,45.0009
 L 54.1512,45.16 L 54.0853,45.2617 L 54.0168,45.36 L 53.9457,45.4548 L 53.872,45.5461 L 53.7957,45.6339
 L 53.7169,45.7182 L 53.6355,45.7991 L 53.5514,45.8765 L 53.4648,45.9505 L 53.3751,46.0213 L 53.2824,46.0891
 L 53.1867,46.1539 L 53.0879,46.2156 L 52.9861,46.2742 L 52.8813,46.3298 L 52.7734,46.3823 L 52.6625,46.4318
 L 52.4904,46.5003 L 52.3114,46.5619 L 52.1253,46.6183 L 51.8654,46.6881 L 51.5921,46.7516 L 51.3053,46.809
 L 51.0051,46.86 L 50.6914,46.9049 z
M -17.6512,46.9539 L -17.7882,46.9512 L -18.2437,46.9094 L -18.3731,46.8913 L -18.4996,46.8705 L -18.623,46.8472
 L -18.7434,46.8211 L -18.8608,46.7925 L -18.9752,46.7612 L -19.0865,46.7273 L -19.1948,46.6908 L -19.3001,46.6516
 L -19.4024,46.6098 L -19.5017,46.5654 L -19.5979,46.5183 L -19.6911,46.4686 L -19.7813,46.4163 L -19.8685,46.3613
 L -19.9527,46.3037 L -20.0338,46.2435 L -20.1119,46.1806 L -20.187,46.1151 L -20.2591,46.047 L -20.3281,45.9763
 L -20.3942,45.9029 L -20.4573,45.8267 L -20.5176,45.7476 L -20.5751,45.6657 L -20.6298,45.5809 L -20.6817,45.4933
 L -20.7308,45.4028 L -20.7771,45.3094 L -20.8206,45.2132 L -20.8613,45.1141 L -20.8991,45.0122 L -20.9342,44.9074
 L -20.9664,44.7997 L -20.9959,44.6892 L -21.0226,44.5758 L -21.0464,44.4596 L -21.0674,44.3405 L -21.0857,44.2186
 L -21.1011,44.0938 L -21.1137,43.9661 L -21.1235,43.8356 L -21.1306,43.7022 L -21.1348,43.566 L -21.1362,43.4269
 L -18.8332,43.3089 L -18.6183,44.1326 L -18.5666,44.2837 L -18.507,44.4186 L -18.4513,44.5188 L -18.3902,44.6079
 L -18.3349,44.6712 L -18.272,44.7284 L -18.2014,44.7794 L -18.1233,44.8243 L -18.0375,44.8629 L -17.9189,44.903
 L -17.7517,44.9444 L -17.5197,44.9848 L -17.2062,45.0209 L -17.2062,46.9539 z
M -84.3178,46.9539 L -84.4549,46.9512 L -84.9103,46.9094 L -85.0398,46.8913 L -85.1662,46.8705 L -85.2897,46.8472
 L -85.4101,46.8211 L -85.5275,46.7925 L -85.6418,46.7612 L -85.7532,46.7273 L -85.8615,46.6908 L -85.9668,46.6516
 L -86.0691,46.6098 L -86.1683,46.5654 L -86.2646,46.5183 L -86.3578,46.4686 L -86.448,46.4163 L -86.5352,46.3613
 L -86.6193,46.3037 L -86.7005,46.2435 L -86.7786,46.1806 L -86.8537,46.1151 L -86.9258,46.047 L -86.9948,45.9763
 L -87.0608,45.9029 L -87.124,45.8267 L -87.1843,45.7476 L -87.2418,45.6657 L -87.2965,45.5809 L -87.3484,45.4933
 L -87.3975,45.4028 L -87.4438,45.3094 L -87.4872,45.2132 L -87.5279,45.1141 L -87.5658,45.0122 L -87.6009,44.9074
 L -87.6331,44.7997 L -87.6626,44.6892 L -87.6892,44.5758 L -87.7131,44.4596 L -87.7341,44.3405 L -87.7523,44.2186
 L -87.7678,44.0938 L -87.7804,43.9661 L -87.7902,43.8356 L -87.7972,43.7022 L -87.8014,43.566 L -87.8028,43.4269
 L -85.4998,43.3089 L -85.285,44.1326 L -85.2333,44.2837 L -85.1737,44.4186 L -85.118,44.5188 L -85.0568,44.6079
 L -85.0015,44.6712 L -84.9386,44.7284 L -84.8681,44.7794 L -84.7899,44.8243 L -84.7042,44.8629 L -84.5856,44.903
 L -84.4183,44.9444 L -84.1864,44.9848 L -83.8728,45.0209 L -83.8728,46.9539 z
M -67.1318,46.7292 L -67.1318,44.8091 L -62.9078,44.8091 L -62.9078,46.7292 z
M 16.4559,46.7292 L 16.4559,44.8091 L 20.2319,44.8091 L 20.2319,46.7292 z
M 47.2667,53.3506 L 47.2667,51.5586 L 49.1867,51.5586 L 49.1867,53.3506 z
M 50.7227,53.3506 L 50.7227,51.5586 L 52.6427,51.5586 L 52.6427,53.3506 z
M -81.5194,56.0117 L -81.6027,55.4933 L -81.6399,55.3612 L -81.6786,55.2619 L -81.7243,55.1723 L -81.7769,55.0923
 L -81.8377,55.0208 L -81.9076,54.9568 L -81.9867,54.9005 L -82.075,54.8519 L -82.1738,54.8104 L -82.3137,54.7674
 L -82.5074,54.7262 L -82.7339,54.6946 L -82.7339,52.8046 L -82.5269,52.8636 L -82.4258,52.8647 L -82.3259,52.868
 L -82.2272,52.8735 L -82.1296,52.8812 L -82.0332,52.891 L -81.938,52.9031 L -81.844,52.9174 L -81.7511,52.9339
 L -81.6595,52.9525 L -81.5689,52.9734 L -81.4796,52.9965 L -81.3914,53.0217 L -81.3044,53.0492 L -81.2186,53.0789
 L -81.1339,53.1107 L -81.0504,53.1447 L -80.9681,53.181 L -80.887,53.2194 L -80.807,53.2601 L -80.7282,53.3029
 L -80.6506,53.3479 L -80.5741,53.3952 L -80.4989,53.4446 L -80.4252,53.4962 L -80.3536,53.55 L -80.2841,53.606
 L -80.2166,53.6644 L -80.1513,53.725 L -80.088,53.7878 L -80.0267,53.8529 L -79.9676,53.9203 L -79.9105,53.9899
 L -79.8555,54.0618 L -79.8026,54.1359 L -79.7517,54.2123 L -79.7029,54.291 L -79.6562,54.3719 L -79.6115,54.455
 L -79.5689,54.5405 L -79.5284,54.6281 L -79.49,54.7181 L -79.4536,54.8103 L -79.4193,54.9047 L -79.3871,55.0014
 L -79.3569,55.1004 L -79.3289,55.2016 L -79.2883,55.3667 L -79.1808,56.0646 L -81.4919,56.2436 z
M -82.7339,61.6726 L -82.625,61.6698 L -82.433,61.6507 L -82.2458,61.6136 L -82.1058,61.571 L -81.974,61.5164
 L -81.8506,61.4498 L -81.7525,61.3823 L -81.679,61.3176 L -81.6131,61.2452 L -81.5549,61.1651 L -81.5044,61.0774
 L -81.4708,61.0007 L -81.444,60.9178 L -81.4198,60.8054 L -81.4062,60.6833 L -81.4033,60.5416 L -81.4073,60.4696
 L -81.4151,60.4001 L -81.4268,60.3333 L -81.4425,60.269 L -81.4621,60.2073 L -81.4856,60.1482 L -81.513,60.0917
 L -81.5443,60.0378 L -81.5796,59.9865 L -81.6188,59.9377 L -81.6618,59.8916 L -81.7321,59.8257 L -81.8081,59.763
 L -81.89,59.7037 L -82.0081,59.6298 L -82.1367,59.5617 L -82.2755,59.4995 L -82.4244,59.4426 L -82.7028,59.3499
 L -83.0033,59.2656 L -84.5416,58.9058 L -84.9823,58.7832 L -85.4165,58.6425 L -85.7008,58.5371 L -85.8824,58.4575
 L -86.0568,58.3698 L -86.224,58.2742 L -86.384,58.1704 L -86.4993,58.0873 L -86.6102,57.9993 L -86.7153,57.9055
 L -86.8147,57.8056 L -86.9083,57.6998 L -86.9961,57.588 L -87.0781,57.4702 L -87.1544,57.3464 L -87.2248,57.2166
 L -87.2678,57.1259 L -87.3068,57.0314 L -87.3419,56.9329 L -87.3731,56.8305 L -87.4004,56.7242 L -87.4238,56.6139
 L -87.4433,56.4998 L -87.4589,56.3817 L -87.4706,56.2597 L -87.4784,56.1338 L -87.4823,56.004 L -87.4823,55.8636
 L -87.4783,55.7187 L -87.4703,55.5776 L -87.4582,55.4404 L -87.4421,55.307 L -87.422,55.1776 L -87.3979,55.052
 L -87.3697,54.9304 L -87.3375,54.8126 L -87.3013,54.6987 L -87.2611,54.5887 L -87.2168,54.4826 L -87.169,54.3802
 L -87.1181,54.2812 L -87.064,54.1857 L -87.0067,54.0937 L -86.9464,54.0052 L -86.8829,53.9202 L -86.8163,53.8386
 L -86.7466,53.7605 L -86.6737,53.6859 L -86.5977,53.6148 L -86.5186,53.5471 L -86.4363,53.4828 L -86.3076,53.3919
 L -86.2185,53.3352 L -86.0798,53.2556 L -85.935,53.1829 L -85.7843,53.1171 L -85.6275,53.058 L -85.4647,53.0057
 L -85.2959,52.9601 L -85.123,52.9206 L -84.9465,52.8869 L -84.7666,52.8589 L -84.5832,52.8367 L -84.3963,52.8203
 L -84.1418,52.8075 L -83.8578,52.8046 L -83.8578,54.6646 L -84.0085,54.668 L -84.293,54.6954 L -84.4624,54.7305
 L -84.5849,54.7732 L -84.6996,54.8298 L -84.7902,54.8896 L -84.8582,54.9485 L -84.9193,55.0158 L -84.9734,55.0917
 L -85.0206,55.1761 L -85.0518,55.2504 L -85.0767,55.3313 L -85.0991,55.442 L -85.1117,55.5631 L -85.1143,55.7019
 L -85.1103,55.7685 L -85.1023,55.8326 L -85.0903,55.8942 L -85.0743,55.9532 L -85.0542,56.0096 L -85.0302,56.0635
 L -85.0021,56.1148 L -84.9701,56.1636 L -84.934,56.2098 L -84.8939,56.2535 L -84.8498,56.2946 L -84.7524,56.3718
 L -84.6452,56.444 L -84.5282,56.5112 L -84.4014,56.5735 L -84.2647,56.6308 L -84.0805,56.6958 L -83.8028,56.778
 L -83.5033,56.8509 L -82.6056,57.0267 L -81.9201,57.1884 L -81.5781,57.2863 L -81.2402,57.398 L -80.9065,57.5235
 L -80.7672,57.584 L -80.6319,57.6499 L -80.5007,57.7215 L -80.3735,57.7986 L -80.2504,57.8812 L -80.1313,57.9694
 L -80.0163,58.0631 L -79.9057,58.1625 L -79.8008,58.2685 L -79.7017,58.3812 L -79.6083,58.5007 L -79.5208,58.627
 L -79.439,58.7601 L -79.3631,58.9 L -79.2928,59.0466 L -79.2499,59.1487 L -79.2109,59.2551 L -79.1758,59.3658
 L -79.1446,59.4807 L -79.1173,59.5999 L -79.0939,59.7233 L -79.0744,59.8511 L -79.0587,59.983 L -79.047,60.1193
 L -79.0392,60.2598 L -79.0353,60.4046 L -79.0363,60.5705 L -79.0439,60.7066 L -79.0581,60.8408 L -79.0788,60.973
 L -79.106,61.1031 L -79.1397,61.2313 L -79.18,61.3574 L -79.2269,61.4816 L -79.2973,61.6428 L -79.3759,61.7983
 L -79.4626,61.948 L -79.5574,62.0918 L -79.6604,62.2298 L -79.7713,62.3621 L -79.8893,62.4882 L -80.0145,62.6081
 L -80.1468,62.7217 L -80.2863,62.8291 L -80.4329,62.9303 L -80.5861,63.025 L -80.7424,63.1115 L -80.9015,63.1895
 L -81.0632,63.259 L -81.2276,63.3201 L -81.3947,63.3727 L -81.9676,63.5201 L -82.7339,63.6056 z
M 83.0493,54.9478 L 83.0493,53.0278 L 87.0813,53.0278 L 87.0813,54.9478 z
M 62.9999,63.3958 L 62.9999,53.0278 L 65.3259,53.0278 L 65.3259,63.3958 z
M 29.6671,63.3638 L 26.7491,53.0278 L 29.0751,53.0278 L 31.8011,63.3638 z
M 36.6301,57.7968 L 37.6081,53.0278 L 39.9041,53.0278 L 37.6221,61.9318 z
M 12.2357,63.3958 L 12.2357,61.6548 L 19.6036,53.0278 L 20.9396,53.0278 L 20.9396,54.8618 L 13.6687,63.3958
 z
M 1.95998,63.3958 L -4.22202,53.0278 L -2.033,53.0278 L 4.17798,63.3958 z
M -20.5878,63.3958 L -20.5878,53.0278 L -18.2618,53.0278 L -18.2618,63.3958 z
M -17.1318,54.9478 L -17.1318,53.0278 L -13.0358,53.0278 L -13.0358,54.9478 z
M -67.9127,63.3958 L -67.9127,53.0278 L -65.5867,53.0278 L -65.5867,63.3958 z
M -37.6484,63.3958 L -37.6484,53.0278 L -35.3224,53.0278 L -35.3224,63.3958 z
M -50.4651,54.9478 L -50.4651,53.0278 L -46.3691,53.0278 L -46.3691,54.9478 z
M -53.9211,63.3958 L -53.9211,53.0278 L -51.5951,53.0278 L -51.5951,63.3958 z
M 79.4653,63.3958 L 79.4653,53.0278 L 81.7914,53.0278 L 81.7914,63.3958 z
M 12.5556,55.0118 L 12.5556,53.0278 L 18.3426,53.0278 L 16.6806,55.0118 z
M 1.93097,58.1448 L 1.82697,53.0278 L 4.16397,53.0278 L 4.16397,61.8828 z
M -34.2134,61.4328 L -33.3572,61.467 L -32.895,61.4293 L -32.7348,61.4019 L -32.5817,61.3642 L -32.4356,61.3161
 L -32.2964,61.2578 L -32.191,61.2029 L -32.0919,61.1406 L -31.9992,61.0707 L -31.9127,60.9933 L -31.8324,60.9084
 L -31.7587,60.8159 L -31.7257,60.766 L -31.6958,60.7133 L -31.6691,60.6579 L -31.6349,60.5696 L -31.6077,60.475
 L -31.5877,60.3742 L -31.5747,60.2672 L -31.5688,60.1539 L -31.5699,60.0422 L -31.5775,59.938 L -31.5918,59.8396
 L -31.6126,59.7469 L -31.6399,59.66 L -31.6739,59.5789 L -31.7144,59.5035 L -31.7614,59.4338 L -31.8317,59.3485
 L -31.9084,59.2707 L -31.9914,59.2004 L -32.0807,59.1376 L -32.1765,59.0824 L -32.2784,59.0345 L -32.4119,58.9835
 L -32.5518,58.9415 L -32.6981,58.9086 L -32.8819,58.8811 L -33.317,58.8478 L -33.8344,58.8408 L -34.2134,58.8708
 L -34.2134,57.0308 L -33.9994,57.0308 L -33.0172,57.0596 L -32.8784,57.0523 L -32.743,57.0344 L -32.6111,57.0061
 L -32.4828,56.9673 L -32.3589,56.918 L -32.2437,56.8593 L -32.1375,56.7916 L -32.0591,56.7308 L -31.9865,56.6643
 L -31.9205,56.5915 L -31.878,56.5314 L -31.8421,56.4661 L -31.8127,56.3958 L -31.7898,56.3204 L -31.7735,56.24
 L -31.7637,56.1544 L -31.7604,56.0638 L -31.7636,55.9693 L -31.7731,55.88 L -31.7889,55.7957 L -31.8111,55.7165
 L -31.8395,55.6424 L -31.8743,55.5734 L -31.9155,55.5096 L -31.9627,55.4506 L -32.0318,55.3778 L -32.1073,55.3112
 L -32.1891,55.251 L -32.2773,55.197 L -32.3718,55.1493 L -32.4978,55.0981 L -32.6553,55.0479 L -32.8188,55.01
 L -32.9885,54.9846 L -33.3023,54.9599 L -33.8864,54.9488 L -34.2284,54.9778 L -34.2284,53.0278 L -33.8564,53.0278
 L -33.3526,53.0358 L -32.7687,53.0639 L -32.2359,53.1068 L -32.039,53.1316 L -31.8462,53.163 L -31.6575,53.2009
 L -31.4728,53.2453 L -31.2923,53.2963 L -31.1158,53.3538 L -30.9434,53.4178 L -30.8315,53.4645 L -30.7231,53.5153
 L -30.6184,53.57 L -30.5173,53.6288 L -30.4197,53.6916 L -30.3258,53.7584 L -30.2354,53.8293 L -30.1487,53.9041
 L -30.0655,53.983 L -29.986,54.0659 L -29.91,54.1529 L -29.8379,54.244 L -29.804,54.2916 L -29.7717,54.3407
 L -29.741,54.3912 L -29.7118,54.4433 L -29.6842,54.4968 L -29.6582,54.5518 L -29.6338,54.6083 L -29.5896,54.7257
 L -29.5518,54.849 L -29.5203,54.9782 L -29.495,55.1133 L -29.4761,55.2544 L -29.4635,55.4013 L -29.4572,55.5542
 L -29.4571,55.705 L -29.4627,55.8453 L -29.474,55.9802 L -29.4909,56.1097 L -29.5134,56.2337 L -29.5415,56.3523
 L -29.5753,56.4655 L -29.6146,56.5732 L -29.6596,56.6755 L -29.7103,56.7724 L -29.7665,56.8638 L -29.8284,56.9498
 L -29.8956,57.0323 L -29.9677,57.1136 L -30.0448,57.1937 L -30.1268,57.2726 L -30.2137,57.3502 L -30.3056,57.4266
 L -30.4024,57.5017 L -30.557,57.6122 L -30.7226,57.7199 L -30.8994,57.8248 L -30.7597,57.8934 L -30.6257,57.9653
 L -30.4975,58.0403 L -30.3751,58.1187 L -30.2584,58.2003 L -30.1475,58.2851 L -30.0423,58.3732 L -29.9429,58.4645
 L -29.8493,58.5591 L -29.7614,58.657 L -29.6793,58.7581 L -29.603,58.8625 L -29.5672,58.9165 L -29.5331,58.9718
 L -29.5007,59.0283 L -29.4699,59.086 L -29.4408,59.1451 L -29.4133,59.2054 L -29.3876,59.2669 L -29.3634,59.3297
 L -29.341,59.3938 L -29.3011,59.5258 L -29.2678,59.6628 L -29.2412,59.8048 L -29.2212,59.952 L -29.2079,60.1041
 L -29.2012,60.2613 L -29.2007,60.3842 L -29.2077,60.5533 L -29.2242,60.7216 L -29.2499,60.889 L -29.2851,61.0556
 L -29.3296,61.2213 L -29.3834,61.3854 L -29.4459,61.5447 L -29.5168,61.6987 L -29.5963,61.8474 L -29.6844,61.9909
 L -29.7809,62.1291 L -29.8636,62.2335 L -29.952,62.3348 L -30.0434,62.4304 L -30.1379,62.5202 L -30.2354,62.6042
 L -30.336,62.6825 L -30.4397,62.755 L -30.5464,62.8218 L -30.6922,62.9033 L -30.8795,62.9958 L -31.0723,63.0777
 L -31.2707,63.1492 L -31.4746,63.2101 L -31.6405,63.2504 L -31.8082,63.2825 L -31.9777,63.3067 L -32.149,63.3228
 L -32.3222,63.3308 L -34.2134,63.3318 z
M 34.8521,63.3638 L 33.3411,56.5268 L 32.4521,61.9168 L 31.4151,57.9598 L 32.2151,53.0278 L 34.4371,53.0278
 L 36.9711,63.3638 z
M 50.4577,64.8066 L 50.4577,62.8596 L 50.6342,62.8221 L 50.8017,62.7798 L 50.9601,62.7325 L 51.1095,62.6803
 L 51.2498,62.6231 L 51.3811,62.561 L 51.5033,62.494 L 51.6166,62.422 L 51.7228,62.3449 L 51.8224,62.2632
 L 51.9156,62.1766 L 52.0022,62.0853 L 52.0823,61.9893 L 52.1558,61.8884 L 52.2228,61.7828 L 52.2838,61.6724
 L 52.3394,61.5576 L 52.3897,61.4386 L 52.4347,61.3153 L 52.4744,61.1877 L 52.5088,61.0559 L 52.5379,60.9199
 L 52.5686,60.7318 L 52.6035,60.435 L 52.6274,60.1202 L 52.6413,59.7302 L 52.6407,59.3315 L 52.6245,58.8911
 L 52.5921,58.4611 L 52.5558,58.1468 L 52.5211,57.9453 L 52.4888,57.799 L 52.4513,57.6567 L 52.4084,57.5184
 L 52.3602,57.3842 L 52.3067,57.2541 L 52.2477,57.1282 L 52.2043,57.0473 L 52.1578,56.9691 L 52.108,56.8934
 L 52.0549,56.8202 L 51.9986,56.7497 L 51.939,56.6817 L 51.8762,56.6163 L 51.8101,56.5535 L 51.7408,56.4932
 L 51.6682,56.4355 L 51.5923,56.3805 L 51.5121,56.329 L 51.4273,56.2812 L 51.3379,56.2371 L 51.2439,56.1967
 L 51.1453,56.16 L 51.0422,56.1269 L 50.9344,56.0975 L 50.8221,56.0717 L 50.7052,56.0497 L 50.5838,56.0313
 L 50.4577,56.0166 L 50.4577,54.0396 L 50.6606,54.0598 L 50.8588,54.0845 L 51.0524,54.1138 L 51.2413,54.1476
 L 51.4256,54.1859 L 51.6052,54.2288 L 51.7801,54.2762 L 51.9504,54.3282 L 52.116,54.3847 L 52.277,54.4458
 L 52.4333,54.5113 L 52.585,54.5815 L 52.7319,54.6561 L 52.8743,54.7354 L 53.012,54.8191 L 53.145,54.9074
 L 53.2733,55.0002 L 53.397,55.0976 L 53.5161,55.1995 L 53.6305,55.306 L 53.7402,55.417 L 53.8453,55.5325
 L 53.9457,55.6526 L 54.0417,55.7766 L 54.1335,55.9043 L 54.221,56.0356 L 54.3043,56.1704 L 54.3832,56.3088
 L 54.4579,56.4509 L 54.5284,56.5965 L 54.5945,56.7457 L 54.6564,56.8985 L 54.714,57.055 L 54.7674,57.215
 L 54.8165,57.3786 L 54.8613,57.5458 L 54.9018,57.7166 L 54.9381,57.891 L 54.9701,58.069 L 54.9979,58.2506
 L 55.0214,58.4357 L 55.0406,58.6245 L 55.0555,58.8169 L 55.0662,59.0128 L 55.0726,59.2124 L 55.0747,59.4156
 L 55.0727,59.592 L 55.0667,59.7677 L 55.0566,59.9426 L 55.0425,60.1168 L 55.0244,60.2901 L 55.0023,60.4626
 L 54.9762,60.6344 L 54.946,60.8054 L 54.9118,60.9756 L 54.8736,61.1449 L 54.8313,61.3136 L 54.785,61.4811
 L 54.7346,61.6458 L 54.6798,61.8074 L 54.6209,61.9659 L 54.5577,62.1212 L 54.4902,62.2735 L 54.4186,62.4226
 L 54.3427,62.5686 L 54.2625,62.7115 L 54.1782,62.8513 L 54.0896,62.988 L 53.9967,63.1216 L 53.8999,63.2512
 L 53.7991,63.3763 L 53.6942,63.497 L 53.5853,63.6133 L 53.4723,63.7251 L 53.3553,63.8325 L 53.2343,63.9354
 L 53.1092,64.0339 L 52.9801,64.1279 L 52.847,64.2175 L 52.7098,64.3027 L 52.5686,64.3829 L 52.4964,64.4206
 L 52.4231,64.4565 L 52.3487,64.4906 L 52.2732,64.523 L 52.1965,64.5536 L 52.0398,64.6096 L 51.9598,64.635
 L 51.7965,64.6805 L 51.6287,64.719 L 51.4564,64.7505 L 51.2797,64.7751 L 51.0985,64.7926 L 50.9128,64.8031
 L 50.7227,64.8066 z
M 48.9345,64.8062 L 48.6872,64.7899 L 48.4183,64.7455 L 48.2545,64.7097 L 48.0948,64.6689 L 47.9391,64.623
 L 47.7874,64.5721 L 47.6398,64.5161 L 47.4962,64.4551 L 47.3566,64.3891 L 47.2211,64.318 L 47.0896,64.2419
 L 46.9621,64.1608 L 46.8387,64.0746 L 46.7194,63.9843 L 46.6039,63.8907 L 46.4922,63.7939 L 46.3842,63.6938
 L 46.2801,63.5905 L 46.1797,63.4839 L 46.0832,63.374 L 45.9904,63.261 L 45.9015,63.1446 L 45.8163,63.025
 L 45.735,62.9022 L 45.6575,62.7762 L 45.5837,62.6478 L 45.5134,62.517 L 45.4468,62.3839 L 45.3838,62.2484
 L 45.3243,62.1106 L 45.2684,61.9705 L 45.2161,61.828 L 45.1674,61.6832 L 45.1222,61.536 L 45.0807,61.3864
 L 45.025,61.1579 L 44.9767,60.9269 L 44.9354,60.6941 L 44.9012,60.4595 L 44.874,60.2232 L 44.854,59.9851
 L 44.841,59.7452 L 44.8351,59.5035 L 44.8369,59.2307 L 44.8435,59.0408 L 44.8544,58.853 L 44.8697,58.6672
 L 44.8894,58.4834 L 44.9134,58.3016 L 44.9418,58.1218 L 44.9746,57.944 L 45.0117,57.7682 L 45.0533,57.5945
 L 45.0991,57.4227 L 45.1495,57.2531 L 45.2044,57.087 L 45.2638,56.9248 L 45.3277,56.7663 L 45.396,56.6117
 L 45.4688,56.4609 L 45.5461,56.314 L 45.6279,56.1709 L 45.7141,56.0315 L 45.8049,55.8961 L 45.9001,55.7644
 L 45.9997,55.6366 L 46.1039,55.5127 L 46.2124,55.3934 L 46.3251,55.2785 L 46.4421,55.1682 L 46.5633,55.0623
 L 46.6887,54.9609 L 46.8185,54.864 L 46.9524,54.7716 L 47.0906,54.6837 L 47.2331,54.6003 L 47.3798,54.5214
 L 47.5308,54.4471 L 47.6863,54.379 L 47.8462,54.3173 L 48.0105,54.2622 L 48.1791,54.2135 L 48.3521,54.1714
 L 48.5294,54.1357 L 48.7111,54.1065 L 48.8972,54.0838 L 49.0877,54.0676 L 49.2825,54.0578 L 49.4817,54.0546
 L 49.4817,56.0166 L 49.364,56.0313 L 49.2503,56.0497 L 49.1405,56.0717 L 49.0347,56.0975 L 48.9328,56.1269
 L 48.8349,56.16 L 48.7409,56.1967 L 48.6508,56.2371 L 48.5647,56.2812 L 48.4826,56.329 L 48.4043,56.3805
 L 48.3299,56.4354 L 48.2236,56.5223 L 48.1235,56.6143 L 48.0294,56.7112 L 47.9415,56.8132 L 47.8597,56.9203
 L 47.7841,57.0323 L 47.7145,57.1494 L 47.651,57.2711 L 47.5928,57.3966 L 47.5399,57.5258 L 47.4924,57.6588
 L 47.4502,57.7956 L 47.4134,57.9361 L 47.3726,58.1294 L 47.3409,58.3289 L 47.3046,58.634 L 47.2803,58.9452
 L 47.2682,59.2626 L 47.2692,59.6561 L 47.2852,60.0469 L 47.311,60.3657 L 47.3477,60.6696 L 47.3807,60.8628
 L 47.4227,61.048 L 47.46,61.1817 L 47.5024,61.3109 L 47.5498,61.4356 L 47.6022,61.5558 L 47.6597,61.6716
 L 47.7234,61.7827 L 47.7939,61.889 L 47.8711,61.9906 L 47.9552,62.0874 L 48.0461,62.1794 L 48.1438,62.2667
 L 48.2483,62.3492 L 48.3597,62.4269 L 48.439,62.476 L 48.5225,62.5229 L 48.6558,62.589 L 48.7987,62.6501
 L 48.9513,62.7062 L 49.1135,62.7574 L 49.2853,62.8035 L 49.4667,62.8446 L 49.4667,64.8066 z
M -4.25201,63.3958 L -4.25201,54.4668 L -2.033,58.2188 L -1.93001,63.3958 z
M -17.1318,58.8698 L -17.1318,57.0048 L -13.4198,57.0048 L -13.4198,58.8698 z
M -50.4651,58.8698 L -50.4651,57.0048 L -46.7531,57.0048 L -46.7531,58.8698 z
M 83.0493,59.0388 L 83.0493,57.2008 L 86.4413,57.2008 L 86.4413,59.0388 z
M -84.3178,63.6206 L -84.4549,63.6179 L -84.9103,63.5761 L -85.0398,63.558 L -85.1662,63.5372 L -85.2897,63.5138
 L -85.4101,63.4878 L -85.5275,63.4592 L -85.6418,63.4279 L -85.7532,63.394 L -85.8615,63.3574 L -85.9668,63.3183
 L -86.0691,63.2765 L -86.1683,63.232 L -86.2646,63.185 L -86.3578,63.1353 L -86.448,63.0829 L -86.5352,63.028
 L -86.6193,62.9704 L -86.7005,62.9102 L -86.7786,62.8473 L -86.8537,62.7818 L -86.9258,62.7137 L -86.9948,62.6429
 L -87.0608,62.5696 L -87.124,62.4934 L -87.1843,62.4143 L -87.2418,62.3324 L -87.2965,62.2476 L -87.3484,62.1599
 L -87.3975,62.0694 L -87.4438,61.9761 L -87.4872,61.8799 L -87.5279,61.7808 L -87.5658,61.6788 L -87.6009,61.574
 L -87.6331,61.4664 L -87.6626,61.3559 L -87.6892,61.2425 L -87.7131,61.1263 L -87.7341,61.0072 L -87.7523,60.8853
 L -87.7678,60.7605 L -87.7804,60.6328 L -87.7902,60.5023 L -87.7972,60.3689 L -87.8014,60.2327 L -87.8028,60.0936
 L -85.4998,59.9756 L -85.285,60.7993 L -85.2333,60.9503 L -85.1737,61.0853 L -85.118,61.1855 L -85.0568,61.2746
 L -85.0015,61.3379 L -84.9386,61.3951 L -84.8681,61.4461 L -84.7899,61.491 L -84.7042,61.5296 L -84.5856,61.5697
 L -84.4183,61.611 L -84.1864,61.6515 L -83.8728,61.6876 L -83.8728,63.6206 z
M 14.9297,63.3958 L 16.5327,61.4758 L 21.0036,61.4758 L 21.0036,63.3958 z
M -50.4651,63.3958 L -50.4651,61.4758 L -46.2411,61.4758 L -46.2411,63.3958 z
M -17.1318,63.3958 L -17.1318,61.4758 L -12.9078,61.4758 L -12.9078,63.3958 z
M 66.4559,63.3958 L 66.4559,61.4758 L 70.2319,61.4758 L 70.2319,63.3958 z
M -0.698639,80.1603 L -0.960754,80.1536 L -1.21088,80.1388 L -1.37097,80.1245 L -1.52576,80.1065 L -1.6752,80.085
 L -1.81934,80.0599 L -1.95813,80.0313 L -2.09161,79.999 L -2.21977,79.9632 L -2.34262,79.9237 L -2.46051,79.8806
 L -2.57417,79.8337 L -2.68362,79.783 L -2.78886,79.7285 L -2.88988,79.6702 L -2.98666,79.6081 L -3.07924,79.5422
 L -3.1676,79.4725 L -3.25174,79.399 L -3.33165,79.3218 L -3.40735,79.2407 L -3.47891,79.1558 L -3.54684,79.0669
 L -3.61125,78.974 L -3.67212,78.8771 L -3.72943,78.7761 L -3.78322,78.6711 L -3.83347,78.5621 L -3.88017,78.4491
 L -3.92334,78.332 L -3.96297,78.211 L -3.99905,78.0859 L -4.03162,77.9567 L -4.07454,77.7548 L -4.11147,77.5428
 L -4.14241,77.3207 L -4.16736,77.0886 L -4.18633,76.8465 L -4.1993,76.5943 L -4.20628,76.3321 L -4.20761,69.6008
 L -1.88161,69.6008 L -1.88069,77.0359 L -1.87041,77.1818 L -1.85394,77.2915 L -1.83015,77.3949 L -1.79904,77.4919
 L -1.76062,77.5827 L -1.71417,77.6677 L -1.65901,77.7474 L -1.59515,77.8217 L -1.52258,77.8908 L -1.4413,77.9545
 L -1.35104,78.0127 L -1.27501,78.0523 L -1.19102,78.0883 L -1.06665,78.1309 L -0.928131,78.1671 L -0.775452,78.1971
 L -0.608612,78.2207 L -0.608612,80.1607 z
M 0.514374,78.1767 L 0.607376,78.1753 L 0.738922,78.1676 L 0.860901,78.1534 L 0.973312,78.1326 L 1.07617,78.1052
 L 1.13943,78.0833 L 1.19844,78.0585 L 1.2532,78.0308 L 1.30371,78.0002 L 1.35017,77.9666 L 1.41475,77.9125
 L 1.47354,77.8541 L 1.52654,77.7914 L 1.57376,77.7245 L 1.61519,77.6533 L 1.65083,77.5779 L 1.68069,77.4982
 L 1.72017,77.3568 L 1.75043,77.2068 L 1.77151,77.0486 L 1.78471,76.8477 L 1.78638,69.6008 L 4.11237,69.6008
 L 4.11209,76.1218 L 4.10533,76.4896 L 4.08955,76.8377 L 4.06477,77.1661 L 4.04027,77.3994 L 4.0107,77.6217
 L 3.97604,77.8328 L 3.93573,78.0331 L 3.90427,78.1613 L 3.869,78.2853 L 3.82993,78.4052 L 3.78703,78.5209
 L 3.74034,78.6325 L 3.68983,78.7399 L 3.63551,78.8431 L 3.57738,78.9422 L 3.51543,79.0372 L 3.44968,79.1279
 L 3.38011,79.2146 L 3.30623,79.2974 L 3.22786,79.3764 L 3.14499,79.4515 L 3.05763,79.5229 L 2.96579,79.5905
 L 2.86945,79.6542 L 2.76862,79.7141 L 2.66328,79.7702 L 2.55348,79.8226 L 2.43916,79.871 L 2.32037,79.9157
 L 2.1962,79.9565 L 2.06577,79.9935 L 1.92906,80.0269 L 1.78612,80.0565 L 1.63689,80.0825 L 1.48141,80.1047
 L 1.31967,80.1232 L 1.15167,80.138 L 0.977417,80.1492 L 0.79689,80.1566 L 0.514374,80.1607 z
M 50.5144,78.1767 L 50.6074,78.1753 L 50.7389,78.1676 L 50.8609,78.1534 L 50.9733,78.1326 L 51.0762,78.1052
 L 51.1394,78.0833 L 51.1984,78.0585 L 51.2532,78.0308 L 51.3037,78.0002 L 51.3502,77.9666 L 51.4147,77.9125
 L 51.4735,77.8541 L 51.5265,77.7914 L 51.5738,77.7245 L 51.6152,77.6533 L 51.6508,77.5779 L 51.6807,77.4982
 L 51.7202,77.3568 L 51.7504,77.2068 L 51.7715,77.0486 L 51.7847,76.8477 L 51.7864,69.6008 L 54.1124,69.6008
 L 54.1121,76.1218 L 54.1053,76.4896 L 54.0896,76.8377 L 54.0648,77.1661 L 54.0403,77.3994 L 54.0107,77.6217
 L 53.976,77.8328 L 53.9357,78.0331 L 53.9043,78.1613 L 53.869,78.2853 L 53.8299,78.4052 L 53.787,78.5209
 L 53.7403,78.6325 L 53.6898,78.7399 L 53.6355,78.8431 L 53.5774,78.9422 L 53.5154,79.0372 L 53.4497,79.1279
 L 53.3801,79.2146 L 53.3062,79.2974 L 53.2279,79.3764 L 53.145,79.4515 L 53.0576,79.5229 L 52.9658,79.5905
 L 52.8694,79.6542 L 52.7686,79.7141 L 52.6633,79.7702 L 52.5535,79.8226 L 52.4392,79.871 L 52.3204,79.9157
 L 52.1962,79.9565 L 52.0658,79.9935 L 51.9291,80.0269 L 51.7861,80.0565 L 51.6369,80.0825 L 51.4814,80.1047
 L 51.3197,80.1232 L 51.1517,80.138 L 50.9774,80.1492 L 50.7969,80.1566 L 50.5144,80.1607 z
M 49.3014,80.1603 L 49.0392,80.1536 L 48.7891,80.1388 L 48.629,80.1245 L 48.4742,80.1065 L 48.3248,80.085
 L 48.1807,80.0599 L 48.0419,80.0313 L 47.9084,79.999 L 47.7802,79.9632 L 47.6574,79.9237 L 47.5395,79.8806
 L 47.4258,79.8337 L 47.3164,79.783 L 47.2111,79.7285 L 47.1101,79.6702 L 47.0133,79.6081 L 46.9208,79.5422
 L 46.8324,79.4725 L 46.7483,79.399 L 46.6684,79.3218 L 46.5927,79.2407 L 46.5211,79.1558 L 46.4532,79.0669
 L 46.3887,78.974 L 46.3279,78.8771 L 46.2706,78.7761 L 46.2168,78.6711 L 46.1665,78.5621 L 46.1198,78.4491
 L 46.0767,78.332 L 46.037,78.211 L 46.0009,78.0859 L 45.9684,77.9567 L 45.9255,77.7548 L 45.8885,77.5428
 L 45.8576,77.3207 L 45.8326,77.0886 L 45.8137,76.8465 L 45.8007,76.5943 L 45.7937,76.3321 L 45.7924,69.6008
 L 48.1184,69.6008 L 48.1193,77.0359 L 48.1296,77.1818 L 48.1461,77.2915 L 48.1698,77.3949 L 48.201,77.4919
 L 48.2394,77.5827 L 48.2858,77.6677 L 48.341,77.7474 L 48.4048,77.8217 L 48.4774,77.8908 L 48.5587,77.9545
 L 48.649,78.0127 L 48.725,78.0523 L 48.809,78.0883 L 48.9333,78.1309 L 49.0719,78.1671 L 49.2245,78.1971
 L 49.3914,78.2207 L 49.3914,80.1607 z
M -31.3734,80.0625 L -37.5553,69.6945 L -35.3663,69.6945 L -29.1553,80.0625 z
M -87.7643,80.0625 L -87.7643,78.3215 L -80.3963,69.6945 L -79.0603,69.6945 L -79.0603,71.5285 L -86.3313,80.0625
 z
M 78.9557,80.0625 L 78.9557,69.6945 L 81.2817,69.6945 L 81.2817,80.0625 z
M 85.1427,80.0625 L 85.1274,80.0315 L 84.9566,79.6553 L 84.8102,79.2707 L 84.7197,78.9738 L 84.647,78.6676
 L 84.5802,78.2863 L 84.5096,77.7099 L 84.4811,77.5169 L 84.4416,77.334 L 84.3911,77.1611 L 84.3402,77.025
 L 84.3038,76.9474 L 84.2475,76.8492 L 84.1993,76.7793 L 84.1273,76.6913 L 84.0463,76.6092 L 83.9562,76.533
 L 83.9063,76.4978 L 83.8244,76.4495 L 83.734,76.4065 L 83.6351,76.3688 L 83.5277,76.3365 L 83.4118,76.3096
 L 83.2874,76.2879 L 82.9159,76.2438 L 82.4047,76.2325 L 82.4047,74.3765 L 83.473,74.3761 L 83.7974,74.3624
 L 84.0185,74.3372 L 84.1626,74.3091 L 84.2504,74.2827 L 84.3319,74.2496 L 84.4071,74.2099 L 84.476,74.1635
 L 84.5387,74.1105 L 84.595,74.0499 L 84.6451,73.9809 L 84.6888,73.9034 L 84.7263,73.8174 L 84.7574,73.7229
 L 84.7878,73.5922 L 84.8152,73.4097 L 84.8356,73.1599 L 84.8437,72.8255 L 84.8382,72.6216 L 84.8216,72.4408
 L 84.7994,72.3079 L 84.7696,72.191 L 84.732,72.0885 L 84.6867,71.9978 L 84.6449,71.9339 L 84.5981,71.8777
 L 84.5464,71.829 L 84.475,71.7779 L 84.3961,71.7346 L 84.3093,71.6992 L 84.1951,71.6669 L 84.0697,71.6454
 L 83.7663,71.619 L 82.4047,71.6145 L 82.4047,69.6945 L 83.5637,69.6945 L 83.7636,69.6965 L 84.1526,69.7128
 L 84.527,69.7452 L 84.8431,69.7872 L 85.1054,69.8359 L 85.3595,69.8969 L 85.6055,69.9701 L 85.7637,70.027
 L 85.8771,70.0765 L 85.9859,70.1321 L 86.0902,70.1937 L 86.19,70.2614 L 86.2852,70.3351 L 86.3758,70.4149
 L 86.4619,70.5008 L 86.5437,70.5931 L 86.6208,70.6922 L 86.6934,70.7982 L 86.7613,70.911 L 86.8247,71.0307
 L 86.8835,71.1572 L 86.9376,71.2905 L 86.9868,71.4311 L 87.0295,71.5805 L 87.0656,71.739 L 87.0951,71.9067
 L 87.1181,72.0835 L 87.1345,72.2693 L 87.1444,72.4644 L 87.1477,72.6685 L 87.1439,72.8032 L 87.1284,72.9749
 L 87.101,73.1501 L 87.0617,73.3289 L 87.0105,73.511 L 86.9613,73.6544 L 86.9048,73.7939 L 86.8412,73.9293
 L 86.7704,74.0608 L 86.6924,74.1883 L 86.6075,74.3113 L 86.5168,74.4272 L 86.4202,74.5354 L 86.3177,74.636
 L 86.2094,74.729 L 86.0951,74.8144 L 86.0059,74.8726 L 85.9136,74.9232 L 85.8183,74.9661 L 85.7199,75.0012
 L 85.6184,75.0284 L 85.5139,75.0479 L 85.4063,75.0596 L 85.2957,75.0635 L 85.6287,75.1973 L 85.7354,75.2492
 L 85.8355,75.3076 L 85.9291,75.3726 L 85.9878,75.4195 L 86.0436,75.4693 L 86.0965,75.5221 L 86.1465,75.5777
 L 86.1936,75.6362 L 86.2377,75.6977 L 86.3186,75.8273 L 86.3927,75.9624 L 86.46,76.103 L 86.5206,76.2491
 L 86.5745,76.4006 L 86.6217,76.5575 L 86.7012,76.878 L 86.7646,77.2025 L 86.8723,77.9591 L 86.9822,78.5558
 L 87.0433,78.7957 L 87.1155,79.0246 L 87.1987,79.2425 L 87.3103,79.4904 L 87.4562,79.7755 L 87.6217,80.0625
 z
M 62.3858,80.0625 L 62.3858,69.6945 L 64.7118,69.6945 L 64.7118,80.0625 z
M 68.5078,80.0625 L 68.5078,75.5825 L 65.8368,75.5825 L 65.8368,73.6625 L 68.5078,73.6625 L 68.5078,69.6945
 L 70.8338,69.6945 L 70.8338,80.0625 z
M 28.6881,80.0625 L 28.6881,69.6945 L 31.0141,69.6945 L 31.0141,80.0625 z
M 35.0331,80.0625 L 32.1441,75.7815 L 32.1441,73.2045 L 34.6781,69.6945 L 37.6851,69.6945 L 33.7001,74.4045
 L 37.9221,80.0625 z
M 18.6266,80.0625 L 12.4446,69.6945 L 14.6337,69.6945 L 20.8446,80.0625 z
M -20.5878,80.0625 L -20.5878,69.6945 L -18.2618,69.6945 L -18.2618,80.0625 z
M 18.5976,74.8115 L 18.4936,69.6945 L 20.8306,69.6945 L 20.8306,78.5495 z
M -17.1318,71.6145 L -17.1318,69.6945 L -13.0358,69.6945 L -13.0358,71.6145 z
M -31.4024,74.8115 L -31.5064,69.6945 L -29.1694,69.6945 L -29.1694,78.5495 z
M -54.2808,80.0625 L -54.2808,69.6945 L -51.9548,69.6945 L -51.9548,80.0625 z
M -48.1588,80.0625 L -48.1588,75.5825 L -50.8298,75.5825 L -50.8298,73.6625 L -48.1588,73.6625 L -48.1588,69.6945
 L -45.8328,69.6945 L -45.8328,80.0625 z
M -70.5878,80.0625 L -70.5878,69.6945 L -68.2618,69.6945 L -68.2618,80.0625 z
M -67.1318,71.6145 L -67.1318,69.6945 L -63.0358,69.6945 L -63.0358,71.6145 z
M -87.4443,71.6785 L -87.4443,69.6945 L -81.6573,69.6945 L -83.3194,71.6785 z
M -37.5853,80.0625 L -37.5853,71.1335 L -35.3663,74.8855 L -35.2633,80.0625 z
M 12.4146,80.0625 L 12.4146,71.1335 L 14.6337,74.8855 L 14.7366,80.0625 z
M -17.1318,75.5365 L -17.1318,73.6715 L -13.4198,73.6715 L -13.4198,75.5365 z
M -67.1318,75.5365 L -67.1318,73.6715 L -63.4198,73.6715 L -63.4198,75.5365 z
M -17.1318,80.0625 L -17.1318,78.1425 L -12.9078,78.1425 L -12.9078,80.0625 z
M -67.1318,80.0625 L -67.1318,78.1425 L -62.9078,78.1425 L -62.9078,80.0625 z
M -85.0703,80.0625 L -83.4673,78.1425 L -78.9964,78.1425 L -78.9964,80.0625 z
" stroke="black" fill="lightgray" stroke-width="0.5"/></svg>
