<?xml version="1.0" standalone="no"?>
<!DOCTYPE svg PUBLIC "-//W3C//DTD SVG 1.1//EN" "http://www.w3.org/Graphics/SVG/1.1/DTD/svg11.dtd">
<svg width="232" height="116" viewBox="-116 -116 232 116" xmlns="http://www.w3.org/2000/svg" version="1.1">
<title>OpenSCAD Model</title>
<path d="
M 116,-116 L -116,-116 L -116,-0 L 116,-0 z
M 50.7204,-79.9842 L 50.7204,-81.8402 L 52.6404,-81.8402 L 52.6404,-79.9842 z
M 47.2644,-79.9842 L 47.2644,-81.8402 L 49.1844,-81.8402 L 49.1844,-79.9842 z
M -66.0672,-71.6608 L -65.9584,-71.6635 L -65.7663,-71.6826 L -65.5792,-71.7198 L -65.4391,-71.7623 L -65.3073,-71.8169
 L -65.1839,-71.8835 L -65.0858,-71.951 L -65.0123,-72.0158 L -64.9465,-72.0882 L -64.8882,-72.1682 L -64.8377,-72.256
 L -64.8042,-72.3326 L -64.7773,-72.4155 L -64.7532,-72.5279 L -64.7395,-72.65 L -64.7367,-72.7917 L -64.7406,-72.8638
 L -64.7484,-72.9332 L -64.7602,-73 L -64.7758,-73.0643 L -64.7954,-73.126 L -64.8189,-73.1851 L -64.8463,-73.2416
 L -64.8777,-73.2955 L -64.9129,-73.3468 L -64.9521,-73.3956 L -64.9952,-73.4418 L -65.0654,-73.5077 L -65.1414,-73.5703
 L -65.2233,-73.6296 L -65.3415,-73.7036 L -65.47,-73.7716 L -65.6089,-73.8338 L -65.7577,-73.8908 L -66.0361,-73.9834
 L -66.3366,-74.0678 L -67.875,-74.4276 L -68.3156,-74.5502 L -68.7498,-74.6908 L -69.0341,-74.7962 L -69.2157,-74.8758
 L -69.3901,-74.9635 L -69.5573,-75.0592 L -69.7173,-75.1629 L -69.8326,-75.246 L -69.9435,-75.334 L -70.0486,-75.4278
 L -70.148,-75.5277 L -70.2416,-75.6335 L -70.3294,-75.7453 L -70.4115,-75.8632 L -70.4877,-75.987 L -70.5582,-76.1167
 L -70.6011,-76.2074 L -70.6401,-76.302 L -70.6752,-76.4005 L -70.7064,-76.5029 L -70.7337,-76.6092 L -70.7572,-76.7194
 L -70.7767,-76.8336 L -70.7923,-76.9516 L -70.804,-77.0736 L -70.8118,-77.1995 L -70.8157,-77.3294 L -70.8157,-77.4697
 L -70.8116,-77.6147 L -70.8036,-77.7558 L -70.7915,-77.893 L -70.7754,-78.0263 L -70.7553,-78.1557 L -70.7312,-78.2813
 L -70.703,-78.403 L -70.6708,-78.5207 L -70.6346,-78.6346 L -70.5944,-78.7446 L -70.5502,-78.8507 L -70.5023,-78.9532
 L -70.4514,-79.0521 L -70.3973,-79.1476 L -70.3401,-79.2396 L -70.2797,-79.3281 L -70.2162,-79.4132 L -70.1496,-79.4947
 L -70.0799,-79.5728 L -70.007,-79.6474 L -69.931,-79.7186 L -69.8519,-79.7862 L -69.7696,-79.8505 L -69.6409,-79.9414
 L -69.5518,-79.9982 L -69.4131,-80.0777 L -69.2684,-80.1504 L -69.1176,-80.2163 L -68.9608,-80.2754 L -68.798,-80.3277
 L -68.6293,-80.3732 L -68.4563,-80.4127 L -68.2798,-80.4465 L -68.0999,-80.4744 L -67.9165,-80.4966 L -67.7297,-80.513
 L -67.4751,-80.5258 L -67.1912,-80.5287 L -67.1912,-78.6687 L -67.3418,-78.6653 L -67.6263,-78.6379 L -67.7957,-78.6029
 L -67.9183,-78.5601 L -68.0329,-78.5035 L -68.1235,-78.4438 L -68.1915,-78.3849 L -68.2526,-78.3175 L -68.3068,-78.2416
 L -68.3539,-78.1572 L -68.3851,-78.083 L -68.41,-78.002 L -68.4324,-77.8914 L -68.4451,-77.7702 L -68.4477,-77.6315
 L -68.4436,-77.5648 L -68.4356,-77.5007 L -68.4236,-77.4391 L -68.4076,-77.3801 L -68.3875,-77.3237 L -68.3635,-77.2698
 L -68.3354,-77.2185 L -68.3034,-77.1697 L -68.2673,-77.1235 L -68.2272,-77.0798 L -68.1832,-77.0387 L -68.0857,-76.9616
 L -67.9785,-76.8894 L -67.8615,-76.8221 L -67.7347,-76.7598 L -67.5981,-76.7025 L -67.4138,-76.6376 L -67.1361,-76.5554
 L -66.8366,-76.4824 L -65.9389,-76.3066 L -65.2534,-76.145 L -64.9114,-76.047 L -64.5735,-75.9354 L -64.2398,-75.8098
 L -64.1005,-75.7494 L -63.9652,-75.6834 L -63.834,-75.6118 L -63.7068,-75.5348 L -63.5837,-75.4521 L -63.4646,-75.3639
 L -63.3496,-75.2702 L -63.239,-75.1709 L -63.1341,-75.0649 L -63.035,-74.9521 L -62.9417,-74.8326 L -62.8541,-74.7063
 L -62.7724,-74.5732 L -62.6964,-74.4334 L -62.6262,-74.2868 L -62.5833,-74.1846 L -62.5443,-74.0782 L -62.5091,-73.9676
 L -62.4779,-73.8526 L -62.4506,-73.7334 L -62.4272,-73.61 L -62.4077,-73.4823 L -62.3921,-73.3503 L -62.3804,-73.214
 L -62.3726,-73.0735 L -62.3687,-72.9287 L -62.3696,-72.7629 L -62.3773,-72.6267 L -62.3914,-72.4925 L -62.4121,-72.3603
 L -62.4393,-72.2302 L -62.4731,-72.102 L -62.5134,-71.9759 L -62.5602,-71.8518 L -62.6307,-71.6905 L -62.7093,-71.535
 L -62.796,-71.3854 L -62.8908,-71.2415 L -62.9937,-71.1035 L -63.1046,-70.9713 L -63.2226,-70.8452 L -63.3478,-70.7253
 L -63.4801,-70.6116 L -63.6196,-70.5042 L -63.7662,-70.403 L -63.9194,-70.3083 L -64.0758,-70.2218 L -64.2348,-70.1438
 L -64.3966,-70.0743 L -64.561,-70.0132 L -64.728,-69.9606 L -65.3009,-69.8133 L -66.0672,-69.7278 z
M -14.8527,-77.3216 L -14.936,-77.84 L -14.9732,-77.9721 L -15.0119,-78.0715 L -15.0576,-78.1611 L -15.1102,-78.241
 L -15.171,-78.3126 L -15.2409,-78.3765 L -15.32,-78.4328 L -15.4083,-78.4814 L -15.5071,-78.5229 L -15.647,-78.5659
 L -15.8407,-78.6071 L -16.0672,-78.6387 L -16.0672,-80.5287 L -15.8602,-80.4697 L -15.7591,-80.4686 L -15.6592,-80.4653
 L -15.5605,-80.4599 L -15.463,-80.4522 L -15.3666,-80.4423 L -15.2714,-80.4302 L -15.1773,-80.4159 L -15.0845,-80.3994
 L -14.9928,-80.3808 L -14.9023,-80.3599 L -14.8129,-80.3369 L -14.7247,-80.3116 L -14.6377,-80.2841 L -14.5519,-80.2545
 L -14.4673,-80.2226 L -14.3838,-80.1886 L -14.3015,-80.1523 L -14.2203,-80.1139 L -14.1403,-80.0733 L -14.0615,-80.0304
 L -13.9839,-79.9854 L -13.9075,-79.9382 L -13.8322,-79.8887 L -13.7585,-79.8372 L -13.6869,-79.7834 L -13.6174,-79.7273
 L -13.55,-79.6689 L -13.4846,-79.6084 L -13.4213,-79.5455 L -13.3601,-79.4804 L -13.3009,-79.413 L -13.2438,-79.3434
 L -13.1888,-79.2715 L -13.1359,-79.1974 L -13.085,-79.121 L -13.0362,-79.0424 L -12.9895,-78.9615 L -12.9448,-78.8783
 L -12.9022,-78.7929 L -12.8617,-78.7052 L -12.8233,-78.6153 L -12.7869,-78.5231 L -12.7526,-78.4286 L -12.7204,-78.3319
 L -12.6903,-78.233 L -12.6622,-78.1317 L -12.6217,-77.9667 L -12.5142,-77.2687 L -14.8252,-77.0897 z
M -16.0672,-71.6608 L -15.9584,-71.6635 L -15.7663,-71.6826 L -15.5792,-71.7198 L -15.4391,-71.7623 L -15.3073,-71.8169
 L -15.1839,-71.8835 L -15.0858,-71.951 L -15.0123,-72.0158 L -14.9465,-72.0882 L -14.8882,-72.1682 L -14.8377,-72.256
 L -14.8042,-72.3326 L -14.7773,-72.4155 L -14.7532,-72.5279 L -14.7395,-72.65 L -14.7367,-72.7917 L -14.7406,-72.8638
 L -14.7484,-72.9332 L -14.7602,-73 L -14.7758,-73.0643 L -14.7954,-73.126 L -14.8189,-73.1851 L -14.8463,-73.2416
 L -14.8777,-73.2955 L -14.9129,-73.3468 L -14.9521,-73.3956 L -14.9952,-73.4418 L -15.0654,-73.5077 L -15.1414,-73.5703
 L -15.2233,-73.6296 L -15.3415,-73.7036 L -15.47,-73.7716 L -15.6089,-73.8338 L -15.7577,-73.8908 L -16.0361,-73.9834
 L -16.3366,-74.0678 L -17.875,-74.4276 L -18.3156,-74.5502 L -18.7498,-74.6908 L -19.0341,-74.7962 L -19.2157,-74.8758
 L -19.3901,-74.9635 L -19.5573,-75.0592 L -19.7173,-75.1629 L -19.8326,-75.246 L -19.9435,-75.334 L -20.0486,-75.4278
 L -20.148,-75.5277 L -20.2416,-75.6335 L -20.3294,-75.7453 L -20.4115,-75.8632 L -20.4877,-75.987 L -20.5582,-76.1167
 L -20.6011,-76.2074 L -20.6401,-76.302 L -20.6752,-76.4005 L -20.7064,-76.5029 L -20.7337,-76.6092 L -20.7572,-76.7194
 L -20.7767,-76.8336 L -20.7923,-76.9516 L -20.804,-77.0736 L -20.8118,-77.1995 L -20.8157,-77.3294 L -20.8157,-77.4697
 L -20.8116,-77.6147 L -20.8036,-77.7558 L -20.7915,-77.893 L -20.7754,-78.0263 L -20.7553,-78.1557 L -20.7312,-78.2813
 L -20.703,-78.403 L -20.6708,-78.5207 L -20.6346,-78.6346 L -20.5944,-78.7446 L -20.5502,-78.8507 L -20.5023,-78.9532
 L -20.4514,-79.0521 L -20.3973,-79.1476 L -20.3401,-79.2396 L -20.2797,-79.3281 L -20.2162,-79.4132 L -20.1496,-79.4947
 L -20.0799,-79.5728 L -20.007,-79.6474 L -19.931,-79.7186 L -19.8519,-79.7862 L -19.7696,-79.8505 L -19.6409,-79.9414
 L -19.5518,-79.9982 L -19.4131,-80.0777 L -19.2684,-80.1504 L -19.1176,-80.2163 L -18.9608,-80.2754 L -18.798,-80.3277
 L -18.6293,-80.3732 L -18.4563,-80.4127 L -18.2798,-80.4465 L -18.0999,-80.4744 L -17.9165,-80.4966 L -17.7297,-80.513
 L -17.4751,-80.5258 L -17.1912,-80.5287 L -17.1912,-78.6687 L -17.3418,-78.6653 L -17.6263,-78.6379 L -17.7957,-78.6029
 L -17.9183,-78.5601 L -18.0329,-78.5035 L -18.1235,-78.4438 L -18.1915,-78.3849 L -18.2526,-78.3175 L -18.3068,-78.2416
 L -18.3539,-78.1572 L -18.3851,-78.083 L -18.41,-78.002 L -18.4324,-77.8914 L -18.4451,-77.7702 L -18.4477,-77.6315
 L -18.4436,-77.5648 L -18.4356,-77.5007 L -18.4236,-77.4391 L -18.4076,-77.3801 L -18.3875,-77.3237 L -18.3635,-77.2698
 L -18.3354,-77.2185 L -18.3034,-77.1697 L -18.2673,-77.1235 L -18.2272,-77.0798 L -18.1832,-77.0387 L -18.0857,-76.9616
 L -17.9785,-76.8894 L -17.8615,-76.8221 L -17.7347,-76.7598 L -17.5981,-76.7025 L -17.4138,-76.6376 L -17.1361,-76.5554
 L -16.8366,-76.4824 L -15.9389,-76.3066 L -15.2534,-76.145 L -14.9114,-76.047 L -14.5735,-75.9354 L -14.2398,-75.8098
 L -14.1005,-75.7494 L -13.9652,-75.6834 L -13.834,-75.6118 L -13.7068,-75.5348 L -13.5837,-75.4521 L -13.4646,-75.3639
 L -13.3496,-75.2702 L -13.239,-75.1709 L -13.1341,-75.0649 L -13.035,-74.9521 L -12.9417,-74.8326 L -12.8541,-74.7063
 L -12.7724,-74.5732 L -12.6964,-74.4334 L -12.6262,-74.2868 L -12.5833,-74.1846 L -12.5443,-74.0782 L -12.5091,-73.9676
 L -12.4779,-73.8526 L -12.4506,-73.7334 L -12.4272,-73.61 L -12.4077,-73.4823 L -12.3921,-73.3503 L -12.3804,-73.214
 L -12.3726,-73.0735 L -12.3687,-72.9287 L -12.3696,-72.7629 L -12.3773,-72.6267 L -12.3914,-72.4925 L -12.4121,-72.3603
 L -12.4393,-72.2302 L -12.4731,-72.102 L -12.5134,-71.9759 L -12.5602,-71.8518 L -12.6307,-71.6905 L -12.7093,-71.535
 L -12.796,-71.3854 L -12.8908,-71.2415 L -12.9937,-71.1035 L -13.1046,-70.9713 L -13.2226,-70.8452 L -13.3478,-70.7253
 L -13.4801,-70.6116 L -13.6196,-70.5042 L -13.7662,-70.403 L -13.9194,-70.3083 L -14.0758,-70.2218 L -14.2348,-70.1438
 L -14.3966,-70.0743 L -14.561,-70.0132 L -14.728,-69.9606 L -15.3009,-69.8133 L -16.0672,-69.7278 z
M -64.8527,-77.3216 L -64.936,-77.84 L -64.9732,-77.9721 L -65.0119,-78.0715 L -65.0576,-78.1611 L -65.1102,-78.241
 L -65.171,-78.3126 L -65.2409,-78.3765 L -65.32,-78.4328 L -65.4083,-78.4814 L -65.5071,-78.5229 L -65.647,-78.5659
 L -65.8407,-78.6071 L -66.0672,-78.6387 L -66.0672,-80.5287 L -65.8602,-80.4697 L -65.7591,-80.4686 L -65.6592,-80.4653
 L -65.5605,-80.4599 L -65.463,-80.4522 L -65.3666,-80.4423 L -65.2714,-80.4302 L -65.1773,-80.4159 L -65.0845,-80.3994
 L -64.9928,-80.3808 L -64.9023,-80.3599 L -64.8129,-80.3369 L -64.7247,-80.3116 L -64.6377,-80.2841 L -64.5519,-80.2545
 L -64.4673,-80.2226 L -64.3838,-80.1886 L -64.3015,-80.1523 L -64.2203,-80.1139 L -64.1403,-80.0733 L -64.0615,-80.0304
 L -63.9839,-79.9854 L -63.9075,-79.9382 L -63.8322,-79.8887 L -63.7585,-79.8372 L -63.6869,-79.7834 L -63.6174,-79.7273
 L -63.55,-79.6689 L -63.4846,-79.6084 L -63.4213,-79.5455 L -63.3601,-79.4804 L -63.3009,-79.413 L -63.2438,-79.3434
 L -63.1888,-79.2715 L -63.1359,-79.1974 L -63.085,-79.121 L -63.0362,-79.0424 L -62.9895,-78.9615 L -62.9448,-78.8783
 L -62.9022,-78.7929 L -62.8617,-78.7052 L -62.8233,-78.6153 L -62.7869,-78.5231 L -62.7526,-78.4286 L -62.7204,-78.3319
 L -62.6903,-78.233 L -62.6622,-78.1317 L -62.6217,-77.9667 L -62.5142,-77.2687 L -64.8252,-77.0897 z
M 29.4653,-69.9375 L 29.4653,-80.3055 L 31.7914,-80.3055 L 31.7914,-69.9375 z
M -83.7985,-78.3855 L -83.7985,-80.3055 L -79.7025,-80.3055 L -79.7025,-78.3855 z
M -48.3002,-69.9375 L -51.1892,-74.2185 L -51.1892,-76.7955 L -48.6552,-80.3055 L -45.6482,-80.3055 L -49.6332,-75.5955
 L -45.4112,-69.9375 z
M -54.6452,-69.9375 L -54.6452,-80.3055 L -52.3192,-80.3055 L -52.3192,-69.9375 z
M -34.5794,-69.9375 L -34.5794,-80.3055 L -32.2534,-80.3055 L -32.2534,-69.9375 z
M 1.96828,-78.3855 L 1.96828,-80.3055 L 4.20828,-80.3055 L 4.20828,-78.3855 z
M -4.30371,-78.3215 L -4.30371,-80.3055 L -2.1917,-80.3055 L -2.1917,-78.3215 z
M 11.681,-69.9695 L 15.251,-80.3055 L 17.918,-80.3055 L 21.562,-69.9695 L 18.955,-69.9695 L 18.273,-72.1775
 L 15.962,-72.1775 L 16.525,-74.0395 L 17.681,-74.0395 L 17.4431,-74.8151 L 16.9947,-76.1832 L 16.9164,-76.4409
 L 16.8453,-76.7007 L 16.7814,-76.9624 L 16.7249,-77.2262 L 16.6757,-77.4919 L 16.6337,-77.7597 L 16.599,-78.0295
 L 16.37,-76.9509 L 14.318,-69.9695 z
M 33.0493,-78.3855 L 33.0493,-80.3055 L 37.0813,-80.3055 L 37.0813,-78.3855 z
M 68.5976,-75.1885 L 68.4936,-80.3055 L 70.8306,-80.3055 L 70.8306,-71.4505 z
M 68.6266,-69.9375 L 62.4446,-80.3055 L 64.6337,-80.3055 L 70.8446,-69.9375 z
M 83.0493,-78.3855 L 83.0493,-80.3055 L 87.0813,-80.3055 L 87.0813,-78.3855 z
M 79.4653,-69.9375 L 79.4653,-80.3055 L 81.7914,-80.3055 L 81.7914,-69.9375 z
M -87.2545,-69.9375 L -87.2545,-80.3055 L -84.9285,-80.3055 L -84.9285,-69.9375 z
M -1.1897,-69.9375 L -1.1897,-80.3055 L 1.13628,-80.3055 L 1.13628,-69.9375 z
M 49.317,-68.466 L 49.0564,-68.4755 L 48.8075,-68.4929 L 48.6482,-68.5091 L 48.4941,-68.5288 L 48.3453,-68.5521
 L 48.2017,-68.5789 L 48.0633,-68.6094 L 47.9302,-68.6435 L 47.8024,-68.6811 L 47.6797,-68.7223 L 47.5613,-68.7673
 L 47.4469,-68.8162 L 47.3366,-68.8688 L 47.2303,-68.9252 L 47.1281,-68.9854 L 47.0299,-69.0494 L 46.9357,-69.1171
 L 46.8456,-69.1887 L 46.7595,-69.2641 L 46.6774,-69.3433 L 46.5994,-69.4263 L 46.5253,-69.5131 L 46.455,-69.604
 L 46.3885,-69.699 L 46.3259,-69.7979 L 46.267,-69.9009 L 46.212,-70.0079 L 46.1608,-70.1189 L 46.1133,-70.2339
 L 46.0697,-70.353 L 46.0299,-70.4761 L 45.9939,-70.6032 L 45.9617,-70.7345 L 45.9186,-70.9398 L 45.8819,-71.1552
 L 45.8515,-71.3805 L 45.8274,-71.616 L 45.8095,-71.8615 L 45.798,-72.117 L 45.7927,-72.3825 L 45.7924,-79.0242
 L 48.1184,-79.0242 L 48.1193,-72.3094 L 48.1411,-71.7449 L 48.1664,-71.5004 L 48.1945,-71.3604 L 48.2326,-71.2301
 L 48.2703,-71.1331 L 48.3144,-71.0423 L 48.3661,-70.9573 L 48.4261,-70.8776 L 48.4944,-70.8033 L 48.5708,-70.7342
 L 48.6555,-70.6705 L 48.7486,-70.6123 L 48.8262,-70.5727 L 48.9116,-70.5367 L 49.0374,-70.4941 L 49.177,-70.4579
 L 49.3303,-70.4279 L 49.4974,-70.4043 L 49.4974,-68.4643 z
M 50.4664,-70.4483 L 50.6049,-70.4515 L 50.7341,-70.4614 L 50.8539,-70.4778 L 50.9644,-70.5008 L 51.0655,-70.5303
 L 51.1277,-70.5537 L 51.1857,-70.58 L 51.2396,-70.6091 L 51.2894,-70.6413 L 51.3583,-70.694 L 51.4217,-70.751
 L 51.4795,-70.8122 L 51.5317,-70.8777 L 51.5783,-70.9475 L 51.6194,-71.0215 L 51.6548,-71.0997 L 51.6848,-71.1822
 L 51.7257,-71.3267 L 51.7561,-71.4789 L 51.7761,-71.6387 L 51.7855,-71.8061 L 51.7864,-79.0242 L 54.1124,-79.0242
 L 54.1124,-72.5983 L 54.1111,-72.4094 L 54.1013,-72.0465 L 54.0876,-71.7873 L 54.0683,-71.5392 L 54.0435,-71.3021
 L 54.0132,-71.0762 L 53.9773,-70.8613 L 53.9359,-70.6576 L 53.9042,-70.5273 L 53.8688,-70.4012 L 53.8298,-70.2792
 L 53.787,-70.1614 L 53.7406,-70.0478 L 53.6904,-69.9383 L 53.6366,-69.833 L 53.5791,-69.7318 L 53.5179,-69.6348
 L 53.453,-69.5419 L 53.3844,-69.4533 L 53.3118,-69.3686 L 53.2347,-69.2877 L 53.153,-69.2106 L 53.0668,-69.1373
 L 52.976,-69.0679 L 52.8806,-69.0022 L 52.7807,-68.9404 L 52.6761,-68.8823 L 52.5671,-68.8281 L 52.4534,-68.7777
 L 52.3352,-68.7311 L 52.2123,-68.6884 L 52.0837,-68.6495 L 51.949,-68.6143 L 51.8084,-68.5828 L 51.6617,-68.555
 L 51.509,-68.5309 L 51.3503,-68.5106 L 51.1855,-68.4939 L 51.0148,-68.4809 L 50.7473,-68.4684 L 50.4664,-68.4643
 z
M 62.4146,-69.9375 L 62.4146,-78.8665 L 64.6337,-75.1145 L 64.7366,-69.9375 z
M -83.7985,-74.4635 L -83.7985,-76.3285 L -80.0865,-76.3285 L -80.0865,-74.4635 z
M 33.0493,-74.2945 L 33.0493,-76.1325 L 36.4413,-76.1325 L 36.4413,-74.2945 z
M 83.0493,-74.2945 L 83.0493,-76.1325 L 86.4413,-76.1325 L 86.4413,-74.2945 z
M -17.6512,-69.7128 L -17.7882,-69.7154 L -18.2437,-69.7572 L -18.3731,-69.7754 L -18.4996,-69.7961 L -18.623,-69.8195
 L -18.7434,-69.8455 L -18.8608,-69.8742 L -18.9752,-69.9054 L -19.0865,-69.9393 L -19.1948,-69.9759 L -19.3001,-70.0151
 L -19.4024,-70.0569 L -19.5017,-70.1013 L -19.5979,-70.1484 L -19.6911,-70.1981 L -19.7813,-70.2504 L -19.8685,-70.3054
 L -19.9527,-70.3629 L -20.0338,-70.4232 L -20.1119,-70.486 L -20.187,-70.5515 L -20.2591,-70.6196 L -20.3281,-70.6904
 L -20.3942,-70.7638 L -20.4573,-70.84 L -20.5176,-70.919 L -20.5751,-71.001 L -20.6298,-71.0858 L -20.6817,-71.1734
 L -20.7308,-71.2639 L -20.7771,-71.3573 L -20.8206,-71.4535 L -20.8613,-71.5526 L -20.8991,-71.6545 L -20.9342,-71.7593
 L -20.9664,-71.8669 L -20.9959,-71.9774 L -21.0226,-72.0908 L -21.0464,-72.207 L -21.0674,-72.3261 L -21.0857,-72.4481
 L -21.1011,-72.5729 L -21.1137,-72.7005 L -21.1235,-72.8311 L -21.1306,-72.9644 L -21.1348,-73.1007 L -21.1362,-73.2398
 L -18.8332,-73.3578 L -18.6183,-72.534 L -18.5666,-72.383 L -18.507,-72.248 L -18.4513,-72.1478 L -18.3902,-72.0588
 L -18.3349,-71.9954 L -18.272,-71.9382 L -18.2014,-71.8872 L -18.1233,-71.8424 L -18.0375,-71.8037 L -17.9189,-71.7636
 L -17.7517,-71.7223 L -17.5197,-71.6818 L -17.2062,-71.6458 L -17.2062,-69.7128 z
M -67.6512,-69.7128 L -67.7882,-69.7154 L -68.2437,-69.7572 L -68.3731,-69.7754 L -68.4996,-69.7961 L -68.623,-69.8195
 L -68.7434,-69.8455 L -68.8608,-69.8742 L -68.9752,-69.9054 L -69.0865,-69.9393 L -69.1948,-69.9759 L -69.3001,-70.0151
 L -69.4024,-70.0569 L -69.5017,-70.1013 L -69.5979,-70.1484 L -69.6911,-70.1981 L -69.7813,-70.2504 L -69.8685,-70.3054
 L -69.9527,-70.3629 L -70.0338,-70.4232 L -70.1119,-70.486 L -70.187,-70.5515 L -70.2591,-70.6196 L -70.3281,-70.6904
 L -70.3942,-70.7638 L -70.4573,-70.84 L -70.5176,-70.919 L -70.5751,-71.001 L -70.6298,-71.0858 L -70.6817,-71.1734
 L -70.7308,-71.2639 L -70.7771,-71.3573 L -70.8206,-71.4535 L -70.8613,-71.5526 L -70.8991,-71.6545 L -70.9342,-71.7593
 L -70.9664,-71.8669 L -70.9959,-71.9774 L -71.0226,-72.0908 L -71.0464,-72.207 L -71.0674,-72.3261 L -71.0857,-72.4481
 L -71.1011,-72.5729 L -71.1137,-72.7005 L -71.1235,-72.8311 L -71.1306,-72.9644 L -71.1348,-73.1007 L -71.1362,-73.2398
 L -68.8332,-73.3578 L -68.6183,-72.534 L -68.5666,-72.383 L -68.507,-72.248 L -68.4513,-72.1478 L -68.3902,-72.0588
 L -68.3349,-71.9954 L -68.272,-71.9382 L -68.2014,-71.8872 L -68.1233,-71.8424 L -68.0375,-71.8037 L -67.9189,-71.7636
 L -67.7517,-71.7223 L -67.5197,-71.6818 L -67.2062,-71.6458 L -67.2062,-69.7128 z
M -83.7985,-69.9375 L -83.7985,-71.8575 L -79.5745,-71.8575 L -79.5745,-69.9375 z
M 85.7701,-60.3576 L 85.7345,-60.4898 L 85.6957,-60.6162 L 85.6538,-60.7368 L 85.6089,-60.8517 L 85.5608,-60.9608
 L 85.5096,-61.0641 L 85.4552,-61.1617 L 85.3978,-61.2534 L 85.3373,-61.3394 L 85.2736,-61.4196 L 85.2064,-61.494
 L 85.1707,-61.5288 L 85.1334,-61.5619 L 85.0945,-61.5935 L 85.054,-61.6234 L 85.012,-61.6517 L 84.9684,-61.6785
 L 84.9232,-61.7035 L 84.8765,-61.727 L 84.8282,-61.7488 L 84.7784,-61.7691 L 84.7269,-61.7877 L 84.6739,-61.8047
 L 84.5632,-61.8338 L 84.4462,-61.8564 L 84.323,-61.8726 L 84.1934,-61.8823 L 84.0576,-61.8856 L 84.0576,-63.8936
 L 84.3841,-63.8434 L 85.1245,-63.6068 L 85.3215,-63.5347 L 85.5153,-63.4544 L 85.706,-63.366 L 85.8934,-63.2694
 L 86.0776,-63.1646 L 86.2574,-63.0524 L 86.4308,-62.933 L 86.5979,-62.8063 L 86.7586,-62.6724 L 86.913,-62.5312
 L 87.061,-62.3829 L 87.2014,-62.2285 L 87.3333,-62.0683 L 87.4566,-61.902 L 87.5714,-61.7299 L 87.6777,-61.5518
 L 87.7752,-61.3684 L 87.8411,-61.2286 L 87.9004,-61.0871 L 87.9532,-60.9439 L 87.9994,-60.7989 L 88.039,-60.6522
 L 88.0721,-60.5038 L 88.0986,-60.3536 L 85.8026,-60.2196 z
M 82.1163,-52.9913 L 81.9309,-53.0049 L 81.7511,-53.0254 L 81.5768,-53.0526 L 81.4079,-53.0867 L 81.2446,-53.1277
 L 81.165,-53.1507 L 81.0868,-53.1754 L 81.01,-53.2018 L 80.9345,-53.23 L 80.8604,-53.2598 L 80.7877,-53.2914
 L 80.7164,-53.3246 L 80.6464,-53.3596 L 80.5778,-53.3962 L 80.5106,-53.4346 L 80.3798,-53.5153 L 80.2535,-53.6004
 L 80.1317,-53.69 L 80.0144,-53.784 L 79.9015,-53.8825 L 79.7932,-53.9855 L 79.6893,-54.0929 L 79.59,-54.2048
 L 79.4951,-54.3212 L 79.4047,-54.442 L 79.3189,-54.5673 L 79.2374,-54.6969 L 79.1599,-54.8301 L 79.0864,-54.9665
 L 79.0168,-55.1061 L 78.9512,-55.249 L 78.8894,-55.3951 L 78.8316,-55.5444 L 78.7778,-55.697 L 78.7278,-55.8528
 L 78.6818,-56.0118 L 78.6397,-56.1741 L 78.6016,-56.3396 L 78.5509,-56.591 L 78.5072,-56.844 L 78.4707,-57.0984
 L 78.4412,-57.3543 L 78.4188,-57.6118 L 78.4034,-57.8707 L 78.3952,-58.1311 L 78.3939,-58.394 L 78.399,-58.6565
 L 78.41,-58.9148 L 78.4271,-59.1687 L 78.4501,-59.4184 L 78.4793,-59.6637 L 78.5144,-59.9048 L 78.5555,-60.1416
 L 78.6032,-60.3739 L 78.6395,-60.5255 L 78.6795,-60.6743 L 78.7231,-60.8205 L 78.7704,-60.964 L 78.8214,-61.1048
 L 78.8761,-61.2428 L 78.9345,-61.3782 L 78.9965,-61.5108 L 79.0622,-61.6407 L 79.1315,-61.768 L 79.2047,-61.8925
 L 79.2821,-62.014 L 79.3635,-62.1322 L 79.4491,-62.2472 L 79.5387,-62.3589 L 79.6325,-62.4675 L 79.7304,-62.5727
 L 79.8324,-62.6748 L 79.9386,-62.7736 L 80.0488,-62.8691 L 80.1631,-62.9615 L 80.2816,-63.0506 L 80.4047,-63.1359
 L 80.5329,-63.217 L 80.6663,-63.2939 L 80.8048,-63.3665 L 80.9485,-63.4348 L 81.0973,-63.4989 L 81.2512,-63.5588
 L 81.4103,-63.6144 L 81.5745,-63.6658 L 81.7439,-63.7129 L 81.9184,-63.7557 L 82.1615,-63.8097 L 82.377,-63.8434
 L 82.5925,-63.8609 L 82.9376,-63.8636 L 82.9376,-61.9006 L 82.7564,-61.8698 L 82.6412,-61.8452 L 82.5305,-61.8174
 L 82.4243,-61.7863 L 82.3226,-61.7519 L 82.2254,-61.7143 L 82.1326,-61.6735 L 82.0444,-61.6294 L 81.9606,-61.582
 L 81.8814,-61.5314 L 81.8066,-61.4776 L 81.7357,-61.4211 L 81.6349,-61.3323 L 81.5406,-61.2384 L 81.4528,-61.1395
 L 81.3717,-61.0356 L 81.2971,-60.9266 L 81.2291,-60.8126 L 81.1676,-60.6936 L 81.1122,-60.5701 L 81.0623,-60.4423
 L 81.018,-60.3102 L 80.9793,-60.1738 L 80.9461,-60.033 L 80.9184,-59.888 L 80.8963,-59.7386 L 80.8702,-59.4811
 L 80.8391,-59.0025 L 80.826,-58.5055 L 80.8312,-57.9811 L 80.8546,-57.4861 L 80.8911,-57.0783 L 80.9191,-56.8864
 L 80.9463,-56.7481 L 80.9789,-56.6146 L 81.0168,-56.4859 L 81.0601,-56.362 L 81.1087,-56.2429 L 81.1626,-56.1286
 L 81.2227,-56.0193 L 81.2896,-55.9147 L 81.3635,-55.8149 L 81.4443,-55.7198 L 81.532,-55.6294 L 81.6266,-55.5438
 L 81.7281,-55.4629 L 81.8367,-55.3867 L 81.9148,-55.3389 L 81.9978,-55.2933 L 82.0858,-55.2501 L 82.1788,-55.2093
 L 82.2768,-55.1708 L 82.4332,-55.1176 L 82.6008,-55.0696 L 82.7796,-55.0269 L 82.9696,-54.9896 L 82.9696,-53.0276
 L 82.3071,-52.9844 z
M -54.2808,-53.2708 L -54.2808,-63.6388 L -51.9548,-63.6388 L -51.9548,-53.2708 z
M -87.4443,-61.6548 L -87.4443,-63.6388 L -81.6573,-63.6388 L -83.3194,-61.6548 z
M -70.5878,-53.2708 L -70.5878,-63.6388 L -68.2618,-63.6388 L -68.2618,-53.2708 z
M -20.7777,-61.6548 L -20.7777,-63.6388 L -14.9907,-63.6388 L -16.6527,-61.6548 z
M -48.1588,-53.2708 L -48.1588,-57.7508 L -50.8298,-57.7508 L -50.8298,-59.6708 L -48.1588,-59.6708 L -48.1588,-63.6388
 L -45.8328,-63.6388 L -45.8328,-53.2708 z
M 3.29674,-58.8698 L 4.27473,-63.6388 L 6.57074,-63.6388 L 4.28874,-54.7348 z
M -31.4024,-58.5218 L -31.5064,-63.6388 L -29.1694,-63.6388 L -29.1694,-54.7838 z
M -31.3734,-53.2708 L -37.5553,-63.6388 L -35.3663,-63.6388 L -29.1553,-53.2708 z
M -21.0977,-53.2708 L -21.0977,-55.0118 L -13.7297,-63.6388 L -12.3937,-63.6388 L -12.3937,-61.8048 L -19.6647,-53.2708
 z
M -67.1318,-61.7188 L -67.1318,-63.6388 L -63.0358,-63.6388 L -63.0358,-61.7188 z
M 11.681,-53.3028 L 15.251,-63.6388 L 17.918,-63.6388 L 21.562,-53.3028 L 18.955,-53.3028 L 18.273,-55.5108
 L 15.962,-55.5108 L 16.525,-57.3728 L 17.681,-57.3728 L 17.4431,-58.1485 L 16.9947,-59.5165 L 16.9164,-59.7743
 L 16.8453,-60.034 L 16.7814,-60.2957 L 16.7249,-60.5595 L 16.6757,-60.8253 L 16.6337,-61.093 L 16.599,-61.3628
 L 16.37,-60.2842 L 14.318,-53.3028 z
M 45.569,-53.2708 L 45.569,-55.0118 L 52.937,-63.6388 L 54.273,-63.6388 L 54.273,-61.8048 L 47.002,-53.2708
 z
M 45.889,-61.6548 L 45.889,-63.6388 L 51.676,-63.6388 L 50.014,-61.6548 z
M -87.7643,-53.2708 L -87.7643,-55.0118 L -80.3963,-63.6388 L -79.0603,-63.6388 L -79.0603,-61.8048 L -86.3313,-53.2708
 z
M 35.2643,-58.5218 L 35.1603,-63.6388 L 37.4973,-63.6388 L 37.4973,-54.7838 z
M 35.2933,-53.2708 L 29.1113,-63.6388 L 31.3003,-63.6388 L 37.5113,-53.2708 z
M -3.66624,-53.3028 L -6.58424,-63.6388 L -4.25824,-63.6388 L -1.53224,-53.3028 z
M 1.51874,-53.3028 L 0.00773621,-60.1398 L -0.881241,-54.7498 L -1.91824,-58.7068 L -1.11824,-63.6388 L 1.10374,-63.6388
 L 3.63774,-53.3028 z
M 65.4206,-53.2708 L 65.4206,-63.6388 L 67.7466,-63.6388 L 67.7466,-53.2708 z
M -37.5853,-53.2708 L -37.5853,-62.1998 L -35.3663,-58.4478 L -35.2633,-53.2708 z
M 29.0813,-53.2708 L 29.0813,-62.1998 L 31.3003,-58.4478 L 31.4033,-53.2708 z
M -67.1318,-57.7968 L -67.1318,-59.6618 L -63.4198,-59.6618 L -63.4198,-57.7968 z
M 84.0576,-54.9896 L 84.1892,-55.0104 L 84.394,-55.0517 L 84.5448,-55.0908 L 84.684,-55.1351 L 84.8115,-55.1848
 L 84.9277,-55.2399 L 85.0357,-55.3006 L 85.1365,-55.3671 L 85.2301,-55.4394 L 85.3165,-55.5175 L 85.3957,-55.6014
 L 85.4682,-55.6915 L 85.5529,-55.8133 L 85.6311,-55.9455 L 85.7029,-56.088 L 85.7806,-56.2726 L 85.9012,-56.6186
 L 86.0546,-57.1436 L 84.2176,-57.1436 L 84.2176,-58.9996 L 88.1426,-58.9996 L 88.0546,-53.2636 L 86.4096,-53.2636
 L 86.2916,-54.5026 L 86.0855,-54.2504 L 85.6924,-53.8124 L 85.5188,-53.6515 L 85.3378,-53.5066 L 85.1727,-53.3935
 L 84.9995,-53.2942 L 84.8179,-53.2089 L 84.6557,-53.1476 L 84.5147,-53.1082 L 84.368,-53.0801 L 84.2156,-53.0632
 L 84.0576,-53.0576 z
M -67.1318,-53.2708 L -67.1318,-55.1908 L -62.9078,-55.1908 L -62.9078,-53.2708 z
M -85.0703,-53.2708 L -83.4673,-55.1908 L -78.9964,-55.1908 L -78.9964,-53.2708 z
M 48.263,-53.2708 L 49.866,-55.1908 L 54.337,-55.1908 L 54.337,-53.2708 z
M -18.4037,-53.2708 L -16.8007,-55.1908 L -12.3297,-55.1908 L -12.3297,-53.2708 z
M 16.2015,-45.0522 L 16.2015,-46.9722 L 20.2975,-46.9722 L 20.2975,-45.0522 z
M -84.3489,-38.5242 L -83.6819,-38.5242 L -83.5333,-38.5257 L -83.3223,-38.534 L -83.1257,-38.5492 L -82.9434,-38.5715
 L -82.8299,-38.5903 L -82.7227,-38.6122 L -82.622,-38.6373 L -82.5276,-38.6654 L -82.4396,-38.6967 L -82.3579,-38.7312
 L -82.2813,-38.769 L -82.2086,-38.81 L -82.1398,-38.8542 L -82.075,-38.9017 L -82.0141,-38.9525 L -81.9571,-39.0065
 L -81.904,-39.0637 L -81.8549,-39.1241 L -81.8097,-39.1878 L -81.7685,-39.2547 L -81.7311,-39.3249 L -81.6975,-39.3983
 L -81.6526,-39.5143 L -81.6143,-39.6372 L -81.5826,-39.7668 L -81.5574,-39.9032 L -81.5388,-40.0465 L -81.5268,-40.1965
 L -81.5213,-40.3534 L -81.521,-41.8461 L -81.5243,-42.0702 L -81.5378,-42.3428 L -81.5617,-42.6069 L -81.596,-42.8626
 L -81.6408,-43.1099 L -81.6741,-43.2528 L -81.7128,-43.3907 L -81.757,-43.5234 L -81.8067,-43.6511 L -81.8619,-43.7737
 L -81.9225,-43.8913 L -81.9887,-44.0038 L -82.0606,-44.1113 L -82.1391,-44.2133 L -82.2244,-44.3097 L -82.3165,-44.4005
 L -82.4152,-44.4858 L -82.5207,-44.5655 L -82.633,-44.6396 L -82.7519,-44.7081 L -82.8352,-44.7501 L -82.9223,-44.7882
 L -83.0131,-44.8225 L -83.1076,-44.853 L -83.206,-44.8796 L -83.3081,-44.9025 L -83.4139,-44.9216 L -83.5236,-44.9368
 L -83.637,-44.9482 L -83.7541,-44.9559 L -83.9369,-44.9601 L -84.3489,-45.0341 L -84.3489,-46.9722 L -83.5939,-46.9722
 L -83.2613,-46.9607 L -82.39,-46.744 L -82.2369,-46.698 L -82.0874,-46.6481 L -81.9415,-46.5943 L -81.7992,-46.5366
 L -81.6605,-46.475 L -81.5254,-46.4094 L -81.3939,-46.34 L -81.266,-46.2666 L -81.1417,-46.1893 L -81.021,-46.1083
 L -80.9038,-46.0244 L -80.7903,-45.9377 L -80.6805,-45.8483 L -80.5744,-45.756 L -80.472,-45.6609 L -80.3732,-45.5629
 L -80.2782,-45.4622 L -80.1869,-45.3587 L -80.0992,-45.2523 L -80.0152,-45.1431 L -79.935,-45.0311 L -79.858,-44.9166
 L -79.7845,-44.7995 L -79.7143,-44.6799 L -79.6475,-44.5576 L -79.5841,-44.4327 L -79.524,-44.3053 L -79.4673,-44.1753
 L -79.414,-44.0427 L -79.364,-43.9075 L -79.3175,-43.7697 L -79.254,-43.5582 L -79.1981,-43.3421 L -79.1501,-43.1227
 L -79.1098,-42.9001 L -79.0773,-42.6743 L -79.0526,-42.4451 L -79.0358,-42.2127 L -79.0267,-41.9771 L -79.0251,-41.7679
 L -79.0338,-41.4663 L -79.0556,-41.1648 L -79.0905,-40.8632 L -79.1384,-40.562 L -79.1904,-40.3136 L -79.2544,-40.068
 L -79.3302,-39.8251 L -79.418,-39.5849 L -79.5489,-39.2707 L -79.6613,-39.0201 L -79.7742,-38.7854 L -79.8876,-38.5665
 L -80.0016,-38.3636 L -80.116,-38.1766 L -80.1926,-38.0607 L -80.2695,-37.9519 L -80.3466,-37.8499 L -80.4254,-37.7526
 L -80.5061,-37.6598 L -80.5887,-37.5715 L -80.6732,-37.4877 L -80.7596,-37.4083 L -80.8479,-37.3334 L -80.9381,-37.263
 L -81.0302,-37.1971 L -81.1242,-37.1356 L -81.2201,-37.0787 L -81.3179,-37.0262 L -81.418,-36.9776 L -81.5204,-36.9324
 L -81.6253,-36.8905 L -81.7873,-36.834 L -81.9547,-36.785 L -82.1277,-36.7436 L -82.3062,-36.7098 L -82.4902,-36.6835
 L -82.6799,-36.6646 L -83.1568,-36.6322 L -83.6842,-36.6122 L -84.3489,-36.6042 z
M -64.8573,-36.6042 L -64.8726,-36.6351 L -65.0434,-37.0114 L -65.1898,-37.3959 L -65.2803,-37.6929 L -65.353,-37.9991
 L -65.4197,-38.3803 L -65.4904,-38.9567 L -65.5188,-39.1497 L -65.5584,-39.3327 L -65.6089,-39.5055 L -65.6598,-39.6417
 L -65.6962,-39.7192 L -65.7525,-39.8175 L -65.8007,-39.8873 L -65.8727,-39.9753 L -65.9537,-40.0574 L -66.0438,-40.1337
 L -66.0937,-40.1688 L -66.1756,-40.2172 L -66.266,-40.2602 L -66.3649,-40.2978 L -66.4723,-40.3301 L -66.5882,-40.3571
 L -66.7126,-40.3787 L -67.0841,-40.4228 L -67.5953,-40.4342 L -67.5953,-42.2901 L -66.527,-42.2905 L -66.2026,-42.3043
 L -65.9814,-42.3295 L -65.8373,-42.3576 L -65.7496,-42.384 L -65.6681,-42.4171 L -65.5928,-42.4568 L -65.5239,-42.5031
 L -65.4613,-42.5562 L -65.405,-42.6167 L -65.3549,-42.6858 L -65.3112,-42.7633 L -65.2737,-42.8493 L -65.2426,-42.9437
 L -65.2122,-43.0745 L -65.1848,-43.2569 L -65.1644,-43.5068 L -65.1563,-43.8412 L -65.1618,-44.0451 L -65.1784,-44.2258
 L -65.2006,-44.3588 L -65.2304,-44.4757 L -65.268,-44.5782 L -65.3133,-44.6688 L -65.3551,-44.7327 L -65.4019,-44.789
 L -65.4536,-44.8377 L -65.525,-44.8888 L -65.6039,-44.932 L -65.6906,-44.9675 L -65.8049,-44.9998 L -65.9303,-45.0213
 L -66.2336,-45.0477 L -67.5953,-45.0522 L -67.5953,-46.9722 L -66.4363,-46.9722 L -66.2364,-46.9701 L -65.8474,-46.9539
 L -65.473,-46.9215 L -65.1569,-46.8795 L -64.8946,-46.8307 L -64.6405,-46.7698 L -64.3945,-46.6965 L -64.2363,-46.6397
 L -64.1229,-46.5902 L -64.0141,-46.5346 L -63.9097,-46.473 L -63.81,-46.4053 L -63.7148,-46.3315 L -63.6242,-46.2517
 L -63.538,-46.1659 L -63.4563,-46.0736 L -63.3792,-45.9744 L -63.3066,-45.8685 L -63.2387,-45.7556 L -63.1753,-45.636
 L -63.1165,-45.5095 L -63.0623,-45.3761 L -63.0132,-45.2356 L -62.9705,-45.0862 L -62.9344,-44.9276 L -62.9048,-44.76
 L -62.8819,-44.5832 L -62.8654,-44.3973 L -62.8556,-44.2023 L -62.8523,-43.9982 L -62.8561,-43.8634 L -62.8716,-43.6918
 L -62.899,-43.5166 L -62.9383,-43.3378 L -62.9895,-43.1557 L -63.0387,-43.0122 L -63.0951,-42.8728 L -63.1588,-42.7373
 L -63.2296,-42.6059 L -63.3076,-42.4784 L -63.3925,-42.3554 L -63.4832,-42.2395 L -63.5798,-42.1313 L -63.6823,-42.0307
 L -63.7906,-41.9377 L -63.9048,-41.8523 L -63.9941,-41.7941 L -64.0864,-41.7434 L -64.1817,-41.7005 L -64.2801,-41.6655
 L -64.3816,-41.6382 L -64.4861,-41.6187 L -64.5937,-41.6071 L -64.7043,-41.6032 L -64.3713,-41.4693 L -64.2646,-41.4174
 L -64.1644,-41.359 L -64.0709,-41.2941 L -64.0122,-41.2472 L -63.9563,-41.1973 L -63.9035,-41.1446 L -63.8535,-41.089
 L -63.8064,-41.0304 L -63.7623,-40.969 L -63.6814,-40.8394 L -63.6073,-40.7042 L -63.54,-40.5636 L -63.4794,-40.4176
 L -63.4255,-40.2661 L -63.3783,-40.1092 L -63.2988,-39.7886 L -63.2354,-39.4642 L -63.1277,-38.7076 L -63.0178,-38.1108
 L -62.9566,-37.8709 L -62.8845,-37.642 L -62.8013,-37.4242 L -62.6897,-37.1763 L -62.5438,-36.8912 L -62.3783,-36.6042
 z
M -71.0443,-36.6042 L -71.0443,-46.9722 L -68.7183,-46.9722 L -68.7183,-36.6042 z
M -50.4651,-45.0522 L -50.4651,-46.9722 L -46.3691,-46.9722 L -46.3691,-45.0522 z
M -53.9211,-36.6042 L -53.9211,-46.9722 L -51.5951,-46.9722 L -51.5951,-36.6042 z
M -34.5794,-36.6042 L -34.5794,-46.9722 L -32.2534,-46.9722 L -32.2534,-36.6042 z
M -16.0271,-41.3612 L -14.5011,-46.9722 L -11.9971,-46.9722 L -14.9601,-37.9652 z
M -17.8041,-36.6362 L -21.4341,-46.9722 L -18.8861,-46.9722 L -15.6121,-36.6362 z
M -1.24605,-36.6042 L -1.24605,-46.9722 L 1.07994,-46.9722 L 1.07994,-36.6042 z
M 28.9557,-36.6042 L 28.9557,-46.9722 L 31.2817,-46.9722 L 31.2817,-36.6042 z
M 51.9683,-45.0522 L 51.9683,-46.9722 L 54.2083,-46.9722 L 54.2083,-45.0522 z
M 45.6963,-44.9881 L 45.6963,-46.9722 L 47.8083,-46.9722 L 47.8083,-44.9881 z
M 48.8103,-36.6042 L 48.8103,-46.9722 L 51.1363,-46.9722 L 51.1363,-36.6042 z
M 66.2015,-45.0522 L 66.2015,-46.9722 L 70.2975,-46.9722 L 70.2975,-45.0522 z
M 62.7455,-36.6042 L 62.7455,-46.9722 L 65.0715,-46.9722 L 65.0715,-36.6042 z
M 79.6665,-36.6042 L 79.6665,-46.9722 L 81.9926,-46.9722 L 81.9926,-36.6042 z
M -87.7929,-36.6042 L -87.7929,-46.9722 L -85.4669,-46.9722 L -85.4669,-36.6042 z
M 12.7455,-36.6042 L 12.7455,-46.9722 L 15.0715,-46.9722 L 15.0715,-36.6042 z
M 35.1427,-36.6042 L 35.1274,-36.6351 L 34.9566,-37.0114 L 34.8102,-37.3959 L 34.7197,-37.6929 L 34.647,-37.9991
 L 34.5802,-38.3803 L 34.5096,-38.9567 L 34.4811,-39.1497 L 34.4416,-39.3327 L 34.3911,-39.5055 L 34.3402,-39.6417
 L 34.3038,-39.7192 L 34.2475,-39.8175 L 34.1993,-39.8873 L 34.1273,-39.9753 L 34.0463,-40.0574 L 33.9562,-40.1337
 L 33.9063,-40.1688 L 33.8244,-40.2172 L 33.734,-40.2602 L 33.6351,-40.2978 L 33.5277,-40.3301 L 33.4118,-40.3571
 L 33.2874,-40.3787 L 32.9159,-40.4228 L 32.4047,-40.4342 L 32.4047,-42.2901 L 33.473,-42.2905 L 33.7974,-42.3043
 L 34.0185,-42.3295 L 34.1626,-42.3576 L 34.2504,-42.384 L 34.3319,-42.4171 L 34.4071,-42.4568 L 34.476,-42.5031
 L 34.5387,-42.5562 L 34.595,-42.6167 L 34.6451,-42.6858 L 34.6888,-42.7633 L 34.7263,-42.8493 L 34.7574,-42.9437
 L 34.7878,-43.0745 L 34.8152,-43.2569 L 34.8356,-43.5068 L 34.8437,-43.8412 L 34.8382,-44.0451 L 34.8216,-44.2258
 L 34.7994,-44.3588 L 34.7696,-44.4757 L 34.732,-44.5782 L 34.6867,-44.6688 L 34.6449,-44.7327 L 34.5981,-44.789
 L 34.5464,-44.8377 L 34.475,-44.8888 L 34.3961,-44.932 L 34.3093,-44.9675 L 34.1951,-44.9998 L 34.0697,-45.0213
 L 33.7663,-45.0477 L 32.4047,-45.0522 L 32.4047,-46.9722 L 33.5637,-46.9722 L 33.7636,-46.9701 L 34.1526,-46.9539
 L 34.527,-46.9215 L 34.8431,-46.8795 L 35.1054,-46.8307 L 35.3595,-46.7698 L 35.6055,-46.6965 L 35.7637,-46.6397
 L 35.8771,-46.5902 L 35.9859,-46.5346 L 36.0902,-46.473 L 36.19,-46.4053 L 36.2852,-46.3315 L 36.3758,-46.2517
 L 36.4619,-46.1659 L 36.5437,-46.0736 L 36.6208,-45.9744 L 36.6934,-45.8685 L 36.7613,-45.7556 L 36.8247,-45.636
 L 36.8835,-45.5095 L 36.9376,-45.3761 L 36.9868,-45.2356 L 37.0295,-45.0862 L 37.0656,-44.9276 L 37.0951,-44.76
 L 37.1181,-44.5832 L 37.1345,-44.3973 L 37.1444,-44.2023 L 37.1477,-43.9982 L 37.1439,-43.8634 L 37.1284,-43.6918
 L 37.101,-43.5166 L 37.0617,-43.3378 L 37.0105,-43.1557 L 36.9613,-43.0122 L 36.9048,-42.8728 L 36.8412,-42.7373
 L 36.7704,-42.6059 L 36.6924,-42.4784 L 36.6075,-42.3554 L 36.5168,-42.2395 L 36.4202,-42.1313 L 36.3177,-42.0307
 L 36.2094,-41.9377 L 36.0951,-41.8523 L 36.0059,-41.7941 L 35.9136,-41.7434 L 35.8183,-41.7005 L 35.7199,-41.6655
 L 35.6184,-41.6382 L 35.5139,-41.6187 L 35.4063,-41.6071 L 35.2957,-41.6032 L 35.6287,-41.4693 L 35.7354,-41.4174
 L 35.8355,-41.359 L 35.9291,-41.2941 L 35.9878,-41.2472 L 36.0436,-41.1973 L 36.0965,-41.1446 L 36.1465,-41.089
 L 36.1936,-41.0304 L 36.2377,-40.969 L 36.3186,-40.8394 L 36.3927,-40.7042 L 36.46,-40.5636 L 36.5206,-40.4176
 L 36.5745,-40.2661 L 36.6217,-40.1092 L 36.7012,-39.7886 L 36.7646,-39.4642 L 36.8723,-38.7076 L 36.9822,-38.1108
 L 37.0433,-37.8709 L 37.1155,-37.642 L 37.1987,-37.4242 L 37.3103,-37.1763 L 37.4562,-36.8912 L 37.6217,-36.6042
 z
M 16.2015,-41.1302 L 16.2015,-42.9951 L 19.9135,-42.9951 L 19.9135,-41.1302 z
M -50.4651,-41.1302 L -50.4651,-42.9951 L -46.7531,-42.9951 L -46.7531,-41.1302 z
M 66.2015,-41.1302 L 66.2015,-42.9951 L 69.9135,-42.9951 L 69.9135,-41.1302 z
M 83.1226,-36.6042 L 83.1226,-38.5242 L 86.8985,-38.5242 L 86.8985,-36.6042 z
M 66.2015,-36.6042 L 66.2015,-38.5242 L 70.4255,-38.5242 L 70.4255,-36.6042 z
M 16.2015,-36.6042 L 16.2015,-38.5242 L 20.4255,-38.5242 L 20.4255,-36.6042 z
M -50.4651,-36.6042 L -50.4651,-38.5242 L -46.2411,-38.5242 L -46.2411,-36.6042 z
M 66.1996,-19.78 L 66.0053,-19.7898 L 65.8151,-19.8061 L 65.6289,-19.8289 L 65.4469,-19.8582 L 65.269,-19.8941
 L 65.0952,-19.9364 L 64.9256,-19.9853 L 64.76,-20.0407 L 64.5986,-20.1027 L 64.4412,-20.1711 L 64.2881,-20.2458
 L 64.1395,-20.3252 L 63.9951,-20.4091 L 63.8551,-20.4975 L 63.7195,-20.5904 L 63.5883,-20.6877 L 63.4613,-20.7895
 L 63.3388,-20.8958 L 63.2206,-21.0066 L 63.1067,-21.1218 L 62.9973,-21.2416 L 62.8921,-21.3658 L 62.7915,-21.4943
 L 62.6952,-21.6266 L 62.6033,-21.7627 L 62.5157,-21.9027 L 62.4324,-22.0464 L 62.3535,-22.194 L 62.279,-22.3454
 L 62.2087,-22.5006 L 62.1429,-22.6596 L 62.0813,-22.8224 L 62.0241,-22.989 L 61.9713,-23.1593 L 61.9232,-23.3319
 L 61.8797,-23.5068 L 61.8407,-23.684 L 61.8064,-23.8634 L 61.7766,-24.045 L 61.7514,-24.2289 L 61.7308,-24.415
 L 61.7147,-24.6033 L 61.7033,-24.7939 L 61.6964,-24.9867 L 61.6941,-25.1817 L 61.6964,-25.3794 L 61.703,-25.5744
 L 61.7142,-25.7669 L 61.7298,-25.9568 L 61.7499,-26.144 L 61.7744,-26.3287 L 61.8034,-26.5107 L 61.8369,-26.6902
 L 61.8748,-26.867 L 61.9172,-27.0412 L 61.964,-27.2129 L 62.0153,-27.3819 L 62.071,-27.5471 L 62.1309,-27.7085
 L 62.1953,-27.8659 L 62.2639,-28.0194 L 62.3369,-28.169 L 62.4143,-28.3146 L 62.496,-28.4563 L 62.582,-28.5941
 L 62.6724,-28.7279 L 62.7671,-28.8578 L 62.8661,-28.9837 L 62.9696,-29.1057 L 63.0775,-29.2231 L 63.1898,-29.3359
 L 63.3067,-29.4443 L 63.428,-29.5481 L 63.5537,-29.6474 L 63.6839,-29.7422 L 63.8186,-29.8324 L 63.9577,-29.9182
 L 64.1013,-29.9994 L 64.2494,-30.0761 L 64.4019,-30.1481 L 64.5588,-30.2142 L 64.72,-30.274 L 64.8855,-30.3274
 L 65.0554,-30.3746 L 65.2296,-30.4155 L 65.4082,-30.4501 L 65.5911,-30.4784 L 65.7783,-30.5004 L 65.9699,-30.5162
 L 66.1658,-30.5256 L 66.3661,-30.5287 L 66.3661,-28.6087 L 66.3044,-28.6081 L 66.1843,-28.6032 L 66.0686,-28.5933
 L 65.9572,-28.5786 L 65.8503,-28.5588 L 65.7478,-28.5342 L 65.6497,-28.5046 L 65.556,-28.4701 L 65.4667,-28.4306
 L 65.3817,-28.3863 L 65.3012,-28.337 L 65.2251,-28.2827 L 65.1176,-28.1948 L 65.0165,-28.101 L 64.9216,-28.0014
 L 64.833,-27.896 L 64.7508,-27.7848 L 64.6748,-27.6678 L 64.6051,-27.5449 L 64.5417,-27.4164 L 64.4845,-27.2836
 L 64.4331,-27.1468 L 64.3875,-27.0059 L 64.3477,-26.861 L 64.3137,-26.7121 L 64.2856,-26.5591 L 64.2633,-26.402
 L 64.2267,-26.0293 L 64.1982,-25.5555 L 64.1901,-25.1397 L 64.1962,-24.8376 L 64.2143,-24.5333 L 64.2509,-24.1755
 L 64.2958,-23.8674 L 64.3362,-23.6674 L 64.3728,-23.5216 L 64.4147,-23.3793 L 64.462,-23.2405 L 64.5146,-23.1053
 L 64.5725,-22.9736 L 64.6359,-22.8456 L 64.7056,-22.7228 L 64.7816,-22.6059 L 64.8639,-22.4947 L 64.9524,-22.3893
 L 65.0473,-22.2897 L 65.1485,-22.1959 L 65.2559,-22.1078 L 65.3312,-22.0526 L 65.4101,-22.002 L 65.4927,-21.9561
 L 65.5788,-21.9151 L 65.6686,-21.879 L 65.7619,-21.8476 L 65.8589,-21.8211 L 65.9595,-21.7993 L 66.0638,-21.7825
 L 66.1716,-21.7704 L 66.2831,-21.7632 L 66.3981,-21.7608 L 66.3981,-19.7768 z
M 68.9351,-27.2136 L 68.8769,-27.3887 L 68.8351,-27.4989 L 68.791,-27.6038 L 68.7445,-27.7034 L 68.6957,-27.7978
 L 68.6446,-27.887 L 68.5911,-27.9709 L 68.5352,-28.0496 L 68.4771,-28.123 L 68.4161,-28.1912 L 68.3496,-28.2546
 L 68.2772,-28.3132 L 68.1989,-28.3669 L 68.1146,-28.4158 L 68.0243,-28.46 L 67.9282,-28.4993 L 67.826,-28.5338
 L 67.718,-28.5635 L 67.604,-28.5884 L 67.484,-28.6085 L 67.3581,-28.6237 L 67.3581,-30.5287 L 67.5011,-30.5197
 L 67.6416,-30.5082 L 67.7795,-30.4942 L 67.915,-30.4777 L 68.0479,-30.4587 L 68.1783,-30.4371 L 68.3061,-30.4131
 L 68.4315,-30.3865 L 68.5543,-30.3574 L 68.6746,-30.3258 L 68.7924,-30.2917 L 68.9077,-30.2551 L 69.0204,-30.216
 L 69.1306,-30.1744 L 69.2383,-30.1302 L 69.3435,-30.0836 L 69.4461,-30.0344 L 69.5463,-29.9828 L 69.6439,-29.9286
 L 69.739,-29.8719 L 69.8315,-29.8127 L 69.9216,-29.751 L 70.0091,-29.6867 L 70.0942,-29.6195 L 70.1769,-29.5486
 L 70.257,-29.4739 L 70.3348,-29.3956 L 70.41,-29.3135 L 70.4828,-29.2278 L 70.5531,-29.1383 L 70.621,-29.0452
 L 70.6864,-28.9483 L 70.7493,-28.8478 L 70.8098,-28.7435 L 70.8678,-28.6355 L 70.9233,-28.5239 L 70.9764,-28.4085
 L 71.027,-28.2895 L 71.0751,-28.1667 L 71.1208,-28.0403 L 71.164,-27.9101 L 71.2048,-27.7762 L 71.243,-27.6387
 L 71.2789,-27.4974 L 71.3122,-27.3524 L 71.3431,-27.2037 L 68.9881,-27.0267 z
M -66.1548,-19.7143 L -66.1548,-21.6613 L -66.0355,-21.6857 L -65.8646,-21.7264 L -65.7033,-21.772 L -65.5516,-21.8226
 L -65.4095,-21.8781 L -65.277,-21.9386 L -65.1541,-22.0039 L -65.0775,-22.0503 L -64.9699,-22.124 L -64.869,-22.2026
 L -64.7747,-22.286 L -64.687,-22.3741 L -64.6059,-22.467 L -64.5313,-22.5647 L -64.4632,-22.6671 L -64.4018,-22.7743
 L -64.3461,-22.8862 L -64.2956,-23.0024 L -64.2501,-23.1229 L -64.2096,-23.2476 L -64.1636,-23.4205 L -64.1266,-23.601
 L -64.0985,-23.789 L -64.0623,-24.1371 L -64.0397,-24.5096 L -64.0309,-24.9066 L -64.0371,-25.4108 L -64.0626,-25.9532
 L -64.0989,-26.374 L -64.1206,-26.5258 L -64.148,-26.6735 L -64.1809,-26.8172 L -64.2195,-26.9568 L -64.2637,-27.0923
 L -64.3135,-27.2238 L -64.369,-27.3513 L -64.4312,-27.4735 L -64.5004,-27.5899 L -64.5505,-27.6643 L -64.6037,-27.7362
 L -64.6601,-27.8055 L -64.7196,-27.8721 L -64.7822,-27.9363 L -64.8479,-27.9978 L -64.9524,-28.0854 L -65.0262,-28.1404
 L -65.1046,-28.1918 L -65.1878,-28.2396 L -65.2759,-28.2837 L -65.3688,-28.3241 L -65.4666,-28.3609 L -65.5692,-28.394
 L -65.6766,-28.4234 L -65.7889,-28.4491 L -65.906,-28.4712 L -66.028,-28.4895 L -66.1548,-28.5042 L -66.1548,-30.4812
 L -65.9514,-30.4611 L -65.7529,-30.4363 L -65.5592,-30.4071 L -65.3703,-30.3733 L -65.1862,-30.3349 L -65.0068,-30.292
 L -64.8323,-30.2446 L -64.6626,-30.1926 L -64.4977,-30.1361 L -64.3377,-30.0751 L -64.1824,-30.0095 L -64.0319,-29.9394
 L -63.8862,-29.8647 L -63.7453,-29.7855 L -63.6093,-29.7017 L -63.478,-29.6134 L -63.3516,-29.5206 L -63.2299,-29.4232
 L -63.1131,-29.3213 L -63.0011,-29.2149 L -62.8938,-29.1039 L -62.7914,-28.9883 L -62.6938,-28.8682 L -62.6006,-28.7442
 L -62.5116,-28.6165 L -62.4268,-28.4853 L -62.346,-28.3504 L -62.2694,-28.212 L -62.197,-28.07 L -62.1287,-27.9243
 L -62.0645,-27.7751 L -62.0045,-27.6223 L -61.9486,-27.4659 L -61.8969,-27.3058 L -61.8492,-27.1422 L -61.8058,-26.975
 L -61.7664,-26.8042 L -61.7313,-26.6298 L -61.7002,-26.4518 L -61.6733,-26.2703 L -61.6505,-26.0851 L -61.6319,-25.8963
 L -61.6174,-25.7039 L -61.6071,-25.508 L -61.6008,-25.3084 L -61.5993,-25.0169 L -61.6066,-24.7531 L -61.6228,-24.491
 L -61.6477,-24.2307 L -61.6815,-23.9722 L -61.7089,-23.8009 L -61.7403,-23.6303 L -61.7946,-23.3759 L -61.8358,-23.2073
 L -61.8808,-23.0397 L -61.9299,-22.875 L -61.983,-22.7134 L -62.0402,-22.5549 L -62.1014,-22.3996 L -62.1666,-22.2473
 L -62.2359,-22.0982 L -62.3092,-21.9522 L -62.3865,-21.8093 L -62.4679,-21.6695 L -62.5533,-21.5328 L -62.6428,-21.3993
 L -62.7362,-21.2697 L -62.8339,-21.1445 L -62.9358,-21.0238 L -63.042,-20.9075 L -63.1524,-20.7957 L -63.2671,-20.6883
 L -63.386,-20.5854 L -63.5092,-20.4869 L -63.6366,-20.3929 L -63.7683,-20.3033 L -63.9042,-20.2182 L -64.0444,-20.1379
 L -64.1161,-20.1002 L -64.189,-20.0643 L -64.263,-20.0302 L -64.3382,-19.9978 L -64.4145,-19.9672 L -64.492,-19.9383
 L -64.5707,-19.9112 L -64.7314,-19.8622 L -64.8135,-19.8403 L -64.9812,-19.8018 L -65.1535,-19.7703 L -65.3304,-19.7458
 L -65.5119,-19.7283 L -65.698,-19.7178 L -65.8888,-19.7143 z
M -67.8288,-19.7146 L -68.0751,-19.7309 L -68.3429,-19.7753 L -68.5059,-19.8111 L -68.6647,-19.8519 L -68.8192,-19.8978
 L -68.9695,-19.9488 L -69.1154,-20.0047 L -69.2572,-20.0657 L -69.3946,-20.1318 L -69.5278,-20.2028 L -69.6567,-20.2789
 L -69.7814,-20.3601 L -69.9018,-20.4463 L -70.0181,-20.5366 L -70.1307,-20.6302 L -70.2395,-20.727 L -70.3444,-20.8271
 L -70.4456,-20.9304 L -70.543,-21.037 L -70.6366,-21.1468 L -70.7264,-21.2599 L -70.8124,-21.3762 L -70.8946,-21.4958
 L -70.973,-21.6186 L -71.0476,-21.7446 L -71.1188,-21.873 L -71.1865,-22.0038 L -71.2507,-22.1369 L -71.3114,-22.2724
 L -71.3687,-22.4102 L -71.4226,-22.5503 L -71.4729,-22.6928 L -71.542,-22.911 L -71.6033,-23.1344 L -71.6567,-23.3629
 L -71.703,-23.5939 L -71.7425,-23.8267 L -71.7752,-24.0613 L -71.8011,-24.2977 L -71.8203,-24.5358 L -71.8327,-24.7757
 L -71.8384,-25.0173 L -71.8366,-25.2901 L -71.8303,-25.48 L -71.8196,-25.6678 L -71.8048,-25.8536 L -71.7856,-26.0374
 L -71.7623,-26.2193 L -71.7346,-26.399 L -71.7028,-26.5768 L -71.6667,-26.7526 L -71.6263,-26.9264 L -71.5817,-27.0981
 L -71.5328,-27.2677 L -71.4797,-27.4338 L -71.4223,-27.5961 L -71.3607,-27.7545 L -71.2948,-27.9091 L -71.2247,-28.0599
 L -71.1503,-28.2068 L -71.0717,-28.35 L -70.9889,-28.4893 L -70.9017,-28.6248 L -70.8104,-28.7564 L -70.7148,-28.8842
 L -70.6148,-29.0081 L -70.5104,-29.1274 L -70.4015,-29.2423 L -70.2881,-29.3527 L -70.1703,-29.4585 L -70.048,-29.5599
 L -69.9213,-29.6568 L -69.7901,-29.7492 L -69.6544,-29.8371 L -69.5143,-29.9205 L -69.3697,-29.9995 L -69.2206,-30.0737
 L -69.0669,-30.1419 L -68.9087,-30.2035 L -68.7461,-30.2586 L -68.579,-30.3073 L -68.4074,-30.3495 L -68.2313,-30.3851
 L -68.0507,-30.4143 L -67.8657,-30.437 L -67.6762,-30.4533 L -67.4822,-30.463 L -67.2838,-30.4662 L -67.2838,-28.5042
 L -67.3427,-28.4973 L -67.4574,-28.4808 L -67.5681,-28.4606 L -67.6748,-28.4367 L -67.7774,-28.4091 L -67.876,-28.3779
 L -67.9706,-28.343 L -68.0611,-28.3044 L -68.1476,-28.2621 L -68.23,-28.2162 L -68.3084,-28.1665 L -68.3828,-28.1132
 L -68.4537,-28.057 L -68.5548,-27.9684 L -68.6497,-27.8748 L -68.7381,-27.7762 L -68.8203,-27.6725 L -68.8961,-27.5638
 L -68.9656,-27.45 L -69.0288,-27.3312 L -69.0861,-27.2083 L -69.1382,-27.0816 L -69.1849,-26.9511 L -69.2263,-26.8168
 L -69.2624,-26.6788 L -69.3023,-26.4889 L -69.3328,-26.2922 L -69.371,-25.9381 L -69.3954,-25.5756 L -69.4066,-25.1511
 L -69.3988,-24.6389 L -69.3748,-24.2072 L -69.3408,-23.8513 L -69.3131,-23.658 L -69.2862,-23.5184 L -69.2541,-23.3832
 L -69.2166,-23.2525 L -69.1739,-23.1263 L -69.1259,-23.0045 L -69.0727,-22.8873 L -69.0139,-22.7747 L -68.9486,-22.6667
 L -68.8768,-22.5636 L -68.7985,-22.4652 L -68.7136,-22.3716 L -68.6222,-22.2827 L -68.5242,-22.1986 L -68.4198,-22.1193
 L -68.3457,-22.0691 L -68.2672,-22.0211 L -68.1842,-21.9753 L -68.0968,-21.9318 L -67.9572,-21.8707 L -67.8077,-21.8146
 L -67.6481,-21.7635 L -67.4784,-21.7174 L -67.2988,-21.6763 L -67.2988,-19.7143 z
M -16.1523,-21.8233 L -16.0593,-21.8247 L -15.9277,-21.8324 L -15.8058,-21.8466 L -15.6933,-21.8674 L -15.5905,-21.8948
 L -15.5272,-21.9167 L -15.4682,-21.9415 L -15.4135,-21.9692 L -15.3629,-21.9998 L -15.3165,-22.0334 L -15.2519,-22.0875
 L -15.1931,-22.1459 L -15.1401,-22.2086 L -15.0929,-22.2755 L -15.0515,-22.3467 L -15.0158,-22.4221 L -14.986,-22.5018
 L -14.9465,-22.6432 L -14.9162,-22.7932 L -14.8951,-22.9514 L -14.8819,-23.1523 L -14.8803,-30.3992 L -12.5543,-30.3992
 L -12.5546,-23.8782 L -12.5613,-23.5104 L -12.5771,-23.1623 L -12.6019,-22.8339 L -12.6264,-22.6006 L -12.656,-22.3783
 L -12.6906,-22.1672 L -12.7309,-21.9669 L -12.7624,-21.8387 L -12.7977,-21.7147 L -12.8367,-21.5948 L -12.8796,-21.4791
 L -12.9263,-21.3675 L -12.9768,-21.2601 L -13.0311,-21.1569 L -13.0893,-21.0578 L -13.1512,-20.9628 L -13.217,-20.8721
 L -13.2865,-20.7854 L -13.3604,-20.7026 L -13.4388,-20.6236 L -13.5217,-20.5485 L -13.609,-20.4771 L -13.7009,-20.4095
 L -13.7972,-20.3458 L -13.898,-20.2859 L -14.0034,-20.2298 L -14.1132,-20.1774 L -14.2275,-20.129 L -14.3463,-20.0843
 L -14.4705,-20.0435 L -14.6009,-20.0065 L -14.7376,-19.9731 L -14.8805,-19.9435 L -15.0298,-19.9175 L -15.1852,-19.8953
 L -15.347,-19.8768 L -15.515,-19.862 L -15.6892,-19.8508 L -15.8698,-19.8434 L -16.1523,-19.8393 z
M -17.3653,-19.8397 L -17.6274,-19.8464 L -17.8775,-19.8612 L -18.0376,-19.8755 L -18.1924,-19.8935 L -18.3419,-19.915
 L -18.486,-19.9401 L -18.6248,-19.9687 L -18.7583,-20.001 L -18.8864,-20.0368 L -19.0093,-20.0763 L -19.1272,-20.1194
 L -19.2408,-20.1663 L -19.3503,-20.217 L -19.4555,-20.2715 L -19.5565,-20.3298 L -19.6533,-20.3919 L -19.7459,-20.4578
 L -19.8343,-20.5275 L -19.9184,-20.601 L -19.9983,-20.6782 L -20.074,-20.7593 L -20.1456,-20.8442 L -20.2135,-20.9331
 L -20.2779,-21.026 L -20.3388,-21.1229 L -20.3961,-21.2239 L -20.4499,-21.3289 L -20.5001,-21.4379 L -20.5468,-21.5509
 L -20.59,-21.668 L -20.6296,-21.789 L -20.6657,-21.9141 L -20.6983,-22.0433 L -20.7412,-22.2452 L -20.7781,-22.4572
 L -20.8091,-22.6793 L -20.834,-22.9114 L -20.853,-23.1535 L -20.866,-23.4057 L -20.8729,-23.6679 L -20.8743,-30.3992
 L -18.5483,-30.3992 L -18.5473,-22.9641 L -18.5371,-22.8182 L -18.5206,-22.7085 L -18.4968,-22.6051 L -18.4657,-22.5081
 L -18.4273,-22.4173 L -18.3808,-22.3323 L -18.3257,-22.2526 L -18.2618,-22.1783 L -18.1892,-22.1092 L -18.108,-22.0455
 L -18.0177,-21.9873 L -17.9417,-21.9477 L -17.8577,-21.9117 L -17.7333,-21.8691 L -17.5948,-21.8329 L -17.4421,-21.8029
 L -17.2753,-21.7793 L -17.2753,-19.8393 z
M 18.3664,-19.9375 L 15.4774,-24.2185 L 15.4774,-26.7955 L 18.0114,-30.3055 L 21.0184,-30.3055 L 17.0334,-25.5955
 L 21.2554,-19.9375 z
M -82.6938,-24.6945 L -81.1678,-30.3055 L -78.6638,-30.3055 L -81.6268,-21.2985 z
M -48.1907,-19.9375 L -48.206,-19.9685 L -48.3767,-20.3447 L -48.5232,-20.7293 L -48.6136,-21.0262 L -48.6864,-21.3324
 L -48.7531,-21.7137 L -48.8237,-22.2901 L -48.8522,-22.4831 L -48.8917,-22.666 L -48.9422,-22.8389 L -48.9931,-22.975
 L -49.0295,-23.0526 L -49.0859,-23.1508 L -49.134,-23.2207 L -49.2061,-23.3087 L -49.287,-23.3908 L -49.3772,-23.467
 L -49.427,-23.5022 L -49.5089,-23.5505 L -49.5993,-23.5935 L -49.6982,-23.6312 L -49.8056,-23.6635 L -49.9216,-23.6904
 L -50.046,-23.7121 L -50.4175,-23.7562 L -50.9286,-23.7675 L -50.9286,-25.6235 L -49.8604,-25.6239 L -49.5359,-25.6376
 L -49.3148,-25.6628 L -49.1707,-25.6909 L -49.0829,-25.7173 L -49.0014,-25.7504 L -48.9262,-25.7901 L -48.8573,-25.8365
 L -48.7947,-25.8895 L -48.7383,-25.9501 L -48.6883,-26.0191 L -48.6445,-26.0966 L -48.6071,-26.1826 L -48.5759,-26.2771
 L -48.5455,-26.4078 L -48.5182,-26.5903 L -48.4978,-26.8401 L -48.4897,-27.1745 L -48.4952,-27.3784 L -48.5117,-27.5592
 L -48.5339,-27.6921 L -48.5638,-27.809 L -48.6013,-27.9115 L -48.6466,-28.0022 L -48.6884,-28.0661 L -48.7352,-28.1223
 L -48.7869,-28.171 L -48.8583,-28.2221 L -48.9373,-28.2654 L -49.024,-28.3008 L -49.1383,-28.3331 L -49.2636,-28.3546
 L -49.567,-28.381 L -50.9286,-28.3855 L -50.9286,-30.3055 L -49.7697,-30.3055 L -49.5697,-30.3035 L -49.1808,-30.2872
 L -48.8063,-30.2548 L -48.4902,-30.2128 L -48.228,-30.1641 L -47.9738,-30.1031 L -47.7279,-30.0299 L -47.5697,-29.973
 L -47.4563,-29.9235 L -47.3474,-29.8679 L -47.2431,-29.8063 L -47.1433,-29.7386 L -47.0482,-29.6649 L -46.9575,-29.5851
 L -46.8714,-29.4992 L -46.7897,-29.4069 L -46.7125,-29.3078 L -46.64,-29.2018 L -46.572,-29.089 L -46.5086,-28.9693
 L -46.4499,-28.8428 L -46.3957,-28.7095 L -46.3466,-28.5689 L -46.3039,-28.4195 L -46.2677,-28.261 L -46.2382,-28.0933
 L -46.2152,-27.9165 L -46.1988,-27.7307 L -46.1889,-27.5356 L -46.1857,-27.3315 L -46.1895,-27.1968 L -46.205,-27.0251
 L -46.2323,-26.8499 L -46.2716,-26.6711 L -46.3228,-26.489 L -46.3721,-26.3456 L -46.4285,-26.2061 L -46.4921,-26.0707
 L -46.5629,-25.9392 L -46.6409,-25.8117 L -46.7258,-25.6887 L -46.8166,-25.5728 L -46.9132,-25.4646 L -47.0156,-25.364
 L -47.124,-25.271 L -47.2382,-25.1856 L -47.3275,-25.1274 L -47.4197,-25.0768 L -47.5151,-25.0339 L -47.6135,-24.9988
 L -47.7149,-24.9716 L -47.8194,-24.9521 L -47.927,-24.9404 L -48.0377,-24.9365 L -47.7046,-24.8027 L -47.5979,-24.7508
 L -47.4978,-24.6924 L -47.4042,-24.6274 L -47.3455,-24.5805 L -47.2897,-24.5307 L -47.2368,-24.4779 L -47.1868,-24.4223
 L -47.1398,-24.3638 L -47.0956,-24.3023 L -47.0147,-24.1727 L -46.9407,-24.0376 L -46.8734,-23.897 L -46.8127,-23.7509
 L -46.7588,-23.5994 L -46.7117,-23.4425 L -46.6321,-23.122 L -46.5688,-22.7975 L -46.461,-22.0409 L -46.3511,-21.4442
 L -46.29,-21.2043 L -46.2178,-20.9754 L -46.1347,-20.7575 L -46.0231,-20.5096 L -45.8772,-20.2245 L -45.7117,-19.9375
 z
M -54.3776,-19.9375 L -54.3776,-30.3055 L -52.0516,-30.3055 L -52.0516,-19.9375 z
M -33.6173,-28.3855 L -33.6173,-30.3055 L -29.5853,-30.3055 L -29.5853,-28.3855 z
M -37.2013,-19.9375 L -37.2013,-30.3055 L -34.8753,-30.3055 L -34.8753,-19.9375 z
M 1.93097,-25.1885 L 1.82697,-30.3055 L 4.16397,-30.3055 L 4.16397,-21.4505 z
M 1.95998,-19.9375 L -4.22202,-30.3055 L -2.033,-30.3055 L 4.17798,-19.9375 z
M 12.0214,-19.9375 L 12.0214,-30.3055 L 14.3474,-30.3055 L 14.3474,-19.9375 z
M 35.2643,-25.1885 L 35.1603,-30.3055 L 37.4973,-30.3055 L 37.4973,-21.4505 z
M 35.2933,-19.9375 L 29.1113,-30.3055 L 31.3003,-30.3055 L 37.5113,-19.9375 z
M 45.0144,-19.9695 L 48.5844,-30.3055 L 51.2514,-30.3055 L 54.8954,-19.9695 L 52.2884,-19.9695 L 51.6064,-22.1775
 L 49.2954,-22.1775 L 49.8584,-24.0395 L 51.0144,-24.0395 L 50.7764,-24.8151 L 50.3281,-26.1832 L 50.2497,-26.4409
 L 50.1786,-26.7007 L 50.1148,-26.9624 L 50.0583,-27.2262 L 50.009,-27.4919 L 49.9671,-27.7597 L 49.9324,-28.0295
 L 49.7033,-26.9509 L 47.6514,-19.9695 z
M 79.0525,-19.9375 L 79.0525,-30.3055 L 81.3785,-30.3055 L 81.3785,-19.9375 z
M -84.4708,-19.9695 L -88.1008,-30.3055 L -85.5528,-30.3055 L -82.2788,-19.9695 z
M 85.1745,-19.9375 L 85.1745,-24.4175 L 82.5035,-24.4175 L 82.5035,-26.3375 L 85.1745,-26.3375 L 85.1745,-30.3055
 L 87.5005,-30.3055 L 87.5005,-19.9375 z
M -4.25201,-19.9375 L -4.25201,-28.8665 L -2.033,-25.1145 L -1.93001,-19.9375 z
M 29.0813,-19.9375 L 29.0813,-28.8665 L 31.3003,-25.1145 L 31.4033,-19.9375 z
M -33.6173,-24.2945 L -33.6173,-26.1325 L -30.2253,-26.1325 L -30.2253,-24.2945 z
M 67.3581,-21.7458 L 67.4307,-21.7542 L 67.5704,-21.7755 L 67.703,-21.8026 L 67.8284,-21.8354 L 67.9467,-21.8741
 L 68.0577,-21.9185 L 68.1105,-21.9429 L 68.1616,-21.9687 L 68.2108,-21.996 L 68.2582,-22.0247 L 68.3039,-22.0549
 L 68.3477,-22.0866 L 68.3898,-22.1196 L 68.43,-22.1542 L 68.4685,-22.1901 L 68.5052,-22.2276 L 68.54,-22.2664
 L 68.5731,-22.3068 L 68.6048,-22.3485 L 68.6651,-22.4364 L 68.7214,-22.5301 L 68.7737,-22.6296 L 68.8219,-22.7349
 L 68.8662,-22.8461 L 68.9064,-22.963 L 68.9426,-23.0857 L 68.9747,-23.2143 L 69.0029,-23.3486 L 69.027,-23.4888
 L 69.0471,-23.6348 L 71.5061,-23.4728 L 71.4902,-23.3878 L 71.4394,-23.1404 L 71.3834,-22.9042 L 71.3225,-22.6791
 L 71.2565,-22.4652 L 71.1854,-22.2625 L 71.1094,-22.0708 L 71.0558,-21.9493 L 71.0001,-21.8328 L 70.9119,-21.6658
 L 70.8179,-21.5067 L 70.7519,-21.4049 L 70.6834,-21.3067 L 70.6123,-21.2119 L 70.5387,-21.1206 L 70.4624,-21.0328
 L 70.3835,-20.9484 L 70.3021,-20.8675 L 70.2181,-20.7901 L 70.1314,-20.7162 L 70.0418,-20.6453 L 69.9491,-20.5775
 L 69.8533,-20.5128 L 69.7546,-20.4511 L 69.6528,-20.3924 L 69.5479,-20.3369 L 69.44,-20.2843 L 69.3291,-20.2348
 L 69.157,-20.1664 L 68.9781,-20.1048 L 68.792,-20.0483 L 68.5321,-19.9786 L 68.2587,-19.915 L 67.9719,-19.8577
 L 67.6717,-19.8066 L 67.3581,-19.7618 z
M 47.2644,-13.3176 L 47.2644,-15.1736 L 49.1844,-15.1736 L 49.1844,-13.3176 z
M 50.7204,-13.3176 L 50.7204,-15.1736 L 52.6404,-15.1736 L 52.6404,-13.3176 z
M -71.6523,-3.30284 L -68.0823,-13.6388 L -65.4153,-13.6388 L -61.7713,-3.30284 L -64.3783,-3.30284 L -65.0603,-5.51083
 L -67.3713,-5.51083 L -66.8083,-7.37283 L -65.6523,-7.37283 L -65.8902,-8.14845 L -66.3386,-9.51653 L -66.417,-9.77426
 L -66.4881,-10.034 L -66.5519,-10.2957 L -66.6084,-10.5595 L -66.6576,-10.8253 L -66.6996,-11.093 L -66.7343,-11.3628
 L -66.9633,-10.2842 L -69.0153,-3.30284 z
M -53.6668,-3.27083 L -53.6668,-13.6388 L -51.3408,-13.6388 L -51.3408,-3.27083 z
M 79.4653,-3.27083 L 79.4653,-13.6388 L 81.7914,-13.6388 L 81.7914,-3.27083 z
M 83.0493,-11.7188 L 83.0493,-13.6388 L 87.0813,-13.6388 L 87.0813,-11.7188 z
M 68.6266,-3.27083 L 62.4446,-13.6388 L 64.6337,-13.6388 L 70.8446,-3.27083 z
M -37.6484,-3.27083 L -37.6484,-13.6388 L -35.3224,-13.6388 L -35.3224,-3.27083 z
M -21.6523,-3.30284 L -18.0823,-13.6388 L -15.4153,-13.6388 L -11.7713,-3.30284 L -14.3783,-3.30284 L -15.0603,-5.51083
 L -17.3713,-5.51083 L -16.8083,-7.37283 L -15.6523,-7.37283 L -15.8902,-8.14845 L -16.3386,-9.51653 L -16.417,-9.77426
 L -16.4881,-10.034 L -16.5519,-10.2957 L -16.6084,-10.5595 L -16.6576,-10.8253 L -16.6996,-11.093 L -16.7343,-11.3628
 L -16.9633,-10.2842 L -19.0153,-3.30284 z
M -34.2134,-5.23384 L -33.3572,-5.19963 L -32.895,-5.23734 L -32.7348,-5.26476 L -32.5817,-5.30249 L -32.4356,-5.35051
 L -32.2964,-5.40883 L -32.191,-5.46371 L -32.0919,-5.52609 L -31.9992,-5.59598 L -31.9127,-5.67337 L -31.8324,-5.75826
 L -31.7587,-5.85075 L -31.7257,-5.90065 L -31.6958,-5.95331 L -31.6691,-6.00874 L -31.6349,-6.09708 L -31.6077,-6.19165
 L -31.5877,-6.29243 L -31.5747,-6.39946 L -31.5688,-6.51271 L -31.5699,-6.62447 L -31.5775,-6.72864 L -31.5918,-6.82704
 L -31.6126,-6.91971 L -31.6399,-7.00661 L -31.6739,-7.08777 L -31.7144,-7.16318 L -31.7614,-7.23283 L -31.8317,-7.31813
 L -31.9084,-7.39592 L -31.9914,-7.46622 L -32.0807,-7.52901 L -32.1765,-7.58429 L -32.2784,-7.63213 L -32.4119,-7.68317
 L -32.5518,-7.72514 L -32.6981,-7.75803 L -32.8819,-7.78552 L -33.317,-7.81885 L -33.8344,-7.82584 L -34.2134,-7.79584
 L -34.2134,-9.63582 L -33.9994,-9.63582 L -33.0172,-9.60703 L -32.8784,-9.61438 L -32.743,-9.63222 L -32.6111,-9.66054
 L -32.4828,-9.69936 L -32.3589,-9.74867 L -32.2437,-9.80734 L -32.1375,-9.87509 L -32.0591,-9.93584 L -31.9865,-10.0024
 L -31.9205,-10.0751 L -31.878,-10.1353 L -31.8421,-10.2005 L -31.8127,-10.2709 L -31.7898,-10.3462 L -31.7735,-10.4267
 L -31.7637,-10.5122 L -31.7604,-10.6028 L -31.7636,-10.6973 L -31.7731,-10.7867 L -31.7889,-10.871 L -31.8111,-10.9502
 L -31.8395,-11.0242 L -31.8743,-11.0932 L -31.9155,-11.1571 L -31.9627,-11.216 L -32.0318,-11.2889 L -32.1073,-11.3554
 L -32.1891,-11.4157 L -32.2773,-11.4697 L -32.3718,-11.5173 L -32.4978,-11.5686 L -32.6553,-11.6188 L -32.8188,-11.6566
 L -32.9885,-11.6821 L -33.3023,-11.7067 L -33.8864,-11.7178 L -34.2284,-11.6888 L -34.2284,-13.6388 L -33.8564,-13.6388
 L -33.3526,-13.6308 L -32.7687,-13.6028 L -32.2359,-13.5599 L -32.039,-13.535 L -31.8462,-13.5037 L -31.6575,-13.4658
 L -31.4728,-13.4213 L -31.2923,-13.3704 L -31.1158,-13.3129 L -30.9434,-13.2488 L -30.8315,-13.2021 L -30.7231,-13.1514
 L -30.6184,-13.0966 L -30.5173,-13.0379 L -30.4197,-12.9751 L -30.3258,-12.9082 L -30.2354,-12.8374 L -30.1487,-12.7625
 L -30.0655,-12.6836 L -29.986,-12.6007 L -29.91,-12.5138 L -29.8379,-12.4227 L -29.804,-12.3751 L -29.7717,-12.326
 L -29.741,-12.2754 L -29.7118,-12.2234 L -29.6842,-12.1699 L -29.6582,-12.1149 L -29.6338,-12.0584 L -29.5896,-11.941
 L -29.5518,-11.8177 L -29.5203,-11.6885 L -29.495,-11.5533 L -29.4761,-11.4123 L -29.4635,-11.2653 L -29.4572,-11.1125
 L -29.4571,-10.9616 L -29.4627,-10.8213 L -29.474,-10.6864 L -29.4909,-10.557 L -29.5134,-10.433 L -29.5415,-10.3144
 L -29.5753,-10.2012 L -29.6146,-10.0935 L -29.6596,-9.99117 L -29.7103,-9.89429 L -29.7665,-9.80284 L -29.8284,-9.71683
 L -29.8956,-9.63431 L -29.9677,-9.55301 L -30.0448,-9.47295 L -30.1268,-9.3941 L -30.2137,-9.31648 L -30.3056,-9.24008
 L -30.4024,-9.16492 L -30.557,-9.05446 L -30.7226,-8.94676 L -30.8994,-8.84183 L -30.7597,-8.77324 L -30.6257,-8.7014
 L -30.4975,-8.62631 L -30.3751,-8.54799 L -30.2584,-8.4664 L -30.1475,-8.38156 L -30.0423,-8.29349 L -29.9429,-8.20213
 L -29.8493,-8.10754 L -29.7614,-8.0097 L -29.6793,-7.9086 L -29.603,-7.80412 L -29.5672,-7.75014 L -29.5331,-7.69489
 L -29.5007,-7.63838 L -29.4699,-7.58061 L -29.4408,-7.52159 L -29.4133,-7.46129 L -29.3876,-7.39973 L -29.3634,-7.33691
 L -29.341,-7.27283 L -29.3011,-7.14087 L -29.2678,-7.00386 L -29.2412,-6.86182 L -29.2212,-6.71471 L -29.2079,-6.56255
 L -29.2012,-6.40533 L -29.2007,-6.28242 L -29.2077,-6.11333 L -29.2242,-5.94507 L -29.2499,-5.77765 L -29.2851,-5.6111
 L -29.3296,-5.44537 L -29.3834,-5.28123 L -29.4459,-5.12198 L -29.5168,-4.96797 L -29.5963,-4.81924 L -29.6844,-4.67577
 L -29.7809,-4.53757 L -29.8636,-4.43312 L -29.952,-4.33182 L -30.0434,-4.23628 L -30.1379,-4.14648 L -30.2354,-4.06245
 L -30.336,-3.98416 L -30.4397,-3.91162 L -30.5464,-3.84483 L -30.6922,-3.76332 L -30.8795,-3.67088 L -31.0723,-3.58891
 L -31.2707,-3.51746 L -31.4746,-3.45653 L -31.6405,-3.41629 L -31.8082,-3.38411 L -31.9777,-3.35997 L -32.149,-3.34389
 L -32.3222,-3.33585 L -34.2134,-3.33484 z
M -3.92113,-3.27083 L -3.92113,-13.6388 L -1.59514,-13.6388 L -1.59514,-3.27083 z
M -0.465134,-11.7188 L -0.465134,-13.6388 L 3.63086,-13.6388 L 3.63086,-11.7188 z
M -81.4922,-3.27083 L -81.4922,-7.75084 L -84.1631,-7.75084 L -84.1631,-9.67082 L -81.4922,-9.67082 L -81.4922,-13.6388
 L -79.1662,-13.6388 L -79.1662,-3.27083 z
M 68.5976,-8.52182 L 68.4936,-13.6388 L 70.8306,-13.6388 L 70.8306,-4.78383 z
M 12.9999,-3.27083 L 12.9999,-13.6388 L 15.3259,-13.6388 L 15.3259,-3.27083 z
M 33.0493,-11.7188 L 33.0493,-13.6388 L 37.0813,-13.6388 L 37.0813,-11.7188 z
M 29.4653,-3.27083 L 29.4653,-13.6388 L 31.7914,-13.6388 L 31.7914,-3.27083 z
M -87.6142,-3.27083 L -87.6142,-13.6388 L -85.2881,-13.6388 L -85.2881,-3.27083 z
M 50.4664,-3.78159 L 50.6049,-3.78487 L 50.7341,-3.79472 L 50.8539,-3.81114 L 50.9644,-3.83412 L 51.0655,-3.86368
 L 51.1277,-3.88702 L 51.1857,-3.9133 L 51.2396,-3.94247 L 51.2894,-3.97458 L 51.3583,-4.02733 L 51.4217,-4.0843
 L 51.4795,-4.14555 L 51.5317,-4.21104 L 51.5783,-4.28079 L 51.6194,-4.3548 L 51.6548,-4.43306 L 51.6848,-4.51556
 L 51.7257,-4.66005 L 51.7561,-4.81219 L 51.7761,-4.972 L 51.7855,-5.13947 L 51.7864,-12.3576 L 54.1124,-12.3576
 L 54.1124,-5.93158 L 54.1111,-5.74275 L 54.1013,-5.37985 L 54.0876,-5.12064 L 54.0683,-4.8725 L 54.0435,-4.63547
 L 54.0132,-4.40952 L 53.9773,-4.19466 L 53.9359,-3.99089 L 53.9042,-3.86061 L 53.8688,-3.7345 L 53.8298,-3.61253
 L 53.787,-3.49474 L 53.7406,-3.3811 L 53.6904,-3.27162 L 53.6366,-3.16629 L 53.5791,-3.06512 L 53.5179,-2.96812
 L 53.453,-2.87527 L 53.3844,-2.78659 L 53.3118,-2.70189 L 53.2347,-2.62099 L 53.153,-2.54391 L 53.0668,-2.47064
 L 52.976,-2.40118 L 52.8806,-2.33553 L 52.7807,-2.2737 L 52.6761,-2.21567 L 52.5671,-2.16145 L 52.4534,-2.11105
 L 52.3352,-2.06445 L 52.2123,-2.02174 L 52.0837,-1.98283 L 51.949,-1.94765 L 51.8084,-1.91615 L 51.6617,-1.88837
 L 51.509,-1.86427 L 51.3503,-1.8439 L 51.1855,-1.82722 L 51.0148,-1.81425 L 50.7473,-1.80176 L 50.4664,-1.79759
 z
M 49.317,-1.79938 L 49.0564,-1.80879 L 48.8075,-1.82626 L 48.6482,-1.84239 L 48.4941,-1.86211 L 48.3453,-1.88539
 L 48.2017,-1.91228 L 48.0633,-1.94275 L 47.9302,-1.97679 L 47.8024,-2.01442 L 47.6797,-2.05566 L 47.5613,-2.10068
 L 47.4469,-2.14949 L 47.3366,-2.2021 L 47.2303,-2.2585 L 47.1281,-2.3187 L 47.0299,-2.38269 L 46.9357,-2.45047
 L 46.8456,-2.52206 L 46.7595,-2.59744 L 46.6774,-2.67662 L 46.5994,-2.75958 L 46.5253,-2.84647 L 46.455,-2.93738
 L 46.3885,-3.0323 L 46.3259,-3.13124 L 46.267,-3.23422 L 46.212,-3.34122 L 46.1608,-3.45222 L 46.1133,-3.56726
 L 46.0697,-3.68633 L 46.0299,-3.80942 L 45.9939,-3.93652 L 45.9617,-4.06779 L 45.9186,-4.27312 L 45.8819,-4.48848
 L 45.8515,-4.71387 L 45.8274,-4.94931 L 45.8095,-5.19478 L 45.798,-5.45029 L 45.7927,-5.71584 L 45.7924,-12.3576
 L 48.1184,-12.3576 L 48.1193,-5.64273 L 48.1411,-5.07823 L 48.1664,-4.83372 L 48.1945,-4.69368 L 48.2326,-4.56348
 L 48.2703,-4.46638 L 48.3144,-4.37558 L 48.3661,-4.29059 L 48.4261,-4.21092 L 48.4944,-4.13658 L 48.5708,-4.06757
 L 48.6555,-4.00386 L 48.7486,-3.9456 L 48.8262,-3.90604 L 48.9116,-3.87 L 49.0374,-3.82745 L 49.177,-3.79121
 L 49.3303,-3.76125 L 49.4974,-3.73758 L 49.4974,-1.79759 z
M 62.4146,-3.27083 L 62.4146,-12.1998 L 64.6337,-8.44781 L 64.7366,-3.27083 z
M -0.465134,-7.79683 L -0.465134,-9.66182 L 3.24686,-9.66182 L 3.24686,-7.79683 z
M 83.0493,-7.62784 L 83.0493,-9.46582 L 86.4413,-9.46582 L 86.4413,-7.62784 z
M 33.0493,-7.62784 L 33.0493,-9.46582 L 36.4413,-9.46582 L 36.4413,-7.62784 z
M 16.4559,-3.27083 L 16.4559,-5.19084 L 20.2319,-5.19084 L 20.2319,-3.27083 z
M -0.465134,-3.27083 L -0.465134,-5.19084 L 3.75885,-5.19084 L 3.75885,-3.27083 z
M -50.2108,-3.27083 L -50.2108,-5.19084 L -46.4348,-5.19084 L -46.4348,-3.27083 z
" stroke="black" fill="lightgray" stroke-width="0.5"/></svg>
