<?xml version="1.0" standalone="no"?>
<!DOCTYPE svg PUBLIC "-//W3C//DTD SVG 1.1//EN" "http://www.w3.org/Graphics/SVG/1.1/DTD/svg11.dtd">
<svg width="232" height="116" viewBox="-116 -116 232 116" xmlns="http://www.w3.org/2000/svg" version="1.1">
<title>OpenSCAD Model</title>
<path d="
M 116,-116 L -116,-116 L -116,-0 L 116,-0 z
M -16.0672,-71.6608 L -15.9584,-71.6635 L -15.7663,-71.6826 L -15.5792,-71.7198 L -15.4391,-71.7623 L -15.3073,-71.8169
 L -15.1839,-71.8835 L -15.0858,-71.951 L -15.0123,-72.0158 L -14.9465,-72.0882 L -14.8882,-72.1682 L -14.8377,-72.256
 L -14.8042,-72.3326 L -14.7773,-72.4155 L -14.7532,-72.5279 L -14.7395,-72.65 L -14.7367,-72.7917 L -14.7406,-72.8638
 L -14.7484,-72.9332 L -14.7602,-73 L -14.7758,-73.0643 L -14.7954,-73.126 L -14.8189,-73.1851 L -14.8463,-73.2416
 L -14.8777,-73.2955 L -14.9129,-73.3468 L -14.9521,-73.3956 L -14.9952,-73.4418 L -15.0654,-73.5077 L -15.1414,-73.5703
 L -15.2233,-73.6296 L -15.3415,-73.7036 L -15.47,-73.7716 L -15.6089,-73.8338 L -15.7577,-73.8908 L -16.0361,-73.9834
 L -16.3366,-74.0678 L -17.875,-74.4276 L -18.3156,-74.5502 L -18.7498,-74.6908 L -19.0341,-74.7962 L -19.2157,-74.8758
 L -19.3901,-74.9635 L -19.5573,-75.0592 L -19.7173,-75.1629 L -19.8326,-75.246 L -19.9435,-75.334 L -20.0486,-75.4278
 L -20.148,-75.5277 L -20.2416,-75.6335 L -20.3294,-75.7453 L -20.4115,-75.8632 L -20.4877,-75.987 L -20.5582,-76.1167
 L -20.6011,-76.2074 L -20.6401,-76.302 L -20.6752,-76.4005 L -20.7064,-76.5029 L -20.7337,-76.6092 L -20.7572,-76.7194
 L -20.7767,-76.8336 L -20.7923,-76.9516 L -20.804,-77.0736 L -20.8118,-77.1995 L -20.8157,-77.3294 L -20.8157,-77.4697
 L -20.8116,-77.6147 L -20.8036,-77.7558 L -20.7915,-77.893 L -20.7754,-78.0263 L -20.7553,-78.1557 L -20.7312,-78.2813
 L -20.703,-78.403 L -20.6708,-78.5207 L -20.6346,-78.6346 L -20.5944,-78.7446 L -20.5502,-78.8507 L -20.5023,-78.9532
 L -20.4514,-79.0521 L -20.3973,-79.1476 L -20.3401,-79.2396 L -20.2797,-79.3281 L -20.2162,-79.4132 L -20.1496,-79.4947
 L -20.0799,-79.5728 L -20.007,-79.6474 L -19.931,-79.7186 L -19.8519,-79.7862 L -19.7696,-79.8505 L -19.6409,-79.9414
 L -19.5518,-79.9982 L -19.4131,-80.0777 L -19.2684,-80.1504 L -19.1176,-80.2163 L -18.9608,-80.2754 L -18.798,-80.3277
 L -18.6293,-80.3732 L -18.4563,-80.4127 L -18.2798,-80.4465 L -18.0999,-80.4744 L -17.9165,-80.4966 L -17.7297,-80.513
 L -17.4751,-80.5258 L -17.1912,-80.5287 L -17.1912,-78.6687 L -17.3418,-78.6653 L -17.6263,-78.6379 L -17.7957,-78.6029
 L -17.9183,-78.5601 L -18.0329,-78.5035 L -18.1235,-78.4438 L -18.1915,-78.3849 L -18.2526,-78.3175 L -18.3068,-78.2416
 L -18.3539,-78.1572 L -18.3851,-78.083 L -18.41,-78.002 L -18.4324,-77.8914 L -18.4451,-77.7702 L -18.4477,-77.6315
 L -18.4436,-77.5648 L -18.4356,-77.5007 L -18.4236,-77.4391 L -18.4076,-77.3801 L -18.3875,-77.3237 L -18.3635,-77.2698
 L -18.3354,-77.2185 L -18.3034,-77.1697 L -18.2673,-77.1235 L -18.2272,-77.0798 L -18.1832,-77.0387 L -18.0857,-76.9616
 L -17.9785,-76.8894 L -17.8615,-76.8221 L -17.7347,-76.7598 L -17.5981,-76.7025 L -17.4138,-76.6376 L -17.1361,-76.5554
 L -16.8366,-76.4824 L -15.9389,-76.3066 L -15.2534,-76.145 L -14.9114,-76.047 L -14.5735,-75.9354 L -14.2398,-75.8098
 L -14.1005,-75.7494 L -13.9652,-75.6834 L -13.834,-75.6118 L -13.7068,-75.5348 L -13.5837,-75.4521 L -13.4646,-75.3639
 L -13.3496,-75.2702 L -13.239,-75.1709 L -13.1341,-75.0649 L -13.035,-74.9521 L -12.9417,-74.8326 L -12.8541,-74.7063
 L -12.7724,-74.5732 L -12.6964,-74.4334 L -12.6262,-74.2868 L -12.5833,-74.1846 L -12.5443,-74.0782 L -12.5091,-73.9676
 L -12.4779,-73.8526 L -12.4506,-73.7334 L -12.4272,-73.61 L -12.4077,-73.4823 L -12.3921,-73.3503 L -12.3804,-73.214
 L -12.3726,-73.0735 L -12.3687,-72.9287 L -12.3696,-72.7629 L -12.3773,-72.6267 L -12.3914,-72.4925 L -12.4121,-72.3603
 L -12.4393,-72.2302 L -12.4731,-72.102 L -12.5134,-71.9759 L -12.5602,-71.8518 L -12.6307,-71.6905 L -12.7093,-71.535
 L -12.796,-71.3854 L -12.8908,-71.2415 L -12.9937,-71.1035 L -13.1046,-70.9713 L -13.2226,-70.8452 L -13.3478,-70.7253
 L -13.4801,-70.6116 L -13.6196,-70.5042 L -13.7662,-70.403 L -13.9194,-70.3083 L -14.0758,-70.2218 L -14.2348,-70.1438
 L -14.3966,-70.0743 L -14.561,-70.0132 L -14.728,-69.9606 L -15.3009,-69.8133 L -16.0672,-69.7278 z
M -14.8527,-77.3216 L -14.936,-77.84 L -14.9732,-77.9721 L -15.0119,-78.0715 L -15.0576,-78.1611 L -15.1102,-78.241
 L -15.171,-78.3126 L -15.2409,-78.3765 L -15.32,-78.4328 L -15.4083,-78.4814 L -15.5071,-78.5229 L -15.647,-78.5659
 L -15.8407,-78.6071 L -16.0672,-78.6387 L -16.0672,-80.5287 L -15.8602,-80.4697 L -15.7591,-80.4686 L -15.6592,-80.4653
 L -15.5605,-80.4599 L -15.463,-80.4522 L -15.3666,-80.4423 L -15.2714,-80.4302 L -15.1773,-80.4159 L -15.0845,-80.3994
 L -14.9928,-80.3808 L -14.9023,-80.3599 L -14.8129,-80.3369 L -14.7247,-80.3116 L -14.6377,-80.2841 L -14.5519,-80.2545
 L -14.4673,-80.2226 L -14.3838,-80.1886 L -14.3015,-80.1523 L -14.2203,-80.1139 L -14.1403,-80.0733 L -14.0615,-80.0304
 L -13.9839,-79.9854 L -13.9075,-79.9382 L -13.8322,-79.8887 L -13.7585,-79.8372 L -13.6869,-79.7834 L -13.6174,-79.7273
 L -13.55,-79.6689 L -13.4846,-79.6084 L -13.4213,-79.5455 L -13.3601,-79.4804 L -13.3009,-79.413 L -13.2438,-79.3434
 L -13.1888,-79.2715 L -13.1359,-79.1974 L -13.085,-79.121 L -13.0362,-79.0424 L -12.9895,-78.9615 L -12.9448,-78.8783
 L -12.9022,-78.7929 L -12.8617,-78.7052 L -12.8233,-78.6153 L -12.7869,-78.5231 L -12.7526,-78.4286 L -12.7204,-78.3319
 L -12.6903,-78.233 L -12.6622,-78.1317 L -12.6217,-77.9667 L -12.5142,-77.2687 L -14.8252,-77.0897 z
M 68.6266,-69.9375 L 62.4446,-80.3055 L 64.6337,-80.3055 L 70.8446,-69.9375 z
M -3.86798,-69.9375 L -3.86798,-80.3055 L -1.54198,-80.3055 L -1.54198,-69.9375 z
M -64.6984,-78.3855 L -64.6984,-80.3055 L -62.4584,-80.3055 L -62.4584,-78.3855 z
M -70.9704,-78.3215 L -70.9704,-80.3055 L -68.8584,-80.3055 L -68.8584,-78.3215 z
M -67.8564,-69.9375 L -67.8564,-80.3055 L -65.5304,-80.3055 L -65.5304,-69.9375 z
M -50.4651,-78.3855 L -50.4651,-80.3055 L -46.3691,-80.3055 L -46.3691,-78.3855 z
M -53.9211,-69.9375 L -53.9211,-80.3055 L -51.5951,-80.3055 L -51.5951,-69.9375 z
M -34.5794,-69.9375 L -34.5794,-80.3055 L -32.2534,-80.3055 L -32.2534,-69.9375 z
M 79.4122,-69.9375 L 79.4122,-80.3055 L 81.7382,-80.3055 L 81.7382,-69.9375 z
M -0.283981,-78.3855 L -0.283981,-80.3055 L 3.748,-80.3055 L 3.748,-78.3855 z
M 12.3629,-78.3215 L 12.3629,-80.3055 L 14.475,-80.3055 L 14.475,-78.3215 z
M 15.477,-69.9375 L 15.477,-80.3055 L 17.8029,-80.3055 L 17.8029,-69.9375 z
M 29.6665,-69.9375 L 29.6665,-80.3055 L 31.9926,-80.3055 L 31.9926,-69.9375 z
M 82.8682,-78.3855 L 82.8682,-80.3055 L 86.9642,-80.3055 L 86.9642,-78.3855 z
M 50.6396,-74.6945 L 52.1656,-80.3055 L 54.6696,-80.3055 L 51.7066,-71.2985 z
M 48.8626,-69.9695 L 45.2326,-80.3055 L 47.7806,-80.3055 L 51.0546,-69.9695 z
M 68.5976,-75.1885 L 68.4936,-80.3055 L 70.8306,-80.3055 L 70.8306,-71.4505 z
M -84.5794,-69.9375 L -84.5794,-80.3055 L -82.2534,-80.3055 L -82.2534,-69.9375 z
M 18.6349,-78.3855 L 18.6349,-80.3055 L 20.8749,-80.3055 L 20.8749,-78.3855 z
M 62.4146,-69.9375 L 62.4146,-78.8665 L 64.6337,-75.1145 L 64.7366,-69.9375 z
M 82.8682,-74.4635 L 82.8682,-76.3285 L 86.5802,-76.3285 L 86.5802,-74.4635 z
M -50.4651,-74.4635 L -50.4651,-76.3285 L -46.7531,-76.3285 L -46.7531,-74.4635 z
M -0.283981,-74.2945 L -0.283981,-76.1325 L 3.108,-76.1325 L 3.108,-74.2945 z
M -17.6512,-69.7128 L -17.7882,-69.7154 L -18.2437,-69.7572 L -18.3731,-69.7754 L -18.4996,-69.7961 L -18.623,-69.8195
 L -18.7434,-69.8455 L -18.8608,-69.8742 L -18.9752,-69.9054 L -19.0865,-69.9393 L -19.1948,-69.9759 L -19.3001,-70.0151
 L -19.4024,-70.0569 L -19.5017,-70.1013 L -19.5979,-70.1484 L -19.6911,-70.1981 L -19.7813,-70.2504 L -19.8685,-70.3054
 L -19.9527,-70.3629 L -20.0338,-70.4232 L -20.1119,-70.486 L -20.187,-70.5515 L -20.2591,-70.6196 L -20.3281,-70.6904
 L -20.3942,-70.7638 L -20.4573,-70.84 L -20.5176,-70.919 L -20.5751,-71.001 L -20.6298,-71.0858 L -20.6817,-71.1734
 L -20.7308,-71.2639 L -20.7771,-71.3573 L -20.8206,-71.4535 L -20.8613,-71.5526 L -20.8991,-71.6545 L -20.9342,-71.7593
 L -20.9664,-71.8669 L -20.9959,-71.9774 L -21.0226,-72.0908 L -21.0464,-72.207 L -21.0674,-72.3261 L -21.0857,-72.4481
 L -21.1011,-72.5729 L -21.1137,-72.7005 L -21.1235,-72.8311 L -21.1306,-72.9644 L -21.1348,-73.1007 L -21.1362,-73.2398
 L -18.8332,-73.3578 L -18.6183,-72.534 L -18.5666,-72.383 L -18.507,-72.248 L -18.4513,-72.1478 L -18.3902,-72.0588
 L -18.3349,-71.9954 L -18.272,-71.9382 L -18.2014,-71.8872 L -18.1233,-71.8424 L -18.0375,-71.8037 L -17.9189,-71.7636
 L -17.7517,-71.7223 L -17.5197,-71.6818 L -17.2062,-71.6458 L -17.2062,-69.7128 z
M 33.1226,-69.9375 L 33.1226,-71.8575 L 36.8985,-71.8575 L 36.8985,-69.9375 z
M -50.4651,-69.9375 L -50.4651,-71.8575 L -46.2411,-71.8575 L -46.2411,-69.9375 z
M 82.8682,-69.9375 L 82.8682,-71.8575 L 87.0922,-71.8575 L 87.0922,-69.9375 z
M -66.5989,-56.4811 L -65.3659,-57.9871 L -64.2669,-57.0861 L -64.2172,-57.263 L -64.1597,-57.5283 L -64.1259,-57.7641
 L -64.0946,-58.1776 L -64.0913,-58.6085 L -64.1019,-58.8282 L -64.1211,-59.047 L -64.1489,-59.265 L -64.1851,-59.482
 L -64.2299,-59.6981 L -64.2697,-59.8578 L -64.3156,-60.0135 L -64.3675,-60.1652 L -64.4255,-60.3129 L -64.4895,-60.4566
 L -64.5596,-60.5962 L -64.6358,-60.7319 L -64.718,-60.8634 L -64.7764,-60.9478 L -64.8378,-61.0293 L -64.902,-61.1078
 L -64.9692,-61.1835 L -65.0394,-61.2563 L -65.1125,-61.3262 L -65.1885,-61.3932 L -65.2674,-61.4573 L -65.3493,-61.5184
 L -65.4341,-61.5767 L -65.5219,-61.6321 L -65.6127,-61.6836 L -65.707,-61.7305 L -65.8047,-61.7727 L -65.906,-61.8102
 L -66.0108,-61.843 L -66.119,-61.8712 L -66.2308,-61.8946 L -66.346,-61.9134 L -66.4648,-61.9274 L -66.587,-61.9368
 L -66.7127,-61.9415 L -66.8385,-61.9415 L -66.9593,-61.9372 L -67.077,-61.9285 L -67.1916,-61.9154 L -67.303,-61.898
 L -67.4113,-61.8762 L -67.5164,-61.8501 L -67.6184,-61.8196 L -67.7172,-61.7847 L -67.8129,-61.7455 L -67.9055,-61.702
 L -67.9949,-61.6541 L -68.1235,-61.5758 L -68.2463,-61.4913 L -68.3634,-61.4005 L -68.4748,-61.3035 L -68.5804,-61.2002
 L -68.6802,-61.0906 L -68.7743,-60.9748 L -68.8626,-60.8528 L -68.9444,-60.7261 L -69.02,-60.5951 L -69.0893,-60.4598
 L -69.1523,-60.3203 L -69.209,-60.1764 L -69.2594,-60.0283 L -69.3036,-59.8758 L -69.3415,-59.7199 L -69.384,-59.5106
 L -69.4176,-59.2999 L -69.4422,-59.0879 L -69.4579,-58.8746 L -69.4646,-58.6599 L -69.4626,-58.4444 L -69.4488,-58.1744
 L -69.4224,-57.9035 L -69.3834,-57.6317 L -69.3319,-57.3591 L -69.2939,-57.1976 L -69.2498,-57.0405 L -69.1998,-56.8875
 L -69.1436,-56.7388 L -69.0814,-56.5944 L -69.0131,-56.4543 L -68.9388,-56.3183 L -68.8584,-56.1868 L -68.7715,-56.0611
 L -68.71,-55.9808 L -68.6455,-55.9032 L -68.5781,-55.8285 L -68.5078,-55.7566 L -68.4345,-55.6875 L -68.3192,-55.5891
 L -68.2387,-55.5269 L -68.1124,-55.439 L -68.0245,-55.3841 L -67.9331,-55.3338 L -67.8381,-55.2882 L -67.7394,-55.2475
 L -67.6372,-55.2115 L -67.5314,-55.1804 L -67.422,-55.154 L -67.3089,-55.1324 L -67.1923,-55.1157 L -67.0721,-55.1037
 L -66.9483,-55.0965 L -66.8209,-55.0941 L -66.6701,-55.0991 L -66.4562,-55.1215 L -66.1979,-55.1681 L -64.3709,-53.6431
 L -64.4376,-53.6052 L -64.6499,-53.5006 L -64.8802,-53.4095 L -65.153,-53.3248 L -65.4921,-53.2452 L -65.9285,-53.1749
 L -66.4824,-53.1228 L -66.9787,-53.1109 L -67.1835,-53.1171 L -67.3844,-53.1297 L -67.5813,-53.1484 L -67.7743,-53.1735
 L -67.9635,-53.2048 L -68.1487,-53.2423 L -68.3299,-53.2862 L -68.5073,-53.3363 L -68.6807,-53.3926 L -68.8503,-53.4552
 L -69.0159,-53.5241 L -69.1771,-53.5985 L -69.3337,-53.6776 L -69.4857,-53.7612 L -69.6331,-53.8493 L -69.776,-53.942
 L -69.9143,-54.0393 L -70.048,-54.1412 L -70.1771,-54.2476 L -70.3016,-54.3586 L -70.4215,-54.4742 L -70.5369,-54.5943
 L -70.6477,-54.719 L -70.7539,-54.8479 L -70.8555,-54.9808 L -70.9525,-55.1178 L -71.045,-55.2587 L -71.1329,-55.4037
 L -71.2162,-55.5527 L -71.2949,-55.7057 L -71.369,-55.8628 L -71.4385,-56.0239 L -71.5035,-56.189 L -71.5639,-56.3581
 L -71.6193,-56.5305 L -71.6696,-56.7055 L -71.715,-56.883 L -71.7552,-57.0632 L -71.7905,-57.2459 L -71.8207,-57.4311
 L -71.8459,-57.619 L -71.866,-57.8094 L -71.8811,-58.0024 L -71.8912,-58.1979 L -71.8962,-58.396 L -71.8962,-58.5974
 L -71.8911,-58.798 L -71.8808,-58.9959 L -71.8654,-59.1911 L -71.8448,-59.3837 L -71.8191,-59.5735 L -71.7883,-59.7607
 L -71.7523,-59.9451 L -71.7111,-60.1269 L -71.6649,-60.306 L -71.6134,-60.4824 L -71.5569,-60.6561 L -71.4952,-60.8264
 L -71.4287,-60.9927 L -71.3574,-61.155 L -71.2813,-61.3133 L -71.2004,-61.4675 L -71.1148,-61.6178 L -71.0243,-61.7639
 L -70.929,-61.9061 L -70.829,-62.0443 L -70.7241,-62.1784 L -70.6145,-62.3085 L -70.5,-62.4345 L -70.3811,-62.5559
 L -70.2577,-62.6726 L -70.1301,-62.7846 L -69.998,-62.8918 L -69.8616,-62.9944 L -69.7209,-63.0923 L -69.5758,-63.1854
 L -69.4264,-63.2739 L -69.2726,-63.3577 L -69.1144,-63.4367 L -68.9519,-63.5111 L -68.7852,-63.5801 L -68.6144,-63.6429
 L -68.4397,-63.6994 L -68.2609,-63.7496 L -68.0781,-63.7935 L -67.8913,-63.8311 L -67.7004,-63.8625 L -67.5056,-63.8876
 L -67.3067,-63.9065 L -67.1038,-63.919 L -66.8969,-63.9253 L -66.6918,-63.9253 L -66.4941,-63.9193 L -66.2996,-63.9072
 L -66.1082,-63.8891 L -65.92,-63.865 L -65.7349,-63.8348 L -65.553,-63.7986 L -65.3743,-63.7564 L -65.1987,-63.7081
 L -65.0262,-63.6538 L -64.857,-63.5934 L -64.6909,-63.5271 L -64.5283,-63.4554 L -64.3698,-63.3791 L -64.2154,-63.2982
 L -64.0652,-63.2127 L -63.9192,-63.1227 L -63.7773,-63.028 L -63.6395,-62.9287 L -63.5059,-62.8248 L -63.3764,-62.7164
 L -63.2511,-62.6033 L -63.1299,-62.4856 L -63.0128,-62.3634 L -62.9002,-62.2372 L -62.7922,-62.1068 L -62.6888,-61.9725
 L -62.59,-61.8342 L -62.4957,-61.6918 L -62.4061,-61.5454 L -62.3211,-61.395 L -62.2406,-61.2405 L -62.1648,-61.0821
 L -62.0935,-60.9196 L -62.0269,-60.7531 L -61.9653,-60.5834 L -61.9094,-60.4113 L -61.859,-60.2369 L -61.8143,-60.0601
 L -61.7751,-59.881 L -61.7415,-59.6995 L -61.7135,-59.5156 L -61.6912,-59.3294 L -61.6744,-59.1408 L -61.6632,-58.9499
 L -61.6576,-58.7566 L -61.6581,-58.5152 L -61.668,-58.2296 L -61.6877,-57.9467 L -61.7173,-57.6665 L -61.7567,-57.3891
 L -61.806,-57.1143 L -61.8499,-56.9102 L -61.9013,-56.708 L -61.9603,-56.5078 L -62.0268,-56.3097 L -62.101,-56.1135
 L -62.1827,-55.9194 L -62.272,-55.7272 L -62.3689,-55.5371 L -61.1839,-54.5161 L -62.4279,-53.0071 z
M 52.2685,-60.547 L 52.2102,-60.722 L 52.1684,-60.8322 L 52.1243,-60.9371 L 52.0779,-61.0367 L 52.0291,-61.1311
 L 51.9779,-61.2203 L 51.9244,-61.3042 L 51.8686,-61.3829 L 51.8104,-61.4563 L 51.7494,-61.5246 L 51.683,-61.5879
 L 51.6106,-61.6465 L 51.5322,-61.7002 L 51.4479,-61.7492 L 51.3577,-61.7933 L 51.2615,-61.8326 L 51.1594,-61.8671
 L 51.0513,-61.8968 L 50.9373,-61.9217 L 50.8173,-61.9418 L 50.6914,-61.9571 L 50.6914,-63.8621 L 50.8344,-63.8531
 L 50.9749,-63.8416 L 51.1129,-63.8276 L 51.2483,-63.811 L 51.3812,-63.792 L 51.5116,-63.7704 L 51.6395,-63.7464
 L 51.7648,-63.7198 L 51.8877,-63.6908 L 52.008,-63.6592 L 52.1257,-63.6251 L 52.241,-63.5885 L 52.3537,-63.5493
 L 52.464,-63.5077 L 52.5717,-63.4636 L 52.6768,-63.4169 L 52.7795,-63.3678 L 52.8796,-63.3161 L 52.9772,-63.2619
 L 53.0723,-63.2052 L 53.1649,-63.146 L 53.2549,-63.0843 L 53.3424,-63.0201 L 53.4276,-62.9528 L 53.5102,-62.8819
 L 53.5904,-62.8072 L 53.6681,-62.7289 L 53.7434,-62.6469 L 53.8162,-62.5611 L 53.8865,-62.4716 L 53.9543,-62.3785
 L 54.0197,-62.2816 L 54.0827,-62.1811 L 54.1431,-62.0768 L 54.2011,-61.9689 L 54.2567,-61.8572 L 54.3097,-61.7419
 L 54.3603,-61.6228 L 54.4085,-61.5 L 54.4542,-61.3736 L 54.4974,-61.2434 L 54.5381,-61.1095 L 54.5764,-60.972
 L 54.6122,-60.8307 L 54.6456,-60.6857 L 54.6764,-60.5371 L 52.3214,-60.3601 z
M 49.533,-53.1133 L 49.3386,-53.1231 L 49.1484,-53.1394 L 48.9623,-53.1622 L 48.7803,-53.1916 L 48.6024,-53.2274
 L 48.4286,-53.2698 L 48.2589,-53.3187 L 48.0934,-53.3741 L 47.9319,-53.436 L 47.7746,-53.5044 L 47.6215,-53.5791
 L 47.4728,-53.6586 L 47.3285,-53.7425 L 47.1885,-53.8309 L 47.0529,-53.9237 L 46.9216,-54.0211 L 46.7947,-54.1229
 L 46.6721,-54.2292 L 46.5539,-54.3399 L 46.4401,-54.4552 L 46.3306,-54.5749 L 46.2255,-54.6991 L 46.1248,-54.8276
 L 46.0286,-54.9599 L 45.9366,-55.0961 L 45.849,-55.236 L 45.7658,-55.3798 L 45.6869,-55.5273 L 45.6123,-55.6787
 L 45.5421,-55.8339 L 45.4762,-55.9929 L 45.4146,-56.1557 L 45.3574,-56.3223 L 45.3047,-56.4926 L 45.2566,-56.6653
 L 45.213,-56.8402 L 45.1741,-57.0173 L 45.1397,-57.1967 L 45.1099,-57.3783 L 45.0847,-57.5622 L 45.0641,-57.7483
 L 45.0481,-57.9366 L 45.0366,-58.1272 L 45.0298,-58.32 L 45.0275,-58.5151 L 45.0297,-58.7127 L 45.0364,-58.9078
 L 45.0475,-59.1002 L 45.0631,-59.2901 L 45.0832,-59.4773 L 45.1078,-59.662 L 45.1368,-59.844 L 45.1702,-60.0235
 L 45.2081,-60.2003 L 45.2505,-60.3746 L 45.2974,-60.5462 L 45.3486,-60.7152 L 45.4043,-60.8805 L 45.4643,-61.0418
 L 45.5286,-61.1992 L 45.5973,-61.3527 L 45.6703,-61.5023 L 45.7476,-61.6479 L 45.8293,-61.7896 L 45.9153,-61.9274
 L 46.0057,-62.0612 L 46.1004,-62.1911 L 46.1995,-62.3171 L 46.3029,-62.439 L 46.4108,-62.5564 L 46.5232,-62.6693
 L 46.64,-62.7776 L 46.7613,-62.8814 L 46.8871,-62.9807 L 47.0173,-63.0755 L 47.152,-63.1658 L 47.2911,-63.2515
 L 47.4347,-63.3327 L 47.5827,-63.4094 L 47.7353,-63.4815 L 47.8921,-63.5475 L 48.0533,-63.6073 L 48.2189,-63.6608
 L 48.3887,-63.7079 L 48.563,-63.7488 L 48.7415,-63.7834 L 48.9244,-63.8117 L 49.1117,-63.8338 L 49.3033,-63.8495
 L 49.4992,-63.8589 L 49.6995,-63.8621 L 49.6995,-61.9421 L 49.6377,-61.9415 L 49.5176,-61.9365 L 49.4019,-61.9267
 L 49.2906,-61.9119 L 49.1837,-61.8922 L 49.0811,-61.8675 L 48.983,-61.8379 L 48.8893,-61.8034 L 48.8,-61.764
 L 48.7151,-61.7196 L 48.6346,-61.6703 L 48.5585,-61.6161 L 48.451,-61.5281 L 48.3498,-61.4343 L 48.255,-61.3348
 L 48.1664,-61.2294 L 48.0841,-61.1181 L 48.0081,-61.0011 L 47.9384,-60.8782 L 47.8751,-60.7497 L 47.8178,-60.6169
 L 47.7664,-60.4801 L 47.7208,-60.3393 L 47.681,-60.1944 L 47.6471,-60.0454 L 47.6189,-59.8924 L 47.5966,-59.7353
 L 47.5601,-59.3626 L 47.5316,-58.8888 L 47.5235,-58.4731 L 47.5295,-58.171 L 47.5477,-57.8666 L 47.5842,-57.5089
 L 47.6291,-57.2007 L 47.6696,-57.0008 L 47.7061,-56.8549 L 47.7481,-56.7126 L 47.7953,-56.5738 L 47.8479,-56.4386
 L 47.9059,-56.3069 L 47.9693,-56.1789 L 48.039,-56.0561 L 48.1149,-55.9392 L 48.1972,-55.828 L 48.2858,-55.7226
 L 48.3806,-55.623 L 48.4818,-55.5292 L 48.5892,-55.4411 L 48.6646,-55.386 L 48.7435,-55.3353 L 48.826,-55.2895
 L 48.9122,-55.2485 L 49.0019,-55.2123 L 49.0953,-55.1809 L 49.1923,-55.1544 L 49.2929,-55.1327 L 49.3971,-55.1158
 L 49.5049,-55.1037 L 49.6164,-55.0965 L 49.7315,-55.0941 L 49.7315,-53.1101 z
M 83.8452,-53.0476 L 83.8452,-54.9946 L 83.9645,-55.019 L 84.1354,-55.0597 L 84.2966,-55.1053 L 84.4483,-55.1559
 L 84.5905,-55.2114 L 84.723,-55.2719 L 84.8459,-55.3373 L 84.9225,-55.3836 L 85.0301,-55.4573 L 85.131,-55.5359
 L 85.2253,-55.6193 L 85.313,-55.7074 L 85.3941,-55.8003 L 85.4687,-55.898 L 85.5367,-56.0004 L 85.5982,-56.1076
 L 85.6538,-56.2195 L 85.7044,-56.3357 L 85.7499,-56.4562 L 85.7903,-56.5809 L 85.8364,-56.7538 L 85.8734,-56.9343
 L 85.9015,-57.1223 L 85.9377,-57.4704 L 85.9603,-57.8429 L 85.9691,-58.2399 L 85.9629,-58.7442 L 85.9373,-59.2865
 L 85.9011,-59.7074 L 85.8794,-59.8591 L 85.852,-60.0068 L 85.8191,-60.1505 L 85.7805,-60.2901 L 85.7363,-60.4256
 L 85.6865,-60.5571 L 85.631,-60.6846 L 85.5688,-60.8068 L 85.4996,-60.9233 L 85.4495,-60.9977 L 85.3962,-61.0695
 L 85.3399,-61.1388 L 85.2804,-61.2055 L 85.2178,-61.2696 L 85.1521,-61.3312 L 85.0476,-61.4187 L 84.9738,-61.4737
 L 84.8954,-61.5251 L 84.8122,-61.5729 L 84.7241,-61.617 L 84.6312,-61.6575 L 84.5334,-61.6942 L 84.4308,-61.7273
 L 84.3234,-61.7567 L 84.2111,-61.7824 L 84.094,-61.8045 L 83.972,-61.8229 L 83.8452,-61.8376 L 83.8452,-63.8146
 L 84.0485,-63.7944 L 84.2471,-63.7697 L 84.4408,-63.7404 L 84.6297,-63.7066 L 84.8138,-63.6682 L 84.9931,-63.6254
 L 85.1676,-63.5779 L 85.3373,-63.526 L 85.5022,-63.4695 L 85.6623,-63.4084 L 85.8176,-63.3428 L 85.9681,-63.2727
 L 86.1138,-63.198 L 86.2546,-63.1188 L 86.3907,-63.035 L 86.522,-62.9468 L 86.6484,-62.8539 L 86.7701,-62.7565
 L 86.8869,-62.6546 L 86.9989,-62.5482 L 87.1062,-62.4372 L 87.2086,-62.3217 L 87.3062,-62.2016 L 87.3994,-62.0775
 L 87.4884,-61.9499 L 87.5732,-61.8186 L 87.654,-61.6838 L 87.7305,-61.5453 L 87.803,-61.4033 L 87.8713,-61.2577
 L 87.9355,-61.1084 L 87.9955,-60.9556 L 88.0514,-60.7992 L 88.1031,-60.6392 L 88.1507,-60.4756 L 88.1942,-60.3084
 L 88.2335,-60.1376 L 88.2687,-59.9632 L 88.2998,-59.7852 L 88.3267,-59.6036 L 88.3495,-59.4184 L 88.3681,-59.2296
 L 88.3826,-59.0373 L 88.3929,-58.8413 L 88.3991,-58.6417 L 88.4007,-58.3502 L 88.3934,-58.0864 L 88.3772,-57.8244
 L 88.3522,-57.5641 L 88.3185,-57.3055 L 88.291,-57.1342 L 88.2597,-56.9636 L 88.2054,-56.7092 L 88.1642,-56.5406
 L 88.1192,-56.3731 L 88.0701,-56.2084 L 88.017,-56.0468 L 87.9598,-55.8883 L 87.8986,-55.7329 L 87.8334,-55.5807
 L 87.7641,-55.4315 L 87.6908,-55.2855 L 87.6135,-55.1426 L 87.5321,-55.0028 L 87.4467,-54.8661 L 87.3572,-54.7326
 L 87.2638,-54.603 L 87.1661,-54.4778 L 87.0642,-54.3571 L 86.958,-54.2408 L 86.8476,-54.129 L 86.7329,-54.0217
 L 86.614,-53.9187 L 86.4908,-53.8203 L 86.3634,-53.7262 L 86.2317,-53.6366 L 86.0958,-53.5515 L 85.9556,-53.4712
 L 85.8839,-53.4336 L 85.811,-53.3977 L 85.737,-53.3635 L 85.6618,-53.3312 L 85.5854,-53.3005 L 85.5079,-53.2717
 L 85.4293,-53.2445 L 85.2686,-53.1955 L 85.1864,-53.1736 L 85.0188,-53.1351 L 84.8465,-53.1036 L 84.6696,-53.0791
 L 84.4881,-53.0616 L 84.3019,-53.0511 L 84.1112,-53.0476 z
M 82.1712,-53.0479 L 81.9249,-53.0643 L 81.6571,-53.1086 L 81.4941,-53.1444 L 81.3353,-53.1853 L 81.1808,-53.2312
 L 81.0305,-53.2821 L 80.8846,-53.3381 L 80.7428,-53.3991 L 80.6054,-53.4651 L 80.4722,-53.5362 L 80.3433,-53.6123
 L 80.2186,-53.6934 L 80.0982,-53.7796 L 79.9819,-53.8699 L 79.8693,-53.9635 L 79.7605,-54.0603 L 79.6555,-54.1604
 L 79.5544,-54.2637 L 79.457,-54.3703 L 79.3634,-54.4801 L 79.2736,-54.5932 L 79.1876,-54.7095 L 79.1054,-54.8291
 L 79.027,-54.952 L 78.9523,-55.0779 L 78.8812,-55.2064 L 78.8135,-55.3371 L 78.7493,-55.4702 L 78.6885,-55.6057
 L 78.6313,-55.7435 L 78.5774,-55.8837 L 78.5271,-56.0262 L 78.458,-56.2443 L 78.3967,-56.4677 L 78.3433,-56.6962
 L 78.297,-56.9272 L 78.2575,-57.16 L 78.2248,-57.3946 L 78.1988,-57.631 L 78.1797,-57.8691 L 78.1672,-58.109
 L 78.1616,-58.3506 L 78.1633,-58.6234 L 78.1697,-58.8133 L 78.1803,-59.0011 L 78.1952,-59.187 L 78.2143,-59.3708
 L 78.2377,-59.5526 L 78.2653,-59.7324 L 78.2972,-59.9102 L 78.3333,-60.0859 L 78.3737,-60.2597 L 78.4183,-60.4314
 L 78.4672,-60.601 L 78.5203,-60.7671 L 78.5777,-60.9294 L 78.6393,-61.0878 L 78.7052,-61.2424 L 78.7753,-61.3932
 L 78.8496,-61.5402 L 78.9283,-61.6833 L 79.0111,-61.8226 L 79.0982,-61.9581 L 79.1896,-62.0897 L 79.2852,-62.2176
 L 79.3852,-62.3414 L 79.4896,-62.4608 L 79.5985,-62.5756 L 79.7119,-62.686 L 79.8297,-62.7919 L 79.952,-62.8932
 L 80.0787,-62.9901 L 80.2099,-63.0825 L 80.3456,-63.1704 L 80.4857,-63.2539 L 80.6302,-63.3328 L 80.7794,-63.4071
 L 80.9331,-63.4752 L 81.0912,-63.5368 L 81.2539,-63.592 L 81.421,-63.6406 L 81.5926,-63.6828 L 81.7687,-63.7185
 L 81.9492,-63.7477 L 82.1343,-63.7704 L 82.3238,-63.7866 L 82.5178,-63.7963 L 82.7162,-63.7996 L 82.7162,-61.8376
 L 82.6573,-61.8307 L 82.5426,-61.8141 L 82.4319,-61.7939 L 82.3252,-61.77 L 82.2226,-61.7424 L 82.124,-61.7112
 L 82.0294,-61.6763 L 81.9389,-61.6377 L 81.8524,-61.5954 L 81.77,-61.5495 L 81.6916,-61.4999 L 81.6172,-61.4466
 L 81.5463,-61.3903 L 81.4451,-61.3018 L 81.3503,-61.2081 L 81.2619,-61.1095 L 81.1797,-61.0058 L 81.1039,-60.8971
 L 81.0344,-60.7834 L 80.9712,-60.6646 L 80.9139,-60.5416 L 80.8618,-60.4149 L 80.8151,-60.2844 L 80.7737,-60.1502
 L 80.7376,-60.0121 L 80.6977,-59.8222 L 80.6672,-59.6256 L 80.629,-59.2714 L 80.6046,-58.9089 L 80.5934,-58.4844
 L 80.6012,-57.9722 L 80.6252,-57.5405 L 80.6592,-57.1846 L 80.6869,-56.9914 L 80.7137,-56.8517 L 80.7459,-56.7165
 L 80.7833,-56.5858 L 80.826,-56.4596 L 80.874,-56.3379 L 80.9273,-56.2207 L 80.9861,-56.108 L 81.0514,-56.0001
 L 81.1232,-55.8969 L 81.2015,-55.7985 L 81.2864,-55.7049 L 81.3778,-55.616 L 81.4757,-55.5319 L 81.5802,-55.4526
 L 81.6543,-55.4024 L 81.7328,-55.3544 L 81.8158,-55.3087 L 81.9032,-55.2652 L 82.0427,-55.204 L 82.1923,-55.1479
 L 82.3519,-55.0968 L 82.5215,-55.0507 L 82.7012,-55.0096 L 82.7012,-53.0476 z
M -49.4856,-55.1566 L -49.3926,-55.1581 L -49.2611,-55.1657 L -49.1391,-55.1799 L -49.0267,-55.2007 L -48.9238,-55.2281
 L -48.8606,-55.25 L -48.8016,-55.2748 L -48.7468,-55.3025 L -48.6963,-55.3332 L -48.6498,-55.3667 L -48.5853,-55.4208
 L -48.5265,-55.4792 L -48.4735,-55.5419 L -48.4262,-55.6088 L -48.3848,-55.68 L -48.3492,-55.7554 L -48.3193,-55.8351
 L -48.2798,-55.9765 L -48.2496,-56.1265 L -48.2285,-56.2848 L -48.2153,-56.4856 L -48.2136,-63.7326 L -45.8876,-63.7326
 L -45.8879,-57.2115 L -45.8947,-56.8437 L -45.9104,-56.4956 L -45.9352,-56.1673 L -45.9597,-55.9339 L -45.9893,-55.7117
 L -46.024,-55.5005 L -46.0643,-55.3002 L -46.0957,-55.172 L -46.131,-55.048 L -46.1701,-54.9281 L -46.213,-54.8124
 L -46.2597,-54.7008 L -46.3102,-54.5934 L -46.3645,-54.4902 L -46.4226,-54.3911 L -46.4846,-54.2962 L -46.5503,-54.2054
 L -46.6199,-54.1188 L -46.6938,-54.036 L -46.7721,-53.957 L -46.855,-53.8818 L -46.9424,-53.8104 L -47.0342,-53.7429
 L -47.1306,-53.6791 L -47.2314,-53.6192 L -47.3367,-53.5631 L -47.4465,-53.5108 L -47.5608,-53.4623 L -47.6796,-53.4176
 L -47.8038,-53.3768 L -47.9342,-53.3398 L -48.0709,-53.3064 L -48.2139,-53.2768 L -48.3631,-53.2509 L -48.5186,-53.2286
 L -48.6803,-53.2101 L -48.8483,-53.1953 L -49.0226,-53.1842 L -49.2031,-53.1768 L -49.4856,-53.1726 z
M -50.6986,-53.173 L -50.9608,-53.1797 L -51.2109,-53.1945 L -51.371,-53.2089 L -51.5258,-53.2268 L -51.6752,-53.2483
 L -51.8193,-53.2734 L -51.9581,-53.3021 L -52.0916,-53.3343 L -52.2198,-53.3702 L -52.3426,-53.4096 L -52.4605,-53.4527
 L -52.5742,-53.4996 L -52.6836,-53.5503 L -52.7889,-53.6048 L -52.8899,-53.6631 L -52.9867,-53.7252 L -53.0792,-53.7911
 L -53.1676,-53.8608 L -53.2517,-53.9343 L -53.3316,-54.0116 L -53.4073,-54.0926 L -53.4789,-54.1775 L -53.5468,-54.2664
 L -53.6113,-54.3593 L -53.6721,-54.4563 L -53.7294,-54.5572 L -53.7832,-54.6622 L -53.8335,-54.7712 L -53.8802,-54.8842
 L -53.9233,-55.0013 L -53.963,-55.1224 L -53.9991,-55.2475 L -54.0316,-55.3766 L -54.0745,-55.5786 L -54.1115,-55.7906
 L -54.1424,-56.0126 L -54.1674,-56.2447 L -54.1863,-56.4868 L -54.1993,-56.739 L -54.2063,-57.0012 L -54.2076,-63.7326
 L -51.8816,-63.7326 L -51.8807,-56.2975 L -51.8704,-56.1515 L -51.8539,-56.0419 L -51.8302,-55.9385 L -51.799,-55.8414
 L -51.7606,-55.7506 L -51.7142,-55.6656 L -51.659,-55.5859 L -51.5952,-55.5116 L -51.5226,-55.4426 L -51.4413,-55.3789
 L -51.351,-55.3206 L -51.275,-55.281 L -51.191,-55.245 L -51.0667,-55.2025 L -50.9281,-55.1662 L -50.7755,-55.1362
 L -50.6086,-55.1126 L -50.6086,-53.1726 z
M -82.8024,-55.1446 L -82.6645,-55.1767 L -82.5679,-55.2117 L -82.5027,-55.2463 L -82.4514,-55.2856 L -82.4027,-55.3401
 L -82.3641,-55.4026 L -82.3355,-55.4729 L -82.3145,-55.565 L -82.2999,-55.728 L -82.3089,-55.965 L -82.3184,-63.7326
 L -79.9924,-63.7326 L -79.9933,-56.1276 L -80.0006,-55.912 L -80.0152,-55.7051 L -80.0252,-55.6049 L -80.037,-55.5069
 L -80.0506,-55.411 L -80.0661,-55.3172 L -80.0833,-55.2257 L -80.1024,-55.1362 L -80.1234,-55.049 L -80.1461,-54.9639
 L -80.1706,-54.8809 L -80.197,-54.8001 L -80.2252,-54.7215 L -80.2552,-54.6451 L -80.287,-54.5707 L -80.3207,-54.4986
 L -80.3561,-54.4286 L -80.3934,-54.3608 L -80.4325,-54.2951 L -80.4734,-54.2316 L -80.5166,-54.17 L -80.5625,-54.11
 L -80.6111,-54.0517 L -80.6625,-53.995 L -80.7165,-53.94 L -80.7733,-53.8866 L -80.8328,-53.8349 L -80.895,-53.7849
 L -80.9599,-53.7364 L -81.0276,-53.6897 L -81.098,-53.6445 L -81.1711,-53.6011 L -81.2469,-53.5592 L -81.3254,-53.519
 L -81.4066,-53.4805 L -81.4906,-53.4436 L -81.5773,-53.4084 L -81.6667,-53.3748 L -81.7588,-53.3429 L -81.8536,-53.3126
 L -81.9512,-53.2839 L -82.0514,-53.2569 L -82.1544,-53.2316 L -82.3041,-53.1989 L -82.8024,-53.1876 z
M -1.1897,-53.2708 L -1.1897,-63.6388 L 1.13628,-63.6388 L 1.13628,-53.2708 z
M -14.8573,-53.2708 L -14.8726,-53.3018 L -15.0434,-53.6781 L -15.1898,-54.0626 L -15.2803,-54.3596 L -15.353,-54.6657
 L -15.4197,-55.047 L -15.4904,-55.6234 L -15.5188,-55.8164 L -15.5584,-55.9993 L -15.6089,-56.1722 L -15.6598,-56.3084
 L -15.6962,-56.3859 L -15.7525,-56.4842 L -15.8007,-56.554 L -15.8727,-56.642 L -15.9537,-56.7241 L -16.0438,-56.8003
 L -16.0937,-56.8355 L -16.1756,-56.8839 L -16.266,-56.9268 L -16.3649,-56.9645 L -16.4723,-56.9968 L -16.5882,-57.0238
 L -16.7126,-57.0454 L -17.0841,-57.0895 L -17.5953,-57.1008 L -17.5953,-58.9568 L -16.527,-58.9572 L -16.2026,-58.971
 L -15.9814,-58.9961 L -15.8373,-59.0243 L -15.7496,-59.0507 L -15.6681,-59.0837 L -15.5928,-59.1234 L -15.5239,-59.1698
 L -15.4613,-59.2228 L -15.405,-59.2834 L -15.3549,-59.3524 L -15.3112,-59.43 L -15.2737,-59.516 L -15.2426,-59.6104
 L -15.2122,-59.7411 L -15.1848,-59.9236 L -15.1644,-60.1735 L -15.1563,-60.5078 L -15.1618,-60.7117 L -15.1784,-60.8925
 L -15.2006,-61.0255 L -15.2304,-61.1424 L -15.268,-61.2449 L -15.3133,-61.3355 L -15.3551,-61.3994 L -15.4019,-61.4557
 L -15.4536,-61.5043 L -15.525,-61.5555 L -15.6039,-61.5987 L -15.6906,-61.6341 L -15.8049,-61.6665 L -15.9303,-61.688
 L -16.2336,-61.7143 L -17.5953,-61.7188 L -17.5953,-63.6388 L -16.4363,-63.6388 L -16.2364,-63.6368 L -15.8474,-63.6206
 L -15.473,-63.5882 L -15.1569,-63.5461 L -14.8946,-63.4974 L -14.6405,-63.4364 L -14.3945,-63.3632 L -14.2363,-63.3064
 L -14.1229,-63.2568 L -14.0141,-63.2013 L -13.9097,-63.1396 L -13.81,-63.0719 L -13.7148,-62.9982 L -13.6242,-62.9184
 L -13.538,-62.8326 L -13.4563,-62.7403 L -13.3792,-62.6411 L -13.3066,-62.5351 L -13.2387,-62.4223 L -13.1753,-62.3026
 L -13.1165,-62.1761 L -13.0623,-62.0428 L -13.0132,-61.9023 L -12.9705,-61.7529 L -12.9344,-61.5943 L -12.9048,-61.4267
 L -12.8819,-61.2499 L -12.8654,-61.064 L -12.8556,-60.869 L -12.8523,-60.6648 L -12.8561,-60.5301 L -12.8716,-60.3585
 L -12.899,-60.1833 L -12.9383,-60.0045 L -12.9895,-59.8223 L -13.0387,-59.6789 L -13.0951,-59.5394 L -13.1588,-59.404
 L -13.2296,-59.2725 L -13.3076,-59.1451 L -13.3925,-59.022 L -13.4832,-58.9062 L -13.5798,-58.7979 L -13.6823,-58.6973
 L -13.7906,-58.6043 L -13.9048,-58.519 L -13.9941,-58.4607 L -14.0864,-58.4101 L -14.1817,-58.3672 L -14.2801,-58.3322
 L -14.3816,-58.3049 L -14.4861,-58.2854 L -14.5937,-58.2737 L -14.7043,-58.2698 L -14.3713,-58.136 L -14.2646,-58.0841
 L -14.1644,-58.0257 L -14.0709,-57.9608 L -14.0122,-57.9138 L -13.9563,-57.864 L -13.9035,-57.8113 L -13.8535,-57.7556
 L -13.8064,-57.6971 L -13.7623,-57.6357 L -13.6814,-57.506 L -13.6073,-57.3709 L -13.54,-57.2303 L -13.4794,-57.0843
 L -13.4255,-56.9328 L -13.3783,-56.7758 L -13.2988,-56.4553 L -13.2354,-56.1309 L -13.1277,-55.3742 L -13.0178,-54.7775
 L -12.9566,-54.5376 L -12.8845,-54.3087 L -12.8013,-54.0908 L -12.6897,-53.843 L -12.5438,-53.5579 L -12.3783,-53.2708
 z
M 1.96828,-61.7188 L 1.96828,-63.6388 L 4.20828,-63.6388 L 4.20828,-61.7188 z
M -4.30371,-61.6548 L -4.30371,-63.6388 L -2.1917,-63.6388 L -2.1917,-61.6548 z
M 16.2015,-61.7188 L 16.2015,-63.6388 L 20.2975,-63.6388 L 20.2975,-61.7188 z
M 12.7455,-53.2708 L 12.7455,-63.6388 L 15.0715,-63.6388 L 15.0715,-53.2708 z
M 35.1427,-53.2708 L 35.1274,-53.3018 L 34.9566,-53.6781 L 34.8102,-54.0626 L 34.7197,-54.3596 L 34.647,-54.6657
 L 34.5802,-55.047 L 34.5096,-55.6234 L 34.4811,-55.8164 L 34.4416,-55.9993 L 34.3911,-56.1722 L 34.3402,-56.3084
 L 34.3038,-56.3859 L 34.2475,-56.4842 L 34.1993,-56.554 L 34.1273,-56.642 L 34.0463,-56.7241 L 33.9562,-56.8003
 L 33.9063,-56.8355 L 33.8244,-56.8839 L 33.734,-56.9268 L 33.6351,-56.9645 L 33.5277,-56.9968 L 33.4118,-57.0238
 L 33.2874,-57.0454 L 32.9159,-57.0895 L 32.4047,-57.1008 L 32.4047,-58.9568 L 33.473,-58.9572 L 33.7974,-58.971
 L 34.0185,-58.9961 L 34.1626,-59.0243 L 34.2504,-59.0507 L 34.3319,-59.0837 L 34.4071,-59.1234 L 34.476,-59.1698
 L 34.5387,-59.2228 L 34.595,-59.2834 L 34.6451,-59.3524 L 34.6888,-59.43 L 34.7263,-59.516 L 34.7574,-59.6104
 L 34.7878,-59.7411 L 34.8152,-59.9236 L 34.8356,-60.1735 L 34.8437,-60.5078 L 34.8382,-60.7117 L 34.8216,-60.8925
 L 34.7994,-61.0255 L 34.7696,-61.1424 L 34.732,-61.2449 L 34.6867,-61.3355 L 34.6449,-61.3994 L 34.5981,-61.4557
 L 34.5464,-61.5043 L 34.475,-61.5555 L 34.3961,-61.5987 L 34.3093,-61.6341 L 34.1951,-61.6665 L 34.0697,-61.688
 L 33.7663,-61.7143 L 32.4047,-61.7188 L 32.4047,-63.6388 L 33.5637,-63.6388 L 33.7636,-63.6368 L 34.1526,-63.6206
 L 34.527,-63.5882 L 34.8431,-63.5461 L 35.1054,-63.4974 L 35.3595,-63.4364 L 35.6055,-63.3632 L 35.7637,-63.3064
 L 35.8771,-63.2568 L 35.9859,-63.2013 L 36.0902,-63.1396 L 36.19,-63.0719 L 36.2852,-62.9982 L 36.3758,-62.9184
 L 36.4619,-62.8326 L 36.5437,-62.7403 L 36.6208,-62.6411 L 36.6934,-62.5351 L 36.7613,-62.4223 L 36.8247,-62.3026
 L 36.8835,-62.1761 L 36.9376,-62.0428 L 36.9868,-61.9023 L 37.0295,-61.7529 L 37.0656,-61.5943 L 37.0951,-61.4267
 L 37.1181,-61.2499 L 37.1345,-61.064 L 37.1444,-60.869 L 37.1477,-60.6648 L 37.1439,-60.5301 L 37.1284,-60.3585
 L 37.101,-60.1833 L 37.0617,-60.0045 L 37.0105,-59.8223 L 36.9613,-59.6789 L 36.9048,-59.5394 L 36.8412,-59.404
 L 36.7704,-59.2725 L 36.6924,-59.1451 L 36.6075,-59.022 L 36.5168,-58.9062 L 36.4202,-58.7979 L 36.3177,-58.6973
 L 36.2094,-58.6043 L 36.0951,-58.519 L 36.0059,-58.4607 L 35.9136,-58.4101 L 35.8183,-58.3672 L 35.7199,-58.3322
 L 35.6184,-58.3049 L 35.5139,-58.2854 L 35.4063,-58.2737 L 35.2957,-58.2698 L 35.6287,-58.136 L 35.7354,-58.0841
 L 35.8355,-58.0257 L 35.9291,-57.9608 L 35.9878,-57.9138 L 36.0436,-57.864 L 36.0965,-57.8113 L 36.1465,-57.7556
 L 36.1936,-57.6971 L 36.2377,-57.6357 L 36.3186,-57.506 L 36.3927,-57.3709 L 36.46,-57.2303 L 36.5206,-57.0843
 L 36.5745,-56.9328 L 36.6217,-56.7758 L 36.7012,-56.4553 L 36.7646,-56.1309 L 36.8723,-55.3742 L 36.9822,-54.7775
 L 37.0433,-54.5376 L 37.1155,-54.3087 L 37.1987,-54.0908 L 37.3103,-53.843 L 37.4562,-53.5579 L 37.6217,-53.2708
 z
M 28.9557,-53.2708 L 28.9557,-63.6388 L 31.2817,-63.6388 L 31.2817,-53.2708 z
M 62.0214,-53.2708 L 62.0214,-63.6388 L 64.3474,-63.6388 L 64.3474,-53.2708 z
M -21.0443,-53.2708 L -21.0443,-63.6388 L -18.7183,-63.6388 L -18.7183,-53.2708 z
M 68.3664,-53.2708 L 65.4774,-57.5518 L 65.4774,-60.1288 L 68.0114,-63.6388 L 71.0184,-63.6388 L 67.0334,-58.9288
 L 71.2554,-53.2708 z
M -38.3189,-53.3028 L -34.7489,-63.6388 L -32.082,-63.6388 L -28.438,-53.3028 L -31.045,-53.3028 L -31.727,-55.5108
 L -34.0379,-55.5108 L -33.4749,-57.3728 L -32.319,-57.3728 L -32.5569,-58.1485 L -33.0052,-59.5165 L -33.0836,-59.7743
 L -33.1547,-60.034 L -33.2185,-60.2957 L -33.2751,-60.5595 L -33.3243,-60.8253 L -33.3663,-61.093 L -33.4009,-61.3628
 L -33.63,-60.2842 L -35.6819,-53.3028 z
M 16.2015,-57.7968 L 16.2015,-59.6618 L 19.9135,-59.6618 L 19.9135,-57.7968 z
M -84.1485,-53.1766 L -84.3541,-53.1886 L -84.5501,-53.2087 L -84.6755,-53.2266 L -84.7966,-53.248 L -84.9135,-53.273
 L -85.0261,-53.3015 L -85.1344,-53.3336 L -85.2385,-53.3693 L -85.3384,-53.4086 L -85.4345,-53.4511 L -85.5272,-53.4967
 L -85.6166,-53.5453 L -85.7026,-53.5968 L -85.7853,-53.6514 L -85.8647,-53.709 L -85.9407,-53.7696 L -86.0134,-53.8332
 L -86.0827,-53.8999 L -86.1487,-53.9695 L -86.2113,-54.0421 L -86.2706,-54.1179 L -86.3267,-54.1966 L -86.3798,-54.2782
 L -86.4299,-54.3628 L -86.477,-54.4502 L -86.542,-54.5868 L -86.6003,-54.7299 L -86.6517,-54.8796 L -86.6964,-55.0358
 L -86.7343,-55.1986 L -86.7767,-55.426 L -86.8105,-55.6655 L -86.8359,-55.9171 L -86.8529,-56.1806 L -86.8613,-56.4563
 L -86.8624,-57.3966 L -84.6224,-57.3966 L -84.6224,-55.9686 L -84.6197,-55.8753 L -84.6013,-55.7214 L -84.5703,-55.5998
 L -84.5362,-55.5179 L -84.4905,-55.443 L -84.4332,-55.3749 L -84.3644,-55.3136 L -84.295,-55.2682 L -84.2122,-55.2276
 L -84.0949,-55.1852 L -83.9334,-55.1446 L -83.9334,-53.1726 z
M 50.6914,-55.0791 L 50.764,-55.0876 L 50.9038,-55.1088 L 51.0364,-55.1359 L 51.1618,-55.1687 L 51.28,-55.2074
 L 51.3911,-55.2518 L 51.4439,-55.2762 L 51.4949,-55.302 L 51.5441,-55.3293 L 51.5916,-55.3581 L 51.6372,-55.3883
 L 51.6811,-55.4199 L 51.7231,-55.453 L 51.7634,-55.4875 L 51.8018,-55.5235 L 51.8385,-55.5609 L 51.8734,-55.5998
 L 51.9064,-55.6401 L 51.9381,-55.6819 L 51.9984,-55.7697 L 52.0547,-55.8634 L 52.107,-55.963 L 52.1553,-56.0683
 L 52.1995,-56.1794 L 52.2397,-56.2963 L 52.2759,-56.4191 L 52.3081,-56.5476 L 52.3362,-56.682 L 52.3603,-56.8221
 L 52.3804,-56.9681 L 54.8394,-56.8061 L 54.8236,-56.7211 L 54.7727,-56.4737 L 54.7168,-56.2375 L 54.6558,-56.0124
 L 54.5898,-55.7985 L 54.5188,-55.5958 L 54.4427,-55.4042 L 54.3892,-55.2827 L 54.3334,-55.1661 L 54.2452,-54.9991
 L 54.1512,-54.84 L 54.0853,-54.7383 L 54.0168,-54.64 L 53.9457,-54.5452 L 53.872,-54.4539 L 53.7957,-54.3661
 L 53.7169,-54.2817 L 53.6355,-54.2009 L 53.5514,-54.1235 L 53.4648,-54.0495 L 53.3751,-53.9787 L 53.2824,-53.9108
 L 53.1867,-53.8461 L 53.0879,-53.7844 L 52.9861,-53.7258 L 52.8813,-53.6702 L 52.7734,-53.6177 L 52.6625,-53.5682
 L 52.4904,-53.4997 L 52.3114,-53.4381 L 52.1253,-53.3817 L 51.8654,-53.3119 L 51.5921,-53.2483 L 51.3053,-53.191
 L 51.0051,-53.1399 L 50.6914,-53.0951 z
M 16.2015,-53.2708 L 16.2015,-55.1908 L 20.4255,-55.1908 L 20.4255,-53.2708 z
M -65.1479,-36.6362 L -66.6589,-43.4731 L -67.5479,-38.0832 L -68.5849,-42.0401 L -67.7849,-46.9722 L -65.5629,-46.9722
 L -63.0289,-36.6362 z
M -70.3329,-36.6362 L -73.2509,-46.9722 L -70.9249,-46.9722 L -68.1989,-36.6362 z
M -53.9211,-36.6042 L -53.9211,-46.9722 L -51.5951,-46.9722 L -51.5951,-36.6042 z
M -84.523,-36.6042 L -84.523,-46.9722 L -82.1971,-46.9722 L -82.1971,-36.6042 z
M -81.3651,-45.0522 L -81.3651,-46.9722 L -79.125,-46.9722 L -79.125,-45.0522 z
M -31.4024,-41.8551 L -31.5064,-46.9722 L -29.1694,-46.9722 L -29.1694,-38.1172 z
M -31.3734,-36.6042 L -37.5553,-46.9722 L -35.3663,-46.9722 L -29.1553,-36.6042 z
M -14.6984,-45.0522 L -14.6984,-46.9722 L -12.4584,-46.9722 L -12.4584,-45.0522 z
M -17.8564,-36.6042 L -17.8564,-46.9722 L -15.5304,-46.9722 L -15.5304,-36.6042 z
M -63.3699,-42.2032 L -62.3919,-46.9722 L -60.0959,-46.9722 L -62.3779,-38.0682 z
M -50.4651,-45.0522 L -50.4651,-46.9722 L -46.3691,-46.9722 L -46.3691,-45.0522 z
M -20.9704,-44.9881 L -20.9704,-46.9722 L -18.8584,-46.9722 L -18.8584,-44.9881 z
M 0.56279,-43.6792 L 1.97778,-46.9722 L 4.57079,-46.9722 L 1.72578,-41.3312 z
M 33.0493,-45.0522 L 33.0493,-46.9722 L 37.0813,-46.9722 L 37.0813,-45.0522 z
M 79.4122,-36.6042 L 79.4122,-46.9722 L 81.7382,-46.9722 L 81.7382,-36.6042 z
M -87.637,-44.9881 L -87.637,-46.9722 L -85.525,-46.9722 L -85.525,-44.9881 z
M 82.8682,-45.0522 L 82.8682,-46.9722 L 86.9642,-46.9722 L 86.9642,-45.0522 z
M 65.5292,-36.6362 L 61.8992,-46.9722 L 64.4472,-46.9722 L 67.7212,-36.6362 z
M 67.3062,-41.3612 L 68.8322,-46.9722 L 71.3362,-46.9722 L 68.3732,-37.9652 z
M 48.754,-36.6042 L 48.754,-46.9722 L 51.0799,-46.9722 L 51.0799,-36.6042 z
M 29.4653,-36.6042 L 29.4653,-46.9722 L 31.7914,-46.9722 L 31.7914,-36.6042 z
M 18.7682,-36.6042 L 12.1322,-46.9722 L 14.7692,-46.9722 L 21.3902,-36.6042 z
M 17.3172,-44.8661 L 18.5022,-46.9722 L 21.1392,-46.9722 L 18.6052,-42.8042 z
M -1.26619,-36.6362 L -1.26619,-40.5192 L -4.73219,-46.9722 L -2.1252,-46.9722 L 1.05978,-40.4752 L 1.05978,-36.6362
 z
M -37.5853,-36.6042 L -37.5853,-45.5331 L -35.3663,-41.7811 L -35.2633,-36.6042 z
M -50.4651,-41.1302 L -50.4651,-42.9951 L -46.7531,-42.9951 L -46.7531,-41.1302 z
M 82.8682,-41.1302 L 82.8682,-42.9951 L 86.5802,-42.9951 L 86.5802,-41.1302 z
M 33.0493,-40.9612 L 33.0493,-42.7991 L 36.4413,-42.7991 L 36.4413,-40.9612 z
M 11.8502,-36.6042 L 14.6352,-41.3502 L 15.9692,-39.3032 L 14.5022,-36.6042 z
M -50.4651,-36.6042 L -50.4651,-38.5242 L -46.2411,-38.5242 L -46.2411,-36.6042 z
M 82.8682,-36.6042 L 82.8682,-38.5242 L 87.0922,-38.5242 L 87.0922,-36.6042 z
M -17.1337,-19.78 L -17.328,-19.7898 L -17.5182,-19.8061 L -17.7044,-19.8289 L -17.8864,-19.8582 L -18.0643,-19.8941
 L -18.2381,-19.9364 L -18.4077,-19.9853 L -18.5733,-20.0407 L -18.7347,-20.1027 L -18.8921,-20.1711 L -19.0452,-20.2458
 L -19.1939,-20.3252 L -19.3382,-20.4091 L -19.4782,-20.4975 L -19.6138,-20.5904 L -19.7451,-20.6877 L -19.872,-20.7895
 L -19.9945,-20.8958 L -20.1127,-21.0066 L -20.2266,-21.1218 L -20.3361,-21.2416 L -20.4412,-21.3658 L -20.5418,-21.4943
 L -20.6381,-21.6266 L -20.73,-21.7627 L -20.8176,-21.9027 L -20.9009,-22.0464 L -20.9798,-22.194 L -21.0543,-22.3454
 L -21.1246,-22.5006 L -21.1905,-22.6596 L -21.252,-22.8224 L -21.3092,-22.989 L -21.362,-23.1593 L -21.4101,-23.3319
 L -21.4536,-23.5068 L -21.4926,-23.684 L -21.5269,-23.8634 L -21.5567,-24.045 L -21.5819,-24.2289 L -21.6025,-24.415
 L -21.6186,-24.6033 L -21.63,-24.7939 L -21.6369,-24.9867 L -21.6392,-25.1817 L -21.637,-25.3794 L -21.6303,-25.5744
 L -21.6191,-25.7669 L -21.6035,-25.9568 L -21.5834,-26.144 L -21.5589,-26.3287 L -21.5299,-26.5107 L -21.4964,-26.6902
 L -21.4585,-26.867 L -21.4161,-27.0412 L -21.3693,-27.2129 L -21.318,-27.3819 L -21.2624,-27.5471 L -21.2024,-27.7085
 L -21.138,-27.8659 L -21.0694,-28.0194 L -20.9964,-28.169 L -20.919,-28.3146 L -20.8373,-28.4563 L -20.7513,-28.5941
 L -20.6609,-28.7279 L -20.5663,-28.8578 L -20.4672,-28.9837 L -20.3638,-29.1057 L -20.2558,-29.2231 L -20.1435,-29.3359
 L -20.0266,-29.4443 L -19.9053,-29.5481 L -19.7796,-29.6474 L -19.6494,-29.7422 L -19.5147,-29.8324 L -19.3756,-29.9182
 L -19.232,-29.9994 L -19.0839,-30.0761 L -18.9314,-30.1481 L -18.7745,-30.2142 L -18.6133,-30.274 L -18.4478,-30.3274
 L -18.2779,-30.3746 L -18.1037,-30.4155 L -17.9251,-30.4501 L -17.7422,-30.4784 L -17.555,-30.5004 L -17.3634,-30.5162
 L -17.1675,-30.5256 L -16.9672,-30.5287 L -16.9672,-28.6087 L -17.0289,-28.6081 L -17.149,-28.6032 L -17.2648,-28.5933
 L -17.3761,-28.5786 L -17.483,-28.5588 L -17.5855,-28.5342 L -17.6836,-28.5046 L -17.7773,-28.4701 L -17.8667,-28.4306
 L -17.9516,-28.3863 L -18.0321,-28.337 L -18.1082,-28.2827 L -18.2157,-28.1948 L -18.3168,-28.101 L -18.4117,-28.0014
 L -18.5003,-27.896 L -18.5826,-27.7848 L -18.6585,-27.6678 L -18.7282,-27.5449 L -18.7916,-27.4164 L -18.8488,-27.2836
 L -18.9002,-27.1468 L -18.9458,-27.0059 L -18.9856,-26.861 L -19.0196,-26.7121 L -19.0477,-26.5591 L -19.0701,-26.402
 L -19.1066,-26.0293 L -19.1351,-25.5555 L -19.1432,-25.1397 L -19.1371,-24.8376 L -19.119,-24.5333 L -19.0825,-24.1755
 L -19.0375,-23.8674 L -18.9971,-23.6674 L -18.9605,-23.5216 L -18.9186,-23.3793 L -18.8713,-23.2405 L -18.8187,-23.1053
 L -18.7608,-22.9736 L -18.6974,-22.8456 L -18.6277,-22.7228 L -18.5517,-22.6059 L -18.4695,-22.4947 L -18.3809,-22.3893
 L -18.286,-22.2897 L -18.1849,-22.1959 L -18.0774,-22.1078 L -18.0021,-22.0526 L -17.9232,-22.002 L -17.8406,-21.9561
 L -17.7545,-21.9151 L -17.6647,-21.879 L -17.5714,-21.8476 L -17.4744,-21.8211 L -17.3738,-21.7993 L -17.2695,-21.7825
 L -17.1617,-21.7704 L -17.0503,-21.7632 L -16.9352,-21.7608 L -16.9352,-19.7768 z
M -14.3982,-27.2136 L -14.4565,-27.3887 L -14.4982,-27.4989 L -14.5423,-27.6038 L -14.5888,-27.7034 L -14.6376,-27.7978
 L -14.6888,-27.887 L -14.7422,-27.9709 L -14.7981,-28.0496 L -14.8562,-28.123 L -14.9172,-28.1912 L -14.9837,-28.2546
 L -15.0561,-28.3132 L -15.1344,-28.3669 L -15.2187,-28.4158 L -15.309,-28.46 L -15.4052,-28.4993 L -15.5073,-28.5338
 L -15.6154,-28.5635 L -15.7294,-28.5884 L -15.8493,-28.6085 L -15.9752,-28.6237 L -15.9752,-30.5287 L -15.8322,-30.5197
 L -15.6917,-30.5082 L -15.5538,-30.4942 L -15.4184,-30.4777 L -15.2854,-30.4587 L -15.155,-30.4371 L -15.0272,-30.4131
 L -14.9018,-30.3865 L -14.779,-30.3574 L -14.6587,-30.3258 L -14.5409,-30.2917 L -14.4256,-30.2551 L -14.3129,-30.216
 L -14.2027,-30.1744 L -14.095,-30.1302 L -13.9898,-30.0836 L -13.8872,-30.0344 L -13.787,-29.9828 L -13.6894,-29.9286
 L -13.5943,-29.8719 L -13.5018,-29.8127 L -13.4117,-29.751 L -13.3242,-29.6867 L -13.2391,-29.6195 L -13.1564,-29.5486
 L -13.0763,-29.4739 L -12.9986,-29.3956 L -12.9233,-29.3135 L -12.8505,-29.2278 L -12.7802,-29.1383 L -12.7123,-29.0452
 L -12.6469,-28.9483 L -12.584,-28.8478 L -12.5235,-28.7435 L -12.4655,-28.6355 L -12.41,-28.5239 L -12.3569,-28.4085
 L -12.3063,-28.2895 L -12.2582,-28.1667 L -12.2125,-28.0403 L -12.1693,-27.9101 L -12.1285,-27.7762 L -12.0903,-27.6387
 L -12.0544,-27.4974 L -12.0211,-27.3524 L -11.9902,-27.2037 L -14.3452,-27.0267 z
M 83.8452,-19.7143 L 83.8452,-21.6613 L 83.9645,-21.6857 L 84.1354,-21.7264 L 84.2966,-21.772 L 84.4483,-21.8226
 L 84.5905,-21.8781 L 84.723,-21.9386 L 84.8459,-22.0039 L 84.9225,-22.0503 L 85.0301,-22.124 L 85.131,-22.2026
 L 85.2253,-22.286 L 85.313,-22.3741 L 85.3941,-22.467 L 85.4687,-22.5647 L 85.5367,-22.6671 L 85.5982,-22.7743
 L 85.6538,-22.8862 L 85.7044,-23.0024 L 85.7499,-23.1229 L 85.7903,-23.2476 L 85.8364,-23.4205 L 85.8734,-23.601
 L 85.9015,-23.789 L 85.9377,-24.1371 L 85.9603,-24.5096 L 85.9691,-24.9066 L 85.9629,-25.4108 L 85.9373,-25.9532
 L 85.9011,-26.374 L 85.8794,-26.5258 L 85.852,-26.6735 L 85.8191,-26.8172 L 85.7805,-26.9568 L 85.7363,-27.0923
 L 85.6865,-27.2238 L 85.631,-27.3513 L 85.5688,-27.4735 L 85.4996,-27.5899 L 85.4495,-27.6643 L 85.3962,-27.7362
 L 85.3399,-27.8055 L 85.2804,-27.8721 L 85.2178,-27.9363 L 85.1521,-27.9978 L 85.0476,-28.0854 L 84.9738,-28.1404
 L 84.8954,-28.1918 L 84.8122,-28.2396 L 84.7241,-28.2837 L 84.6312,-28.3241 L 84.5334,-28.3609 L 84.4308,-28.394
 L 84.3234,-28.4234 L 84.2111,-28.4491 L 84.094,-28.4712 L 83.972,-28.4895 L 83.8452,-28.5042 L 83.8452,-30.4812
 L 84.0485,-30.4611 L 84.2471,-30.4363 L 84.4408,-30.4071 L 84.6297,-30.3733 L 84.8138,-30.3349 L 84.9931,-30.292
 L 85.1676,-30.2446 L 85.3373,-30.1926 L 85.5022,-30.1361 L 85.6623,-30.0751 L 85.8176,-30.0095 L 85.9681,-29.9394
 L 86.1138,-29.8647 L 86.2546,-29.7855 L 86.3907,-29.7017 L 86.522,-29.6134 L 86.6484,-29.5206 L 86.7701,-29.4232
 L 86.8869,-29.3213 L 86.9989,-29.2149 L 87.1062,-29.1039 L 87.2086,-28.9883 L 87.3062,-28.8682 L 87.3994,-28.7442
 L 87.4884,-28.6165 L 87.5732,-28.4853 L 87.654,-28.3504 L 87.7305,-28.212 L 87.803,-28.07 L 87.8713,-27.9243
 L 87.9355,-27.7751 L 87.9955,-27.6223 L 88.0514,-27.4659 L 88.1031,-27.3058 L 88.1507,-27.1422 L 88.1942,-26.975
 L 88.2335,-26.8042 L 88.2687,-26.6298 L 88.2998,-26.4518 L 88.3267,-26.2703 L 88.3495,-26.0851 L 88.3681,-25.8963
 L 88.3826,-25.7039 L 88.3929,-25.508 L 88.3991,-25.3084 L 88.4007,-25.0169 L 88.3934,-24.7531 L 88.3772,-24.491
 L 88.3522,-24.2307 L 88.3185,-23.9722 L 88.291,-23.8009 L 88.2597,-23.6303 L 88.2054,-23.3759 L 88.1642,-23.2073
 L 88.1192,-23.0397 L 88.0701,-22.875 L 88.017,-22.7134 L 87.9598,-22.5549 L 87.8986,-22.3996 L 87.8334,-22.2473
 L 87.7641,-22.0982 L 87.6908,-21.9522 L 87.6135,-21.8093 L 87.5321,-21.6695 L 87.4467,-21.5328 L 87.3572,-21.3993
 L 87.2638,-21.2697 L 87.1661,-21.1445 L 87.0642,-21.0238 L 86.958,-20.9075 L 86.8476,-20.7957 L 86.7329,-20.6883
 L 86.614,-20.5854 L 86.4908,-20.4869 L 86.3634,-20.3929 L 86.2317,-20.3033 L 86.0958,-20.2182 L 85.9556,-20.1379
 L 85.8839,-20.1002 L 85.811,-20.0643 L 85.737,-20.0302 L 85.6618,-19.9978 L 85.5854,-19.9672 L 85.5079,-19.9383
 L 85.4293,-19.9112 L 85.2686,-19.8622 L 85.1864,-19.8403 L 85.0188,-19.8018 L 84.8465,-19.7703 L 84.6696,-19.7458
 L 84.4881,-19.7283 L 84.3019,-19.7178 L 84.1112,-19.7143 z
M 82.1712,-19.7146 L 81.9249,-19.7309 L 81.6571,-19.7753 L 81.4941,-19.8111 L 81.3353,-19.8519 L 81.1808,-19.8978
 L 81.0305,-19.9488 L 80.8846,-20.0047 L 80.7428,-20.0657 L 80.6054,-20.1318 L 80.4722,-20.2028 L 80.3433,-20.2789
 L 80.2186,-20.3601 L 80.0982,-20.4463 L 79.9819,-20.5366 L 79.8693,-20.6302 L 79.7605,-20.727 L 79.6555,-20.8271
 L 79.5544,-20.9304 L 79.457,-21.037 L 79.3634,-21.1468 L 79.2736,-21.2599 L 79.1876,-21.3762 L 79.1054,-21.4958
 L 79.027,-21.6186 L 78.9523,-21.7446 L 78.8812,-21.873 L 78.8135,-22.0038 L 78.7493,-22.1369 L 78.6885,-22.2724
 L 78.6313,-22.4102 L 78.5774,-22.5503 L 78.5271,-22.6928 L 78.458,-22.911 L 78.3967,-23.1344 L 78.3433,-23.3629
 L 78.297,-23.5939 L 78.2575,-23.8267 L 78.2248,-24.0613 L 78.1988,-24.2977 L 78.1797,-24.5358 L 78.1672,-24.7757
 L 78.1616,-25.0173 L 78.1633,-25.2901 L 78.1697,-25.48 L 78.1803,-25.6678 L 78.1952,-25.8536 L 78.2143,-26.0374
 L 78.2377,-26.2193 L 78.2653,-26.399 L 78.2972,-26.5768 L 78.3333,-26.7526 L 78.3737,-26.9264 L 78.4183,-27.0981
 L 78.4672,-27.2677 L 78.5203,-27.4338 L 78.5777,-27.5961 L 78.6393,-27.7545 L 78.7052,-27.9091 L 78.7753,-28.0599
 L 78.8496,-28.2068 L 78.9283,-28.35 L 79.0111,-28.4893 L 79.0982,-28.6248 L 79.1896,-28.7564 L 79.2852,-28.8842
 L 79.3852,-29.0081 L 79.4896,-29.1274 L 79.5985,-29.2423 L 79.7119,-29.3527 L 79.8297,-29.4585 L 79.952,-29.5599
 L 80.0787,-29.6568 L 80.2099,-29.7492 L 80.3456,-29.8371 L 80.4857,-29.9205 L 80.6302,-29.9995 L 80.7794,-30.0737
 L 80.9331,-30.1419 L 81.0912,-30.2035 L 81.2539,-30.2586 L 81.421,-30.3073 L 81.5926,-30.3495 L 81.7687,-30.3851
 L 81.9492,-30.4143 L 82.1343,-30.437 L 82.3238,-30.4533 L 82.5178,-30.463 L 82.7162,-30.4662 L 82.7162,-28.5042
 L 82.6573,-28.4973 L 82.5426,-28.4808 L 82.4319,-28.4606 L 82.3252,-28.4367 L 82.2226,-28.4091 L 82.124,-28.3779
 L 82.0294,-28.343 L 81.9389,-28.3044 L 81.8524,-28.2621 L 81.77,-28.2162 L 81.6916,-28.1665 L 81.6172,-28.1132
 L 81.5463,-28.057 L 81.4451,-27.9684 L 81.3503,-27.8748 L 81.2619,-27.7762 L 81.1797,-27.6725 L 81.1039,-27.5638
 L 81.0344,-27.45 L 80.9712,-27.3312 L 80.9139,-27.2083 L 80.8618,-27.0816 L 80.8151,-26.9511 L 80.7737,-26.8168
 L 80.7376,-26.6788 L 80.6977,-26.4889 L 80.6672,-26.2922 L 80.629,-25.9381 L 80.6046,-25.5756 L 80.5934,-25.1511
 L 80.6012,-24.6389 L 80.6252,-24.2072 L 80.6592,-23.8513 L 80.6869,-23.658 L 80.7137,-23.5184 L 80.7459,-23.3832
 L 80.7833,-23.2525 L 80.826,-23.1263 L 80.874,-23.0045 L 80.9273,-22.8873 L 80.9861,-22.7747 L 81.0514,-22.6667
 L 81.1232,-22.5636 L 81.2015,-22.4652 L 81.2864,-22.3716 L 81.3778,-22.2827 L 81.4757,-22.1986 L 81.5802,-22.1193
 L 81.6543,-22.0691 L 81.7328,-22.0211 L 81.8158,-21.9753 L 81.9032,-21.9318 L 82.0427,-21.8707 L 82.1923,-21.8146
 L 82.3519,-21.7635 L 82.5215,-21.7174 L 82.7012,-21.6763 L 82.7012,-19.7143 z
M -4.30371,-28.3215 L -4.30371,-30.3055 L -2.1917,-30.3055 L -2.1917,-28.3215 z
M 1.96828,-28.3855 L 1.96828,-30.3055 L 4.20828,-30.3055 L 4.20828,-28.3855 z
M -1.1897,-19.9375 L -1.1897,-30.3055 L 1.13628,-30.3055 L 1.13628,-19.9375 z
M -33.6173,-28.3855 L -33.6173,-30.3055 L -29.5853,-30.3055 L -29.5853,-28.3855 z
M -53.6668,-19.9375 L -53.6668,-30.3055 L -51.3408,-30.3055 L -51.3408,-19.9375 z
M -71.6523,-19.9695 L -68.0823,-30.3055 L -65.4153,-30.3055 L -61.7713,-19.9695 L -64.3783,-19.9695 L -65.0603,-22.1775
 L -67.3713,-22.1775 L -66.8083,-24.0395 L -65.6523,-24.0395 L -65.8902,-24.8151 L -66.3386,-26.1832 L -66.417,-26.4409
 L -66.4881,-26.7007 L -66.5519,-26.9624 L -66.6084,-27.2262 L -66.6576,-27.4919 L -66.6996,-27.7597 L -66.7343,-28.0295
 L -66.9633,-26.9509 L -69.0153,-19.9695 z
M -87.6142,-19.9375 L -87.6142,-30.3055 L -85.2881,-30.3055 L -85.2881,-19.9375 z
M -37.2013,-19.9375 L -37.2013,-30.3055 L -34.8753,-30.3055 L -34.8753,-19.9375 z
M -81.4922,-19.9375 L -81.4922,-24.4175 L -84.1631,-24.4175 L -84.1631,-26.3375 L -81.4922,-26.3375 L -81.4922,-30.3055
 L -79.1662,-30.3055 L -79.1662,-19.9375 z
M 12.7455,-19.9375 L 12.7455,-30.3055 L 15.0715,-30.3055 L 15.0715,-19.9375 z
M 35.2643,-25.1885 L 35.1603,-30.3055 L 37.4973,-30.3055 L 37.4973,-21.4505 z
M 35.2933,-19.9375 L 29.1113,-30.3055 L 31.3003,-30.3055 L 37.5113,-19.9375 z
M 49.5349,-28.3855 L 49.5349,-30.3055 L 53.6309,-30.3055 L 53.6309,-28.3855 z
M 46.0789,-19.9375 L 46.0789,-30.3055 L 48.4049,-30.3055 L 48.4049,-19.9375 z
M 68.6349,-28.3855 L 68.6349,-30.3055 L 70.8749,-30.3055 L 70.8749,-28.3855 z
M 62.3629,-28.3215 L 62.3629,-30.3055 L 64.475,-30.3055 L 64.475,-28.3215 z
M 65.477,-19.9375 L 65.477,-30.3055 L 67.8029,-30.3055 L 67.8029,-19.9375 z
M 16.2015,-28.3855 L 16.2015,-30.3055 L 20.2975,-30.3055 L 20.2975,-28.3855 z
M 29.0813,-19.9375 L 29.0813,-28.8665 L 31.3003,-25.1145 L 31.4033,-19.9375 z
M 49.5349,-24.4635 L 49.5349,-26.3285 L 53.2469,-26.3285 L 53.2469,-24.4635 z
M 16.2015,-24.4635 L 16.2015,-26.3285 L 19.9135,-26.3285 L 19.9135,-24.4635 z
M -33.6173,-24.2945 L -33.6173,-26.1325 L -30.2253,-26.1325 L -30.2253,-24.2945 z
M -15.9752,-21.7458 L -15.9026,-21.7542 L -15.7629,-21.7755 L -15.6303,-21.8026 L -15.5049,-21.8354 L -15.3866,-21.8741
 L -15.2756,-21.9185 L -15.2228,-21.9429 L -15.1718,-21.9687 L -15.1225,-21.996 L -15.0751,-22.0247 L -15.0294,-22.0549
 L -14.9856,-22.0866 L -14.9435,-22.1196 L -14.9033,-22.1542 L -14.8648,-22.1901 L -14.8282,-22.2276 L -14.7933,-22.2664
 L -14.7602,-22.3068 L -14.7285,-22.3485 L -14.6682,-22.4364 L -14.6119,-22.5301 L -14.5596,-22.6296 L -14.5114,-22.7349
 L -14.4671,-22.8461 L -14.4269,-22.963 L -14.3907,-23.0857 L -14.3586,-23.2143 L -14.3304,-23.3486 L -14.3063,-23.4888
 L -14.2862,-23.6348 L -11.8272,-23.4728 L -11.8431,-23.3878 L -11.894,-23.1404 L -11.9499,-22.9042 L -12.0108,-22.6791
 L -12.0768,-22.4652 L -12.1479,-22.2625 L -12.224,-22.0708 L -12.2775,-21.9493 L -12.3332,-21.8328 L -12.4214,-21.6658
 L -12.5155,-21.5067 L -12.5814,-21.4049 L -12.6499,-21.3067 L -12.721,-21.2119 L -12.7947,-21.1206 L -12.8709,-21.0328
 L -12.9498,-20.9484 L -13.0312,-20.8675 L -13.1152,-20.7901 L -13.2019,-20.7162 L -13.2915,-20.6453 L -13.3842,-20.5775
 L -13.48,-20.5128 L -13.5787,-20.4511 L -13.6805,-20.3924 L -13.7854,-20.3369 L -13.8933,-20.2843 L -14.0042,-20.2348
 L -14.1763,-20.1664 L -14.3552,-20.1048 L -14.5413,-20.0483 L -14.8013,-19.9786 L -15.0746,-19.915 L -15.3614,-19.8577
 L -15.6616,-19.8066 L -15.9752,-19.7618 z
M 16.2015,-19.9375 L 16.2015,-21.8575 L 20.4255,-21.8575 L 20.4255,-19.9375 z
M 49.5349,-19.9375 L 49.5349,-21.8575 L 53.7589,-21.8575 L 53.7589,-19.9375 z
M -50.2108,-19.9375 L -50.2108,-21.8575 L -46.4348,-21.8575 L -46.4348,-19.9375 z
M 1.81395,-10.6549 L 1.73065,-11.1734 L 1.69345,-11.3054 L 1.65475,-11.4048 L 1.60907,-11.4944 L 1.55643,-11.5743
 L 1.49565,-11.6459 L 1.42572,-11.7099 L 1.34662,-11.7661 L 1.25835,-11.8148 L 1.15955,-11.8562 L 1.01964,-11.8992
 L 0.825958,-11.9405 L 0.599472,-11.9721 L 0.599472,-13.8621 L 0.806473,-13.8031 L 0.907547,-13.802 L 1.00743,-13.7987
 L 1.10616,-13.7932 L 1.2037,-13.7855 L 1.30009,-13.7756 L 1.39529,-13.7635 L 1.48933,-13.7493 L 1.58218,-13.7328
 L 1.67387,-13.7141 L 1.7644,-13.6932 L 1.85374,-13.6702 L 1.94191,-13.6449 L 2.02892,-13.6175 L 2.11475,-13.5878
 L 2.1994,-13.556 L 2.2829,-13.5219 L 2.3652,-13.4857 L 2.44635,-13.4472 L 2.52632,-13.4066 L 2.60512,-13.3638
 L 2.68274,-13.3187 L 2.7592,-13.2715 L 2.83447,-13.2221 L 2.90814,-13.1705 L 2.97972,-13.1167 L 3.04924,-13.0606
 L 3.11668,-13.0023 L 3.18205,-12.9417 L 3.24536,-12.8788 L 3.30658,-12.8137 L 3.36574,-12.7464 L 3.42282,-12.6767
 L 3.47784,-12.6049 L 3.53078,-12.5307 L 3.58165,-12.4543 L 3.63045,-12.3757 L 3.67717,-12.2948 L 3.72183,-12.2116
 L 3.76442,-12.1262 L 3.80492,-12.0385 L 3.84337,-11.9486 L 3.87973,-11.8564 L 3.91402,-11.762 L 3.94624,-11.6653
 L 3.97639,-11.5663 L 4.00447,-11.4651 L 4.04498,-11.3 L 4.15248,-10.6021 L 1.84148,-10.4231 z
M 0.599472,-4.99408 L 0.708282,-4.99687 L 0.90033,-5.01595 L 1.08748,-5.05309 L 1.22757,-5.09563 L 1.35933,-5.15021
 L 1.48274,-5.21684 L 1.58081,-5.28436 L 1.65433,-5.34909 L 1.7202,-5.42149 L 1.77841,-5.50154 L 1.82892,-5.58928
 L 1.86249,-5.66595 L 1.88934,-5.74886 L 1.91348,-5.86125 L 1.92712,-5.98337 L 1.92999,-6.12506 L 1.92607,-6.19708
 L 1.91824,-6.26653 L 1.90648,-6.33337 L 1.89082,-6.39764 L 1.87123,-6.45932 L 1.84773,-6.51842 L 1.82031,-6.57492
 L 1.78899,-6.62885 L 1.75372,-6.68018 L 1.71457,-6.72893 L 1.67148,-6.77509 L 1.60126,-6.841 L 1.52524,-6.90361
 L 1.44337,-6.96294 L 1.3252,-7.03688 L 1.19667,-7.10497 L 1.05779,-7.16718 L 0.908966,-7.22409 L 0.630524,-7.31676
 L 0.330017,-7.40109 L -1.20831,-7.76088 L -1.64897,-7.8835 L -2.08319,-8.02417 L -2.36745,-8.12952 L -2.54906,-8.20914
 L -2.72346,-8.29681 L -2.89067,-8.3925 L -3.05069,-8.49626 L -3.16599,-8.57936 L -3.27682,-8.66731 L -3.38199,-8.76117
 L -3.48137,-8.86102 L -3.57497,-8.96684 L -3.66278,-9.07867 L -3.74481,-9.19649 L -3.82104,-9.32028 L -3.89151,-9.45007
 L -3.93443,-9.54073 L -3.97345,-9.6353 L -4.00856,-9.73378 L -4.03978,-9.83618 L -4.06708,-9.9425 L -4.0905,-10.0527
 L -4.11,-10.1669 L -4.12561,-10.285 L -4.13731,-10.407 L -4.14511,-10.5329 L -4.14902,-10.6627 L -4.149,-10.803
 L -4.14499,-10.948 L -4.13693,-11.0891 L -4.12486,-11.2263 L -4.10878,-11.3596 L -4.08867,-11.4891 L -4.06453,-11.6146
 L -4.03638,-11.7363 L -4.00418,-11.8541 L -3.96799,-11.968 L -3.92776,-12.078 L -3.88351,-12.1841 L -3.83568,-12.2865
 L -3.78473,-12.3855 L -3.73064,-12.4809 L -3.67342,-12.5729 L -3.61307,-12.6615 L -3.54959,-12.7465 L -3.48299,-12.8281
 L -3.41325,-12.9062 L -3.34038,-12.9808 L -3.26437,-13.0519 L -3.18524,-13.1196 L -3.10295,-13.1839 L -2.97429,-13.2747
 L -2.88516,-13.3315 L -2.74644,-13.411 L -2.60172,-13.4837 L -2.45096,-13.5496 L -2.29419,-13.6087 L -2.13139,-13.661
 L -1.96262,-13.7065 L -1.78964,-13.7461 L -1.61319,-13.7798 L -1.43327,-13.8078 L -1.24988,-13.8299 L -1.06302,-13.8463
 L -0.808472,-13.8592 L -0.524506,-13.8621 L -0.524506,-12.0021 L -0.675125,-11.9986 L -0.959671,-11.9712 L -1.12904,-11.9362
 L -1.25162,-11.8935 L -1.36623,-11.8368 L -1.45686,-11.7771 L -1.52486,-11.7182 L -1.58594,-11.6508 L -1.64012,-11.5749
 L -1.68727,-11.4906 L -1.71843,-11.4163 L -1.74335,-11.3353 L -1.76573,-11.2247 L -1.7784,-11.1035 L -1.78101,-10.9648
 L -1.77699,-10.8981 L -1.76898,-10.834 L -1.75696,-10.7725 L -1.74094,-10.7135 L -1.72089,-10.657 L -1.69685,-10.6031
 L -1.66879,-10.5518 L -1.63673,-10.5031 L -1.60066,-10.4568 L -1.56059,-10.4132 L -1.51651,-10.3721 L -1.41908,-10.2949
 L -1.31186,-10.2227 L -1.19484,-10.1554 L -1.06802,-10.0931 L -0.931396,-10.0358 L -0.747177,-9.97089 L -0.469482,-9.88869
 L -0.169922,-9.81575 L 0.727707,-9.63992 L 1.41327,-9.47829 L 1.75523,-9.38034 L 2.09311,-9.26869 L 2.42682,-9.14316
 L 2.56613,-9.0827 L 2.70142,-9.01671 L 2.83263,-8.94518 L 2.95981,-8.86809 L 3.08293,-8.78545 L 3.20201,-8.69727
 L 3.31703,-8.60355 L 3.42763,-8.50418 L 3.53253,-8.39819 L 3.63165,-8.28545 L 3.72499,-8.16591 L 3.81253,-8.03961
 L 3.8943,-7.90654 L 3.97028,-7.76669 L 4.04048,-7.62009 L 4.08339,-7.51796 L 4.12241,-7.41156 L 4.15753,-7.30089
 L 4.18874,-7.18597 L 4.21605,-7.06677 L 4.23946,-6.94333 L 4.25897,-6.8156 L 4.27458,-6.68362 L 4.28629,-6.54736
 L 4.29408,-6.40686 L 4.29799,-6.26207 L 4.29703,-6.09619 L 4.2894,-5.96001 L 4.27525,-5.82584 L 4.25456,-5.69366
 L 4.22734,-5.56351 L 4.19359,-5.43536 L 4.15329,-5.30922 L 4.10648,-5.18509 L 4.036,-5.02382 L 3.9574,-4.86835
 L 3.8707,-4.71869 L 3.77589,-4.57484 L 3.67297,-4.43681 L 3.56207,-4.30458 L 3.44403,-4.17848 L 3.31885,-4.05859
 L 3.18652,-3.94495 L 3.04706,-3.83752 L 2.90045,-3.73634 L 2.74727,-3.64166 L 2.59088,-3.55518 L 2.43181,-3.47716
 L 2.27008,-3.40761 L 2.1057,-3.34653 L 1.93866,-3.29391 L 1.36574,-3.14661 L 0.599472,-3.06108 z
M -49.4005,-4.99408 L -49.2917,-4.99687 L -49.0997,-5.01595 L -48.9125,-5.05309 L -48.7724,-5.09563 L -48.6407,-5.15021
 L -48.5173,-5.21684 L -48.4192,-5.28436 L -48.3457,-5.34909 L -48.2798,-5.42149 L -48.2216,-5.50154 L -48.1711,-5.58928
 L -48.1375,-5.66595 L -48.1107,-5.74886 L -48.0865,-5.86125 L -48.0729,-5.98337 L -48.07,-6.12506 L -48.0739,-6.19708
 L -48.0818,-6.26653 L -48.0935,-6.33337 L -48.1092,-6.39764 L -48.1288,-6.45932 L -48.1523,-6.51842 L -48.1797,-6.57492
 L -48.211,-6.62885 L -48.2463,-6.68018 L -48.2854,-6.72893 L -48.3285,-6.77509 L -48.3987,-6.841 L -48.4748,-6.90361
 L -48.5566,-6.96294 L -48.6748,-7.03688 L -48.8033,-7.10497 L -48.9422,-7.16718 L -49.091,-7.22409 L -49.3695,-7.31676
 L -49.67,-7.40109 L -51.2083,-7.76088 L -51.649,-7.8835 L -52.0832,-8.02417 L -52.3674,-8.12952 L -52.5491,-8.20914
 L -52.7235,-8.29681 L -52.8907,-8.3925 L -53.0507,-8.49626 L -53.166,-8.57936 L -53.2768,-8.66731 L -53.382,-8.76117
 L -53.4814,-8.86102 L -53.575,-8.96684 L -53.6628,-9.07867 L -53.7448,-9.19649 L -53.821,-9.32028 L -53.8915,-9.45007
 L -53.9344,-9.54073 L -53.9734,-9.6353 L -54.0086,-9.73378 L -54.0398,-9.83618 L -54.0671,-9.9425 L -54.0905,-10.0527
 L -54.11,-10.1669 L -54.1256,-10.285 L -54.1373,-10.407 L -54.1451,-10.5329 L -54.149,-10.6627 L -54.149,-10.803
 L -54.145,-10.948 L -54.1369,-11.0891 L -54.1249,-11.2263 L -54.1088,-11.3596 L -54.0887,-11.4891 L -54.0645,-11.6146
 L -54.0364,-11.7363 L -54.0042,-11.8541 L -53.968,-11.968 L -53.9278,-12.078 L -53.8835,-12.1841 L -53.8357,-12.2865
 L -53.7847,-12.3855 L -53.7306,-12.4809 L -53.6734,-12.5729 L -53.6131,-12.6615 L -53.5496,-12.7465 L -53.483,-12.8281
 L -53.4133,-12.9062 L -53.3404,-12.9808 L -53.2644,-13.0519 L -53.1852,-13.1196 L -53.103,-13.1839 L -52.9743,-13.2747
 L -52.8852,-13.3315 L -52.7464,-13.411 L -52.6017,-13.4837 L -52.451,-13.5496 L -52.2942,-13.6087 L -52.1314,-13.661
 L -51.9626,-13.7065 L -51.7896,-13.7461 L -51.6132,-13.7798 L -51.4333,-13.8078 L -51.2499,-13.8299 L -51.063,-13.8463
 L -50.8085,-13.8592 L -50.5245,-13.8621 L -50.5245,-12.0021 L -50.6751,-11.9986 L -50.9597,-11.9712 L -51.129,-11.9362
 L -51.2516,-11.8935 L -51.3662,-11.8368 L -51.4569,-11.7771 L -51.5249,-11.7182 L -51.5859,-11.6508 L -51.6401,-11.5749
 L -51.6873,-11.4906 L -51.7184,-11.4163 L -51.7433,-11.3353 L -51.7657,-11.2247 L -51.7784,-11.1035 L -51.781,-10.9648
 L -51.777,-10.8981 L -51.769,-10.834 L -51.757,-10.7725 L -51.7409,-10.7135 L -51.7209,-10.657 L -51.6969,-10.6031
 L -51.6688,-10.5518 L -51.6367,-10.5031 L -51.6007,-10.4568 L -51.5606,-10.4132 L -51.5165,-10.3721 L -51.4191,-10.2949
 L -51.3119,-10.2227 L -51.1948,-10.1554 L -51.068,-10.0931 L -50.9314,-10.0358 L -50.7472,-9.97089 L -50.4695,-9.88869
 L -50.1699,-9.81575 L -49.2723,-9.63992 L -48.5867,-9.47829 L -48.2448,-9.38034 L -47.9069,-9.26869 L -47.5732,-9.14316
 L -47.4339,-9.0827 L -47.2986,-9.01671 L -47.1674,-8.94518 L -47.0402,-8.86809 L -46.9171,-8.78545 L -46.798,-8.69727
 L -46.683,-8.60355 L -46.5724,-8.50418 L -46.4675,-8.39819 L -46.3683,-8.28545 L -46.275,-8.16591 L -46.1875,-8.03961
 L -46.1057,-7.90654 L -46.0297,-7.76669 L -45.9595,-7.62009 L -45.9166,-7.51796 L -45.8776,-7.41156 L -45.8425,-7.30089
 L -45.8113,-7.18597 L -45.784,-7.06677 L -45.7605,-6.94333 L -45.741,-6.8156 L -45.7254,-6.68362 L -45.7137,-6.54736
 L -45.7059,-6.40686 L -45.702,-6.26207 L -45.703,-6.09619 L -45.7106,-5.96001 L -45.7247,-5.82584 L -45.7454,-5.69366
 L -45.7727,-5.56351 L -45.8064,-5.43536 L -45.8467,-5.30922 L -45.8935,-5.18509 L -45.964,-5.02382 L -46.0426,-4.86835
 L -46.1293,-4.71869 L -46.2241,-4.57484 L -46.327,-4.43681 L -46.4379,-4.30458 L -46.556,-4.17848 L -46.6812,-4.05859
 L -46.8135,-3.94495 L -46.9529,-3.83752 L -47.0995,-3.73634 L -47.2527,-3.64166 L -47.4091,-3.55518 L -47.5682,-3.47716
 L -47.7299,-3.40761 L -47.8943,-3.34653 L -48.0613,-3.29391 L -48.6343,-3.14661 L -49.4005,-3.06108 z
M -48.1861,-10.6549 L -48.2693,-11.1734 L -48.3065,-11.3054 L -48.3452,-11.4048 L -48.3909,-11.4944 L -48.4436,-11.5743
 L -48.5043,-11.6459 L -48.5743,-11.7099 L -48.6534,-11.7661 L -48.7417,-11.8148 L -48.8405,-11.8562 L -48.9804,-11.8992
 L -49.174,-11.9405 L -49.4005,-11.9721 L -49.4005,-13.8621 L -49.1935,-13.8031 L -49.0925,-13.802 L -48.9926,-13.7987
 L -48.8938,-13.7932 L -48.7963,-13.7855 L -48.6999,-13.7756 L -48.6047,-13.7635 L -48.5107,-13.7493 L -48.4178,-13.7328
 L -48.3261,-13.7141 L -48.2356,-13.6932 L -48.1463,-13.6702 L -48.0581,-13.6449 L -47.9711,-13.6175 L -47.8853,-13.5878
 L -47.8006,-13.556 L -47.7171,-13.5219 L -47.6348,-13.4857 L -47.5536,-13.4472 L -47.4737,-13.4066 L -47.3949,-13.3638
 L -47.3173,-13.3187 L -47.2408,-13.2715 L -47.1655,-13.2221 L -47.0919,-13.1705 L -47.0203,-13.1167 L -46.9508,-13.0606
 L -46.8833,-13.0023 L -46.8179,-12.9417 L -46.7546,-12.8788 L -46.6934,-12.8137 L -46.6343,-12.7464 L -46.5772,-12.6767
 L -46.5222,-12.6049 L -46.4692,-12.5307 L -46.4184,-12.4543 L -46.3696,-12.3757 L -46.3228,-12.2948 L -46.2782,-12.2116
 L -46.2356,-12.1262 L -46.1951,-12.0385 L -46.1566,-11.9486 L -46.1203,-11.8564 L -46.086,-11.762 L -46.0538,-11.6653
 L -46.0236,-11.5663 L -45.9955,-11.4651 L -45.955,-11.3 L -45.8475,-10.6021 L -48.1585,-10.4231 z
M 68.5976,-8.52182 L 68.4936,-13.6388 L 70.8306,-13.6388 L 70.8306,-4.78383 z
M -71.6523,-3.30284 L -68.0823,-13.6388 L -65.4153,-13.6388 L -61.7713,-3.30284 L -64.3783,-3.30284 L -65.0603,-5.51083
 L -67.3713,-5.51083 L -66.8083,-7.37283 L -65.6523,-7.37283 L -65.8902,-8.14845 L -66.3386,-9.51653 L -66.417,-9.77426
 L -66.4881,-10.034 L -66.5519,-10.2957 L -66.6084,-10.5595 L -66.6576,-10.8253 L -66.6996,-11.093 L -66.7343,-11.3628
 L -66.9633,-10.2842 L -69.0153,-3.30284 z
M -31.3651,-11.7188 L -31.3651,-13.6388 L -29.125,-13.6388 L -29.125,-11.7188 z
M -37.637,-11.6548 L -37.637,-13.6388 L -35.525,-13.6388 L -35.525,-11.6548 z
M -34.523,-3.27083 L -34.523,-13.6388 L -32.1971,-13.6388 L -32.1971,-3.27083 z
M -83.9357,-6.85484 L -83.9357,-8.73982 L -83.1947,-8.73982 L -83.0381,-8.74156 L -82.6701,-8.76248 L -82.4486,-8.79305
 L -82.3379,-8.82277 L -82.2559,-8.85411 L -82.1799,-8.89215 L -82.1096,-8.93692 L -82.0451,-8.98874 L -81.9863,-9.04861
 L -81.9333,-9.11653 L -81.8862,-9.19249 L -81.845,-9.2765 L -81.8096,-9.36855 L -81.78,-9.46991 L -81.7506,-9.61292
 L -81.7296,-9.77408 L -81.7154,-9.99141 L -81.7139,-10.262 L -81.7233,-10.4698 L -81.7366,-10.613 L -81.7552,-10.7454
 L -81.7791,-10.8669 L -81.8083,-10.9775 L -81.8428,-11.0773 L -81.8687,-11.1378 L -81.9116,-11.2215 L -81.9587,-11.2984
 L -82.0101,-11.3684 L -82.0658,-11.4316 L -82.1258,-11.488 L -82.1901,-11.5375 L -82.2586,-11.5802 L -82.3314,-11.6162
 L -82.4345,-11.6568 L -82.5447,-11.6892 L -82.6621,-11.7135 L -82.7866,-11.7297 L -82.9182,-11.7378 L -83.9357,-11.7388
 L -83.9357,-13.6388 L -82.3997,-13.6388 L -82.188,-13.6354 L -81.985,-13.6251 L -81.7905,-13.608 L -81.6046,-13.5841
 L -81.4273,-13.5533 L -81.2587,-13.5157 L -81.0986,-13.4713 L -80.9471,-13.42 L -80.8503,-13.3821 L -80.7568,-13.341
 L -80.6667,-13.2967 L -80.5799,-13.2493 L -80.4966,-13.1987 L -80.4165,-13.145 L -80.3398,-13.0881 L -80.2665,-13.028
 L -80.1966,-12.9648 L -80.13,-12.8984 L -80.0667,-12.8288 L -80.0065,-12.7561 L -79.9491,-12.6797 L -79.8947,-12.5998
 L -79.8431,-12.5162 L -79.7945,-12.429 L -79.7488,-12.3383 L -79.7061,-12.2439 L -79.6662,-12.146 L -79.6119,-11.9923
 L -79.5642,-11.8306 L -79.5226,-11.6608 L -79.4866,-11.4828 L -79.4561,-11.2965 L -79.4311,-11.1018 L -79.4117,-10.8988
 L -79.3978,-10.6875 L -79.388,-10.3927 L -79.3882,-10.0719 L -79.3962,-9.82915 L -79.4109,-9.59752 L -79.4325,-9.377
 L -79.4608,-9.16756 L -79.496,-8.96922 L -79.538,-8.78198 L -79.5697,-8.6633 L -79.6044,-8.54953 L -79.6423,-8.4399
 L -79.6834,-8.3342 L -79.7277,-8.23244 L -79.7752,-8.1346 L -79.826,-8.0407 L -79.8801,-7.95073 L -79.9373,-7.86469
 L -79.9978,-7.78258 L -80.0616,-7.70439 L -80.1285,-7.63014 L -80.1987,-7.55983 L -80.2723,-7.49329 L -80.3493,-7.43031
 L -80.4299,-7.37093 L -80.5139,-7.31512 L -80.6013,-7.26289 L -80.6923,-7.21426 L -80.7867,-7.1692 L -80.8846,-7.12775
 L -80.986,-7.08986 L -81.0909,-7.05556 L -81.1992,-7.02486 L -81.3681,-6.98488 L -81.5447,-6.95038 L -81.7292,-6.92119
 L -81.9214,-6.89731 L -82.1899,-6.8737 L -82.4724,-6.85956 L -82.7687,-6.85484 z
M -20.9817,-3.27083 L -20.9817,-13.6388 L -18.6557,-13.6388 L -18.6557,-3.27083 z
M 16.2015,-11.7188 L 16.2015,-13.6388 L 20.2975,-13.6388 L 20.2975,-11.7188 z
M 33.9729,-8.02783 L 35.4989,-13.6388 L 38.0029,-13.6388 L 35.0399,-4.63184 z
M -87.3867,-3.27083 L -87.3867,-13.6388 L -85.0607,-13.6388 L -85.0607,-3.27083 z
M 79.6665,-3.27083 L 79.6665,-13.6388 L 81.9926,-13.6388 L 81.9926,-3.27083 z
M 46.0789,-3.27083 L 46.0789,-13.6388 L 48.4049,-13.6388 L 48.4049,-3.27083 z
M 49.5349,-11.7188 L 49.5349,-13.6388 L 53.6309,-13.6388 L 53.6309,-11.7188 z
M 32.1959,-3.30284 L 28.5659,-13.6388 L 31.1139,-13.6388 L 34.3879,-3.30284 z
M 12.7455,-3.27083 L 12.7455,-13.6388 L 15.0715,-13.6388 L 15.0715,-3.27083 z
M -17.5467,-5.23384 L -16.6905,-5.19963 L -16.2283,-5.23734 L -16.0682,-5.26476 L -15.915,-5.30249 L -15.7689,-5.35051
 L -15.6297,-5.40883 L -15.5244,-5.46371 L -15.4253,-5.52609 L -15.3325,-5.59598 L -15.246,-5.67337 L -15.1658,-5.75826
 L -15.092,-5.85075 L -15.059,-5.90065 L -15.0291,-5.95331 L -15.0024,-6.00874 L -14.9682,-6.09708 L -14.9411,-6.19165
 L -14.921,-6.29243 L -14.908,-6.39946 L -14.9021,-6.51271 L -14.9032,-6.62447 L -14.9109,-6.72864 L -14.9251,-6.82704
 L -14.9459,-6.91971 L -14.9733,-7.00661 L -15.0072,-7.08777 L -15.0477,-7.16318 L -15.0947,-7.23283 L -15.1651,-7.31813
 L -15.2417,-7.39592 L -15.3247,-7.46622 L -15.4141,-7.52901 L -15.5098,-7.58429 L -15.6117,-7.63213 L -15.7453,-7.68317
 L -15.8851,-7.72514 L -16.0314,-7.75803 L -16.2152,-7.78552 L -16.6504,-7.81885 L -17.1677,-7.82584 L -17.5467,-7.79584
 L -17.5467,-9.63582 L -17.3327,-9.63582 L -16.3506,-9.60703 L -16.2117,-9.61438 L -16.0763,-9.63222 L -15.9445,-9.66054
 L -15.8161,-9.69936 L -15.6922,-9.74867 L -15.577,-9.80734 L -15.4708,-9.87509 L -15.3925,-9.93584 L -15.3199,-10.0024
 L -15.2538,-10.0751 L -15.2113,-10.1353 L -15.1754,-10.2005 L -15.146,-10.2709 L -15.1231,-10.3462 L -15.1068,-10.4267
 L -15.097,-10.5122 L -15.0937,-10.6028 L -15.0969,-10.6973 L -15.1064,-10.7867 L -15.1222,-10.871 L -15.1444,-10.9502
 L -15.1729,-11.0242 L -15.2077,-11.0932 L -15.2488,-11.1571 L -15.296,-11.216 L -15.3651,-11.2889 L -15.4406,-11.3554
 L -15.5224,-11.4157 L -15.6106,-11.4697 L -15.7051,-11.5173 L -15.8312,-11.5686 L -15.9886,-11.6188 L -16.1521,-11.6566
 L -16.3218,-11.6821 L -16.6356,-11.7067 L -17.2197,-11.7178 L -17.5617,-11.6888 L -17.5617,-13.6388 L -17.1897,-13.6388
 L -16.6859,-13.6308 L -16.102,-13.6028 L -15.5692,-13.5599 L -15.3723,-13.535 L -15.1795,-13.5037 L -14.9908,-13.4658
 L -14.8062,-13.4213 L -14.6256,-13.3704 L -14.4491,-13.3129 L -14.2767,-13.2488 L -14.1648,-13.2021 L -14.0565,-13.1514
 L -13.9517,-13.0966 L -13.8506,-13.0379 L -13.753,-12.9751 L -13.6591,-12.9082 L -13.5688,-12.8374 L -13.482,-12.7625
 L -13.3989,-12.6836 L -13.3193,-12.6007 L -13.2434,-12.5138 L -13.1713,-12.4227 L -13.1374,-12.3751 L -13.1051,-12.326
 L -13.0743,-12.2754 L -13.0452,-12.2234 L -13.0175,-12.1699 L -12.9915,-12.1149 L -12.9671,-12.0584 L -12.923,-11.941
 L -12.8851,-11.8177 L -12.8536,-11.6885 L -12.8284,-11.5533 L -12.8094,-11.4123 L -12.7968,-11.2653 L -12.7905,-11.1125
 L -12.7905,-10.9616 L -12.7961,-10.8213 L -12.8073,-10.6864 L -12.8242,-10.557 L -12.8467,-10.433 L -12.8748,-10.3144
 L -12.9086,-10.2012 L -12.948,-10.0935 L -12.993,-9.99117 L -13.0436,-9.89429 L -13.0999,-9.80284 L -13.1617,-9.71683
 L -13.2289,-9.63431 L -13.301,-9.55301 L -13.3781,-9.47295 L -13.4601,-9.3941 L -13.547,-9.31648 L -13.6389,-9.24008
 L -13.7358,-9.16492 L -13.8903,-9.05446 L -14.056,-8.94676 L -14.2327,-8.84183 L -14.093,-8.77324 L -13.959,-8.7014
 L -13.8308,-8.62631 L -13.7084,-8.54799 L -13.5917,-8.4664 L -13.4808,-8.38156 L -13.3756,-8.29349 L -13.2762,-8.20213
 L -13.1826,-8.10754 L -13.0947,-8.0097 L -13.0126,-7.9086 L -12.9363,-7.80412 L -12.9005,-7.75014 L -12.8664,-7.69489
 L -12.834,-7.63838 L -12.8032,-7.58061 L -12.7741,-7.52159 L -12.7467,-7.46129 L -12.7209,-7.39973 L -12.6968,-7.33691
 L -12.6743,-7.27283 L -12.6344,-7.14087 L -12.6011,-7.00386 L -12.5745,-6.86182 L -12.5545,-6.71471 L -12.5412,-6.56255
 L -12.5346,-6.40533 L -12.534,-6.28242 L -12.5411,-6.11333 L -12.5575,-5.94507 L -12.5833,-5.77765 L -12.6184,-5.6111
 L -12.663,-5.44537 L -12.7168,-5.28123 L -12.7792,-5.12198 L -12.8502,-4.96797 L -12.9297,-4.81924 L -13.0177,-4.67577
 L -13.1143,-4.53757 L -13.1969,-4.43312 L -13.2853,-4.33182 L -13.3767,-4.23628 L -13.4712,-4.14648 L -13.5687,-4.06245
 L -13.6693,-3.98416 L -13.773,-3.91162 L -13.8797,-3.84483 L -14.0255,-3.76332 L -14.2128,-3.67088 L -14.4056,-3.58891
 L -14.604,-3.51746 L -14.8079,-3.45653 L -14.9738,-3.41629 L -15.1415,-3.38411 L -15.311,-3.35997 L -15.4823,-3.34389
 L -15.6555,-3.33585 L -17.5467,-3.33484 z
M 68.6266,-3.27083 L 62.4446,-13.6388 L 64.6337,-13.6388 L 70.8446,-3.27083 z
M 62.4146,-3.27083 L 62.4146,-12.1998 L 64.6337,-8.44781 L 64.7366,-3.27083 z
M 49.5349,-7.79683 L 49.5349,-9.66182 L 53.2469,-9.66182 L 53.2469,-7.79683 z
M 16.2015,-7.79683 L 16.2015,-9.66182 L 19.9135,-9.66182 L 19.9135,-7.79683 z
M -50.9845,-3.04608 L -51.1216,-3.04877 L -51.577,-3.09058 L -51.7065,-3.1087 L -51.8329,-3.12946 L -51.9563,-3.15283
 L -52.0768,-3.17885 L -52.1941,-3.20749 L -52.3085,-3.23877 L -52.4198,-3.27267 L -52.5282,-3.30922 L -52.6335,-3.34839
 L -52.7357,-3.3902 L -52.835,-3.43463 L -52.9312,-3.4817 L -53.0245,-3.5314 L -53.1147,-3.58372 L -53.2018,-3.63869
 L -53.286,-3.69627 L -53.3671,-3.7565 L -53.4453,-3.81935 L -53.5204,-3.88484 L -53.5924,-3.95296 L -53.6615,-4.02371
 L -53.7275,-4.09709 L -53.7906,-4.17329 L -53.8509,-4.25237 L -53.9084,-4.33429 L -53.9632,-4.41908 L -54.015,-4.50673
 L -54.0641,-4.59723 L -54.1104,-4.6906 L -54.1539,-4.7868 L -54.1946,-4.88589 L -54.2325,-4.98782 L -54.2675,-5.09262
 L -54.2998,-5.20027 L -54.3292,-5.31078 L -54.3559,-5.42415 L -54.3797,-5.54037 L -54.4008,-5.65945 L -54.419,-5.7814
 L -54.4344,-5.9062 L -54.4471,-6.03386 L -54.4569,-6.16438 L -54.4639,-6.29776 L -54.4681,-6.43399 L -54.4695,-6.57309
 L -52.1665,-6.69109 L -51.9517,-5.86736 L -51.9,-5.71632 L -51.8404,-5.58134 L -51.7847,-5.48114 L -51.7235,-5.39209
 L -51.6682,-5.32874 L -51.6053,-5.27156 L -51.5348,-5.22055 L -51.4566,-5.1757 L -51.3708,-5.13704 L -51.2522,-5.09695
 L -51.085,-5.05562 L -50.8531,-5.01514 L -50.5395,-4.97908 L -50.5395,-3.04608 z
M -0.984512,-3.04608 L -1.12155,-3.04877 L -1.577,-3.09058 L -1.70647,-3.1087 L -1.83292,-3.12946 L -1.95634,-3.15283
 L -2.07675,-3.17885 L -2.19414,-3.20749 L -2.3085,-3.23877 L -2.41985,-3.27267 L -2.52817,-3.30922 L -2.63347,-3.34839
 L -2.73575,-3.3902 L -2.83501,-3.43463 L -2.93124,-3.4817 L -3.02448,-3.5314 L -3.11467,-3.58372 L -3.20184,-3.63869
 L -3.28601,-3.69627 L -3.36714,-3.7565 L -3.44525,-3.81935 L -3.52036,-3.88484 L -3.59242,-3.95296 L -3.66147,-4.02371
 L -3.72751,-4.09709 L -3.79063,-4.17329 L -3.85094,-4.25237 L -3.90845,-4.33429 L -3.96315,-4.41908 L -4.01505,-4.50673
 L -4.06415,-4.59723 L -4.11043,-4.6906 L -4.15392,-4.7868 L -4.1946,-4.88589 L -4.23247,-4.98782 L -4.26753,-5.09262
 L -4.29979,-5.20027 L -4.32924,-5.31078 L -4.3559,-5.42415 L -4.37975,-5.54037 L -4.40077,-5.65945 L -4.41901,-5.7814
 L -4.43445,-5.9062 L -4.44707,-6.03386 L -4.45688,-6.16438 L -4.4639,-6.29776 L -4.46811,-6.43399 L -4.46951,-6.57309
 L -2.1665,-6.69109 L -1.95166,-5.86736 L -1.89996,-5.71632 L -1.84036,-5.58134 L -1.78468,-5.48114 L -1.72351,-5.39209
 L -1.66821,-5.32874 L -1.6053,-5.27156 L -1.53477,-5.22055 L -1.45662,-5.1757 L -1.37085,-5.13704 L -1.25224,-5.09695
 L -1.08501,-5.05562 L -0.853088,-5.01514 L -0.539505,-4.97908 L -0.539505,-3.04608 z
M 49.5349,-3.27083 L 49.5349,-5.19084 L 53.7589,-5.19084 L 53.7589,-3.27083 z
M 16.2015,-3.27083 L 16.2015,-5.19084 L 20.4255,-5.19084 L 20.4255,-3.27083 z
M 83.1226,-3.27083 L 83.1226,-5.19084 L 86.8985,-5.19084 L 86.8985,-3.27083 z
" stroke="black" fill="lightgray" stroke-width="0.5"/></svg>
