<?xml version="1.0" standalone="no"?>
<!DOCTYPE svg PUBLIC "-//W3C//DTD SVG 1.1//EN" "http://www.w3.org/Graphics/SVG/1.1/DTD/svg11.dtd">
<svg width="218" height="29" viewBox="-109 -13 218 29" xmlns="http://www.w3.org/2000/svg" version="1.1">
<title>OpenSCAD Model</title>
<path d="
M -89.1667,13 L -84.8333,13 L -84.8333,-0 L -81.8333,-0 L -81.8333,13 L -68.1667,13
 L -68.1667,-0 L -65.1667,-0 L -65.1667,13 L -51.5,13 L -51.5,-0 L -48.5,-0
 L -48.5,13 L -34.8333,13 L -34.8333,-0 L -31.8333,-0 L -31.8333,13 L -18.1667,13
 L -18.1667,-0 L -15.1667,-0 L -15.1667,13 L -1.49998,13 L -1.49998,-0 L 1.5,-0
 L 1.5,13 L 15.1667,13 L 15.1667,-0 L 18.1667,-0 L 18.1667,13 L 31.8333,13
 L 31.8333,-0 L 34.8333,-0 L 34.8333,13 L 48.5,13 L 48.5,-0 L 51.5,-0
 L 51.5,13 L 65.1667,13 L 65.1667,-0 L 68.1667,-0 L 68.1667,13 L 81.8333,13
 L 81.8333,-0 L 84.8333,-0 L 84.8333,13 L 89.1667,13 L 89.1667,15.5 L 94.1667,15.5
 L 94.1667,13 L 108.5,13 L 108.5,-13 L -108.5,-13 L -108.5,13 L -94.1667,13
 L -94.1667,15.5 L -89.1667,15.5 z
" stroke="black" fill="lightgray" stroke-width="0.5"/></svg>
